<?xml version="1.0" standalone="no"?>
<!DOCTYPE svg PUBLIC "-//W3C//DTD SVG 20010904//EN"
 "http://www.w3.org/TR/2001/REC-SVG-20010904/DTD/svg10.dtd">
<svg version="1.0" xmlns="http://www.w3.org/2000/svg"
 width="8334.000000pt" height="8334.000000pt" viewBox="0 0 8334.000000 8334.000000"
 preserveAspectRatio="xMidYMid meet">
<metadata>
Created by potrace 1.16, written by Peter Selinger 2001-2019
</metadata>
<g transform="translate(0.000000,8334.000000) scale(0.100000,-0.100000)"
fill="#000000" stroke="none">
<path d="M16648 47849 c-248 -29 -514 -136 -740 -299 -92 -66 -264 -242 -335
-343 -432 -613 -374 -1440 138 -1981 218 -231 501 -388 823 -458 86 -19 132
-22 311 -22 237 0 325 13 516 80 805 278 1233 1158 962 1974 -137 412 -455
758 -857 932 -243 106 -542 148 -818 117z"/>
<path d="M21475 47850 c-169 -17 -398 -91 -560 -180 -192 -106 -410 -300 -532
-473 -81 -115 -174 -300 -217 -429 -87 -261 -91 -626 -11 -902 61 -211 145
-367 308 -577 57 -74 123 -164 145 -201 182 -298 272 -629 272 -1001 0 -238
-31 -436 -101 -651 -66 -203 -143 -339 -306 -541 -110 -137 -166 -222 -223
-340 -179 -371 -206 -788 -75 -1181 54 -163 155 -349 260 -479 122 -150 258
-410 330 -628 85 -261 115 -469 115 -807 0 -359 -34 -522 -165 -785 -215 -432
-621 -740 -1102 -836 -140 -27 -421 -37 -588 -19 -578 59 -1073 431 -1292 972
-90 221 -113 359 -113 688 0 330 24 491 112 755 82 247 187 448 373 715 206
296 296 575 297 920 1 438 -161 815 -485 1127 -213 205 -464 339 -758 405 -92
20 -129 23 -319 23 -236 -1 -316 -13 -499 -74 -391 -131 -739 -443 -911 -816
-200 -433 -193 -940 18 -1360 49 -98 90 -162 192 -300 235 -318 379 -693 421
-1101 18 -177 7 -630 -19 -779 -66 -373 -197 -686 -401 -955 -142 -188 -215
-321 -275 -501 -243 -730 78 -1528 756 -1879 131 -68 306 -129 448 -156 131
-24 417 -25 550 -1 223 41 465 147 662 290 344 249 677 390 1068 452 142 23
539 31 696 16 404 -41 839 -211 1148 -446 159 -122 299 -197 475 -255 316
-106 674 -105 995 2 518 172 921 619 1037 1148 106 487 -31 1003 -364 1376
-184 206 -343 614 -391 1000 -67 543 8 1053 219 1475 57 115 128 226 255 399
115 157 193 324 244 520 41 155 49 244 43 448 -6 201 -25 314 -82 472 -42 118
-139 296 -216 400 -307 411 -447 752 -478 1162 -29 388 83 734 336 1039 199
241 509 425 821 488 270 55 673 55 964 1 365 -69 628 -189 1068 -489 157 -108
350 -189 554 -233 86 -19 132 -22 311 -22 232 0 315 12 498 75 395 135 740
445 918 824 202 429 192 938 -27 1365 -77 152 -161 267 -284 390 -155 155
-301 254 -494 336 -379 161 -815 164 -1202 8 -121 -48 -240 -118 -386 -226
-221 -163 -384 -248 -628 -328 -160 -53 -346 -93 -514 -109 -141 -14 -518 -14
-644 0 -357 39 -699 176 -1081 433 -110 75 -241 156 -292 181 -111 56 -268
110 -397 136 -114 23 -345 32 -477 19z"/>
<path d="M33045 47045 c-181 -40 -325 -168 -387 -345 -20 -57 -23 -84 -23
-215 1 -136 3 -157 27 -222 86 -240 299 -366 588 -350 188 11 300 57 411 167
108 107 153 227 153 405 0 172 -43 291 -146 401 -71 76 -181 136 -293 159 -86
18 -249 18 -330 0z"/>
<path d="M64500 44350 l0 -2670 520 0 520 0 0 1021 c0 1110 1 1138 56 1306 40
122 87 198 183 293 65 64 105 95 161 122 122 60 184 72 355 72 136 0 158 -3
230 -27 226 -75 374 -228 456 -472 l24 -70 3 -1122 2 -1123 520 0 520 0 0
1148 c0 691 -4 1191 -10 1257 -40 433 -182 760 -444 1020 -273 271 -566 388
-976 389 -298 1 -451 -45 -758 -229 -131 -79 -183 -120 -259 -208 l-58 -68 -3
1015 -2 1016 -520 0 -520 0 0 -2670z"/>
<path d="M53810 46145 c0 -242 -4 -404 -11 -437 -29 -137 -130 -272 -246 -326
-57 -26 -63 -27 -280 -30 l-223 -3 0 -465 0 -464 325 0 324 0 4 -902 c3 -798
6 -913 21 -988 105 -529 367 -805 851 -896 137 -26 524 -26 665 -1 97 18 253
57 303 76 l27 11 0 445 c0 245 -2 445 -4 445 -2 0 -33 -11 -70 -25 -82 -31
-216 -55 -305 -55 -161 0 -305 72 -383 192 -71 108 -68 66 -68 925 l0 773 380
0 380 0 0 465 0 465 -380 0 -380 0 0 590 0 590 -465 0 -465 0 0 -385z"/>
<path d="M36658 45485 c-168 -27 -353 -104 -556 -230 -123 -76 -179 -122 -251
-205 l-61 -71 0 226 0 225 -515 0 -515 0 0 -1875 0 -1875 515 0 515 0 0 989
c0 620 4 1027 11 1092 38 383 226 632 539 716 90 25 319 25 410 0 118 -31 207
-83 301 -177 99 -98 145 -173 186 -305 l28 -90 3 -1112 3 -1113 520 0 520 0
-4 1203 c-4 1297 -2 1261 -58 1500 -87 374 -301 693 -600 895 -125 84 -300
155 -474 192 -133 28 -394 35 -517 15z"/>
<path d="M40816 45489 c-587 -62 -1128 -410 -1480 -951 -289 -445 -362 -1049
-190 -1568 212 -640 828 -1188 1481 -1319 735 -148 1433 95 1928 672 263 305
409 628 455 1009 16 128 8 432 -15 558 -106 588 -539 1142 -1110 1420 -320
156 -694 219 -1069 179z m369 -964 c357 -63 660 -367 742 -746 13 -62 18 -124
17 -239 -1 -133 -5 -169 -27 -254 -62 -231 -203 -433 -397 -566 -80 -54 -147
-86 -247 -116 -78 -24 -105 -27 -233 -27 -128 0 -155 3 -233 27 -383 116 -648
464 -673 884 -18 305 82 577 292 786 211 211 478 300 759 251z"/>
<path d="M49010 45489 c-256 -31 -573 -136 -766 -253 -188 -115 -419 -319
-502 -444 -15 -23 -11 -28 269 -308 156 -156 287 -284 290 -284 4 0 38 32 76
71 203 211 549 331 861 299 113 -12 184 -31 262 -70 129 -65 221 -170 260
-297 21 -68 27 -153 10 -153 -16 0 -1179 -209 -1255 -225 -507 -111 -867 -419
-981 -840 -25 -92 -28 -115 -28 -295 0 -183 2 -200 27 -281 53 -174 120 -290
241 -417 173 -182 383 -295 660 -354 139 -30 459 -32 584 -5 249 55 540 198
684 335 l78 75 0 -182 0 -181 520 0 521 0 -4 1273 c-4 1404 0 1320 -68 1534
-162 507 -613 885 -1175 984 -136 23 -442 34 -564 18z m767 -2251 c-6 -179
-26 -272 -86 -393 -87 -175 -226 -295 -416 -355 -87 -28 -306 -39 -411 -21
-226 40 -334 172 -322 393 9 151 73 250 205 317 32 16 76 34 98 41 47 14 879
168 914 169 l24 1 -6 -152z"/>
<path d="M57621 45489 c-491 -52 -939 -298 -1279 -704 -310 -369 -459 -815
-439 -1310 16 -391 125 -715 345 -1024 76 -107 271 -314 379 -403 378 -309
818 -452 1338 -435 259 9 444 41 696 123 211 68 386 163 614 334 153 116 221
181 209 202 -14 24 -525 678 -529 678 -3 0 -44 -41 -92 -91 -95 -99 -171 -153
-308 -222 -204 -101 -366 -140 -590 -140 -310 -1 -532 80 -729 264 -75 70
-168 197 -201 274 -18 41 -55 154 -55 168 0 4 607 7 1349 7 l1350 0 5 53 c31
275 37 403 26 535 -44 557 -282 999 -720 1339 -251 194 -572 317 -919 353
-119 12 -329 11 -450 -1z m385 -890 c250 -44 461 -195 581 -416 39 -71 99
-231 90 -239 -2 -2 -385 -3 -850 -2 l-846 3 33 81 c124 309 377 524 674 574
70 12 250 11 318 -1z"/>
<path d="M62000 45485 c-407 -53 -751 -207 -1066 -478 -350 -302 -573 -666
-660 -1081 -31 -149 -43 -427 -25 -581 51 -434 234 -799 565 -1131 351 -351
763 -548 1241 -595 145 -14 396 -7 520 15 280 50 582 173 790 321 130 93 307
256 372 341 l55 73 -24 29 c-52 66 -584 622 -593 622 -5 -1 -32 -30 -60 -66
-92 -120 -226 -225 -400 -312 -402 -200 -837 -127 -1143 192 -160 167 -247
339 -282 559 -17 106 -8 319 19 419 77 293 277 538 545 668 116 56 186 76 315
89 222 23 427 -34 658 -185 147 -95 191 -138 310 -304 5 -6 653 643 653 655
-1 24 -125 167 -211 243 -108 96 -282 225 -383 284 -152 89 -390 173 -596 209
-149 27 -450 34 -600 14z"/>
<path d="M32700 43555 l0 -1875 520 0 520 0 0 1875 0 1875 -520 0 -520 0 0
-1875z"/>
<path d="M43322 45411 c2 -10 318 -854 703 -1875 l700 -1856 539 3 539 2 698
1855 c385 1020 702 1863 705 1873 5 16 -25 17 -533 17 l-538 0 -435 -1229
c-239 -676 -437 -1227 -439 -1225 -3 2 -199 554 -436 1227 l-431 1222 -538 3
c-522 2 -537 2 -534 -17z"/>
<path d="M34970 39675 l0 -715 109 0 110 0 3 45 3 44 50 -33 c28 -18 70 -41
95 -50 58 -23 182 -32 249 -17 163 35 310 172 361 339 24 76 27 230 6 307 -30
112 -115 229 -213 295 -142 93 -336 92 -495 -4 l-58 -35 0 270 0 269 -110 0
-110 0 0 -715z m580 79 c73 -22 158 -106 188 -187 47 -125 19 -252 -78 -349
-43 -43 -69 -60 -110 -72 -67 -20 -83 -20 -150 0 -42 12 -67 29 -115 77 -72
73 -95 127 -95 227 0 91 23 150 83 216 89 97 165 121 277 88z"/>
<path d="M49490 40120 l0 -271 -52 36 c-145 98 -350 100 -498 5 -100 -64 -179
-171 -214 -289 -23 -79 -21 -232 4 -313 51 -167 198 -304 361 -339 109 -24
247 4 352 71 l47 30 0 -45 0 -45 110 0 110 0 0 715 0 715 -110 0 -110 0 0
-270z m-173 -379 c56 -28 138 -121 157 -177 21 -61 20 -167 -1 -229 -25 -74
-121 -168 -192 -189 -68 -20 -84 -20 -151 0 -74 22 -158 106 -189 189 -32 85
-26 189 14 264 37 68 114 137 174 156 58 19 136 13 188 -14z"/>
<path d="M43530 40357 c-52 -18 -83 -70 -77 -130 5 -53 26 -83 74 -103 42 -18
67 -18 109 2 42 20 64 59 64 114 0 94 -80 149 -170 117z"/>
<path d="M44150 40146 c0 -62 -5 -127 -11 -145 -15 -42 -55 -61 -129 -61 l-60
0 0 -95 0 -95 90 0 90 0 0 -285 c0 -167 4 -305 11 -335 14 -68 62 -129 124
-160 44 -22 63 -25 155 -25 58 0 113 3 123 7 14 6 17 21 17 103 l0 97 -32 -9
c-18 -4 -52 -8 -76 -8 -34 0 -48 7 -75 33 l-32 32 -3 275 -3 275 101 0 100 0
0 95 0 95 -100 0 -100 0 0 160 0 160 -95 0 -95 0 0 -114z"/>
<path d="M33069 39945 c-80 -22 -141 -58 -215 -127 -174 -165 -214 -400 -103
-609 38 -71 146 -177 216 -213 184 -93 400 -67 565 68 91 74 91 77 17 152 -35
35 -67 64 -71 64 -4 0 -28 -21 -53 -46 -85 -85 -198 -119 -298 -90 -161 47
-260 229 -212 391 32 112 108 191 213 221 96 28 208 -5 294 -87 23 -21 44 -39
47 -39 4 0 35 29 70 64 55 56 62 66 52 84 -29 54 -168 142 -265 168 -63 17
-195 17 -257 -1z"/>
<path d="M36551 39944 c-160 -43 -304 -188 -347 -348 -16 -60 -18 -202 -3
-266 30 -132 146 -277 269 -337 203 -99 457 -53 623 113 l38 38 -70 70 -71 70
-42 -42 c-23 -23 -71 -57 -107 -75 -149 -73 -325 -22 -405 117 -13 22 -27 51
-31 64 l-6 22 379 0 380 0 6 73 c22 230 -123 445 -339 501 -73 20 -202 20
-274 0z m273 -202 c52 -29 104 -92 124 -151 l11 -31 -274 0 -275 0 10 25 c32
85 95 149 172 177 74 26 163 19 232 -20z"/>
<path d="M37825 39946 c-51 -16 -101 -42 -142 -73 l-33 -24 0 45 0 46 -105 0
-105 0 0 -490 0 -490 104 0 105 0 3 308 c3 296 4 309 26 357 48 105 108 140
235 139 l87 0 0 98 0 98 -67 -1 c-38 0 -86 -6 -108 -13z"/>
<path d="M38395 39947 c-145 -48 -225 -148 -225 -279 0 -154 63 -214 307 -293
149 -49 182 -73 183 -132 0 -70 -85 -122 -179 -109 -58 8 -138 45 -185 86
l-37 33 -65 -64 c-35 -35 -64 -69 -64 -75 0 -21 93 -96 155 -125 181 -86 406
-56 515 67 52 60 70 109 70 194 0 161 -64 221 -321 301 -160 49 -209 114 -139
179 58 54 149 50 244 -10 l49 -31 63 62 c35 35 64 69 64 75 0 19 -71 71 -136
101 -48 22 -76 27 -159 30 -64 2 -114 -2 -140 -10z"/>
<path d="M39451 39944 c-134 -36 -256 -140 -318 -270 -34 -72 -37 -85 -41
-190 -4 -94 -1 -124 17 -182 39 -131 141 -250 265 -311 198 -96 456 -49 613
111 l43 44 -70 69 -69 69 -51 -48 c-74 -70 -147 -100 -240 -100 -85 -1 -142
20 -203 74 -38 33 -79 95 -92 138 l-6 22 379 0 379 0 7 74 c8 94 -12 195 -55
277 -57 107 -181 201 -300 228 -63 15 -195 12 -258 -5z m251 -190 c62 -31 89
-56 118 -107 53 -92 68 -87 -240 -87 -148 0 -270 2 -270 5 0 20 55 107 88 139
76 73 215 96 304 50z"/>
<path d="M40667 39949 c-148 -35 -294 -165 -358 -319 -20 -47 -23 -72 -23
-180 0 -107 3 -133 22 -179 50 -118 144 -221 254 -275 200 -101 427 -61 597
104 l43 42 -70 71 -71 70 -43 -45 c-100 -102 -235 -131 -350 -75 -65 32 -121
90 -152 156 -16 35 -21 66 -21 131 0 73 4 93 28 142 30 62 83 115 149 150 33
17 60 22 113 23 84 0 164 -34 228 -98 l39 -39 70 69 70 70 -49 49 c-55 55
-140 104 -222 128 -59 17 -191 20 -254 5z"/>
<path d="M43060 39937 c-36 -12 -83 -35 -105 -50 l-40 -27 -3 40 -3 40 -110 0
-109 0 0 -490 0 -490 110 0 109 0 3 318 c3 289 5 320 22 356 47 94 144 144
258 132 l58 -6 0 100 0 100 -62 0 c-39 0 -88 -9 -128 -23z"/>
<path d="M46660 39946 c-75 -22 -112 -41 -178 -91 -93 -70 -93 -70 -11 -151
l69 -69 30 37 c59 72 188 113 278 89 56 -15 119 -72 132 -119 5 -20 6 -39 2
-43 -4 -3 -95 -20 -202 -38 -208 -35 -271 -56 -334 -111 -62 -55 -90 -121 -90
-215 -1 -70 3 -86 26 -126 109 -185 385 -225 576 -82 l32 24 0 -45 0 -46 105
0 106 0 -3 368 c-3 362 -3 368 -26 414 -39 78 -96 134 -178 175 -70 34 -82 37
-182 39 -68 2 -123 -1 -152 -10z m326 -578 c-16 -124 -83 -205 -191 -229 -162
-36 -289 77 -205 184 27 35 60 46 216 72 200 34 188 36 180 -27z"/>
<path d="M47900 39937 c-36 -12 -83 -35 -105 -50 l-40 -27 -3 40 -3 40 -110 0
-109 0 0 -490 0 -490 109 0 110 0 3 318 c3 303 4 319 25 358 64 120 203 165
321 105 48 -25 76 -55 101 -111 19 -42 21 -65 21 -357 l0 -313 105 0 105 0 0
333 c0 350 -4 389 -48 472 -87 164 -292 237 -482 172z"/>
<path d="M33740 39936 c0 -3 88 -221 195 -485 107 -263 195 -485 195 -492 0
-7 -18 -50 -40 -95 -51 -105 -81 -129 -165 -129 -33 0 -70 4 -82 8 -23 8 -23
8 -23 -92 l0 -100 48 -7 c187 -30 288 21 379 194 34 63 473 1124 490 1185 5
16 -3 17 -107 15 l-113 -3 -136 -337 c-74 -186 -138 -338 -141 -338 -4 0 -67
152 -141 338 l-135 337 -112 3 c-62 1 -112 0 -112 -2z"/>
<path d="M41450 39620 c0 -198 4 -339 11 -372 15 -68 50 -138 96 -189 131
-145 380 -160 551 -32 l32 24 0 -45 0 -46 105 0 105 0 0 490 0 490 -104 0
-104 0 -4 -307 -3 -308 -29 -58 c-33 -69 -84 -110 -157 -127 -87 -21 -159 0
-224 67 -60 61 -65 97 -65 435 l0 298 -105 0 -105 0 0 -320z"/>
<path d="M43470 39450 l0 -490 105 0 105 0 0 490 0 490 -105 0 -105 0 0 -490z"/>
<path d="M44745 39903 c9 -21 97 -238 197 -483 99 -245 182 -448 184 -451 6
-10 -65 -162 -88 -186 -13 -14 -35 -31 -50 -39 -31 -16 -105 -18 -142 -4 l-26
10 0 -99 0 -99 32 -8 c18 -3 67 -7 108 -7 130 0 206 55 283 201 27 50 388 923
488 1180 l9 22 -113 0 -113 0 -139 -346 c-81 -204 -141 -341 -145 -333 -4 8
-67 164 -140 347 l-133 332 -114 0 -113 0 15 -37z"/>
<path d="M26300 38593 c-666 -87 -1200 -572 -1339 -1217 -93 -430 -1 -884 252
-1243 108 -153 314 -343 467 -431 l35 -20 1160 694 c638 383 1163 698 1167
702 3 4 2 50 -3 102 -64 689 -558 1244 -1237 1391 -74 16 -142 21 -282 24
-102 2 -201 1 -220 -2z"/>
<path d="M37142 37962 c-125 -45 -172 -144 -172 -364 l0 -88 -70 0 -70 0 0
-95 0 -95 70 0 70 0 0 -395 0 -395 110 0 110 0 0 395 0 395 110 0 110 0 0 95
0 95 -110 0 -110 0 0 98 c0 78 4 103 19 128 27 44 76 59 142 45 27 -6 52 -11
54 -11 3 0 5 42 5 94 0 111 5 106 -125 112 -71 4 -101 1 -143 -14z"/>
<path d="M32820 37245 l0 -715 115 0 115 0 0 715 0 715 -115 0 -115 0 0 -715z"/>
<path d="M33350 37855 l0 -105 210 0 210 0 0 -610 0 -610 115 0 115 0 0 610 0
610 215 0 215 0 0 105 0 105 -540 0 -540 0 0 -105z"/>
<path d="M35160 37918 c-50 -34 -68 -93 -46 -151 19 -52 58 -77 118 -77 90 0
145 72 120 158 -17 55 -52 84 -109 89 -39 4 -55 0 -83 -19z"/>
<path d="M40610 37715 c0 -149 -10 -179 -68 -194 -20 -6 -58 -11 -84 -11 l-48
0 0 -95 0 -95 89 0 90 0 4 -302 c2 -223 7 -313 17 -341 21 -58 83 -123 138
-144 50 -19 176 -24 245 -10 l37 8 0 94 0 94 -78 -6 c-77 -6 -78 -5 -109 25
-16 17 -33 45 -37 63 -3 17 -6 141 -6 275 l0 244 105 0 105 0 0 95 0 95 -105
0 -105 0 0 165 0 165 -95 0 -95 0 0 -125z"/>
<path d="M44560 37715 c0 -178 -19 -205 -146 -205 l-54 0 0 -95 0 -95 89 0 89
0 4 -302 c3 -292 4 -305 27 -355 29 -65 86 -118 143 -134 49 -14 175 -17 231
-6 l37 8 0 94 0 94 -65 -6 c-78 -7 -119 7 -143 51 -15 26 -17 69 -20 294 l-3
262 105 0 106 0 0 95 0 95 -105 0 -105 0 0 165 0 165 -95 0 -95 0 0 -125z"/>
<path d="M36117 37529 c-65 -9 -135 -38 -183 -74 -18 -14 -35 -25 -38 -25 -3
0 -6 18 -6 40 l0 40 -105 0 -105 0 0 -490 0 -490 104 0 104 0 4 308 c3 299 4
308 27 360 90 201 374 186 436 -22 12 -39 15 -114 15 -348 l0 -298 105 0 105
0 0 319 c0 175 -5 343 -10 372 -27 145 -134 264 -265 297 -64 16 -126 20 -188
11z"/>
<path d="M38097 37529 c-65 -10 -136 -38 -183 -74 -18 -14 -35 -25 -38 -25 -3
0 -6 18 -6 40 l0 40 -105 0 -105 0 0 -490 0 -490 104 0 104 0 4 308 c3 299 4
308 27 360 45 101 132 148 256 140 l65 -4 0 103 0 103 -32 -1 c-18 -1 -59 -5
-91 -10z"/>
<path d="M38735 37529 c-112 -14 -203 -60 -280 -139 l-39 -40 69 -70 69 -70
37 39 c52 54 120 85 200 89 73 4 124 -14 167 -61 20 -21 55 -97 48 -104 -1 -1
-94 -18 -206 -38 -273 -48 -335 -77 -395 -186 -21 -40 -29 -70 -33 -124 -6
-93 21 -157 90 -220 71 -63 142 -88 253 -88 100 0 168 20 247 73 l43 29 3 -44
3 -45 105 0 105 0 -3 363 -3 362 -33 67 c-77 156 -245 234 -447 207z m269
-581 c-13 -105 -63 -184 -139 -219 -52 -24 -163 -25 -212 -2 -37 17 -73 65
-73 96 0 34 30 83 62 101 23 14 223 56 361 75 4 1 5 -23 1 -51z"/>
<path d="M39788 37529 c-153 -22 -278 -148 -278 -281 0 -68 21 -126 61 -172
44 -50 103 -80 243 -125 54 -17 110 -38 125 -45 72 -38 86 -106 32 -160 -28
-28 -38 -31 -105 -34 -63 -4 -83 0 -129 21 -30 13 -72 41 -94 60 l-39 36 -68
-68 c-77 -78 -77 -80 0 -142 137 -111 357 -138 511 -63 179 87 230 329 96 457
-33 31 -149 82 -263 116 -135 41 -179 86 -145 151 41 79 197 78 283 -3 l23
-21 71 71 c81 81 81 79 -6 137 -84 56 -205 81 -318 65z"/>
<path d="M41756 37529 c-59 -9 -134 -39 -193 -79 l-33 -22 0 41 0 41 -105 0
-105 0 0 -490 0 -490 104 0 105 0 3 313 c3 302 4 313 26 359 30 60 90 114 144
129 24 6 73 9 111 6 l67 -4 0 103 0 104 -32 -1 c-18 -1 -59 -5 -92 -10z"/>
<path d="M43700 37529 c-190 -24 -379 -203 -419 -397 -24 -117 -7 -245 47
-346 37 -71 154 -185 225 -219 187 -91 399 -63 562 73 88 74 88 72 9 151 l-68
69 -46 -46 c-130 -134 -315 -139 -437 -13 -63 66 -87 127 -88 224 0 68 4 89
28 137 97 197 323 235 488 81 l45 -42 69 69 69 70 -34 36 c-111 117 -281 174
-450 153z"/>
<path d="M46955 37530 c-69 -11 -127 -34 -180 -70 l-45 -31 0 41 0 40 -110 0
-110 0 0 -490 0 -490 110 0 110 0 0 304 c0 329 3 354 57 424 14 20 49 45 80
59 46 21 66 25 129 21 l74 -3 0 102 0 103 -32 -1 c-18 -1 -55 -5 -83 -9z"/>
<path d="M47646 37529 c-148 -16 -305 -131 -374 -272 -95 -193 -54 -437 101
-592 197 -197 495 -203 722 -16 77 63 77 64 -1 142 l-68 68 -41 -43 c-23 -23
-68 -56 -101 -72 -53 -26 -69 -29 -154 -29 -85 0 -100 3 -142 27 -60 36 -123
108 -142 164 l-15 44 378 0 379 0 6 23 c9 35 7 157 -5 206 -54 236 -277 380
-543 350z m189 -203 c74 -34 134 -102 150 -168 l7 -28 -271 0 c-180 0 -271 3
-271 10 0 45 78 148 134 177 79 41 177 44 251 9z"/>
<path d="M35120 37020 l0 -490 110 0 110 0 0 490 0 490 -110 0 -110 0 0 -490z"/>
<path d="M42090 37183 c0 -181 5 -347 10 -371 15 -64 47 -126 91 -176 126
-143 374 -164 538 -46 l41 30 0 -45 0 -45 110 0 110 0 0 490 0 490 -109 0
-110 0 -3 -317 c-3 -304 -4 -320 -25 -358 -27 -51 -68 -90 -115 -109 -49 -21
-150 -21 -194 0 -47 22 -110 95 -123 140 -7 24 -11 157 -11 342 l0 302 -105 0
-105 0 0 -327z"/>
<path d="M45270 37194 c0 -363 7 -415 69 -511 58 -91 139 -143 251 -163 110
-20 233 7 324 69 l46 32 0 -46 0 -45 105 0 105 0 0 490 0 490 -104 0 -104 0
-4 -307 c-4 -340 -6 -353 -71 -422 -46 -48 -101 -71 -175 -71 -74 0 -124 22
-170 74 -56 64 -62 106 -62 433 l0 293 -105 0 -105 0 0 -316z"/>
</g>
</svg>
