<?xml version="1.0" encoding="utf-8"?>
<!-- Generator: Adobe Illustrator 24.1.3, SVG Export Plug-In . SVG Version: 6.00 Build 0)  -->
<svg version="1.1" id="Layer_1" xmlns="http://www.w3.org/2000/svg" xmlns:xlink="http://www.w3.org/1999/xlink" x="0px" y="0px"
	 viewBox="0 0 624 200" style="enable-background:new 0 0 624 200;" xml:space="preserve">
<style type="text/css">
	.st0{fill:#FFFFFF;}
</style>
<g>
	<g>
		<circle class="st0" cx="21.9" cy="46.8" r="18.1"/>
		<circle class="st0" cx="134" cy="154.4" r="18.1"/>
		<path class="st0" d="M134,28.7c-4.2,0-8.1,1.4-11.2,3.9c-4.6,3.6-10.3,5.3-16.2,5.3h-2.5c-5.7,0-11-2.3-15.6-5.7
			c-0.2-0.1-0.3-0.2-0.5-0.3c-0.1-0.1-0.3-0.2-0.4-0.3c-0.4-0.2-0.7-0.4-1.1-0.7c-0.1-0.1-0.2-0.1-0.3-0.2c-0.5-0.3-1-0.5-1.5-0.7
			c-0.1,0-0.2-0.1-0.3-0.1c-0.4-0.2-0.8-0.3-1.3-0.4c-0.2-0.1-0.4-0.1-0.5-0.1c-0.4-0.1-0.7-0.2-1.1-0.3C81.2,29,81,29,80.8,29
			c-0.4-0.1-0.8-0.1-1.2-0.2c-0.2,0-0.3,0-0.5-0.1c-0.6,0-1.1-0.1-1.7,0c0,0,0,0-0.1,0c-0.2,0-0.5,0-0.7,0c-0.4,0-0.7,0-1.1,0.1
			c-0.1,0-0.2,0-0.2,0c-1,0.1-1.9,0.4-2.9,0.7c-0.3,0.1-0.6,0.2-0.9,0.3c-0.1,0-0.2,0.1-0.2,0.1c-4.2,1.6-7.6,4.8-9.7,8.8
			c-0.7,1.4-1.3,2.9-1.6,4.5c0,0.2-0.1,0.4-0.1,0.6c-0.1,0.3-0.1,0.7-0.1,1c0,0.3-0.1,0.5-0.1,0.8c0,0.1,0,0.2,0,0.4
			c0,0.3,0,0.6,0,0.9c0,0.3,0,0.5,0,0.8c0,0.4,0.1,0.8,0.1,1.3c0,0.2,0,0.5,0.1,0.7c0.1,0.5,0.2,1.1,0.3,1.6c0,0.1,0,0.2,0.1,0.3
			c0.2,0.6,0.4,1.2,0.6,1.9c0,0.1,0,0.1,0.1,0.1c0.2,0.5,0.5,1.1,0.7,1.6c0.1,0.1,0.1,0.2,0.2,0.3c0.2,0.4,0.5,0.9,0.8,1.3
			c0.1,0.1,0.2,0.2,0.3,0.4c0.3,0.4,0.6,0.8,0.9,1.2c0,0,0.1,0.1,0.1,0.1c5.2,6.1,6.1,15.2,3.3,22.8c-0.8,2-2,3.7-3.3,5.4
			c-2.6,3.1-4.2,7.2-4.2,11.6c0,4.2,1.4,8.1,3.9,11.2c3.6,4.6,5.3,10.3,5.3,16.2v1.8c0,0.1,0,0.1,0,0.2c-0.1,9.8-8.2,17.9-18,17.9
			c-0.1,0-0.1,0-0.2,0h-1.8c-0.1,0-0.1,0-0.2,0c-9.8-0.1-17.8-8.2-17.9-18c0-0.1,0-0.3,0-0.4l0-1.8c0-5.9,2.2-11.5,5.7-16.3
			c2.3-3.1,3.6-6.9,3.5-11.1c-0.2-9.4-7.9-17.3-17.4-17.7C12.3,79.8,3.8,88,3.8,98.2c0,4.2,1.4,8.1,3.9,11.2
			c3.6,4.6,5.3,10.3,5.3,16.2v1.5c0,5.8-1.7,11.6-5.3,16.1c-1.9,2.4-3.2,5.4-3.7,8.6c0,0.1,0,0.3,0,0.4c0,0.4-0.1,0.8-0.1,1.2
			c0,0.1,0,0.1,0,0.2c0,0.1,0,0.3,0,0.4c0,0.2,0,0.5,0,0.7c0,0.1,0,0.3,0,0.4c0,0.3,0,0.6,0.1,0.9c0,0.3,0.1,0.6,0.1,0.8
			c0.1,0.4,0.1,0.7,0.2,1.1c0,0.1,0.1,0.3,0.1,0.4c1.5,6.6,6.6,11.8,13.2,13.5c0.1,0,0.2,0.1,0.3,0.1c0.4,0.1,0.7,0.1,1.1,0.2
			c0.3,0,0.5,0.1,0.8,0.1c0.3,0,0.6,0.1,0.9,0.1c0.2,0,0.4,0,0.6,0.1c0.1,0,0.2,0,0.4,0c0.1,0,0.2,0,0.4,0c0.3,0,0.5,0,0.8,0
			c0.2,0,0.4,0,0.6,0c0.5,0,1-0.1,1.5-0.2c0.1,0,0.1,0,0.2,0c0.6-0.1,1.1-0.2,1.6-0.4c0.2-0.1,0.4-0.1,0.6-0.2
			c0.3-0.1,0.7-0.2,1-0.3c0.2-0.1,0.5-0.2,0.7-0.3c0.3-0.1,0.6-0.2,0.8-0.4c0.2-0.1,0.5-0.2,0.7-0.4c0.2-0.1,0.5-0.3,0.7-0.4
			c0.2-0.1,0.5-0.3,0.7-0.4c0.2-0.1,0.3-0.2,0.5-0.4c0.2-0.2,0.5-0.3,0.7-0.5c4.7-3.5,10.4-5.4,16.2-5.4h1.8
			c5.4,0,10.6,1.8,15.1,4.8c3,2.6,6.8,4.2,11,4.3c0.2,0,0.4,0,0.6,0c0.3,0,0.5,0,0.8,0c0.2,0,0.3,0,0.5,0c0.1,0,0.1,0,0.2,0
			c9.1-0.5,16.7-8.1,17-17.3c0.2-5.2-1.8-10-5.2-13.4c-2.9-4.3-4.2-9.5-4.2-14.7v-1.5c0-5.8,1.7-11.6,5.3-16.2
			c2.4-3.1,3.9-6.9,3.9-11.2c0-4.2-1.4-8.1-3.9-11.2c-3.3-4.2-5.3-9.2-5.3-14.6v0c0,0,0-0.1,0-0.1c0.1-8.4,6.6-15.4,14.9-16.5
			c1.2-0.1,2.3-0.2,3.5-0.2l1.8,0c5.9,0,11.5,2.2,16.3,5.7c3.1,2.3,6.9,3.6,11.1,3.5c9.4-0.2,17.3-7.9,17.7-17.4
			C152.4,37.2,144.2,28.7,134,28.7z"/>
	</g>
	<g>
		<g>
			<path class="st0" d="M217.2,49.4c-1.3,1.2-3,1.8-5.2,1.8c-2,0-3.6-0.6-4.8-1.8c-1.2-1.2-1.8-2.8-1.8-4.8c0-2,0.6-3.6,1.8-4.8
				c1.2-1.2,2.8-1.8,4.8-1.8c2.2,0,3.9,0.6,5.2,1.8c1.3,1.2,1.9,2.8,1.9,4.8C219.1,46.6,218.5,48.2,217.2,49.4z M218.2,100.4h-12V57
				h12V100.4z"/>
			<path class="st0" d="M242.1,62.3c0.3-0.5,0.8-1,1.5-1.7c0.6-0.7,2-1.6,4.2-2.7c2.1-1.2,4.4-1.7,6.8-1.7c5,0,9,1.7,12.1,5.1
				c3.1,3.4,4.7,8.1,4.7,13.9v25.2h-11.9V76.5c0-2.7-0.8-4.8-2.4-6.4c-1.6-1.6-3.6-2.4-6.1-2.4c-2.7,0-4.9,0.9-6.5,2.7
				c-1.6,1.8-2.4,4.3-2.4,7.5v22.6h-11.9V57h11.9V62.3z"/>
			<path class="st0" d="M319.3,94.5c-4.6,4.5-9.9,6.8-16.1,6.8c-6.2,0-11.6-2.3-16.2-6.8c-4.6-4.5-6.9-9.8-6.9-15.8
				c0-6,2.3-11.3,6.9-15.8s10-6.8,16.2-6.8c6.2,0,11.6,2.3,16.1,6.8c4.6,4.5,6.8,9.8,6.8,15.8C326.1,84.7,323.8,90,319.3,94.5z
				 M295.6,86.9c2.1,2.2,4.6,3.3,7.5,3.3c2.9,0,5.4-1.1,7.5-3.3c2.1-2.2,3.2-4.9,3.2-8.2c0-3.2-1.1-6-3.2-8.2
				c-2.1-2.2-4.6-3.3-7.5-3.3c-2.9,0-5.4,1.1-7.5,3.3c-2.1,2.2-3.2,4.9-3.2,8.2C292.5,81.9,293.5,84.7,295.6,86.9z"/>
			<path class="st0" d="M346,100.4L329.6,57H342l10.2,28.8L362.4,57h12.4l-16.3,43.4H346z"/>
			<path class="st0" d="M404.8,96c-0.3,0.4-0.8,0.9-1.4,1.5c-0.6,0.6-2,1.4-4,2.3c-2.1,1-4.2,1.4-6.5,1.4c-4.3,0-7.8-1.2-10.5-3.6
				c-2.7-2.4-4.1-5.3-4.1-8.7c0-3.5,1.1-6.5,3.4-8.9c2.3-2.4,5.4-3.9,9.4-4.6l13.7-2.5c0-1.8-0.7-3.3-2-4.4
				c-1.3-1.2-3.2-1.7-5.5-1.7c-2,0-3.7,0.4-5.4,1.1c-1.6,0.7-2.8,1.5-3.4,2.3l-1,1l-6.6-6.6c0.2-0.2,0.4-0.5,0.7-0.9
				c0.3-0.4,1-1.1,2-2c1.1-0.9,2.2-1.8,3.4-2.5c1.2-0.7,2.9-1.4,4.9-2c2-0.6,4.1-0.9,6.2-0.9c5.5,0,9.9,1.6,13.4,4.9
				c3.5,3.3,5.2,7.4,5.2,12.3v27h-11.9V96z M402.4,88.9c1.6-1.7,2.4-4.1,2.4-7.1v-1.3l-9.7,1.8c-3.3,0.5-4.9,2.1-4.9,4.9
				c0,2.9,1.9,4.4,5.7,4.4C398.6,91.5,400.8,90.6,402.4,88.9z"/>
			<path class="st0" d="M451.6,44.2h10.6v13.7h8.8v10.6h-8.8v17.2c0,1.4,0.5,2.5,1.5,3.5c1,0.9,2.3,1.4,3.8,1.4
				c0.8,0,1.5-0.1,2.3-0.2c0.7-0.2,1.3-0.3,1.7-0.5l0.5-0.2v10.2c-2.4,0.9-5,1.3-8,1.3c-9.1,0-13.7-5-13.7-15V68.5h-7.5V57.9h4
				c1.4,0,2.5-0.5,3.5-1.6c0.9-1.1,1.4-2.4,1.4-4.1V44.2z"/>
			<path class="st0" d="M488.3,82.6c0.5,2.4,1.7,4.4,3.8,6c2,1.6,4.6,2.4,7.7,2.4c2.2,0,4.3-0.4,6.2-1.3c1.9-0.9,3.3-1.8,4-2.7
				l1.3-1.3l6.2,7.9l-0.8,0.8c-0.4,0.4-1.1,1-2.3,1.8c-1.2,0.9-2.4,1.6-3.8,2.3c-1.3,0.7-3,1.3-5.2,1.8c-2.1,0.5-4.3,0.8-6.5,0.8
				c-6.4,0-11.8-2.2-16.3-6.6c-4.5-4.4-6.7-9.7-6.7-15.9c0-6.2,2.2-11.5,6.7-15.9c4.4-4.4,9.8-6.6,15.9-6.6c6.2,0,11.3,2.1,15.5,6.2
				c4.1,4.1,6.2,9.3,6.2,15.5l-0.4,4.8H488.3z M492,68.5c-1.8,1.5-3,3.4-3.7,5.7h19.9c-0.5-2.3-1.6-4.2-3.3-5.7
				c-1.7-1.5-3.9-2.2-6.4-2.2C495.9,66.3,493.8,67.1,492,68.5z"/>
			<path class="st0" d="M533.2,62.9c4.6-4.5,10.1-6.8,16.5-6.8c2.2,0,4.4,0.3,6.4,0.9c2,0.6,3.7,1.4,5,2.2c1.3,0.8,2.4,1.7,3.5,2.6
				c1,0.9,1.7,1.6,2.2,2.2l0.6,0.9l-7.5,7.5c-0.2-0.4-0.6-0.9-1.1-1.6c-0.5-0.7-1.7-1.5-3.5-2.6c-1.8-1.1-3.6-1.6-5.6-1.6
				c-3.1,0-5.8,1.2-8.1,3.5s-3.4,5.1-3.4,8.4c0,3.3,1.1,6.1,3.4,8.4c2.3,2.3,5,3.5,8.1,3.5c2,0,3.8-0.5,5.6-1.4
				c1.8-1,3.1-1.9,3.9-2.9l1.2-1.5l7.1,7.5c-0.2,0.2-0.4,0.6-0.7,1c-0.3,0.4-1,1.1-2.1,2.1c-1.1,1-2.3,1.9-3.5,2.6
				c-1.3,0.8-2.9,1.5-4.9,2.1c-2,0.6-4.2,1-6.4,1c-6.4,0-11.9-2.3-16.5-6.8c-4.6-4.5-7-9.8-7-15.8C526.3,72.7,528.6,67.4,533.2,62.9
				z"/>
			<path class="st0" d="M587.8,62.3c0.3-0.5,0.8-1,1.4-1.7c0.6-0.7,2-1.6,4.1-2.7c2.1-1.2,4.4-1.7,6.8-1.7c5,0,9,1.7,12.1,5.1
				c3.1,3.4,4.7,8.1,4.7,13.9v25.2H605V76.5c0-2.7-0.8-4.8-2.4-6.4c-1.6-1.6-3.6-2.4-6.1-2.4c-2.7,0-4.9,0.9-6.4,2.7
				c-1.6,1.8-2.4,4.3-2.4,7.5v22.6h-12v-62h12V62.3z"/>
		</g>
	</g>
	<g>
		<g>
			<path class="st0" d="M207.9,122.2c1.2-1.2,2.5-1.8,4.1-1.8c0.9,0,1.7,0.2,2.5,0.6c0.8,0.4,1.3,0.8,1.6,1.1l0.5,0.5l-1.5,1.5
				c-0.1-0.1-0.2-0.3-0.3-0.5c-0.2-0.2-0.5-0.4-1-0.7c-0.5-0.3-1.1-0.5-1.7-0.5c-1,0-1.8,0.4-2.5,1.1c-0.7,0.7-1.1,1.6-1.1,2.7
				c0,1.1,0.3,1.9,1.1,2.7c0.7,0.7,1.5,1.1,2.5,1.1c0.6,0,1.2-0.1,1.7-0.4c0.5-0.3,0.9-0.6,1.1-0.9l0.4-0.4l1.5,1.5
				c0,0.1-0.1,0.1-0.2,0.3s-0.3,0.3-0.6,0.6c-0.3,0.3-0.6,0.5-1,0.7s-0.8,0.4-1.3,0.6s-1.1,0.3-1.6,0.3c-1.6,0-3-0.6-4.1-1.8
				s-1.8-2.5-1.8-4.1S206.7,123.4,207.9,122.2z"/>
			<path class="st0" d="M222.9,132l-4.6-11.3h2.5l3.3,8.2l3.3-8.2h2.5l-5.1,12.5c-0.6,1.4-1.2,2.4-1.7,2.9c-0.6,0.6-1.3,0.8-2.1,0.8
				c-0.3,0-0.6,0-0.9-0.1c-0.3,0-0.5-0.1-0.6-0.1l-0.2,0v-2.1c0.4,0.2,0.8,0.2,1.2,0.2c0.9,0,1.6-0.6,2-1.7L222.9,132z"/>
			<path class="st0" d="M242.5,122.2c1.1,1.1,1.6,2.5,1.6,4.2c0,1.6-0.5,3-1.6,4.2c-1.1,1.1-2.4,1.7-3.9,1.7c-0.4,0-0.8,0-1.2-0.1
				c-0.4-0.1-0.7-0.2-1-0.4c-0.3-0.1-0.5-0.3-0.8-0.5c-0.2-0.2-0.4-0.3-0.5-0.4l-0.2-0.2v1.3h-2.3v-16.5h2.3v6.5
				c0.1-0.1,0.3-0.2,0.5-0.4c0.2-0.2,0.6-0.4,1.3-0.7c0.6-0.3,1.3-0.4,1.9-0.4C240.2,120.5,241.4,121.1,242.5,122.2z M240.8,129
				c0.7-0.7,1-1.6,1-2.7s-0.3-1.9-1-2.7c-0.7-0.7-1.5-1.1-2.4-1.1c-0.9,0-1.7,0.4-2.4,1.1c-0.7,0.7-1,1.6-1,2.7s0.3,1.9,1,2.7
				c0.7,0.7,1.5,1.1,2.4,1.1C239.3,130.1,240.1,129.8,240.8,129z"/>
			<path class="st0" d="M249.1,127.2c0.1,0.8,0.5,1.5,1.2,2.1c0.7,0.6,1.4,0.9,2.4,0.9c0.7,0,1.3-0.1,1.8-0.4c0.6-0.3,1-0.6,1.2-0.9
				l0.4-0.4l1.5,1.5c0,0.1-0.1,0.1-0.2,0.3c-0.1,0.1-0.3,0.3-0.6,0.6c-0.3,0.3-0.6,0.5-1,0.7c-0.4,0.2-0.8,0.4-1.4,0.6
				c-0.6,0.2-1.1,0.3-1.7,0.3c-1.6,0-3-0.6-4.1-1.8c-1.2-1.2-1.7-2.6-1.7-4.2c0-1.6,0.6-2.9,1.7-4.1c1.1-1.1,2.5-1.7,4.1-1.7
				c1.6,0,2.9,0.5,3.9,1.6c1.1,1.1,1.6,2.4,1.6,4l-0.1,1.2H249.1z M250.4,123.3c-0.6,0.5-1,1.2-1.2,1.9h6.5
				c-0.1-0.8-0.5-1.4-1.1-1.9c-0.6-0.5-1.3-0.8-2.2-0.8C251.7,122.5,251,122.8,250.4,123.3z"/>
			<path class="st0" d="M266.6,122.6c-0.9,0-1.6,0.3-2.1,0.9c-0.5,0.6-0.8,1.4-0.8,2.4v6.1h-2.4v-11.3h2.4v1.2l0.2-0.1
				c0.1-0.1,0.2-0.2,0.4-0.3c0.2-0.2,0.5-0.3,0.7-0.4c0.2-0.1,0.6-0.2,1-0.3c0.4-0.1,0.8-0.2,1.2-0.2h0.6v2.2
				C267.4,122.7,267,122.6,266.6,122.6z"/>
			<path class="st0" d="M275.9,123.6c-0.1-0.1-0.2-0.1-0.3-0.3s-0.4-0.3-0.7-0.4c-0.4-0.2-0.7-0.3-1.1-0.3c-0.5,0-0.9,0.1-1.2,0.3
				c-0.3,0.2-0.4,0.5-0.4,0.8c0,0.3,0.1,0.6,0.4,0.8s0.6,0.4,1.1,0.5c0.4,0.1,0.9,0.3,1.4,0.4c0.5,0.2,1,0.4,1.4,0.6
				c0.4,0.2,0.8,0.5,1.1,1s0.4,1,0.4,1.6c0,1-0.4,1.8-1.2,2.5c-0.8,0.7-1.8,1-3.1,1c-0.6,0-1.1-0.1-1.6-0.2
				c-0.5-0.1-0.9-0.3-1.2-0.5c-0.3-0.2-0.6-0.4-0.8-0.6c-0.2-0.2-0.4-0.4-0.5-0.5l-0.2-0.2l1.5-1.5c0.1,0.1,0.2,0.2,0.3,0.4
				c0.2,0.2,0.5,0.4,1,0.6c0.5,0.3,1,0.4,1.5,0.4c0.6,0,1.1-0.1,1.4-0.4c0.3-0.3,0.5-0.6,0.5-1c0-0.3-0.1-0.6-0.4-0.8
				c-0.3-0.2-0.6-0.4-1.1-0.5c-0.4-0.1-0.9-0.3-1.4-0.4c-0.5-0.2-1-0.4-1.4-0.6c-0.4-0.2-0.8-0.5-1.1-1c-0.3-0.4-0.4-1-0.4-1.6
				c0-0.9,0.4-1.6,1.1-2.3c0.8-0.7,1.7-1,2.9-1c0.5,0,0.9,0.1,1.3,0.2c0.4,0.1,0.8,0.2,1,0.4c0.3,0.1,0.5,0.3,0.7,0.5
				c0.2,0.2,0.3,0.3,0.4,0.4l0.1,0.2L275.9,123.6z"/>
			<path class="st0" d="M282.8,127.2c0.1,0.8,0.5,1.5,1.2,2.1c0.7,0.6,1.4,0.9,2.4,0.9c0.7,0,1.3-0.1,1.8-0.4c0.6-0.3,1-0.6,1.2-0.9
				l0.4-0.4l1.5,1.5c0,0.1-0.1,0.1-0.2,0.3c-0.1,0.1-0.3,0.3-0.6,0.6c-0.3,0.3-0.6,0.5-1,0.7s-0.8,0.4-1.4,0.6
				c-0.6,0.2-1.1,0.3-1.7,0.3c-1.6,0-3-0.6-4.1-1.8c-1.2-1.2-1.7-2.6-1.7-4.2c0-1.6,0.6-2.9,1.7-4.1c1.1-1.1,2.5-1.7,4.1-1.7
				c1.6,0,2.9,0.5,3.9,1.6c1.1,1.1,1.6,2.4,1.6,4l-0.1,1.2H282.8z M284.1,123.3c-0.6,0.5-1,1.2-1.2,1.9h6.5
				c-0.1-0.8-0.5-1.4-1.1-1.9c-0.6-0.5-1.3-0.8-2.2-0.8C285.4,122.5,284.6,122.8,284.1,123.3z"/>
			<path class="st0" d="M296.1,122.2c1.2-1.2,2.5-1.8,4.1-1.8c0.9,0,1.7,0.2,2.5,0.6c0.8,0.4,1.3,0.8,1.6,1.1l0.5,0.5l-1.5,1.5
				c-0.1-0.1-0.2-0.3-0.3-0.5c-0.2-0.2-0.5-0.4-1-0.7c-0.5-0.3-1.1-0.5-1.7-0.5c-1,0-1.8,0.4-2.5,1.1c-0.7,0.7-1.1,1.6-1.1,2.7
				c0,1.1,0.3,1.9,1.1,2.7c0.7,0.7,1.5,1.1,2.5,1.1c0.6,0,1.2-0.1,1.7-0.4c0.5-0.3,0.9-0.6,1.1-0.9l0.4-0.4l1.5,1.5
				c0,0.1-0.1,0.1-0.2,0.3s-0.3,0.3-0.6,0.6c-0.3,0.3-0.6,0.5-1,0.7s-0.8,0.4-1.3,0.6s-1.1,0.3-1.6,0.3c-1.6,0-3-0.6-4.1-1.8
				c-1.2-1.2-1.8-2.5-1.8-4.1S294.9,123.4,296.1,122.2z"/>
			<path class="st0" d="M315.9,130.8l-0.1,0.2c-0.1,0.1-0.2,0.2-0.4,0.3c-0.2,0.2-0.5,0.3-0.7,0.4c-0.3,0.1-0.6,0.2-1,0.3
				s-0.8,0.1-1.2,0.1c-1.4,0-2.5-0.4-3.3-1.3s-1.3-2.1-1.3-3.6v-6.6h2.4v6.6c0,0.8,0.3,1.5,0.8,2c0.5,0.5,1.2,0.8,1.9,0.8
				c0.9,0,1.6-0.3,2.1-0.9c0.5-0.6,0.8-1.4,0.8-2.4v-6.1h2.4V132h-2.4V130.8z"/>
			<path class="st0" d="M327.7,122.6c-0.9,0-1.6,0.3-2.1,0.9c-0.5,0.6-0.8,1.4-0.8,2.4v6.1h-2.4v-11.3h2.4v1.2l0.2-0.1
				c0.1-0.1,0.2-0.2,0.4-0.3c0.2-0.2,0.5-0.3,0.7-0.4c0.2-0.1,0.6-0.2,1-0.3c0.4-0.1,0.8-0.2,1.2-0.2h0.6v2.2
				C328.4,122.7,328.1,122.6,327.7,122.6z"/>
			<path class="st0" d="M333.6,118.2c-0.3,0.3-0.6,0.4-1,0.4c-0.4,0-0.7-0.1-1-0.4c-0.3-0.3-0.4-0.6-0.4-1c0-0.4,0.1-0.7,0.4-1
				c0.3-0.3,0.6-0.4,1-0.4c0.4,0,0.7,0.1,1,0.4c0.3,0.3,0.4,0.6,0.4,1C334,117.6,333.9,117.9,333.6,118.2z M333.8,132h-2.4v-11.3
				h2.4V132z"/>
			<path class="st0" d="M339.3,117h2.1v3.8h2.4v2.1h-2.4v5.9c0,0.4,0.1,0.8,0.4,1c0.3,0.3,0.6,0.4,1,0.4c0.2,0,0.4,0,0.6-0.1
				c0.2,0,0.3-0.1,0.5-0.1l0.2,0v2.1c-0.5,0.2-1,0.2-1.7,0.2c-2.2,0-3.3-1.2-3.3-3.5v-5.9h-2.1v-2.1h1.2c0.8,0,1.2-0.5,1.2-1.4V117z
				"/>
			<path class="st0" d="M350.7,132l-4.6-11.3h2.5l3.3,8.2l3.3-8.2h2.5l-5.1,12.5c-0.6,1.4-1.2,2.4-1.7,2.9c-0.6,0.6-1.3,0.8-2.1,0.8
				c-0.3,0-0.6,0-0.9-0.1c-0.3,0-0.5-0.1-0.6-0.1l-0.2,0v-2.1c0.4,0.2,0.8,0.2,1.2,0.2c0.9,0,1.6-0.6,2-1.7L350.7,132z"/>
			<path class="st0" d="M372.3,132v-1.2c0,0-0.1,0.1-0.2,0.2c-0.1,0.1-0.2,0.2-0.4,0.3c-0.2,0.2-0.5,0.3-0.7,0.4
				c-0.3,0.1-0.6,0.2-1,0.3s-0.8,0.1-1.2,0.1c-1.1,0-2.1-0.3-2.9-1c-0.8-0.7-1.1-1.4-1.1-2.3c0-0.9,0.3-1.7,0.9-2.3
				c0.6-0.6,1.4-1,2.4-1.2l4.1-0.7c0-0.6-0.2-1.1-0.7-1.5c-0.4-0.4-1-0.6-1.7-0.6c-0.6,0-1.1,0.1-1.6,0.4c-0.5,0.2-0.8,0.5-1,0.8
				l-0.3,0.4l-1.5-1.5c0-0.1,0.1-0.1,0.2-0.2c0.1-0.1,0.3-0.3,0.5-0.5c0.3-0.2,0.6-0.5,0.9-0.6s0.7-0.4,1.2-0.5
				c0.5-0.1,1.1-0.2,1.6-0.2c1.4,0,2.5,0.4,3.4,1.2c0.9,0.8,1.3,1.8,1.3,3v7.3H372.3z M371.5,129.3c0.5-0.6,0.8-1.4,0.8-2.4v-0.2
				l-3.7,0.6c-0.4,0.1-0.8,0.2-1,0.5c-0.3,0.3-0.4,0.6-0.4,1c0,0.4,0.2,0.7,0.5,1c0.4,0.3,0.9,0.4,1.5,0.4
				C370.2,130.1,371,129.8,371.5,129.3z"/>
			<path class="st0" d="M381,121.9l0.2-0.1c0.1-0.1,0.2-0.2,0.4-0.3c0.2-0.2,0.5-0.3,0.7-0.4c0.2-0.1,0.6-0.2,1-0.3
				c0.4-0.1,0.8-0.2,1.2-0.2c1.4,0,2.5,0.4,3.3,1.3c0.8,0.9,1.3,2.1,1.3,3.6v6.6h-2.4v-6.6c0-0.8-0.3-1.5-0.8-2
				c-0.5-0.5-1.2-0.8-1.9-0.8c-0.9,0-1.6,0.3-2.1,0.9c-0.5,0.6-0.8,1.4-0.8,2.4v6.1h-2.4v-11.3h2.4V121.9z"/>
			<path class="st0" d="M399,120.6c0.4,0.1,0.7,0.2,1,0.4c0.3,0.1,0.5,0.3,0.8,0.5c0.2,0.2,0.4,0.3,0.5,0.4l0.2,0.2v-6.5h2.4V132
				h-2.4v-1.3c-0.1,0.1-0.3,0.2-0.5,0.4c-0.2,0.2-0.6,0.4-1.2,0.7c-0.6,0.3-1.3,0.4-1.9,0.4c-1.5,0-2.8-0.6-3.9-1.7
				c-1.1-1.1-1.6-2.5-1.6-4.2c0-1.6,0.5-3,1.6-4.2c1.1-1.1,2.4-1.7,3.9-1.7C398.2,120.5,398.6,120.5,399,120.6z M400.4,129
				c0.7-0.7,1-1.6,1-2.7s-0.3-1.9-1-2.7c-0.7-0.7-1.5-1.1-2.4-1.1c-0.9,0-1.7,0.4-2.4,1.1c-0.7,0.7-1,1.6-1,2.7s0.3,1.9,1,2.7
				c0.7,0.7,1.5,1.1,2.4,1.1C398.9,130.1,399.7,129.8,400.4,129z"/>
			<path class="st0" d="M207.7,143.8h2.6v16.5h-2.6V143.8z"/>
			<path class="st0" d="M226.2,143.8v2.4h-4.9v14.1h-2.6v-14.1h-4.9v-2.4H226.2z"/>
			<path class="st0" d="M236.6,146.4c-0.3,0.3-0.6,0.4-1,0.4c-0.4,0-0.7-0.1-1-0.4c-0.3-0.3-0.4-0.6-0.4-1c0-0.4,0.1-0.7,0.4-1
				c0.3-0.3,0.6-0.4,1-0.4c0.4,0,0.7,0.1,1,0.4c0.3,0.3,0.4,0.6,0.4,1C237,145.8,236.9,146.2,236.6,146.4z M236.8,160.2h-2.4v-11.3
				h2.4V160.2z"/>
			<path class="st0" d="M243.2,150.1l0.2-0.1c0.1-0.1,0.2-0.2,0.4-0.3c0.2-0.2,0.5-0.3,0.7-0.4c0.2-0.1,0.6-0.2,1-0.3
				c0.4-0.1,0.8-0.2,1.2-0.2c1.4,0,2.5,0.4,3.3,1.3c0.8,0.9,1.3,2.1,1.3,3.6v6.6h-2.4v-6.6c0-0.8-0.3-1.5-0.8-2
				c-0.5-0.5-1.2-0.8-1.9-0.8c-0.9,0-1.6,0.3-2.1,0.9c-0.5,0.6-0.8,1.4-0.8,2.4v6.1h-2.4v-11.3h2.4V150.1z"/>
			<path class="st0" d="M260.9,151h-2.6v9.2h-2.3V151h-1.7v-2.1h1.7V147c0-2.3,1.1-3.5,3.3-3.5c0.3,0,0.6,0,0.8,0.1s0.5,0.1,0.6,0.1
				l0.2,0v2.1c-0.4-0.2-0.8-0.2-1.2-0.2c-0.4,0-0.7,0.1-1,0.4c-0.3,0.3-0.4,0.6-0.4,1v1.9h2.6V151z"/>
			<path class="st0" d="M269.2,150.8c-0.9,0-1.6,0.3-2.1,0.9c-0.5,0.6-0.8,1.4-0.8,2.4v6.1h-2.4v-11.3h2.4v1.2l0.2-0.1
				c0.1-0.1,0.2-0.2,0.4-0.3c0.2-0.2,0.5-0.3,0.7-0.4c0.2-0.1,0.6-0.2,1-0.3c0.4-0.1,0.8-0.2,1.2-0.2h0.6v2.2
				C269.9,150.9,269.6,150.8,269.2,150.8z"/>
			<path class="st0" d="M279.5,160.2V159c0,0-0.1,0.1-0.2,0.2c-0.1,0.1-0.2,0.2-0.4,0.3c-0.2,0.2-0.5,0.3-0.7,0.4
				c-0.3,0.1-0.6,0.2-1,0.3c-0.4,0.1-0.8,0.1-1.2,0.1c-1.1,0-2.1-0.3-2.9-1c-0.8-0.7-1.1-1.4-1.1-2.3c0-0.9,0.3-1.7,0.9-2.3
				c0.6-0.6,1.4-1,2.4-1.2l4.1-0.7c0-0.6-0.2-1.1-0.7-1.5c-0.4-0.4-1-0.6-1.7-0.6c-0.6,0-1.1,0.1-1.6,0.4c-0.5,0.2-0.8,0.5-1,0.8
				l-0.3,0.4l-1.5-1.5c0-0.1,0.1-0.1,0.2-0.2c0.1-0.1,0.3-0.3,0.5-0.5c0.3-0.2,0.6-0.5,0.9-0.6c0.3-0.2,0.7-0.4,1.2-0.5
				c0.5-0.1,1.1-0.2,1.6-0.2c1.4,0,2.5,0.4,3.4,1.2c0.9,0.8,1.3,1.8,1.3,3v7.3H279.5z M278.7,157.5c0.5-0.6,0.8-1.4,0.8-2.4v-0.2
				l-3.7,0.6c-0.4,0.1-0.8,0.2-1,0.5c-0.3,0.3-0.4,0.6-0.4,1c0,0.4,0.2,0.7,0.5,1c0.4,0.3,0.9,0.4,1.5,0.4
				C277.4,158.3,278.2,158.1,278.7,157.5z"/>
			<path class="st0" d="M291.5,151.8c-0.1-0.1-0.2-0.1-0.3-0.3c-0.1-0.1-0.4-0.3-0.7-0.4c-0.4-0.2-0.7-0.3-1.1-0.3
				c-0.5,0-0.9,0.1-1.2,0.3c-0.3,0.2-0.4,0.5-0.4,0.8c0,0.3,0.1,0.6,0.4,0.8c0.3,0.2,0.6,0.4,1.1,0.5c0.4,0.1,0.9,0.3,1.4,0.4
				c0.5,0.2,1,0.4,1.4,0.6c0.4,0.2,0.8,0.5,1.1,1c0.3,0.4,0.4,1,0.4,1.6c0,1-0.4,1.8-1.2,2.5c-0.8,0.7-1.8,1-3.1,1
				c-0.6,0-1.1-0.1-1.6-0.2c-0.5-0.1-0.9-0.3-1.2-0.5c-0.3-0.2-0.6-0.4-0.8-0.6c-0.2-0.2-0.4-0.4-0.5-0.5l-0.2-0.2l1.5-1.5
				c0.1,0.1,0.2,0.2,0.3,0.4c0.2,0.2,0.5,0.4,1,0.6c0.5,0.3,1,0.4,1.5,0.4c0.6,0,1.1-0.1,1.4-0.4c0.3-0.3,0.5-0.6,0.5-1
				c0-0.3-0.1-0.6-0.4-0.8c-0.3-0.2-0.6-0.4-1.1-0.5c-0.4-0.1-0.9-0.3-1.4-0.4c-0.5-0.2-1-0.4-1.4-0.6c-0.4-0.2-0.8-0.5-1.1-1
				c-0.3-0.4-0.4-1-0.4-1.6c0-0.9,0.4-1.6,1.1-2.3c0.8-0.7,1.7-1,2.9-1c0.5,0,0.9,0.1,1.3,0.2c0.4,0.1,0.8,0.2,1,0.4
				c0.3,0.1,0.5,0.3,0.7,0.5c0.2,0.2,0.3,0.3,0.4,0.4l0.1,0.2L291.5,151.8z"/>
			<path class="st0" d="M298.2,145.2h2.1v3.8h2.4v2.1h-2.4v5.9c0,0.4,0.1,0.8,0.4,1c0.3,0.3,0.6,0.4,1,0.4c0.2,0,0.4,0,0.6-0.1
				c0.2,0,0.3-0.1,0.5-0.1l0.2,0v2.1c-0.5,0.2-1,0.2-1.7,0.2c-2.2,0-3.3-1.2-3.3-3.5V151h-2.1v-2.1h1.2c0.8,0,1.2-0.5,1.2-1.4V145.2
				z"/>
			<path class="st0" d="M311.7,150.8c-0.9,0-1.6,0.3-2.1,0.9c-0.5,0.6-0.8,1.4-0.8,2.4v6.1h-2.4v-11.3h2.4v1.2l0.2-0.1
				c0.1-0.1,0.2-0.2,0.4-0.3c0.2-0.2,0.5-0.3,0.7-0.4c0.2-0.1,0.6-0.2,1-0.3c0.4-0.1,0.8-0.2,1.2-0.2h0.6v2.2
				C312.5,150.9,312.1,150.8,311.7,150.8z"/>
			<path class="st0" d="M323.3,159l-0.1,0.2c-0.1,0.1-0.2,0.2-0.4,0.3c-0.2,0.2-0.5,0.3-0.7,0.4c-0.3,0.1-0.6,0.2-1,0.3
				c-0.4,0.1-0.8,0.1-1.2,0.1c-1.4,0-2.5-0.4-3.3-1.3s-1.3-2.1-1.3-3.6v-6.6h2.4v6.6c0,0.8,0.3,1.5,0.8,2c0.5,0.5,1.2,0.8,1.9,0.8
				c0.9,0,1.6-0.3,2.1-0.9c0.5-0.6,0.8-1.4,0.8-2.4v-6.1h2.4v11.3h-2.4V159z"/>
			<path class="st0" d="M330.8,150.4c1.2-1.2,2.5-1.8,4.1-1.8c0.9,0,1.7,0.2,2.5,0.6c0.8,0.4,1.3,0.8,1.6,1.1l0.5,0.5l-1.5,1.5
				c-0.1-0.1-0.2-0.3-0.3-0.5c-0.2-0.2-0.5-0.4-1-0.7c-0.5-0.3-1.1-0.5-1.7-0.5c-1,0-1.8,0.4-2.5,1.1c-0.7,0.7-1.1,1.6-1.1,2.7
				c0,1.1,0.3,1.9,1.1,2.7c0.7,0.7,1.5,1.1,2.5,1.1c0.6,0,1.2-0.1,1.7-0.4c0.5-0.3,0.9-0.6,1.1-0.9l0.4-0.4l1.5,1.5
				c0,0.1-0.1,0.1-0.2,0.3s-0.3,0.3-0.6,0.6c-0.3,0.3-0.6,0.5-1,0.7c-0.3,0.2-0.8,0.4-1.3,0.6c-0.5,0.2-1.1,0.3-1.6,0.3
				c-1.6,0-3-0.6-4.1-1.8s-1.8-2.5-1.8-4.1C329.1,153,329.7,151.6,330.8,150.4z"/>
			<path class="st0" d="M344.1,145.2h2.1v3.8h2.4v2.1h-2.4v5.9c0,0.4,0.1,0.8,0.4,1c0.3,0.3,0.6,0.4,1,0.4c0.2,0,0.4,0,0.6-0.1
				c0.2,0,0.3-0.1,0.5-0.1l0.2,0v2.1c-0.5,0.2-1,0.2-1.7,0.2c-2.2,0-3.3-1.2-3.3-3.5V151h-2.1v-2.1h1.2c0.8,0,1.2-0.5,1.2-1.4V145.2
				z"/>
			<path class="st0" d="M360.3,159l-0.1,0.2c-0.1,0.1-0.2,0.2-0.4,0.3c-0.2,0.2-0.5,0.3-0.7,0.4c-0.3,0.1-0.6,0.2-1,0.3
				c-0.4,0.1-0.8,0.1-1.2,0.1c-1.4,0-2.5-0.4-3.3-1.3s-1.3-2.1-1.3-3.6v-6.6h2.4v6.6c0,0.8,0.3,1.5,0.8,2c0.5,0.5,1.2,0.8,1.9,0.8
				c0.9,0,1.6-0.3,2.1-0.9c0.5-0.6,0.8-1.4,0.8-2.4v-6.1h2.4v11.3h-2.4V159z"/>
			<path class="st0" d="M372.1,150.8c-0.9,0-1.6,0.3-2.1,0.9c-0.5,0.6-0.8,1.4-0.8,2.4v6.1h-2.4v-11.3h2.4v1.2l0.2-0.1
				c0.1-0.1,0.2-0.2,0.4-0.3c0.2-0.2,0.5-0.3,0.7-0.4c0.2-0.1,0.6-0.2,1-0.3c0.4-0.1,0.8-0.2,1.2-0.2h0.6v2.2
				C372.8,150.9,372.5,150.8,372.1,150.8z"/>
			<path class="st0" d="M377.3,155.4c0.1,0.8,0.5,1.5,1.2,2.1c0.7,0.6,1.4,0.9,2.4,0.9c0.7,0,1.3-0.1,1.8-0.4c0.6-0.3,1-0.6,1.2-0.9
				l0.4-0.4l1.5,1.5c0,0.1-0.1,0.1-0.2,0.3c-0.1,0.1-0.3,0.3-0.6,0.6c-0.3,0.3-0.6,0.5-1,0.7s-0.8,0.4-1.4,0.6
				c-0.6,0.2-1.1,0.3-1.7,0.3c-1.6,0-3-0.6-4.1-1.8c-1.2-1.2-1.7-2.6-1.7-4.2c0-1.6,0.6-2.9,1.7-4.1c1.1-1.1,2.5-1.7,4.1-1.7
				c1.6,0,2.9,0.5,3.9,1.6c1.1,1.1,1.6,2.4,1.6,4l-0.1,1.2H377.3z M378.6,151.5c-0.6,0.5-1,1.2-1.2,1.9h6.5
				c-0.1-0.8-0.5-1.4-1.1-1.9s-1.3-0.8-2.2-0.8C379.9,150.7,379.2,151,378.6,151.5z"/>
		</g>
	</g>
</g>
</svg>
