<?xml version="1.0" encoding="utf-8"?>
<!-- Generator: Adobe Illustrator 24.1.3, SVG Export Plug-In . SVG Version: 6.00 Build 0)  -->
<svg version="1.1" id="Layer_1" xmlns="http://www.w3.org/2000/svg" xmlns:xlink="http://www.w3.org/1999/xlink" x="0px" y="0px"
	 viewBox="0 0 624 200" style="enable-background:new 0 0 624 200;" xml:space="preserve">
<style type="text/css">
	.st0{fill:#FFFFFF;}
	.st1{fill:url(#SVGID_1_);}
	.st2{fill:url(#SVGID_2_);}
	.st3{fill:url(#SVGID_3_);}
	.st4{fill:#14082A;}
</style>
<g>
	<g>
		<ellipse class="st0" cx="23.5" cy="44.4" rx="18" ry="18.9"/>
		<ellipse class="st0" cx="135" cy="156.7" rx="18" ry="18.9"/>
		<path class="st0" d="M135,25.5c-4.2,0-8.1,1.5-11.1,4c-4.5,3.8-10.3,5.5-16.1,5.5h-2.5c-5.7,0-11-2.4-15.5-5.9
			c-0.2-0.1-0.3-0.2-0.5-0.3c-0.1-0.1-0.3-0.2-0.4-0.3c-0.4-0.2-0.7-0.5-1.1-0.7c-0.1-0.1-0.2-0.1-0.3-0.2c-0.5-0.3-1-0.5-1.5-0.7
			c-0.1,0-0.2-0.1-0.3-0.1c-0.4-0.2-0.8-0.3-1.3-0.5c-0.2-0.1-0.4-0.1-0.5-0.2c-0.4-0.1-0.7-0.2-1.1-0.3c-0.2,0-0.4-0.1-0.6-0.1
			c-0.4-0.1-0.8-0.1-1.2-0.2c-0.2,0-0.3,0-0.5-0.1c-0.6,0-1.1-0.1-1.7-0.1c0,0,0,0-0.1,0c-0.2,0-0.5,0-0.7,0.1c-0.4,0-0.7,0-1.1,0.1
			c-0.1,0-0.2,0-0.2,0c-1,0.1-1.9,0.4-2.8,0.7c-0.3,0.1-0.6,0.2-0.9,0.4c-0.1,0-0.2,0.1-0.2,0.1c-4.2,1.7-7.6,5-9.6,9.2
			c-0.7,1.5-1.3,3.1-1.6,4.7c0,0.2-0.1,0.4-0.1,0.7c-0.1,0.4-0.1,0.7-0.1,1.1c0,0.3-0.1,0.6-0.1,0.8c0,0.1,0,0.3,0,0.4
			c0,0.3,0,0.6,0,0.9c0,0.3,0,0.6,0,0.8c0,0.4,0.1,0.9,0.1,1.3c0,0.2,0,0.5,0.1,0.7c0.1,0.6,0.2,1.1,0.3,1.6c0,0.1,0,0.2,0.1,0.3
			c0.2,0.7,0.4,1.3,0.6,1.9c0,0.1,0,0.1,0.1,0.2c0.2,0.6,0.5,1.1,0.7,1.7c0.1,0.1,0.1,0.2,0.2,0.4c0.2,0.5,0.5,0.9,0.8,1.4
			c0.1,0.1,0.2,0.2,0.3,0.4c0.3,0.4,0.6,0.8,0.9,1.2c0,0,0.1,0.1,0.1,0.1c5.2,6.4,6.1,15.9,3.3,23.8c-0.8,2.1-2,3.9-3.3,5.6
			c-2.6,3.3-4.2,7.5-4.2,12.1c0,4.4,1.4,8.5,3.9,11.7c3.6,4.8,5.3,10.8,5.3,16.9l0,1.9c0,0.1,0,0.1,0,0.2
			c-0.1,10.2-8.2,18.6-17.9,18.7c-0.1,0-0.1,0-0.2,0h-1.8c-0.1,0-0.1,0-0.2,0c-9.7-0.1-17.7-8.5-17.8-18.8c0-0.2,0-0.3,0-0.5l0-1.9
			c0-6.2,2.2-12,5.6-17c2.3-3.2,3.6-7.2,3.5-11.5c-0.2-9.9-7.9-18.1-17.3-18.5C14,78.8,5.5,87.4,5.5,98.1c0,4.4,1.4,8.5,3.9,11.7
			c3.6,4.8,5.3,10.8,5.3,16.9l0,1.6c0,6.1-1.7,12.1-5.3,16.8c-1.9,2.6-3.2,5.6-3.7,9c0,0.1,0,0.3,0,0.4c0,0.4-0.1,0.8-0.1,1.3
			c0,0.1,0,0.1,0,0.2c0,0.1,0,0.3,0,0.4c0,0.2,0,0.5,0,0.7c0,0.2,0,0.3,0,0.5c0,0.3,0,0.6,0.1,0.9c0,0.3,0.1,0.6,0.1,0.9
			c0.1,0.4,0.1,0.8,0.2,1.1c0,0.2,0.1,0.3,0.1,0.5c1.5,6.9,6.6,12.4,13.2,14.1c0.1,0,0.2,0.1,0.3,0.1c0.4,0.1,0.7,0.1,1.1,0.2
			c0.3,0,0.5,0.1,0.8,0.1c0.3,0,0.6,0.1,0.8,0.1c0.2,0,0.4,0,0.6,0.1c0.1,0,0.2,0,0.4,0c0.1,0,0.2,0,0.4,0c0.3,0,0.5,0,0.8,0
			c0.2,0,0.4,0,0.6,0c0.5,0,1-0.1,1.5-0.2c0.1,0,0.1,0,0.2,0c0.6-0.1,1.1-0.2,1.6-0.4c0.2-0.1,0.4-0.1,0.6-0.2
			c0.3-0.1,0.7-0.2,1-0.3c0.2-0.1,0.5-0.2,0.7-0.3c0.3-0.1,0.5-0.2,0.8-0.4c0.2-0.1,0.5-0.2,0.7-0.4c0.2-0.1,0.5-0.3,0.7-0.4
			c0.2-0.2,0.5-0.3,0.7-0.5c0.2-0.1,0.3-0.2,0.5-0.4c0.2-0.2,0.4-0.3,0.7-0.5c4.6-3.7,10.3-5.6,16.1-5.6l1.8,0c5.4,0,10.5,1.9,15,5
			c3,2.7,6.8,4.4,10.9,4.5c0.2,0,0.4,0,0.5,0c0.3,0,0.5,0,0.8,0c0.2,0,0.3,0,0.5,0c0.1,0,0.1,0,0.2,0c9.1-0.6,16.6-8.5,16.9-18.1
			c0.2-5.5-1.8-10.4-5.2-14c-2.8-4.5-4.2-9.9-4.2-15.3v-1.6c0-6.1,1.7-12.1,5.3-16.9c2.4-3.2,3.9-7.3,3.9-11.7
			c0-4.4-1.4-8.5-3.9-11.7C90,82.1,88,76.8,88,71.3v0c0,0,0-0.1,0-0.1c0.1-8.8,6.6-16.1,14.8-17.2c1.2-0.1,2.3-0.2,3.5-0.2l1.8,0
			c5.9,0,11.5,2.3,16.2,5.9c3.1,2.4,6.9,3.7,11,3.7c9.4-0.2,17.3-8.3,17.6-18.1C153.4,34.4,145.2,25.5,135,25.5z"/>
	</g>
	<g>
		<g>
			<path class="st0" d="M217.8,47.2c-1.3,1.3-3,1.9-5.2,1.9c-2,0-3.6-0.6-4.8-1.9c-1.2-1.3-1.8-2.9-1.8-5c0-2.1,0.6-3.8,1.8-5
				c1.2-1.3,2.8-1.9,4.8-1.9c2.2,0,3.9,0.6,5.2,1.9c1.3,1.3,1.9,2.9,1.9,5C219.7,44.2,219.1,45.9,217.8,47.2z M218.9,100.3h-11.9
				V55.1h11.9V100.3z"/>
			<path class="st0" d="M242.6,60.6c0.3-0.5,0.8-1.1,1.5-1.8c0.6-0.7,2-1.7,4.1-2.9c2.1-1.2,4.4-1.8,6.7-1.8c4.9,0,8.9,1.8,12.1,5.4
				c3.1,3.6,4.7,8.4,4.7,14.5v26.3h-11.9V75.4c0-2.8-0.8-5-2.3-6.7c-1.6-1.7-3.6-2.5-6-2.5c-2.7,0-4.8,0.9-6.4,2.8
				c-1.6,1.8-2.4,4.5-2.4,7.9v23.5h-11.9V55.1h11.9V60.6z"/>
			<path class="st0" d="M319.4,94.2c-4.5,4.7-9.9,7.1-16.1,7.1s-11.5-2.4-16.1-7.1c-4.6-4.7-6.8-10.2-6.8-16.5
				c0-6.3,2.3-11.8,6.8-16.5c4.6-4.7,9.9-7.1,16.1-7.1s11.5,2.4,16.1,7.1s6.8,10.2,6.8,16.5C326.2,84,323.9,89.5,319.4,94.2z
				 M295.9,86.2c2.1,2.3,4.6,3.5,7.4,3.5s5.3-1.1,7.4-3.5c2.1-2.3,3.1-5.1,3.1-8.5s-1-6.2-3.1-8.5c-2.1-2.3-4.6-3.5-7.4-3.5
				s-5.3,1.2-7.4,3.5c-2.1,2.3-3.1,5.2-3.1,8.5S293.8,83.9,295.9,86.2z"/>
			<path class="st0" d="M346,100.3l-16.3-45.3H342l10.1,30l10.1-30h12.3l-16.2,45.3H346z"/>
			<path class="st0" d="M404.5,95.7c-0.3,0.4-0.8,0.9-1.4,1.6c-0.6,0.6-2,1.4-4,2.4c-2.1,1-4.2,1.5-6.4,1.5c-4.3,0-7.8-1.3-10.5-3.8
				c-2.7-2.5-4-5.6-4-9.1c0-3.7,1.1-6.8,3.4-9.2c2.3-2.5,5.4-4.1,9.4-4.8l13.7-2.6c0-1.9-0.7-3.4-2-4.6c-1.3-1.2-3.2-1.8-5.5-1.8
				c-1.9,0-3.7,0.4-5.3,1.2c-1.6,0.8-2.7,1.6-3.4,2.4l-1,1.1l-6.6-6.9c0.2-0.2,0.4-0.6,0.7-1c0.3-0.4,1-1.1,2-2.1
				c1-1,2.2-1.9,3.4-2.6c1.2-0.8,2.8-1.5,4.9-2.1c2-0.6,4.1-1,6.1-1c5.4,0,9.9,1.7,13.3,5.1c3.4,3.4,5.2,7.7,5.2,12.9v28.2h-11.9
				V95.7z M402.1,88.4c1.6-1.8,2.4-4.3,2.4-7.5v-1.4l-9.7,1.8c-3.2,0.5-4.9,2.2-4.9,5.1c0,3.1,1.9,4.6,5.7,4.6
				C398.4,91.1,400.5,90.2,402.1,88.4z"/>
			<path class="st0" d="M451.1,41.7h10.6V56h8.8v11.1h-8.8v18c0,1.4,0.5,2.6,1.5,3.6c1,1,2.2,1.5,3.8,1.5c0.8,0,1.5-0.1,2.3-0.2
				c0.7-0.2,1.3-0.3,1.7-0.5l0.5-0.2v10.6c-2.4,0.9-5,1.4-8,1.4c-9.1,0-13.6-5.2-13.6-15.7V67.1h-7.5V56h4c1.3,0,2.5-0.6,3.4-1.7
				c0.9-1.1,1.4-2.6,1.4-4.3V41.7z"/>
			<path class="st0" d="M487.5,81.8c0.5,2.5,1.7,4.5,3.7,6.2c2,1.7,4.6,2.5,7.7,2.5c2.2,0,4.3-0.5,6.2-1.4c1.9-0.9,3.2-1.8,4-2.8
				l1.2-1.4l6.1,8.3l-0.8,0.8c-0.4,0.4-1.1,1-2.3,1.9c-1.2,0.9-2.4,1.7-3.7,2.4c-1.3,0.7-3,1.3-5.1,1.9c-2.1,0.5-4.3,0.8-6.5,0.8
				c-6.3,0-11.7-2.3-16.2-6.9c-4.5-4.6-6.7-10.2-6.7-16.6c0-6.5,2.2-12,6.6-16.6c4.4-4.6,9.7-6.9,15.9-6.9c6.2,0,11.3,2.2,15.4,6.5
				c4.1,4.3,6.1,9.7,6.1,16.2l-0.4,5.1H487.5z M491.3,67.1c-1.8,1.5-3,3.5-3.7,6h19.8c-0.5-2.4-1.6-4.4-3.3-6
				c-1.7-1.6-3.9-2.3-6.4-2.3C495.2,64.8,493,65.6,491.3,67.1z"/>
			<path class="st0" d="M532.3,61.2c4.6-4.7,10.1-7.1,16.4-7.1c2.2,0,4.4,0.3,6.4,1c2,0.6,3.7,1.4,5,2.3c1.3,0.9,2.4,1.8,3.4,2.7
				c1,0.9,1.7,1.7,2.2,2.3l0.6,0.9l-7.5,7.8c-0.2-0.4-0.6-1-1.1-1.7c-0.5-0.7-1.7-1.6-3.4-2.7c-1.8-1.1-3.6-1.6-5.6-1.6
				c-3.1,0-5.8,1.2-8.1,3.7c-2.3,2.4-3.4,5.4-3.4,8.8s1.1,6.4,3.4,8.8c2.3,2.4,4.9,3.7,8,3.7c1.9,0,3.8-0.5,5.6-1.5c1.8-1,3-2,3.8-3
				l1.2-1.5l7,7.8c-0.2,0.2-0.4,0.6-0.7,1c-0.3,0.4-1,1.2-2.1,2.2c-1.1,1-2.3,2-3.5,2.8c-1.3,0.8-2.9,1.5-4.9,2.2
				c-2,0.7-4.1,1-6.4,1c-6.3,0-11.8-2.4-16.4-7.1c-4.6-4.7-6.9-10.2-6.9-16.5C525.4,71.4,527.7,65.9,532.3,61.2z"/>
			<path class="st0" d="M586.6,60.6c0.3-0.5,0.8-1.1,1.4-1.8s2-1.7,4.1-2.9c2.1-1.2,4.4-1.8,6.7-1.8c4.9,0,8.9,1.8,12.1,5.4
				c3.1,3.6,4.7,8.4,4.7,14.5v26.3h-11.9V75.4c0-2.8-0.8-5-2.3-6.7c-1.6-1.7-3.6-2.5-6-2.5c-2.7,0-4.8,0.9-6.4,2.8
				c-1.6,1.8-2.4,4.5-2.4,7.9v23.5h-11.9V35.7h11.9V60.6z"/>
		</g>
	</g>
	<g>
		<g>
			<path class="st0" d="M208.5,123.2c1.2-1.2,2.5-1.8,4.1-1.8c0.9,0,1.7,0.2,2.4,0.6c0.8,0.4,1.3,0.8,1.6,1.2l0.5,0.6l-1.5,1.6
				c-0.1-0.1-0.2-0.3-0.3-0.5c-0.2-0.2-0.5-0.4-1-0.8c-0.5-0.3-1.1-0.5-1.7-0.5c-1,0-1.8,0.4-2.5,1.1c-0.7,0.8-1,1.7-1,2.8
				c0,1.1,0.3,2,1,2.8c0.7,0.8,1.5,1.1,2.5,1.1c0.6,0,1.2-0.2,1.7-0.5c0.5-0.3,0.9-0.6,1.1-0.9l0.4-0.5l1.5,1.6
				c0,0.1-0.1,0.2-0.2,0.3c-0.1,0.1-0.3,0.3-0.6,0.6c-0.3,0.3-0.6,0.5-1,0.7s-0.8,0.4-1.3,0.6c-0.5,0.2-1.1,0.3-1.6,0.3
				c-1.6,0-2.9-0.6-4.1-1.8c-1.2-1.2-1.7-2.7-1.7-4.3C206.8,125.8,207.4,124.4,208.5,123.2z"/>
			<path class="st0" d="M223.5,133.4l-4.6-11.8h2.5l3.3,8.6l3.3-8.6h2.5l-5,13c-0.6,1.5-1.2,2.5-1.7,3.1c-0.6,0.6-1.3,0.9-2.1,0.9
				c-0.3,0-0.6,0-0.9-0.1c-0.3,0-0.5-0.1-0.6-0.1l-0.2,0v-2.2c0.4,0.2,0.8,0.2,1.2,0.3c0.9,0,1.6-0.6,2-1.7L223.5,133.4z"/>
			<path class="st0" d="M243,123.1c1.1,1.2,1.6,2.6,1.6,4.3c0,1.7-0.5,3.2-1.6,4.3c-1.1,1.2-2.4,1.8-3.9,1.8c-0.4,0-0.8-0.1-1.2-0.2
				c-0.4-0.1-0.7-0.2-1-0.4s-0.5-0.3-0.8-0.5c-0.2-0.2-0.4-0.3-0.5-0.4l-0.2-0.2v1.4h-2.3v-17.2h2.3v6.8c0.1-0.1,0.3-0.3,0.5-0.4
				c0.2-0.2,0.6-0.4,1.2-0.7c0.6-0.3,1.3-0.4,1.9-0.4C240.7,121.3,242,121.9,243,123.1z M241.3,130.3c0.7-0.8,1-1.7,1-2.8
				c0-1.1-0.3-2-1-2.8c-0.7-0.8-1.5-1.2-2.4-1.2c-0.9,0-1.7,0.4-2.4,1.2c-0.7,0.8-1,1.7-1,2.8c0,1.1,0.3,2,1,2.8
				c0.7,0.8,1.5,1.1,2.4,1.1C239.8,131.4,240.6,131,241.3,130.3z"/>
			<path class="st0" d="M249.6,128.3c0.1,0.8,0.5,1.6,1.2,2.2c0.7,0.6,1.4,0.9,2.3,0.9c0.7,0,1.3-0.2,1.8-0.5c0.6-0.3,1-0.6,1.2-0.9
				l0.4-0.5l1.5,1.6c0,0.1-0.1,0.2-0.2,0.3c-0.1,0.1-0.3,0.3-0.6,0.6c-0.3,0.3-0.6,0.5-1,0.7c-0.4,0.2-0.8,0.4-1.4,0.6
				c-0.6,0.2-1.1,0.3-1.7,0.3c-1.6,0-3-0.6-4.1-1.8c-1.2-1.2-1.7-2.7-1.7-4.4c0-1.7,0.6-3.1,1.7-4.3c1.1-1.2,2.5-1.8,4-1.8
				c1.6,0,2.9,0.6,3.9,1.6c1,1.1,1.6,2.5,1.6,4.1l-0.1,1.2H249.6z M250.8,124.2c-0.6,0.5-1,1.2-1.2,2h6.5c-0.1-0.8-0.5-1.5-1.1-2
				c-0.6-0.5-1.3-0.8-2.1-0.8C252.1,123.4,251.4,123.7,250.8,124.2z"/>
			<path class="st0" d="M267,123.6c-0.9,0-1.6,0.3-2.1,0.9c-0.5,0.6-0.8,1.4-0.8,2.5v6.4h-2.3v-11.8h2.3v1.2l0.2-0.2
				c0.1-0.1,0.2-0.2,0.4-0.4c0.2-0.2,0.5-0.3,0.7-0.4c0.2-0.1,0.6-0.3,0.9-0.4c0.4-0.1,0.8-0.2,1.2-0.2h0.6v2.3
				C267.7,123.6,267.4,123.6,267,123.6z"/>
			<path class="st0" d="M276.2,124.5c-0.1-0.1-0.2-0.2-0.3-0.3c-0.1-0.1-0.4-0.3-0.7-0.4c-0.4-0.2-0.7-0.3-1.1-0.3
				c-0.5,0-0.9,0.1-1.2,0.4c-0.3,0.2-0.4,0.5-0.4,0.9c0,0.3,0.1,0.6,0.4,0.9c0.3,0.2,0.6,0.4,1.1,0.5c0.4,0.1,0.9,0.3,1.4,0.5
				c0.5,0.2,0.9,0.4,1.4,0.6c0.4,0.2,0.8,0.6,1.1,1c0.3,0.5,0.4,1,0.4,1.7c0,1-0.4,1.9-1.2,2.6c-0.8,0.7-1.8,1.1-3,1.1
				c-0.6,0-1.1-0.1-1.6-0.2c-0.5-0.1-0.9-0.3-1.2-0.5c-0.3-0.2-0.6-0.4-0.8-0.6c-0.2-0.2-0.4-0.4-0.5-0.5l-0.2-0.2l1.5-1.6
				c0.1,0.1,0.2,0.3,0.3,0.4c0.2,0.2,0.5,0.4,1,0.7c0.5,0.3,1,0.4,1.5,0.4c0.6,0,1.1-0.1,1.4-0.4c0.3-0.3,0.5-0.6,0.5-1.1
				c0-0.3-0.1-0.6-0.4-0.9c-0.3-0.2-0.6-0.4-1.1-0.5c-0.4-0.1-0.9-0.3-1.4-0.5c-0.5-0.2-1-0.4-1.4-0.6c-0.4-0.2-0.8-0.6-1.1-1
				c-0.3-0.5-0.4-1-0.4-1.7c0-0.9,0.4-1.7,1.1-2.4c0.8-0.7,1.7-1,2.8-1c0.4,0,0.9,0.1,1.3,0.2c0.4,0.1,0.8,0.2,1,0.4
				c0.3,0.2,0.5,0.3,0.7,0.5c0.2,0.2,0.3,0.3,0.4,0.4l0.1,0.2L276.2,124.5z"/>
			<path class="st0" d="M283.1,128.3c0.1,0.8,0.5,1.6,1.2,2.2c0.7,0.6,1.4,0.9,2.3,0.9c0.7,0,1.3-0.2,1.8-0.5c0.6-0.3,1-0.6,1.2-0.9
				l0.4-0.5l1.5,1.6c0,0.1-0.1,0.2-0.2,0.3c-0.1,0.1-0.3,0.3-0.6,0.6c-0.3,0.3-0.6,0.5-1,0.7s-0.8,0.4-1.4,0.6
				c-0.6,0.2-1.1,0.3-1.7,0.3c-1.6,0-3-0.6-4.1-1.8c-1.2-1.2-1.7-2.7-1.7-4.4c0-1.7,0.6-3.1,1.7-4.3c1.1-1.2,2.5-1.8,4-1.8
				s2.9,0.6,3.9,1.6c1,1.1,1.6,2.5,1.6,4.1l-0.1,1.2H283.1z M284.4,124.2c-0.6,0.5-1,1.2-1.2,2h6.5c-0.1-0.8-0.5-1.5-1.1-2
				c-0.6-0.5-1.3-0.8-2.1-0.8C285.6,123.4,284.9,123.7,284.4,124.2z"/>
			<path class="st0" d="M296.3,123.2c1.2-1.2,2.5-1.8,4.1-1.8c0.9,0,1.7,0.2,2.4,0.6c0.8,0.4,1.3,0.8,1.6,1.2l0.5,0.6l-1.5,1.6
				c-0.1-0.1-0.2-0.3-0.3-0.5c-0.2-0.2-0.5-0.4-1-0.8c-0.5-0.3-1.1-0.5-1.7-0.5c-1,0-1.8,0.4-2.5,1.1c-0.7,0.8-1,1.7-1,2.8
				c0,1.1,0.3,2,1,2.8c0.7,0.8,1.5,1.1,2.5,1.1c0.6,0,1.2-0.2,1.7-0.5c0.5-0.3,0.9-0.6,1.1-0.9l0.4-0.5l1.5,1.6
				c0,0.1-0.1,0.2-0.2,0.3c-0.1,0.1-0.3,0.3-0.6,0.6c-0.3,0.3-0.6,0.5-1,0.7s-0.8,0.4-1.3,0.6c-0.5,0.2-1.1,0.3-1.6,0.3
				c-1.6,0-2.9-0.6-4.1-1.8c-1.2-1.2-1.7-2.7-1.7-4.3C294.6,125.8,295.1,124.4,296.3,123.2z"/>
			<path class="st0" d="M316,132.2l-0.1,0.2c-0.1,0.1-0.2,0.2-0.4,0.4c-0.2,0.2-0.5,0.3-0.7,0.4c-0.3,0.1-0.6,0.2-0.9,0.4
				c-0.4,0.1-0.8,0.2-1.2,0.2c-1.4,0-2.5-0.5-3.3-1.4c-0.8-0.9-1.3-2.2-1.3-3.8v-6.9h2.3v6.9c0,0.8,0.3,1.5,0.8,2.1
				c0.5,0.6,1.2,0.8,1.9,0.8c0.9,0,1.6-0.3,2.1-0.9c0.5-0.6,0.8-1.4,0.8-2.5v-6.4h2.3v11.8H316V132.2z"/>
			<path class="st0" d="M327.7,123.6c-0.9,0-1.6,0.3-2.1,0.9s-0.8,1.4-0.8,2.5v6.4h-2.3v-11.8h2.3v1.2l0.2-0.2
				c0.1-0.1,0.2-0.2,0.4-0.4c0.2-0.2,0.5-0.3,0.7-0.4c0.2-0.1,0.6-0.3,0.9-0.4c0.4-0.1,0.8-0.2,1.2-0.2h0.6v2.3
				C328.5,123.6,328.1,123.6,327.7,123.6z"/>
			<path class="st0" d="M333.6,119c-0.3,0.3-0.6,0.4-1,0.4c-0.4,0-0.7-0.1-1-0.4c-0.3-0.3-0.4-0.6-0.4-1.1c0-0.4,0.1-0.8,0.4-1.1
				c0.3-0.3,0.6-0.4,1-0.4c0.4,0,0.7,0.1,1,0.4c0.3,0.3,0.4,0.6,0.4,1.1C334,118.3,333.9,118.7,333.6,119z M333.8,133.4h-2.3v-11.8
				h2.3V133.4z"/>
			<path class="st0" d="M339.3,117.7h2.1v3.9h2.3v2.2h-2.3v6.1c0,0.4,0.1,0.8,0.4,1.1c0.3,0.3,0.6,0.4,1,0.4c0.2,0,0.4,0,0.6-0.1
				c0.2,0,0.3-0.1,0.4-0.1l0.2,0v2.2c-0.5,0.2-1,0.2-1.6,0.2c-2.2,0-3.3-1.2-3.3-3.7v-6.1H337v-2.2h1.2c0.8,0,1.2-0.5,1.2-1.5V117.7
				z"/>
			<path class="st0" d="M350.6,133.4l-4.6-11.8h2.5l3.3,8.6l3.3-8.6h2.5l-5,13c-0.6,1.5-1.2,2.5-1.7,3.1c-0.6,0.6-1.3,0.9-2.1,0.9
				c-0.3,0-0.6,0-0.9-0.1c-0.3,0-0.5-0.1-0.6-0.1l-0.2,0v-2.2c0.4,0.2,0.8,0.2,1.2,0.3c0.9,0,1.6-0.6,2-1.7L350.6,133.4z"/>
			<path class="st0" d="M372.1,133.4v-1.2c0,0-0.1,0.1-0.2,0.2c-0.1,0.1-0.2,0.2-0.4,0.4c-0.2,0.2-0.5,0.3-0.7,0.4
				c-0.3,0.1-0.6,0.2-0.9,0.4c-0.4,0.1-0.8,0.2-1.2,0.2c-1.1,0-2.1-0.3-2.8-1c-0.8-0.7-1.1-1.5-1.1-2.4c0-1,0.3-1.8,0.9-2.4
				c0.6-0.7,1.4-1.1,2.4-1.2l4.1-0.7c0-0.6-0.2-1.1-0.7-1.6c-0.4-0.4-1-0.6-1.7-0.6c-0.6,0-1.1,0.1-1.6,0.4c-0.5,0.3-0.8,0.5-1,0.8
				l-0.3,0.4l-1.5-1.6c0-0.1,0.1-0.1,0.2-0.2c0.1-0.1,0.3-0.3,0.5-0.5c0.3-0.3,0.6-0.5,0.9-0.7c0.3-0.2,0.7-0.4,1.2-0.5
				s1-0.2,1.6-0.2c1.4,0,2.5,0.4,3.4,1.3c0.9,0.9,1.3,1.9,1.3,3.1v7.6H372.1z M371.3,130.5c0.5-0.6,0.8-1.4,0.8-2.5v-0.2l-3.6,0.6
				c-0.4,0.1-0.8,0.3-1,0.5c-0.3,0.3-0.4,0.6-0.4,1.1c0,0.4,0.2,0.7,0.5,1s0.8,0.4,1.5,0.4C370.1,131.4,370.8,131.1,371.3,130.5z"/>
			<path class="st0" d="M380.8,122.8l0.2-0.2c0.1-0.1,0.2-0.2,0.4-0.4c0.2-0.2,0.5-0.3,0.7-0.4c0.2-0.1,0.6-0.3,0.9-0.4
				c0.4-0.1,0.8-0.2,1.2-0.2c1.4,0,2.5,0.5,3.3,1.4c0.8,0.9,1.3,2.2,1.3,3.8v6.9h-2.3v-6.9c0-0.8-0.3-1.6-0.8-2.1
				c-0.5-0.6-1.2-0.8-1.9-0.8c-0.9,0-1.6,0.3-2.1,0.9s-0.8,1.4-0.8,2.5v6.4h-2.3v-11.8h2.3V122.8z"/>
			<path class="st0" d="M398.7,121.5c0.4,0.1,0.7,0.2,1,0.4c0.3,0.2,0.5,0.3,0.7,0.5c0.2,0.2,0.4,0.3,0.5,0.4l0.2,0.2v-6.8h2.3v17.2
				h-2.3V132c-0.1,0.1-0.3,0.3-0.5,0.4c-0.2,0.2-0.6,0.4-1.2,0.7c-0.6,0.3-1.3,0.4-1.9,0.4c-1.5,0-2.8-0.6-3.9-1.8
				c-1.1-1.2-1.6-2.6-1.6-4.3c0-1.7,0.5-3.2,1.6-4.3c1.1-1.2,2.4-1.8,3.9-1.8C397.9,121.3,398.3,121.4,398.7,121.5z M400.1,130.3
				c0.7-0.8,1-1.7,1-2.8c0-1.1-0.3-2-1-2.8c-0.7-0.8-1.5-1.2-2.4-1.2c-0.9,0-1.7,0.4-2.4,1.2c-0.7,0.8-1,1.7-1,2.8
				c0,1.1,0.3,2,1,2.8c0.7,0.8,1.5,1.1,2.4,1.1C398.6,131.4,399.4,131,400.1,130.3z"/>
			<path class="st0" d="M208.3,145.6h2.6v17.2h-2.6V145.6z"/>
			<path class="st0" d="M226.8,145.6v2.5h-4.9v14.7h-2.6v-14.7h-4.9v-2.5H226.8z"/>
			<path class="st0" d="M237.1,148.4c-0.3,0.3-0.6,0.4-1,0.4c-0.4,0-0.7-0.1-1-0.4c-0.3-0.3-0.4-0.6-0.4-1.1c0-0.4,0.1-0.8,0.4-1.1
				c0.3-0.3,0.6-0.4,1-0.4c0.4,0,0.7,0.1,1,0.4c0.3,0.3,0.4,0.6,0.4,1.1C237.5,147.8,237.4,148.1,237.1,148.4z M237.3,162.8H235V151
				h2.3V162.8z"/>
			<path class="st0" d="M243.7,152.3l0.2-0.2c0.1-0.1,0.2-0.2,0.4-0.4c0.2-0.2,0.5-0.3,0.7-0.4c0.2-0.1,0.6-0.3,0.9-0.4
				c0.4-0.1,0.8-0.2,1.2-0.2c1.4,0,2.5,0.5,3.3,1.4s1.3,2.2,1.3,3.8v6.9h-2.3V156c0-0.8-0.3-1.6-0.8-2.1c-0.5-0.6-1.2-0.8-1.9-0.8
				c-0.9,0-1.6,0.3-2.1,0.9c-0.5,0.6-0.8,1.4-0.8,2.5v6.4h-2.3V151h2.3V152.3z"/>
			<path class="st0" d="M261.3,153.2h-2.6v9.6h-2.3v-9.6h-1.6V151h1.6v-2c0-2.5,1.1-3.7,3.3-3.7c0.3,0,0.6,0,0.8,0.1
				s0.5,0.1,0.6,0.1l0.2,0v2.2c-0.4-0.2-0.8-0.2-1.2-0.3c-0.4,0-0.7,0.1-1,0.4c-0.3,0.3-0.4,0.6-0.4,1.1v1.9h2.6V153.2z"/>
			<path class="st0" d="M269.6,153c-0.9,0-1.6,0.3-2.1,0.9c-0.5,0.6-0.8,1.4-0.8,2.5v6.4h-2.3V151h2.3v1.2l0.2-0.2
				c0.1-0.1,0.2-0.2,0.4-0.4c0.2-0.2,0.5-0.3,0.7-0.4c0.2-0.1,0.6-0.3,0.9-0.4c0.4-0.1,0.8-0.2,1.2-0.2h0.6v2.3
				C270.3,153,269.9,153,269.6,153z"/>
			<path class="st0" d="M279.8,162.8v-1.2c0,0-0.1,0.1-0.2,0.2c-0.1,0.1-0.2,0.2-0.4,0.4c-0.2,0.2-0.5,0.3-0.7,0.4
				c-0.3,0.1-0.6,0.2-0.9,0.4c-0.4,0.1-0.8,0.2-1.2,0.2c-1.1,0-2.1-0.3-2.8-1c-0.8-0.7-1.1-1.5-1.1-2.4c0-1,0.3-1.8,0.9-2.4
				c0.6-0.7,1.4-1.1,2.4-1.2l4.1-0.7c0-0.6-0.2-1.1-0.7-1.6c-0.4-0.4-1-0.6-1.7-0.6c-0.6,0-1.1,0.1-1.6,0.4c-0.5,0.3-0.8,0.5-1,0.8
				l-0.3,0.4l-1.5-1.6c0-0.1,0.1-0.1,0.2-0.2c0.1-0.1,0.3-0.3,0.5-0.5c0.3-0.3,0.6-0.5,0.9-0.7c0.3-0.2,0.7-0.4,1.2-0.5
				c0.5-0.2,1-0.2,1.6-0.2c1.4,0,2.5,0.4,3.4,1.3c0.9,0.9,1.3,1.9,1.3,3.1v7.6H279.8z M279,160c0.5-0.6,0.8-1.4,0.8-2.5v-0.2
				l-3.6,0.6c-0.4,0.1-0.8,0.3-1,0.5c-0.3,0.3-0.4,0.6-0.4,1.1c0,0.4,0.2,0.7,0.5,1s0.8,0.4,1.5,0.4
				C277.8,160.9,278.5,160.6,279,160z"/>
			<path class="st0" d="M291.8,154c-0.1-0.1-0.2-0.2-0.3-0.3c-0.1-0.1-0.4-0.3-0.7-0.4c-0.4-0.2-0.7-0.3-1.1-0.3
				c-0.5,0-0.9,0.1-1.2,0.4c-0.3,0.2-0.4,0.5-0.4,0.9c0,0.3,0.1,0.6,0.4,0.9c0.3,0.2,0.6,0.4,1.1,0.5c0.4,0.1,0.9,0.3,1.4,0.5
				c0.5,0.2,0.9,0.4,1.4,0.6c0.4,0.2,0.8,0.6,1.1,1c0.3,0.5,0.4,1,0.4,1.7c0,1-0.4,1.9-1.2,2.6c-0.8,0.7-1.8,1.1-3,1.1
				c-0.6,0-1.1-0.1-1.6-0.2c-0.5-0.1-0.9-0.3-1.2-0.5c-0.3-0.2-0.6-0.4-0.8-0.6c-0.2-0.2-0.4-0.4-0.5-0.5l-0.2-0.2l1.5-1.6
				c0.1,0.1,0.2,0.3,0.3,0.4c0.2,0.2,0.5,0.4,1,0.7c0.5,0.3,1,0.4,1.5,0.4c0.6,0,1.1-0.1,1.4-0.4c0.3-0.3,0.5-0.6,0.5-1.1
				c0-0.3-0.1-0.6-0.4-0.9c-0.3-0.2-0.6-0.4-1.1-0.5c-0.4-0.1-0.9-0.3-1.4-0.5c-0.5-0.2-1-0.4-1.4-0.6c-0.4-0.2-0.8-0.6-1.1-1
				c-0.3-0.5-0.4-1-0.4-1.7c0-0.9,0.4-1.7,1.1-2.4c0.8-0.7,1.7-1,2.8-1c0.4,0,0.9,0.1,1.3,0.2c0.4,0.1,0.8,0.2,1,0.4
				c0.3,0.2,0.5,0.3,0.7,0.5c0.2,0.2,0.3,0.3,0.4,0.4l0.1,0.2L291.8,154z"/>
			<path class="st0" d="M298.4,147.1h2.1v3.9h2.3v2.2h-2.3v6.1c0,0.4,0.1,0.8,0.4,1.1c0.3,0.3,0.6,0.4,1,0.4c0.2,0,0.4,0,0.6-0.1
				c0.2,0,0.3-0.1,0.5-0.1l0.2,0v2.2c-0.5,0.2-1,0.2-1.6,0.2c-2.2,0-3.3-1.2-3.3-3.7v-6.1h-2.1V151h1.2c0.8,0,1.2-0.5,1.2-1.5V147.1
				z"/>
			<path class="st0" d="M311.9,153c-0.9,0-1.6,0.3-2.1,0.9c-0.5,0.6-0.8,1.4-0.8,2.5v6.4h-2.3V151h2.3v1.2l0.2-0.2
				c0.1-0.1,0.2-0.2,0.4-0.4c0.2-0.2,0.5-0.3,0.7-0.4c0.2-0.1,0.6-0.3,0.9-0.4c0.4-0.1,0.8-0.2,1.2-0.2h0.6v2.3
				C312.6,153,312.2,153,311.9,153z"/>
			<path class="st0" d="M323.4,161.6l-0.1,0.2c-0.1,0.1-0.2,0.2-0.4,0.4c-0.2,0.2-0.5,0.3-0.7,0.4c-0.3,0.1-0.6,0.2-0.9,0.4
				c-0.4,0.1-0.8,0.2-1.2,0.2c-1.4,0-2.5-0.5-3.3-1.4c-0.8-0.9-1.3-2.2-1.3-3.8V151h2.3v6.9c0,0.8,0.3,1.5,0.8,2.1
				c0.5,0.6,1.2,0.8,1.9,0.8c0.9,0,1.6-0.3,2.1-0.9c0.5-0.6,0.8-1.4,0.8-2.5V151h2.3v11.8h-2.3V161.6z"/>
			<path class="st0" d="M330.9,152.6c1.2-1.2,2.5-1.8,4.1-1.8c0.9,0,1.7,0.2,2.4,0.6c0.8,0.4,1.3,0.8,1.6,1.2l0.5,0.6l-1.5,1.6
				c-0.1-0.1-0.2-0.3-0.3-0.5c-0.2-0.2-0.5-0.4-1-0.8c-0.5-0.3-1.1-0.5-1.7-0.5c-1,0-1.8,0.4-2.5,1.1c-0.7,0.8-1,1.7-1,2.8
				c0,1.1,0.3,2,1,2.8c0.7,0.8,1.5,1.1,2.5,1.1c0.6,0,1.2-0.2,1.7-0.5c0.5-0.3,0.9-0.6,1.1-0.9l0.4-0.5l1.5,1.6
				c0,0.1-0.1,0.2-0.2,0.3c-0.1,0.1-0.3,0.3-0.6,0.6c-0.3,0.3-0.6,0.5-1,0.7s-0.8,0.4-1.3,0.6c-0.5,0.2-1.1,0.3-1.6,0.3
				c-1.6,0-2.9-0.6-4.1-1.8c-1.2-1.2-1.7-2.7-1.7-4.3S329.7,153.8,330.9,152.6z"/>
			<path class="st0" d="M344.1,147.1h2.1v3.9h2.3v2.2h-2.3v6.1c0,0.4,0.1,0.8,0.4,1.1c0.3,0.3,0.6,0.4,1,0.4c0.2,0,0.4,0,0.6-0.1
				c0.2,0,0.3-0.1,0.5-0.1l0.2,0v2.2c-0.5,0.2-1,0.2-1.6,0.2c-2.2,0-3.3-1.2-3.3-3.7v-6.1h-2.1V151h1.2c0.8,0,1.2-0.5,1.2-1.5V147.1
				z"/>
			<path class="st0" d="M360.2,161.6l-0.1,0.2c-0.1,0.1-0.2,0.2-0.4,0.4c-0.2,0.2-0.5,0.3-0.7,0.4c-0.3,0.1-0.6,0.2-0.9,0.4
				c-0.4,0.1-0.8,0.2-1.2,0.2c-1.4,0-2.5-0.5-3.3-1.4c-0.8-0.9-1.3-2.2-1.3-3.8V151h2.3v6.9c0,0.8,0.3,1.5,0.8,2.1
				c0.5,0.6,1.2,0.8,1.9,0.8c0.9,0,1.6-0.3,2.1-0.9c0.5-0.6,0.8-1.4,0.8-2.5V151h2.3v11.8h-2.3V161.6z"/>
			<path class="st0" d="M371.9,153c-0.9,0-1.6,0.3-2.1,0.9c-0.5,0.6-0.8,1.4-0.8,2.5v6.4h-2.3V151h2.3v1.2l0.2-0.2
				c0.1-0.1,0.2-0.2,0.4-0.4c0.2-0.2,0.5-0.3,0.7-0.4c0.2-0.1,0.6-0.3,0.9-0.4c0.4-0.1,0.8-0.2,1.2-0.2h0.6v2.3
				C372.7,153,372.3,153,371.9,153z"/>
			<path class="st0" d="M377.2,157.8c0.1,0.8,0.5,1.6,1.2,2.2c0.7,0.6,1.4,0.9,2.3,0.9c0.7,0,1.3-0.2,1.8-0.5c0.6-0.3,1-0.6,1.2-0.9
				l0.4-0.5l1.5,1.6c0,0.1-0.1,0.2-0.2,0.3c-0.1,0.1-0.3,0.3-0.6,0.6c-0.3,0.3-0.6,0.5-1,0.7s-0.8,0.4-1.4,0.6s-1.1,0.3-1.7,0.3
				c-1.6,0-3-0.6-4.1-1.8c-1.2-1.2-1.7-2.7-1.7-4.4c0-1.7,0.6-3.1,1.7-4.3c1.1-1.2,2.5-1.8,4-1.8s2.9,0.6,3.9,1.6
				c1,1.1,1.6,2.5,1.6,4.1l-0.1,1.2H377.2z M378.4,153.7c-0.6,0.5-1,1.2-1.2,2h6.5c-0.1-0.8-0.5-1.5-1.1-2s-1.3-0.8-2.1-0.8
				C379.7,152.9,379,153.1,378.4,153.7z"/>
		</g>
	</g>
</g>
<g>
	<g>
		<linearGradient id="SVGID_1_" gradientUnits="userSpaceOnUse" x1="143.4779" y1="232.9126" x2="23.8102" y2="33.0901">
			<stop  offset="0" style="stop-color:#81CFF4"/>
			<stop  offset="4.029095e-03" style="stop-color:#80CEF3"/>
			<stop  offset="0.2059" style="stop-color:#6092B6"/>
			<stop  offset="0.3999" style="stop-color:#456184"/>
			<stop  offset="0.5813" style="stop-color:#303A5D"/>
			<stop  offset="0.7471" style="stop-color:#201F41"/>
			<stop  offset="0.892" style="stop-color:#170E30"/>
			<stop  offset="1" style="stop-color:#14082A"/>
		</linearGradient>
		<circle class="st1" cx="36.5" cy="54.4" r="17.1"/>
		<linearGradient id="SVGID_2_" gradientUnits="userSpaceOnUse" x1="176.6167" y1="213.0667" x2="56.949" y2="13.2442">
			<stop  offset="0" style="stop-color:#81CFF4"/>
			<stop  offset="4.029095e-03" style="stop-color:#80CEF3"/>
			<stop  offset="0.2059" style="stop-color:#6092B6"/>
			<stop  offset="0.3999" style="stop-color:#456184"/>
			<stop  offset="0.5813" style="stop-color:#303A5D"/>
			<stop  offset="0.7471" style="stop-color:#201F41"/>
			<stop  offset="0.892" style="stop-color:#170E30"/>
			<stop  offset="1" style="stop-color:#14082A"/>
		</linearGradient>
		<circle class="st2" cx="142.5" cy="156.1" r="17.1"/>
		<linearGradient id="SVGID_3_" gradientUnits="userSpaceOnUse" x1="160.0564" y1="222.9842" x2="40.3887" y2="23.1617">
			<stop  offset="0" style="stop-color:#81CFF4"/>
			<stop  offset="4.029095e-03" style="stop-color:#80CEF3"/>
			<stop  offset="0.2059" style="stop-color:#6092B6"/>
			<stop  offset="0.3999" style="stop-color:#456184"/>
			<stop  offset="0.5813" style="stop-color:#303A5D"/>
			<stop  offset="0.7471" style="stop-color:#201F41"/>
			<stop  offset="0.892" style="stop-color:#170E30"/>
			<stop  offset="1" style="stop-color:#14082A"/>
		</linearGradient>
		<path class="st3" d="M142.5,37.3c-4,0-7.7,1.4-10.6,3.7c-4.3,3.4-9.8,5-15.3,5l-2.4,0c-5.4,0-10.4-2.1-14.8-5.4
			c-0.1-0.1-0.3-0.2-0.4-0.3c-0.1-0.1-0.3-0.2-0.4-0.3c-0.3-0.2-0.7-0.4-1-0.6c-0.1-0.1-0.2-0.1-0.3-0.2c-0.5-0.2-0.9-0.5-1.4-0.7
			c-0.1,0-0.2-0.1-0.3-0.1c-0.4-0.2-0.8-0.3-1.2-0.4c-0.2-0.1-0.3-0.1-0.5-0.1c-0.4-0.1-0.7-0.2-1.1-0.3c-0.2,0-0.4-0.1-0.5-0.1
			c-0.4-0.1-0.8-0.1-1.2-0.2c-0.2,0-0.3,0-0.5,0c-0.5,0-1.1-0.1-1.6,0c0,0,0,0-0.1,0c-0.2,0-0.5,0-0.7,0c-0.3,0-0.7,0-1,0.1
			c-0.1,0-0.1,0-0.2,0c-0.9,0.1-1.8,0.3-2.7,0.6c-0.3,0.1-0.6,0.2-0.9,0.3c-0.1,0-0.1,0.1-0.2,0.1c-4,1.6-7.2,4.6-9.1,8.3
			c-0.7,1.3-1.2,2.8-1.5,4.2c0,0.2,0,0.4-0.1,0.6c-0.1,0.3-0.1,0.6-0.1,1c0,0.3-0.1,0.5-0.1,0.7c0,0.1,0,0.2,0,0.3
			c0,0.3,0,0.5,0,0.8c0,0.3,0,0.5,0,0.8c0,0.4,0.1,0.8,0.1,1.2c0,0.2,0,0.4,0.1,0.7c0.1,0.5,0.2,1,0.3,1.5c0,0.1,0,0.2,0.1,0.3
			c0.2,0.6,0.4,1.2,0.6,1.8c0,0,0,0.1,0.1,0.1c0.2,0.5,0.4,1,0.7,1.5c0.1,0.1,0.1,0.2,0.2,0.3c0.2,0.4,0.5,0.8,0.7,1.2
			c0.1,0.1,0.2,0.2,0.2,0.3c0.3,0.4,0.5,0.8,0.8,1.1c0,0,0.1,0.1,0.1,0.1c4.9,5.8,5.8,14.4,3.1,21.5c-0.7,1.9-1.9,3.5-3.2,5.1
			c-2.5,3-4,6.8-4,11c0,4,1.4,7.7,3.7,10.6c3.4,4.3,5,9.8,5,15.3v1.7c0,0.1,0,0.1,0,0.2c-0.1,9.3-7.8,16.9-17,17c-0.1,0-0.1,0-0.2,0
			h-1.7c0,0-0.1,0-0.1,0c-9.3-0.1-16.8-7.7-17-17c0-0.1,0-0.3,0-0.4l0-1.7c0-5.6,2-10.9,5.4-15.4c2.1-2.9,3.4-6.5,3.3-10.5
			c-0.2-8.9-7.5-16.4-16.4-16.7c-9.7-0.4-17.8,7.4-17.8,17.1c0,4,1.4,7.7,3.7,10.6c3.4,4.3,5,9.8,5,15.3v1.4c0,5.5-1.6,11-5,15.3
			c-1.8,2.3-3.1,5.1-3.5,8.2c0,0.1,0,0.3,0,0.4c0,0.4-0.1,0.8-0.1,1.1c0,0.1,0,0.1,0,0.2c0,0.1,0,0.2,0,0.4c0,0.2,0,0.4,0,0.6
			c0,0.1,0,0.3,0,0.4c0,0.3,0,0.6,0.1,0.8c0,0.3,0.1,0.5,0.1,0.8c0,0.3,0.1,0.7,0.2,1c0,0.1,0.1,0.3,0.1,0.4
			c1.4,6.3,6.3,11.2,12.5,12.7c0.1,0,0.2,0.1,0.3,0.1c0.3,0.1,0.7,0.1,1,0.2c0.3,0,0.5,0.1,0.8,0.1c0.3,0,0.5,0.1,0.8,0.1
			c0.2,0,0.4,0,0.6,0.1c0.1,0,0.2,0,0.3,0c0.1,0,0.2,0,0.3,0c0.3,0,0.5,0,0.7,0c0.2,0,0.4,0,0.5,0c0.5,0,1-0.1,1.4-0.2
			c0.1,0,0.1,0,0.2,0c0.5-0.1,1-0.2,1.5-0.3c0.2-0.1,0.4-0.1,0.6-0.2c0.3-0.1,0.6-0.2,0.9-0.3c0.2-0.1,0.4-0.2,0.6-0.3
			c0.3-0.1,0.5-0.2,0.8-0.3c0.2-0.1,0.5-0.2,0.7-0.3c0.2-0.1,0.4-0.3,0.7-0.4c0.2-0.1,0.5-0.3,0.7-0.4c0.2-0.1,0.3-0.2,0.5-0.3
			c0.2-0.2,0.4-0.3,0.6-0.5c4.4-3.3,9.8-5.1,15.3-5.1h1.7c5.1,0,10,1.7,14.3,4.6c2.8,2.4,6.4,4,10.4,4.1c0.2,0,0.3,0,0.5,0
			c0.2,0,0.5,0,0.7,0c0.2,0,0.3,0,0.5,0c0.1,0,0.1,0,0.2,0c8.6-0.5,15.7-7.7,16.1-16.4c0.2-4.9-1.7-9.4-4.9-12.7
			c-2.7-4.1-4-8.9-4-13.9l0-1.4c0-5.5,1.6-11,5-15.3c2.3-2.9,3.7-6.6,3.7-10.6c0-4-1.4-7.7-3.7-10.6c-3.1-4-5-8.7-5-13.8v0
			c0,0,0-0.1,0-0.1c0-7.9,6.2-14.6,14.1-15.6c1.1-0.1,2.2-0.2,3.3-0.2l1.7,0c5.6,0,10.9,2,15.4,5.4c2.9,2.2,6.5,3.4,10.5,3.3
			c8.9-0.2,16.4-7.5,16.7-16.4C160,45.3,152.2,37.3,142.5,37.3z"/>
	</g>
	<g>
		<g>
			<path class="st4" d="M221.2,56.9c-1.2,1.1-2.8,1.7-4.9,1.7c-1.9,0-3.4-0.6-4.6-1.7c-1.1-1.1-1.7-2.7-1.7-4.6s0.6-3.4,1.7-4.6
				c1.1-1.1,2.7-1.7,4.5-1.7c2.1,0,3.7,0.6,4.9,1.7c1.2,1.1,1.8,2.7,1.8,4.6S222.4,55.7,221.2,56.9z M222.2,105h-11.3V64h11.3V105z"
				/>
			<path class="st4" d="M244.8,69c0.3-0.4,0.8-1,1.4-1.6c0.6-0.6,1.9-1.5,3.9-2.6c2-1.1,4.2-1.6,6.4-1.6c4.7,0,8.5,1.6,11.5,4.9
				c3,3.2,4.4,7.6,4.4,13.1V105h-11.3V82.4c0-2.5-0.7-4.5-2.2-6.1c-1.5-1.5-3.4-2.3-5.7-2.3c-2.6,0-4.6,0.8-6.1,2.5
				c-1.5,1.7-2.3,4.1-2.3,7.1V105h-11.3V64h11.3V69z"/>
			<path class="st4" d="M317.7,99.5c-4.3,4.3-9.4,6.4-15.3,6.4c-5.9,0-10.9-2.1-15.3-6.4c-4.3-4.3-6.5-9.2-6.5-14.9
				c0-5.7,2.2-10.7,6.5-14.9c4.3-4.3,9.4-6.4,15.3-6.4c5.9,0,10.9,2.1,15.3,6.4s6.5,9.2,6.5,14.9C324.2,90.2,322.1,95.2,317.7,99.5z
				 M295.4,92.3c2,2.1,4.3,3.1,7.1,3.1c2.7,0,5.1-1,7.1-3.1c2-2.1,3-4.7,3-7.7s-1-5.6-3-7.7c-2-2.1-4.3-3.1-7.1-3.1
				c-2.7,0-5.1,1-7.1,3.1c-2,2.1-3,4.7-3,7.7S293.4,90.2,295.4,92.3z"/>
			<path class="st4" d="M343,105l-15.5-41h11.7l9.6,27.2l9.6-27.2h11.7l-15.4,41H343z"/>
			<path class="st4" d="M398.6,100.9c-0.3,0.4-0.8,0.9-1.4,1.4s-1.9,1.3-3.8,2.2c-2,0.9-4,1.4-6.1,1.4c-4.1,0-7.4-1.1-10-3.4
				c-2.6-2.3-3.8-5-3.8-8.3c0-3.3,1.1-6.1,3.2-8.4c2.2-2.2,5.1-3.7,8.9-4.4l13-2.3c0-1.7-0.6-3.1-1.9-4.2c-1.3-1.1-3-1.6-5.2-1.6
				c-1.9,0-3.5,0.3-5.1,1c-1.5,0.7-2.6,1.4-3.2,2.1l-0.9,1l-6.3-6.3c0.2-0.2,0.4-0.5,0.7-0.9s0.9-1,1.9-1.9c1-0.9,2.1-1.7,3.2-2.4
				c1.2-0.7,2.7-1.3,4.6-1.9c1.9-0.6,3.9-0.9,5.8-0.9c5.2,0,9.4,1.5,12.7,4.6c3.3,3.1,4.9,7,4.9,11.7V105h-11.3V100.9z M396.4,94.2
				c1.5-1.6,2.3-3.9,2.3-6.8v-1.3l-9.2,1.7c-3.1,0.5-4.6,2-4.6,4.6c0,2.8,1.8,4.2,5.4,4.2C392.8,96.7,394.9,95.8,396.4,94.2z"/>
			<path class="st4" d="M442.9,51.9h10v13h8.3v10H453v16.3c0,1.3,0.5,2.4,1.4,3.3c0.9,0.9,2.1,1.3,3.6,1.3c0.7,0,1.5-0.1,2.1-0.2
				c0.7-0.1,1.2-0.3,1.6-0.5l0.5-0.2v9.6c-2.2,0.8-4.8,1.3-7.6,1.2c-8.6,0-13-4.7-13-14.2V74.9h-7.1v-10h3.8c1.3,0,2.4-0.5,3.3-1.5
				c0.9-1,1.3-2.3,1.3-3.9V51.9z"/>
			<path class="st4" d="M477.6,88.3c0.4,2.2,1.6,4.1,3.6,5.7c1.9,1.5,4.4,2.3,7.3,2.3c2.1,0,4.1-0.4,5.9-1.2
				c1.8-0.8,3.1-1.7,3.8-2.5l1.2-1.3l5.8,7.5l-0.8,0.8c-0.3,0.3-1.1,0.9-2.2,1.7c-1.1,0.8-2.3,1.5-3.6,2.2c-1.3,0.6-2.9,1.2-4.9,1.7
				c-2,0.5-4.1,0.7-6.2,0.7c-6,0-11.2-2.1-15.4-6.3c-4.2-4.2-6.4-9.2-6.4-15.1c0-5.9,2.1-10.9,6.3-15.1c4.2-4.2,9.2-6.3,15.1-6.3
				c5.9,0,10.7,2,14.6,5.9c3.9,3.9,5.8,8.8,5.8,14.6l-0.4,4.6H477.6z M481.1,74.9c-1.7,1.4-2.9,3.2-3.5,5.4h18.8
				c-0.4-2.2-1.5-4-3.1-5.4c-1.6-1.4-3.7-2.1-6.1-2.1C484.8,72.8,482.8,73.5,481.1,74.9z"/>
			<path class="st4" d="M520.1,69.6c4.4-4.3,9.6-6.4,15.6-6.4c2.1,0,4.1,0.3,6.1,0.9c1.9,0.6,3.5,1.3,4.7,2.1
				c1.2,0.8,2.3,1.6,3.3,2.4c1,0.8,1.6,1.5,2.1,2.1l0.6,0.9l-7.1,7.1c-0.2-0.4-0.6-0.9-1.1-1.5c-0.5-0.6-1.6-1.4-3.3-2.4
				c-1.7-1-3.4-1.5-5.3-1.5c-3,0-5.5,1.1-7.7,3.3c-2.1,2.2-3.2,4.9-3.2,8s1.1,5.8,3.2,8c2.2,2.2,4.7,3.3,7.6,3.3
				c1.9,0,3.6-0.4,5.3-1.3c1.7-0.9,2.9-1.8,3.7-2.7l1.1-1.4l6.7,7.1c-0.2,0.2-0.4,0.5-0.7,0.9c-0.3,0.4-0.9,1.1-2,2
				c-1,0.9-2.2,1.8-3.3,2.5c-1.2,0.7-2.8,1.4-4.7,2c-1.9,0.6-3.9,0.9-6.1,0.9c-6,0-11.2-2.1-15.6-6.4c-4.4-4.3-6.6-9.2-6.6-14.9
				C513.5,78.8,515.7,73.9,520.1,69.6z"/>
			<path class="st4" d="M571.7,69c0.3-0.4,0.8-1,1.4-1.6c0.6-0.6,1.9-1.5,3.9-2.6c2-1.1,4.2-1.6,6.4-1.6c4.7,0,8.5,1.6,11.5,4.9
				c3,3.2,4.4,7.6,4.4,13.1V105H588V82.4c0-2.5-0.7-4.5-2.2-6.1c-1.5-1.5-3.4-2.3-5.7-2.3c-2.6,0-4.6,0.8-6.1,2.5
				c-1.5,1.7-2.2,4.1-2.2,7.1V105h-11.3V46.4h11.3V69z"/>
		</g>
	</g>
	<g>
		<g>
			<path class="st4" d="M212.4,125.7c1.1-1.1,2.4-1.7,3.9-1.7c0.8,0,1.6,0.2,2.3,0.5c0.7,0.4,1.2,0.7,1.5,1.1l0.5,0.5l-1.4,1.4
				c-0.1-0.1-0.2-0.3-0.3-0.4c-0.1-0.2-0.5-0.4-1-0.7c-0.5-0.3-1-0.4-1.6-0.4c-0.9,0-1.7,0.3-2.4,1c-0.7,0.7-1,1.5-1,2.5
				c0,1,0.3,1.8,1,2.5c0.7,0.7,1.4,1,2.4,1c0.6,0,1.1-0.1,1.6-0.4c0.5-0.3,0.9-0.6,1.1-0.8l0.3-0.4l1.4,1.4c0,0.1-0.1,0.1-0.2,0.2
				c-0.1,0.1-0.3,0.3-0.6,0.5c-0.3,0.3-0.6,0.5-0.9,0.7c-0.3,0.2-0.7,0.4-1.2,0.5c-0.5,0.2-1,0.2-1.5,0.2c-1.5,0-2.8-0.6-3.9-1.7
				c-1.1-1.1-1.7-2.4-1.7-3.9C210.8,128.1,211.3,126.8,212.4,125.7z"/>
			<path class="st4" d="M226.6,135l-4.3-10.7h2.3l3.1,7.8l3.1-7.8h2.3l-4.8,11.8c-0.5,1.3-1.1,2.2-1.6,2.8c-0.5,0.5-1.2,0.8-2,0.8
				c-0.3,0-0.6,0-0.8-0.1c-0.3,0-0.5-0.1-0.6-0.1l-0.2,0v-2c0.4,0.1,0.7,0.2,1.1,0.2c0.8,0,1.5-0.5,1.9-1.6L226.6,135z"/>
			<path class="st4" d="M245.2,125.7c1,1.1,1.6,2.4,1.6,3.9s-0.5,2.9-1.6,3.9c-1,1.1-2.3,1.6-3.7,1.6c-0.4,0-0.8,0-1.2-0.1
				c-0.4-0.1-0.7-0.2-1-0.4s-0.5-0.3-0.7-0.4c-0.2-0.1-0.4-0.3-0.4-0.4l-0.2-0.2v1.2h-2.2v-15.6h2.2v6.1c0.1-0.1,0.2-0.2,0.4-0.4
				c0.2-0.2,0.6-0.4,1.2-0.7c0.6-0.3,1.2-0.4,1.8-0.4C242.9,124.1,244.2,124.6,245.2,125.7z M243.5,132.1c0.7-0.7,1-1.5,1-2.5
				c0-1-0.3-1.8-1-2.5c-0.7-0.7-1.4-1-2.2-1c-0.8,0-1.6,0.3-2.2,1c-0.7,0.7-1,1.5-1,2.5c0,1,0.3,1.8,1,2.5c0.7,0.7,1.4,1,2.2,1
				C242.1,133.2,242.9,132.8,243.5,132.1z"/>
			<path class="st4" d="M251.4,130.4c0.1,0.8,0.5,1.4,1.1,2c0.6,0.5,1.4,0.8,2.2,0.8c0.6,0,1.2-0.1,1.7-0.4c0.5-0.3,0.9-0.6,1.1-0.8
				l0.3-0.4l1.4,1.4c0,0.1-0.1,0.1-0.2,0.2c-0.1,0.1-0.3,0.3-0.6,0.5c-0.3,0.3-0.6,0.5-0.9,0.7c-0.3,0.2-0.8,0.4-1.3,0.5
				c-0.5,0.2-1.1,0.2-1.6,0.2c-1.5,0-2.8-0.6-3.9-1.7c-1.1-1.1-1.6-2.4-1.6-4c0-1.5,0.5-2.8,1.6-3.9c1.1-1.1,2.3-1.6,3.8-1.6
				c1.5,0,2.7,0.5,3.7,1.5c1,1,1.5,2.2,1.5,3.7l-0.1,1.1H251.4z M252.6,126.7c-0.5,0.5-0.9,1.1-1.1,1.8h6.2c-0.1-0.8-0.5-1.4-1-1.8
				s-1.2-0.7-2-0.7C253.8,126,253.1,126.2,252.6,126.7z"/>
			<path class="st4" d="M268,126.1c-0.8,0-1.5,0.3-2,0.8s-0.8,1.3-0.8,2.3v5.8h-2.2v-10.7h2.2v1.1l0.1-0.1c0.1-0.1,0.2-0.2,0.4-0.3
				c0.2-0.1,0.4-0.3,0.7-0.4c0.2-0.1,0.5-0.2,0.9-0.3c0.4-0.1,0.7-0.1,1.1-0.1h0.6v2.1C268.7,126.1,268.3,126.1,268,126.1z"/>
			<path class="st4" d="M276.7,127c-0.1-0.1-0.1-0.1-0.3-0.2c-0.1-0.1-0.3-0.2-0.7-0.4c-0.4-0.2-0.7-0.2-1.1-0.2
				c-0.5,0-0.9,0.1-1.1,0.3c-0.3,0.2-0.4,0.5-0.4,0.8c0,0.3,0.1,0.6,0.4,0.8c0.3,0.2,0.6,0.4,1,0.5c0.4,0.1,0.8,0.2,1.3,0.4
				c0.5,0.2,0.9,0.3,1.3,0.5c0.4,0.2,0.7,0.5,1,0.9c0.3,0.4,0.4,0.9,0.4,1.5c0,0.9-0.4,1.7-1.1,2.4c-0.7,0.7-1.7,1-2.9,1
				c-0.5,0-1-0.1-1.5-0.2c-0.5-0.1-0.9-0.3-1.2-0.5c-0.3-0.2-0.6-0.4-0.8-0.5c-0.2-0.2-0.4-0.3-0.5-0.5l-0.2-0.2l1.4-1.4
				c0.1,0.1,0.2,0.2,0.3,0.4c0.1,0.2,0.4,0.4,0.9,0.6c0.5,0.2,0.9,0.4,1.4,0.4c0.6,0,1-0.1,1.3-0.4c0.3-0.2,0.4-0.6,0.4-1
				c0-0.3-0.1-0.6-0.4-0.8c-0.3-0.2-0.6-0.4-1-0.5c-0.4-0.1-0.8-0.3-1.3-0.4c-0.5-0.2-0.9-0.3-1.3-0.5c-0.4-0.2-0.7-0.5-1-0.9
				c-0.3-0.4-0.4-0.9-0.4-1.5c0-0.8,0.4-1.5,1.1-2.2c0.7-0.6,1.6-0.9,2.7-0.9c0.4,0,0.8,0,1.2,0.1c0.4,0.1,0.7,0.2,1,0.4
				c0.3,0.1,0.5,0.3,0.7,0.4c0.2,0.1,0.3,0.3,0.4,0.4l0.1,0.2L276.7,127z"/>
			<path class="st4" d="M283.3,130.4c0.1,0.8,0.5,1.4,1.1,2c0.6,0.5,1.4,0.8,2.2,0.8c0.6,0,1.2-0.1,1.7-0.4c0.5-0.3,0.9-0.6,1.1-0.8
				l0.3-0.4l1.4,1.4c0,0.1-0.1,0.1-0.2,0.2c-0.1,0.1-0.3,0.3-0.6,0.5c-0.3,0.3-0.6,0.5-0.9,0.7c-0.3,0.2-0.8,0.4-1.3,0.5
				c-0.5,0.2-1.1,0.2-1.6,0.2c-1.5,0-2.8-0.6-3.9-1.7c-1.1-1.1-1.6-2.4-1.6-4c0-1.5,0.5-2.8,1.6-3.9c1.1-1.1,2.3-1.6,3.8-1.6
				c1.5,0,2.7,0.5,3.7,1.5c1,1,1.5,2.2,1.5,3.7l-0.1,1.1H283.3z M284.5,126.7c-0.5,0.5-0.9,1.1-1.1,1.8h6.2c-0.1-0.8-0.5-1.4-1-1.8
				s-1.2-0.7-2-0.7C285.7,126,285,126.2,284.5,126.7z"/>
			<path class="st4" d="M295.8,125.7c1.1-1.1,2.4-1.7,3.9-1.7c0.8,0,1.6,0.2,2.3,0.5c0.7,0.4,1.2,0.7,1.5,1.1l0.5,0.5l-1.4,1.4
				c-0.1-0.1-0.2-0.3-0.3-0.4c-0.1-0.2-0.5-0.4-1-0.7c-0.5-0.3-1-0.4-1.6-0.4c-0.9,0-1.7,0.3-2.4,1c-0.7,0.7-1,1.5-1,2.5
				c0,1,0.3,1.8,1,2.5c0.7,0.7,1.4,1,2.4,1c0.6,0,1.1-0.1,1.6-0.4c0.5-0.3,0.9-0.6,1.1-0.8l0.3-0.4l1.4,1.4c0,0.1-0.1,0.1-0.2,0.2
				c-0.1,0.1-0.3,0.3-0.6,0.5c-0.3,0.3-0.6,0.5-0.9,0.7c-0.3,0.2-0.7,0.4-1.2,0.5c-0.5,0.2-1,0.2-1.5,0.2c-1.5,0-2.8-0.6-3.9-1.7
				c-1.1-1.1-1.7-2.4-1.7-3.9C294.2,128.1,294.7,126.8,295.8,125.7z"/>
			<path class="st4" d="M314.6,133.9l-0.1,0.1c-0.1,0.1-0.2,0.2-0.4,0.3c-0.2,0.1-0.4,0.3-0.7,0.4c-0.2,0.1-0.5,0.2-0.9,0.3
				c-0.4,0.1-0.7,0.1-1.1,0.1c-1.3,0-2.3-0.4-3.1-1.3c-0.8-0.8-1.2-2-1.2-3.4v-6.2h2.2v6.2c0,0.8,0.2,1.4,0.7,1.9
				c0.5,0.5,1.1,0.8,1.8,0.8c0.8,0,1.5-0.3,2-0.8c0.5-0.5,0.8-1.3,0.8-2.3v-5.8h2.2V135h-2.2V133.9z"/>
			<path class="st4" d="M325.7,126.1c-0.8,0-1.5,0.3-2,0.8c-0.5,0.5-0.8,1.3-0.8,2.3v5.8h-2.2v-10.7h2.2v1.1l0.1-0.1
				c0.1-0.1,0.2-0.2,0.4-0.3c0.2-0.1,0.4-0.3,0.7-0.4c0.2-0.1,0.5-0.2,0.9-0.3c0.4-0.1,0.7-0.1,1.1-0.1h0.6v2.1
				C326.4,126.1,326.1,126.1,325.7,126.1z"/>
			<path class="st4" d="M331.3,121.9c-0.3,0.3-0.6,0.4-1,0.4c-0.4,0-0.7-0.1-1-0.4c-0.3-0.3-0.4-0.6-0.4-1c0-0.4,0.1-0.7,0.4-1
				c0.3-0.3,0.6-0.4,1-0.4c0.4,0,0.7,0.1,1,0.4c0.3,0.3,0.4,0.6,0.4,1C331.7,121.3,331.6,121.7,331.3,121.9z M331.5,135h-2.2v-10.7
				h2.2V135z"/>
			<path class="st4" d="M336.7,120.7h2v3.6h2.2v2h-2.2v5.5c0,0.4,0.1,0.7,0.4,1c0.3,0.3,0.6,0.4,1,0.4c0.2,0,0.3,0,0.5-0.1
				c0.2,0,0.3-0.1,0.4-0.1l0.2,0v2c-0.4,0.1-1,0.2-1.6,0.2c-2.1,0-3.1-1.1-3.1-3.3v-5.6h-2v-2h1.1c0.7,0,1.1-0.4,1.1-1.3V120.7z"/>
			<path class="st4" d="M347.5,135l-4.3-10.7h2.3l3.1,7.8l3.1-7.8h2.3l-4.8,11.8c-0.5,1.3-1.1,2.2-1.6,2.8c-0.5,0.5-1.2,0.8-2,0.8
				c-0.3,0-0.6,0-0.8-0.1c-0.3,0-0.5-0.1-0.6-0.1l-0.2,0v-2c0.4,0.1,0.7,0.2,1.1,0.2c0.8,0,1.5-0.5,1.9-1.6L347.5,135z"/>
			<path class="st4" d="M367.9,135v-1.1c0,0-0.1,0.1-0.1,0.1c-0.1,0.1-0.2,0.2-0.4,0.3c-0.2,0.1-0.4,0.3-0.7,0.4
				c-0.2,0.1-0.5,0.2-0.9,0.3c-0.4,0.1-0.7,0.1-1.1,0.1c-1.1,0-2-0.3-2.7-0.9c-0.7-0.6-1.1-1.3-1.1-2.2c0-0.9,0.3-1.6,0.8-2.2
				c0.6-0.6,1.3-1,2.3-1.1l3.9-0.7c0-0.6-0.2-1-0.6-1.4c-0.4-0.4-0.9-0.6-1.6-0.6c-0.6,0-1.1,0.1-1.5,0.4c-0.5,0.2-0.8,0.5-0.9,0.7
				l-0.3,0.4l-1.4-1.4c0-0.1,0.1-0.1,0.2-0.2c0.1-0.1,0.2-0.3,0.5-0.5c0.3-0.2,0.5-0.4,0.8-0.6c0.3-0.2,0.7-0.3,1.2-0.5
				c0.5-0.1,1-0.2,1.5-0.2c1.3,0,2.4,0.4,3.2,1.2c0.8,0.8,1.2,1.7,1.2,2.8v6.9H367.9z M367.1,132.4c0.5-0.5,0.8-1.3,0.8-2.3v-0.2
				l-3.5,0.6c-0.4,0.1-0.7,0.2-1,0.5c-0.2,0.3-0.4,0.6-0.4,1c0,0.4,0.2,0.7,0.5,0.9c0.3,0.3,0.8,0.4,1.4,0.4
				C365.9,133.2,366.6,132.9,367.1,132.4z"/>
			<path class="st4" d="M376.1,125.4l0.1-0.1c0.1-0.1,0.2-0.2,0.4-0.3c0.2-0.1,0.4-0.3,0.7-0.4c0.2-0.1,0.5-0.2,0.9-0.3
				c0.4-0.1,0.7-0.1,1.1-0.1c1.3,0,2.3,0.4,3.1,1.3s1.2,2,1.2,3.4v6.2h-2.2v-6.2c0-0.8-0.2-1.4-0.7-1.9c-0.5-0.5-1.1-0.8-1.8-0.8
				c-0.8,0-1.5,0.3-2,0.8c-0.5,0.5-0.8,1.3-0.8,2.3v5.8h-2.2v-10.7h2.2V125.4z"/>
			<path class="st4" d="M393.2,124.2c0.4,0.1,0.7,0.2,1,0.4s0.5,0.3,0.7,0.4c0.2,0.1,0.4,0.3,0.4,0.4l0.2,0.2v-6.1h2.2V135h-2.2
				v-1.2c-0.1,0.1-0.2,0.2-0.4,0.4c-0.2,0.2-0.6,0.4-1.2,0.6c-0.6,0.3-1.2,0.4-1.8,0.4c-1.4,0-2.6-0.5-3.7-1.6
				c-1-1.1-1.6-2.4-1.6-3.9s0.5-2.9,1.6-3.9c1-1.1,2.3-1.6,3.7-1.6C392.4,124.1,392.8,124.1,393.2,124.2z M394.5,132.1
				c0.7-0.7,1-1.5,1-2.5c0-1-0.3-1.8-1-2.5c-0.7-0.7-1.4-1-2.2-1c-0.8,0-1.6,0.3-2.2,1c-0.7,0.7-1,1.5-1,2.5c0,1,0.3,1.8,1,2.5
				c0.7,0.7,1.4,1,2.2,1C393.1,133.2,393.8,132.8,394.5,132.1z"/>
			<path class="st4" d="M212.2,146.1h2.4v15.6h-2.4V146.1z"/>
			<path class="st4" d="M229.7,146.1v2.2h-4.7v13.3h-2.4v-13.3H218v-2.2H229.7z"/>
			<path class="st4" d="M239.6,148.6c-0.3,0.3-0.6,0.4-1,0.4c-0.4,0-0.7-0.1-1-0.4c-0.3-0.3-0.4-0.6-0.4-1c0-0.4,0.1-0.7,0.4-1
				c0.3-0.3,0.6-0.4,1-0.4c0.4,0,0.7,0.1,1,0.4c0.3,0.3,0.4,0.6,0.4,1C240,148,239.8,148.3,239.6,148.6z M239.7,161.6h-2.2V151h2.2
				V161.6z"/>
			<path class="st4" d="M245.8,152.1l0.1-0.1c0.1-0.1,0.2-0.2,0.4-0.3c0.2-0.1,0.4-0.3,0.7-0.4c0.2-0.1,0.5-0.2,0.9-0.3
				c0.4-0.1,0.7-0.1,1.1-0.1c1.3,0,2.3,0.4,3.1,1.3c0.8,0.8,1.2,2,1.2,3.4v6.2h-2.2v-6.2c0-0.8-0.2-1.4-0.7-1.9
				c-0.5-0.5-1.1-0.8-1.8-0.8c-0.8,0-1.5,0.3-2,0.8c-0.5,0.5-0.8,1.3-0.8,2.3v5.8h-2.2V151h2.2V152.1z"/>
			<path class="st4" d="M262.5,153h-2.5v8.7h-2.2V153h-1.6v-2h1.6v-1.8c0-2.2,1-3.3,3.1-3.3c0.3,0,0.5,0,0.8,0.1
				c0.3,0,0.4,0.1,0.6,0.1l0.2,0v2c-0.4-0.1-0.7-0.2-1.1-0.2c-0.4,0-0.7,0.1-1,0.4c-0.3,0.3-0.4,0.6-0.4,1v1.8h2.5V153z"/>
			<path class="st4" d="M270.4,152.7c-0.8,0-1.5,0.3-2,0.8c-0.5,0.5-0.8,1.3-0.8,2.3v5.8h-2.2V151h2.2v1.1l0.1-0.1
				c0.1-0.1,0.2-0.2,0.4-0.3c0.2-0.1,0.4-0.3,0.7-0.4c0.2-0.1,0.5-0.2,0.9-0.3c0.4-0.1,0.7-0.1,1.1-0.1h0.6v2.1
				C271.1,152.8,270.8,152.7,270.4,152.7z"/>
			<path class="st4" d="M280.2,161.6v-1.1c0,0-0.1,0.1-0.1,0.1c-0.1,0.1-0.2,0.2-0.4,0.3c-0.2,0.1-0.4,0.3-0.7,0.4
				c-0.2,0.1-0.5,0.2-0.9,0.3c-0.4,0.1-0.7,0.1-1.1,0.1c-1.1,0-2-0.3-2.7-0.9c-0.7-0.6-1.1-1.3-1.1-2.2c0-0.9,0.3-1.6,0.8-2.2
				c0.6-0.6,1.3-1,2.3-1.1l3.9-0.7c0-0.6-0.2-1-0.6-1.4c-0.4-0.4-0.9-0.6-1.6-0.6c-0.6,0-1.1,0.1-1.5,0.4c-0.5,0.2-0.8,0.5-0.9,0.7
				l-0.3,0.4l-1.4-1.4c0-0.1,0.1-0.1,0.2-0.2c0.1-0.1,0.2-0.3,0.5-0.5c0.3-0.2,0.5-0.4,0.8-0.6c0.3-0.2,0.7-0.3,1.2-0.5
				c0.5-0.1,1-0.2,1.5-0.2c1.3,0,2.4,0.4,3.2,1.2c0.8,0.8,1.2,1.7,1.2,2.8v6.9H280.2z M279.4,159c0.5-0.5,0.8-1.3,0.8-2.3v-0.2
				l-3.5,0.6c-0.4,0.1-0.7,0.2-1,0.5c-0.2,0.3-0.4,0.6-0.4,1c0,0.4,0.2,0.7,0.5,0.9c0.3,0.3,0.8,0.4,1.4,0.4
				C278.2,159.9,278.9,159.6,279.4,159z"/>
			<path class="st4" d="M291.5,153.6c-0.1-0.1-0.1-0.1-0.3-0.2c-0.1-0.1-0.3-0.2-0.7-0.4c-0.4-0.2-0.7-0.2-1.1-0.2
				c-0.5,0-0.9,0.1-1.1,0.3c-0.3,0.2-0.4,0.5-0.4,0.8c0,0.3,0.1,0.6,0.4,0.8c0.3,0.2,0.6,0.4,1,0.5c0.4,0.1,0.8,0.2,1.3,0.4
				c0.5,0.2,0.9,0.3,1.3,0.5c0.4,0.2,0.7,0.5,1,0.9c0.3,0.4,0.4,0.9,0.4,1.5c0,0.9-0.4,1.7-1.1,2.4c-0.7,0.7-1.7,1-2.9,1
				c-0.5,0-1-0.1-1.5-0.2c-0.5-0.1-0.9-0.3-1.2-0.5s-0.6-0.4-0.8-0.5c-0.2-0.2-0.4-0.3-0.5-0.5l-0.2-0.2l1.4-1.4
				c0.1,0.1,0.2,0.2,0.3,0.4c0.1,0.2,0.4,0.4,0.9,0.6c0.5,0.2,0.9,0.4,1.4,0.4c0.6,0,1-0.1,1.3-0.4c0.3-0.2,0.4-0.6,0.4-1
				c0-0.3-0.1-0.6-0.4-0.8c-0.3-0.2-0.6-0.4-1-0.5c-0.4-0.1-0.8-0.3-1.3-0.4c-0.5-0.2-0.9-0.3-1.3-0.5c-0.4-0.2-0.7-0.5-1-0.9
				c-0.3-0.4-0.4-0.9-0.4-1.5c0-0.8,0.4-1.5,1.1-2.2c0.7-0.6,1.6-0.9,2.7-0.9c0.4,0,0.8,0,1.2,0.1c0.4,0.1,0.7,0.2,1,0.4
				c0.3,0.1,0.5,0.3,0.7,0.4c0.2,0.1,0.3,0.3,0.4,0.4l0.1,0.2L291.5,153.6z"/>
			<path class="st4" d="M297.8,147.4h2v3.6h2.2v2h-2.2v5.5c0,0.4,0.1,0.7,0.4,1c0.3,0.3,0.6,0.4,1,0.4c0.2,0,0.3,0,0.5-0.1
				c0.2,0,0.3-0.1,0.4-0.1l0.2,0v2c-0.4,0.1-1,0.2-1.6,0.2c-2.1,0-3.1-1.1-3.1-3.3V153h-2v-2h1.1c0.7,0,1.1-0.4,1.1-1.3V147.4z"/>
			<path class="st4" d="M310.6,152.7c-0.8,0-1.5,0.3-2,0.8c-0.5,0.5-0.8,1.3-0.8,2.3v5.8h-2.2V151h2.2v1.1l0.1-0.1
				c0.1-0.1,0.2-0.2,0.4-0.3c0.2-0.1,0.4-0.3,0.7-0.4c0.2-0.1,0.5-0.2,0.9-0.3c0.4-0.1,0.7-0.1,1.1-0.1h0.6v2.1
				C311.3,152.8,311,152.7,310.6,152.7z"/>
			<path class="st4" d="M321.6,160.5l-0.1,0.1c-0.1,0.1-0.2,0.2-0.4,0.3c-0.2,0.1-0.4,0.3-0.7,0.4c-0.2,0.1-0.5,0.2-0.9,0.3
				c-0.4,0.1-0.7,0.1-1.1,0.1c-1.3,0-2.3-0.4-3.1-1.3c-0.8-0.8-1.2-2-1.2-3.4V151h2.2v6.2c0,0.8,0.2,1.4,0.7,1.9
				c0.5,0.5,1.1,0.8,1.8,0.8c0.8,0,1.5-0.3,2-0.8c0.5-0.5,0.8-1.3,0.8-2.3V151h2.2v10.7h-2.2V160.5z"/>
			<path class="st4" d="M328.7,152.4c1.1-1.1,2.4-1.7,3.9-1.7c0.8,0,1.6,0.2,2.3,0.5c0.7,0.4,1.2,0.7,1.5,1.1l0.5,0.5l-1.4,1.4
				c-0.1-0.1-0.2-0.3-0.3-0.4c-0.1-0.2-0.5-0.4-1-0.7c-0.5-0.3-1-0.4-1.6-0.4c-0.9,0-1.7,0.3-2.4,1c-0.7,0.7-1,1.5-1,2.5
				c0,1,0.3,1.8,1,2.5c0.7,0.7,1.4,1,2.4,1c0.6,0,1.1-0.1,1.6-0.4c0.5-0.3,0.9-0.6,1.1-0.8l0.3-0.4l1.4,1.4c0,0.1-0.1,0.1-0.2,0.2
				c-0.1,0.1-0.3,0.3-0.6,0.5c-0.3,0.3-0.6,0.5-0.9,0.7c-0.3,0.2-0.7,0.4-1.2,0.5c-0.5,0.2-1,0.2-1.5,0.2c-1.5,0-2.8-0.6-3.9-1.7
				c-1.1-1.1-1.7-2.4-1.7-3.9C327,154.8,327.6,153.5,328.7,152.4z"/>
			<path class="st4" d="M341.2,147.4h2v3.6h2.2v2h-2.2v5.5c0,0.4,0.1,0.7,0.4,1c0.3,0.3,0.6,0.4,1,0.4c0.2,0,0.3,0,0.5-0.1
				c0.2,0,0.3-0.1,0.4-0.1l0.2,0v2c-0.4,0.1-1,0.2-1.6,0.2c-2.1,0-3.1-1.1-3.1-3.3V153h-2v-2h1.1c0.7,0,1.1-0.4,1.1-1.3V147.4z"/>
			<path class="st4" d="M356.6,160.5l-0.1,0.1c-0.1,0.1-0.2,0.2-0.4,0.3c-0.2,0.1-0.4,0.3-0.7,0.4c-0.2,0.1-0.5,0.2-0.9,0.3
				c-0.4,0.1-0.7,0.1-1.1,0.1c-1.3,0-2.3-0.4-3.1-1.3s-1.2-2-1.2-3.4V151h2.2v6.2c0,0.8,0.2,1.4,0.7,1.9c0.5,0.5,1.1,0.8,1.8,0.8
				c0.8,0,1.5-0.3,2-0.8c0.5-0.5,0.8-1.3,0.8-2.3V151h2.2v10.7h-2.2V160.5z"/>
			<path class="st4" d="M367.7,152.7c-0.8,0-1.5,0.3-2,0.8c-0.5,0.5-0.8,1.3-0.8,2.3v5.8h-2.2V151h2.2v1.1l0.1-0.1
				c0.1-0.1,0.2-0.2,0.4-0.3c0.2-0.1,0.4-0.3,0.7-0.4c0.2-0.1,0.5-0.2,0.9-0.3c0.4-0.1,0.7-0.1,1.1-0.1h0.6v2.1
				C368.4,152.8,368.1,152.7,367.7,152.7z"/>
			<path class="st4" d="M372.7,157.1c0.1,0.8,0.5,1.4,1.1,2c0.6,0.5,1.4,0.8,2.2,0.8c0.6,0,1.2-0.1,1.7-0.4c0.5-0.3,0.9-0.6,1.1-0.8
				l0.3-0.4l1.4,1.4c0,0.1-0.1,0.1-0.2,0.2c-0.1,0.1-0.3,0.3-0.6,0.5c-0.3,0.3-0.6,0.5-0.9,0.7c-0.3,0.2-0.8,0.4-1.3,0.5
				c-0.5,0.2-1.1,0.2-1.6,0.2c-1.5,0-2.8-0.6-3.9-1.7c-1.1-1.1-1.6-2.4-1.6-4c0-1.5,0.5-2.8,1.6-3.9c1.1-1.1,2.3-1.6,3.8-1.6
				c1.5,0,2.7,0.5,3.7,1.5c1,1,1.5,2.2,1.5,3.7l-0.1,1.1H372.7z M373.9,153.3c-0.5,0.5-0.9,1.1-1.1,1.8h6.2c-0.1-0.8-0.5-1.4-1-1.8
				c-0.5-0.5-1.2-0.7-2-0.7C375.1,152.6,374.4,152.9,373.9,153.3z"/>
		</g>
	</g>
</g>
</svg>
