<?xml version="1.0" encoding="utf-8"?>
<!-- Generator: Adobe Illustrator 24.1.3, SVG Export Plug-In . SVG Version: 6.00 Build 0)  -->
<svg version="1.1" id="Layer_1" xmlns="http://www.w3.org/2000/svg" xmlns:xlink="http://www.w3.org/1999/xlink" x="0px" y="0px"
	 viewBox="0 0 624 200" style="enable-background:new 0 0 624 200;" xml:space="preserve">
<style type="text/css">
	.st0{fill:#FFFFFF;}
</style>
<g>
	<g>
		<ellipse class="st0" cx="23.5" cy="44.4" rx="18" ry="18.9"/>
		<ellipse class="st0" cx="135" cy="156.7" rx="18" ry="18.9"/>
		<path class="st0" d="M135,25.5c-4.2,0-8.1,1.5-11.1,4c-4.5,3.8-10.3,5.5-16.1,5.5h-2.5c-5.7,0-11-2.4-15.5-5.9
			c-0.2-0.1-0.3-0.2-0.5-0.3c-0.1-0.1-0.3-0.2-0.4-0.3c-0.4-0.2-0.7-0.5-1.1-0.7c-0.1-0.1-0.2-0.1-0.3-0.2c-0.5-0.3-1-0.5-1.5-0.7
			c-0.1,0-0.2-0.1-0.3-0.1c-0.4-0.2-0.8-0.3-1.3-0.5c-0.2-0.1-0.4-0.1-0.5-0.2c-0.4-0.1-0.7-0.2-1.1-0.3c-0.2,0-0.4-0.1-0.6-0.1
			c-0.4-0.1-0.8-0.1-1.2-0.2c-0.2,0-0.3,0-0.5-0.1c-0.6,0-1.1-0.1-1.7-0.1c0,0,0,0-0.1,0c-0.2,0-0.5,0-0.7,0.1c-0.4,0-0.7,0-1.1,0.1
			c-0.1,0-0.2,0-0.2,0c-1,0.1-1.9,0.4-2.8,0.7c-0.3,0.1-0.6,0.2-0.9,0.4c-0.1,0-0.2,0.1-0.2,0.1c-4.2,1.7-7.6,5-9.6,9.2
			c-0.7,1.5-1.3,3.1-1.6,4.7c0,0.2-0.1,0.4-0.1,0.7c-0.1,0.4-0.1,0.7-0.1,1.1c0,0.3-0.1,0.6-0.1,0.8c0,0.1,0,0.3,0,0.4
			c0,0.3,0,0.6,0,0.9c0,0.3,0,0.6,0,0.8c0,0.4,0.1,0.9,0.1,1.3c0,0.2,0,0.5,0.1,0.7c0.1,0.6,0.2,1.1,0.3,1.6c0,0.1,0,0.2,0.1,0.3
			c0.2,0.7,0.4,1.3,0.6,1.9c0,0.1,0,0.1,0.1,0.2c0.2,0.6,0.5,1.1,0.7,1.7c0.1,0.1,0.1,0.2,0.2,0.4c0.2,0.5,0.5,0.9,0.8,1.4
			c0.1,0.1,0.2,0.2,0.3,0.4c0.3,0.4,0.6,0.8,0.9,1.2c0,0,0.1,0.1,0.1,0.1c5.2,6.4,6.1,15.9,3.3,23.8c-0.8,2.1-2,3.9-3.3,5.6
			c-2.6,3.3-4.2,7.5-4.2,12.1c0,4.4,1.4,8.5,3.9,11.7c3.6,4.8,5.3,10.8,5.3,16.9l0,1.9c0,0.1,0,0.1,0,0.2
			c-0.1,10.2-8.2,18.6-17.9,18.7c-0.1,0-0.1,0-0.2,0h-1.8c-0.1,0-0.1,0-0.2,0c-9.7-0.1-17.7-8.5-17.8-18.8c0-0.2,0-0.3,0-0.5l0-1.9
			c0-6.2,2.2-12,5.6-17c2.3-3.2,3.6-7.2,3.5-11.5c-0.2-9.9-7.9-18.1-17.3-18.5C14,78.8,5.5,87.4,5.5,98.1c0,4.4,1.4,8.5,3.9,11.7
			c3.6,4.8,5.3,10.8,5.3,16.9l0,1.6c0,6.1-1.7,12.1-5.3,16.8c-1.9,2.6-3.2,5.6-3.7,9c0,0.1,0,0.3,0,0.4c0,0.4-0.1,0.8-0.1,1.3
			c0,0.1,0,0.1,0,0.2c0,0.1,0,0.3,0,0.4c0,0.2,0,0.5,0,0.7c0,0.2,0,0.3,0,0.5c0,0.3,0,0.6,0.1,0.9c0,0.3,0.1,0.6,0.1,0.9
			c0.1,0.4,0.1,0.8,0.2,1.1c0,0.2,0.1,0.3,0.1,0.5c1.5,6.9,6.6,12.4,13.2,14.1c0.1,0,0.2,0.1,0.3,0.1c0.4,0.1,0.7,0.1,1.1,0.2
			c0.3,0,0.5,0.1,0.8,0.1c0.3,0,0.6,0.1,0.8,0.1c0.2,0,0.4,0,0.6,0.1c0.1,0,0.2,0,0.4,0c0.1,0,0.2,0,0.4,0c0.3,0,0.5,0,0.8,0
			c0.2,0,0.4,0,0.6,0c0.5,0,1-0.1,1.5-0.2c0.1,0,0.1,0,0.2,0c0.6-0.1,1.1-0.2,1.6-0.4c0.2-0.1,0.4-0.1,0.6-0.2
			c0.3-0.1,0.7-0.2,1-0.3c0.2-0.1,0.5-0.2,0.7-0.3c0.3-0.1,0.5-0.2,0.8-0.4c0.2-0.1,0.5-0.2,0.7-0.4c0.2-0.1,0.5-0.3,0.7-0.4
			c0.2-0.2,0.5-0.3,0.7-0.5c0.2-0.1,0.3-0.2,0.5-0.4c0.2-0.2,0.4-0.3,0.7-0.5c4.6-3.7,10.3-5.6,16.1-5.6l1.8,0c5.4,0,10.5,1.9,15,5
			c3,2.7,6.8,4.4,10.9,4.5c0.2,0,0.4,0,0.5,0c0.3,0,0.5,0,0.8,0c0.2,0,0.3,0,0.5,0c0.1,0,0.1,0,0.2,0c9.1-0.6,16.6-8.5,16.9-18.1
			c0.2-5.5-1.8-10.4-5.2-14c-2.8-4.5-4.2-9.9-4.2-15.3v-1.6c0-6.1,1.7-12.1,5.3-16.9c2.4-3.2,3.9-7.3,3.9-11.7
			c0-4.4-1.4-8.5-3.9-11.7C90,82.1,88,76.8,88,71.3v0c0,0,0-0.1,0-0.1c0.1-8.8,6.6-16.1,14.8-17.2c1.2-0.1,2.3-0.2,3.5-0.2l1.8,0
			c5.9,0,11.5,2.3,16.2,5.9c3.1,2.4,6.9,3.7,11,3.7c9.4-0.2,17.3-8.3,17.6-18.1C153.4,34.4,145.2,25.5,135,25.5z"/>
	</g>
	<g>
		<g>
			<path class="st0" d="M217.8,47.2c-1.3,1.3-3,1.9-5.2,1.9c-2,0-3.6-0.6-4.8-1.9c-1.2-1.3-1.8-2.9-1.8-5c0-2.1,0.6-3.8,1.8-5
				c1.2-1.3,2.8-1.9,4.8-1.9c2.2,0,3.9,0.6,5.2,1.9c1.3,1.3,1.9,2.9,1.9,5C219.7,44.2,219.1,45.9,217.8,47.2z M218.9,100.3h-11.9
				V55.1h11.9V100.3z"/>
			<path class="st0" d="M242.6,60.6c0.3-0.5,0.8-1.1,1.5-1.8c0.6-0.7,2-1.7,4.1-2.9c2.1-1.2,4.4-1.8,6.7-1.8c4.9,0,8.9,1.8,12.1,5.4
				c3.1,3.6,4.7,8.4,4.7,14.5v26.3h-11.9V75.4c0-2.8-0.8-5-2.3-6.7c-1.6-1.7-3.6-2.5-6-2.5c-2.7,0-4.8,0.9-6.4,2.8
				c-1.6,1.8-2.4,4.5-2.4,7.9v23.5h-11.9V55.1h11.9V60.6z"/>
			<path class="st0" d="M319.4,94.2c-4.5,4.7-9.9,7.1-16.1,7.1s-11.5-2.4-16.1-7.1c-4.6-4.7-6.8-10.2-6.8-16.5
				c0-6.3,2.3-11.8,6.8-16.5c4.6-4.7,9.9-7.1,16.1-7.1s11.5,2.4,16.1,7.1s6.8,10.2,6.8,16.5C326.2,84,323.9,89.5,319.4,94.2z
				 M295.9,86.2c2.1,2.3,4.6,3.5,7.4,3.5s5.3-1.1,7.4-3.5c2.1-2.3,3.1-5.1,3.1-8.5s-1-6.2-3.1-8.5c-2.1-2.3-4.6-3.5-7.4-3.5
				s-5.3,1.2-7.4,3.5c-2.1,2.3-3.1,5.2-3.1,8.5S293.8,83.9,295.9,86.2z"/>
			<path class="st0" d="M346,100.3l-16.3-45.3H342l10.1,30l10.1-30h12.3l-16.2,45.3H346z"/>
			<path class="st0" d="M404.5,95.7c-0.3,0.4-0.8,0.9-1.4,1.6c-0.6,0.6-2,1.4-4,2.4c-2.1,1-4.2,1.5-6.4,1.5c-4.3,0-7.8-1.3-10.5-3.8
				c-2.7-2.5-4-5.6-4-9.1c0-3.7,1.1-6.8,3.4-9.2c2.3-2.5,5.4-4.1,9.4-4.8l13.7-2.6c0-1.9-0.7-3.4-2-4.6c-1.3-1.2-3.2-1.8-5.5-1.8
				c-1.9,0-3.7,0.4-5.3,1.2c-1.6,0.8-2.7,1.6-3.4,2.4l-1,1.1l-6.6-6.9c0.2-0.2,0.4-0.6,0.7-1c0.3-0.4,1-1.1,2-2.1
				c1-1,2.2-1.9,3.4-2.6c1.2-0.8,2.8-1.5,4.9-2.1c2-0.6,4.1-1,6.1-1c5.4,0,9.9,1.7,13.3,5.1c3.4,3.4,5.2,7.7,5.2,12.9v28.2h-11.9
				V95.7z M402.1,88.4c1.6-1.8,2.4-4.3,2.4-7.5v-1.4l-9.7,1.8c-3.2,0.5-4.9,2.2-4.9,5.1c0,3.1,1.9,4.6,5.7,4.6
				C398.4,91.1,400.5,90.2,402.1,88.4z"/>
			<path class="st0" d="M451.1,41.7h10.6V56h8.8v11.1h-8.8v18c0,1.4,0.5,2.6,1.5,3.6c1,1,2.2,1.5,3.8,1.5c0.8,0,1.5-0.1,2.3-0.2
				c0.7-0.2,1.3-0.3,1.7-0.5l0.5-0.2v10.6c-2.4,0.9-5,1.4-8,1.4c-9.1,0-13.6-5.2-13.6-15.7V67.1h-7.5V56h4c1.3,0,2.5-0.6,3.4-1.7
				c0.9-1.1,1.4-2.6,1.4-4.3V41.7z"/>
			<path class="st0" d="M487.5,81.8c0.5,2.5,1.7,4.5,3.7,6.2c2,1.7,4.6,2.5,7.7,2.5c2.2,0,4.3-0.5,6.2-1.4c1.9-0.9,3.2-1.8,4-2.8
				l1.2-1.4l6.1,8.3l-0.8,0.8c-0.4,0.4-1.1,1-2.3,1.9c-1.2,0.9-2.4,1.7-3.7,2.4c-1.3,0.7-3,1.3-5.1,1.9c-2.1,0.5-4.3,0.8-6.5,0.8
				c-6.3,0-11.7-2.3-16.2-6.9c-4.5-4.6-6.7-10.2-6.7-16.6c0-6.5,2.2-12,6.6-16.6c4.4-4.6,9.7-6.9,15.9-6.9c6.2,0,11.3,2.2,15.4,6.5
				c4.1,4.3,6.1,9.7,6.1,16.2l-0.4,5.1H487.5z M491.3,67.1c-1.8,1.5-3,3.5-3.7,6h19.8c-0.5-2.4-1.6-4.4-3.3-6
				c-1.7-1.6-3.9-2.3-6.4-2.3C495.2,64.8,493,65.6,491.3,67.1z"/>
			<path class="st0" d="M532.3,61.2c4.6-4.7,10.1-7.1,16.4-7.1c2.2,0,4.4,0.3,6.4,1c2,0.6,3.7,1.4,5,2.3c1.3,0.9,2.4,1.8,3.4,2.7
				c1,0.9,1.7,1.7,2.2,2.3l0.6,0.9l-7.5,7.8c-0.2-0.4-0.6-1-1.1-1.7c-0.5-0.7-1.7-1.6-3.4-2.7c-1.8-1.1-3.6-1.6-5.6-1.6
				c-3.1,0-5.8,1.2-8.1,3.7c-2.3,2.4-3.4,5.4-3.4,8.8s1.1,6.4,3.4,8.8c2.3,2.4,4.9,3.7,8,3.7c1.9,0,3.8-0.5,5.6-1.5c1.8-1,3-2,3.8-3
				l1.2-1.5l7,7.8c-0.2,0.2-0.4,0.6-0.7,1c-0.3,0.4-1,1.2-2.1,2.2c-1.1,1-2.3,2-3.5,2.8c-1.3,0.8-2.9,1.5-4.9,2.2
				c-2,0.7-4.1,1-6.4,1c-6.3,0-11.8-2.4-16.4-7.1c-4.6-4.7-6.9-10.2-6.9-16.5C525.4,71.4,527.7,65.9,532.3,61.2z"/>
			<path class="st0" d="M586.6,60.6c0.3-0.5,0.8-1.1,1.4-1.8s2-1.7,4.1-2.9c2.1-1.2,4.4-1.8,6.7-1.8c4.9,0,8.9,1.8,12.1,5.4
				c3.1,3.6,4.7,8.4,4.7,14.5v26.3h-11.9V75.4c0-2.8-0.8-5-2.3-6.7c-1.6-1.7-3.6-2.5-6-2.5c-2.7,0-4.8,0.9-6.4,2.8
				c-1.6,1.8-2.4,4.5-2.4,7.9v23.5h-11.9V35.7h11.9V60.6z"/>
		</g>
	</g>
	<g>
		<g>
			<path class="st0" d="M208.5,123.2c1.2-1.2,2.5-1.8,4.1-1.8c0.9,0,1.7,0.2,2.4,0.6c0.8,0.4,1.3,0.8,1.6,1.2l0.5,0.6l-1.5,1.6
				c-0.1-0.1-0.2-0.3-0.3-0.5c-0.2-0.2-0.5-0.4-1-0.8c-0.5-0.3-1.1-0.5-1.7-0.5c-1,0-1.8,0.4-2.5,1.1c-0.7,0.8-1,1.7-1,2.8
				c0,1.1,0.3,2,1,2.8c0.7,0.8,1.5,1.1,2.5,1.1c0.6,0,1.2-0.2,1.7-0.5c0.5-0.3,0.9-0.6,1.1-0.9l0.4-0.5l1.5,1.6
				c0,0.1-0.1,0.2-0.2,0.3c-0.1,0.1-0.3,0.3-0.6,0.6c-0.3,0.3-0.6,0.5-1,0.7s-0.8,0.4-1.3,0.6c-0.5,0.2-1.1,0.3-1.6,0.3
				c-1.6,0-2.9-0.6-4.1-1.8c-1.2-1.2-1.7-2.7-1.7-4.3C206.8,125.8,207.4,124.4,208.5,123.2z"/>
			<path class="st0" d="M223.5,133.4l-4.6-11.8h2.5l3.3,8.6l3.3-8.6h2.5l-5,13c-0.6,1.5-1.2,2.5-1.7,3.1c-0.6,0.6-1.3,0.9-2.1,0.9
				c-0.3,0-0.6,0-0.9-0.1c-0.3,0-0.5-0.1-0.6-0.1l-0.2,0v-2.2c0.4,0.2,0.8,0.2,1.2,0.3c0.9,0,1.6-0.6,2-1.7L223.5,133.4z"/>
			<path class="st0" d="M243,123.1c1.1,1.2,1.6,2.6,1.6,4.3c0,1.7-0.5,3.2-1.6,4.3c-1.1,1.2-2.4,1.8-3.9,1.8c-0.4,0-0.8-0.1-1.2-0.2
				c-0.4-0.1-0.7-0.2-1-0.4s-0.5-0.3-0.8-0.5c-0.2-0.2-0.4-0.3-0.5-0.4l-0.2-0.2v1.4h-2.3v-17.2h2.3v6.8c0.1-0.1,0.3-0.3,0.5-0.4
				c0.2-0.2,0.6-0.4,1.2-0.7c0.6-0.3,1.3-0.4,1.9-0.4C240.7,121.3,242,121.9,243,123.1z M241.3,130.3c0.7-0.8,1-1.7,1-2.8
				c0-1.1-0.3-2-1-2.8c-0.7-0.8-1.5-1.2-2.4-1.2c-0.9,0-1.7,0.4-2.4,1.2c-0.7,0.8-1,1.7-1,2.8c0,1.1,0.3,2,1,2.8
				c0.7,0.8,1.5,1.1,2.4,1.1C239.8,131.4,240.6,131,241.3,130.3z"/>
			<path class="st0" d="M249.6,128.3c0.1,0.8,0.5,1.6,1.2,2.2c0.7,0.6,1.4,0.9,2.3,0.9c0.7,0,1.3-0.2,1.8-0.5c0.6-0.3,1-0.6,1.2-0.9
				l0.4-0.5l1.5,1.6c0,0.1-0.1,0.2-0.2,0.3c-0.1,0.1-0.3,0.3-0.6,0.6c-0.3,0.3-0.6,0.5-1,0.7c-0.4,0.2-0.8,0.4-1.4,0.6
				c-0.6,0.2-1.1,0.3-1.7,0.3c-1.6,0-3-0.6-4.1-1.8c-1.2-1.2-1.7-2.7-1.7-4.4c0-1.7,0.6-3.1,1.7-4.3c1.1-1.2,2.5-1.8,4-1.8
				c1.6,0,2.9,0.6,3.9,1.6c1,1.1,1.6,2.5,1.6,4.1l-0.1,1.2H249.6z M250.8,124.2c-0.6,0.5-1,1.2-1.2,2h6.5c-0.1-0.8-0.5-1.5-1.1-2
				c-0.6-0.5-1.3-0.8-2.1-0.8C252.1,123.4,251.4,123.7,250.8,124.2z"/>
			<path class="st0" d="M267,123.6c-0.9,0-1.6,0.3-2.1,0.9c-0.5,0.6-0.8,1.4-0.8,2.5v6.4h-2.3v-11.8h2.3v1.2l0.2-0.2
				c0.1-0.1,0.2-0.2,0.4-0.4c0.2-0.2,0.5-0.3,0.7-0.4c0.2-0.1,0.6-0.3,0.9-0.4c0.4-0.1,0.8-0.2,1.2-0.2h0.6v2.3
				C267.7,123.6,267.4,123.6,267,123.6z"/>
			<path class="st0" d="M276.2,124.5c-0.1-0.1-0.2-0.2-0.3-0.3c-0.1-0.1-0.4-0.3-0.7-0.4c-0.4-0.2-0.7-0.3-1.1-0.3
				c-0.5,0-0.9,0.1-1.2,0.4c-0.3,0.2-0.4,0.5-0.4,0.9c0,0.3,0.1,0.6,0.4,0.9c0.3,0.2,0.6,0.4,1.1,0.5c0.4,0.1,0.9,0.3,1.4,0.5
				c0.5,0.2,0.9,0.4,1.4,0.6c0.4,0.2,0.8,0.6,1.1,1c0.3,0.5,0.4,1,0.4,1.7c0,1-0.4,1.9-1.2,2.6c-0.8,0.7-1.8,1.1-3,1.1
				c-0.6,0-1.1-0.1-1.6-0.2c-0.5-0.1-0.9-0.3-1.2-0.5c-0.3-0.2-0.6-0.4-0.8-0.6c-0.2-0.2-0.4-0.4-0.5-0.5l-0.2-0.2l1.5-1.6
				c0.1,0.1,0.2,0.3,0.3,0.4c0.2,0.2,0.5,0.4,1,0.7c0.5,0.3,1,0.4,1.5,0.4c0.6,0,1.1-0.1,1.4-0.4c0.3-0.3,0.5-0.6,0.5-1.1
				c0-0.3-0.1-0.6-0.4-0.9c-0.3-0.2-0.6-0.4-1.1-0.5c-0.4-0.1-0.9-0.3-1.4-0.5c-0.5-0.2-1-0.4-1.4-0.6c-0.4-0.2-0.8-0.6-1.1-1
				c-0.3-0.5-0.4-1-0.4-1.7c0-0.9,0.4-1.7,1.1-2.4c0.8-0.7,1.7-1,2.8-1c0.4,0,0.9,0.1,1.3,0.2c0.4,0.1,0.8,0.2,1,0.4
				c0.3,0.2,0.5,0.3,0.7,0.5c0.2,0.2,0.3,0.3,0.4,0.4l0.1,0.2L276.2,124.5z"/>
			<path class="st0" d="M283.1,128.3c0.1,0.8,0.5,1.6,1.2,2.2c0.7,0.6,1.4,0.9,2.3,0.9c0.7,0,1.3-0.2,1.8-0.5c0.6-0.3,1-0.6,1.2-0.9
				l0.4-0.5l1.5,1.6c0,0.1-0.1,0.2-0.2,0.3c-0.1,0.1-0.3,0.3-0.6,0.6c-0.3,0.3-0.6,0.5-1,0.7s-0.8,0.4-1.4,0.6
				c-0.6,0.2-1.1,0.3-1.7,0.3c-1.6,0-3-0.6-4.1-1.8c-1.2-1.2-1.7-2.7-1.7-4.4c0-1.7,0.6-3.1,1.7-4.3c1.1-1.2,2.5-1.8,4-1.8
				s2.9,0.6,3.9,1.6c1,1.1,1.6,2.5,1.6,4.1l-0.1,1.2H283.1z M284.4,124.2c-0.6,0.5-1,1.2-1.2,2h6.5c-0.1-0.8-0.5-1.5-1.1-2
				c-0.6-0.5-1.3-0.8-2.1-0.8C285.6,123.4,284.9,123.7,284.4,124.2z"/>
			<path class="st0" d="M296.3,123.2c1.2-1.2,2.5-1.8,4.1-1.8c0.9,0,1.7,0.2,2.4,0.6c0.8,0.4,1.3,0.8,1.6,1.2l0.5,0.6l-1.5,1.6
				c-0.1-0.1-0.2-0.3-0.3-0.5c-0.2-0.2-0.5-0.4-1-0.8c-0.5-0.3-1.1-0.5-1.7-0.5c-1,0-1.8,0.4-2.5,1.1c-0.7,0.8-1,1.7-1,2.8
				c0,1.1,0.3,2,1,2.8c0.7,0.8,1.5,1.1,2.5,1.1c0.6,0,1.2-0.2,1.7-0.5c0.5-0.3,0.9-0.6,1.1-0.9l0.4-0.5l1.5,1.6
				c0,0.1-0.1,0.2-0.2,0.3c-0.1,0.1-0.3,0.3-0.6,0.6c-0.3,0.3-0.6,0.5-1,0.7s-0.8,0.4-1.3,0.6c-0.5,0.2-1.1,0.3-1.6,0.3
				c-1.6,0-2.9-0.6-4.1-1.8c-1.2-1.2-1.7-2.7-1.7-4.3C294.6,125.8,295.1,124.4,296.3,123.2z"/>
			<path class="st0" d="M316,132.2l-0.1,0.2c-0.1,0.1-0.2,0.2-0.4,0.4c-0.2,0.2-0.5,0.3-0.7,0.4c-0.3,0.1-0.6,0.2-0.9,0.4
				c-0.4,0.1-0.8,0.2-1.2,0.2c-1.4,0-2.5-0.5-3.3-1.4c-0.8-0.9-1.3-2.2-1.3-3.8v-6.9h2.3v6.9c0,0.8,0.3,1.5,0.8,2.1
				c0.5,0.6,1.2,0.8,1.9,0.8c0.9,0,1.6-0.3,2.1-0.9c0.5-0.6,0.8-1.4,0.8-2.5v-6.4h2.3v11.8H316V132.2z"/>
			<path class="st0" d="M327.7,123.6c-0.9,0-1.6,0.3-2.1,0.9s-0.8,1.4-0.8,2.5v6.4h-2.3v-11.8h2.3v1.2l0.2-0.2
				c0.1-0.1,0.2-0.2,0.4-0.4c0.2-0.2,0.5-0.3,0.7-0.4c0.2-0.1,0.6-0.3,0.9-0.4c0.4-0.1,0.8-0.2,1.2-0.2h0.6v2.3
				C328.5,123.6,328.1,123.6,327.7,123.6z"/>
			<path class="st0" d="M333.6,119c-0.3,0.3-0.6,0.4-1,0.4c-0.4,0-0.7-0.1-1-0.4c-0.3-0.3-0.4-0.6-0.4-1.1c0-0.4,0.1-0.8,0.4-1.1
				c0.3-0.3,0.6-0.4,1-0.4c0.4,0,0.7,0.1,1,0.4c0.3,0.3,0.4,0.6,0.4,1.1C334,118.3,333.9,118.7,333.6,119z M333.8,133.4h-2.3v-11.8
				h2.3V133.4z"/>
			<path class="st0" d="M339.3,117.7h2.1v3.9h2.3v2.2h-2.3v6.1c0,0.4,0.1,0.8,0.4,1.1c0.3,0.3,0.6,0.4,1,0.4c0.2,0,0.4,0,0.6-0.1
				c0.2,0,0.3-0.1,0.4-0.1l0.2,0v2.2c-0.5,0.2-1,0.2-1.6,0.2c-2.2,0-3.3-1.2-3.3-3.7v-6.1H337v-2.2h1.2c0.8,0,1.2-0.5,1.2-1.5V117.7
				z"/>
			<path class="st0" d="M350.6,133.4l-4.6-11.8h2.5l3.3,8.6l3.3-8.6h2.5l-5,13c-0.6,1.5-1.2,2.5-1.7,3.1c-0.6,0.6-1.3,0.9-2.1,0.9
				c-0.3,0-0.6,0-0.9-0.1c-0.3,0-0.5-0.1-0.6-0.1l-0.2,0v-2.2c0.4,0.2,0.8,0.2,1.2,0.3c0.9,0,1.6-0.6,2-1.7L350.6,133.4z"/>
			<path class="st0" d="M372.1,133.4v-1.2c0,0-0.1,0.1-0.2,0.2c-0.1,0.1-0.2,0.2-0.4,0.4c-0.2,0.2-0.5,0.3-0.7,0.4
				c-0.3,0.1-0.6,0.2-0.9,0.4c-0.4,0.1-0.8,0.2-1.2,0.2c-1.1,0-2.1-0.3-2.8-1c-0.8-0.7-1.1-1.5-1.1-2.4c0-1,0.3-1.8,0.9-2.4
				c0.6-0.7,1.4-1.1,2.4-1.2l4.1-0.7c0-0.6-0.2-1.1-0.7-1.6c-0.4-0.4-1-0.6-1.7-0.6c-0.6,0-1.1,0.1-1.6,0.4c-0.5,0.3-0.8,0.5-1,0.8
				l-0.3,0.4l-1.5-1.6c0-0.1,0.1-0.1,0.2-0.2c0.1-0.1,0.3-0.3,0.5-0.5c0.3-0.3,0.6-0.5,0.9-0.7c0.3-0.2,0.7-0.4,1.2-0.5
				s1-0.2,1.6-0.2c1.4,0,2.5,0.4,3.4,1.3c0.9,0.9,1.3,1.9,1.3,3.1v7.6H372.1z M371.3,130.5c0.5-0.6,0.8-1.4,0.8-2.5v-0.2l-3.6,0.6
				c-0.4,0.1-0.8,0.3-1,0.5c-0.3,0.3-0.4,0.6-0.4,1.1c0,0.4,0.2,0.7,0.5,1s0.8,0.4,1.5,0.4C370.1,131.4,370.8,131.1,371.3,130.5z"/>
			<path class="st0" d="M380.8,122.8l0.2-0.2c0.1-0.1,0.2-0.2,0.4-0.4c0.2-0.2,0.5-0.3,0.7-0.4c0.2-0.1,0.6-0.3,0.9-0.4
				c0.4-0.1,0.8-0.2,1.2-0.2c1.4,0,2.5,0.5,3.3,1.4c0.8,0.9,1.3,2.2,1.3,3.8v6.9h-2.3v-6.9c0-0.8-0.3-1.6-0.8-2.1
				c-0.5-0.6-1.2-0.8-1.9-0.8c-0.9,0-1.6,0.3-2.1,0.9s-0.8,1.4-0.8,2.5v6.4h-2.3v-11.8h2.3V122.8z"/>
			<path class="st0" d="M398.7,121.5c0.4,0.1,0.7,0.2,1,0.4c0.3,0.2,0.5,0.3,0.7,0.5c0.2,0.2,0.4,0.3,0.5,0.4l0.2,0.2v-6.8h2.3v17.2
				h-2.3V132c-0.1,0.1-0.3,0.3-0.5,0.4c-0.2,0.2-0.6,0.4-1.2,0.7c-0.6,0.3-1.3,0.4-1.9,0.4c-1.5,0-2.8-0.6-3.9-1.8
				c-1.1-1.2-1.6-2.6-1.6-4.3c0-1.7,0.5-3.2,1.6-4.3c1.1-1.2,2.4-1.8,3.9-1.8C397.9,121.3,398.3,121.4,398.7,121.5z M400.1,130.3
				c0.7-0.8,1-1.7,1-2.8c0-1.1-0.3-2-1-2.8c-0.7-0.8-1.5-1.2-2.4-1.2c-0.9,0-1.7,0.4-2.4,1.2c-0.7,0.8-1,1.7-1,2.8
				c0,1.1,0.3,2,1,2.8c0.7,0.8,1.5,1.1,2.4,1.1C398.6,131.4,399.4,131,400.1,130.3z"/>
			<path class="st0" d="M208.3,145.6h2.6v17.2h-2.6V145.6z"/>
			<path class="st0" d="M226.8,145.6v2.5h-4.9v14.7h-2.6v-14.7h-4.9v-2.5H226.8z"/>
			<path class="st0" d="M237.1,148.4c-0.3,0.3-0.6,0.4-1,0.4c-0.4,0-0.7-0.1-1-0.4c-0.3-0.3-0.4-0.6-0.4-1.1c0-0.4,0.1-0.8,0.4-1.1
				c0.3-0.3,0.6-0.4,1-0.4c0.4,0,0.7,0.1,1,0.4c0.3,0.3,0.4,0.6,0.4,1.1C237.5,147.8,237.4,148.1,237.1,148.4z M237.3,162.8H235V151
				h2.3V162.8z"/>
			<path class="st0" d="M243.7,152.3l0.2-0.2c0.1-0.1,0.2-0.2,0.4-0.4c0.2-0.2,0.5-0.3,0.7-0.4c0.2-0.1,0.6-0.3,0.9-0.4
				c0.4-0.1,0.8-0.2,1.2-0.2c1.4,0,2.5,0.5,3.3,1.4s1.3,2.2,1.3,3.8v6.9h-2.3V156c0-0.8-0.3-1.6-0.8-2.1c-0.5-0.6-1.2-0.8-1.9-0.8
				c-0.9,0-1.6,0.3-2.1,0.9c-0.5,0.6-0.8,1.4-0.8,2.5v6.4h-2.3V151h2.3V152.3z"/>
			<path class="st0" d="M261.3,153.2h-2.6v9.6h-2.3v-9.6h-1.6V151h1.6v-2c0-2.5,1.1-3.7,3.3-3.7c0.3,0,0.6,0,0.8,0.1
				s0.5,0.1,0.6,0.1l0.2,0v2.2c-0.4-0.2-0.8-0.2-1.2-0.3c-0.4,0-0.7,0.1-1,0.4c-0.3,0.3-0.4,0.6-0.4,1.1v1.9h2.6V153.2z"/>
			<path class="st0" d="M269.6,153c-0.9,0-1.6,0.3-2.1,0.9c-0.5,0.6-0.8,1.4-0.8,2.5v6.4h-2.3V151h2.3v1.2l0.2-0.2
				c0.1-0.1,0.2-0.2,0.4-0.4c0.2-0.2,0.5-0.3,0.7-0.4c0.2-0.1,0.6-0.3,0.9-0.4c0.4-0.1,0.8-0.2,1.2-0.2h0.6v2.3
				C270.3,153,269.9,153,269.6,153z"/>
			<path class="st0" d="M279.8,162.8v-1.2c0,0-0.1,0.1-0.2,0.2c-0.1,0.1-0.2,0.2-0.4,0.4c-0.2,0.2-0.5,0.3-0.7,0.4
				c-0.3,0.1-0.6,0.2-0.9,0.4c-0.4,0.1-0.8,0.2-1.2,0.2c-1.1,0-2.1-0.3-2.8-1c-0.8-0.7-1.1-1.5-1.1-2.4c0-1,0.3-1.8,0.9-2.4
				c0.6-0.7,1.4-1.1,2.4-1.2l4.1-0.7c0-0.6-0.2-1.1-0.7-1.6c-0.4-0.4-1-0.6-1.7-0.6c-0.6,0-1.1,0.1-1.6,0.4c-0.5,0.3-0.8,0.5-1,0.8
				l-0.3,0.4l-1.5-1.6c0-0.1,0.1-0.1,0.2-0.2c0.1-0.1,0.3-0.3,0.5-0.5c0.3-0.3,0.6-0.5,0.9-0.7c0.3-0.2,0.7-0.4,1.2-0.5
				c0.5-0.2,1-0.2,1.6-0.2c1.4,0,2.5,0.4,3.4,1.3c0.9,0.9,1.3,1.9,1.3,3.1v7.6H279.8z M279,160c0.5-0.6,0.8-1.4,0.8-2.5v-0.2
				l-3.6,0.6c-0.4,0.1-0.8,0.3-1,0.5c-0.3,0.3-0.4,0.6-0.4,1.1c0,0.4,0.2,0.7,0.5,1s0.8,0.4,1.5,0.4
				C277.8,160.9,278.5,160.6,279,160z"/>
			<path class="st0" d="M291.8,154c-0.1-0.1-0.2-0.2-0.3-0.3c-0.1-0.1-0.4-0.3-0.7-0.4c-0.4-0.2-0.7-0.3-1.1-0.3
				c-0.5,0-0.9,0.1-1.2,0.4c-0.3,0.2-0.4,0.5-0.4,0.9c0,0.3,0.1,0.6,0.4,0.9c0.3,0.2,0.6,0.4,1.1,0.5c0.4,0.1,0.9,0.3,1.4,0.5
				c0.5,0.2,0.9,0.4,1.4,0.6c0.4,0.2,0.8,0.6,1.1,1c0.3,0.5,0.4,1,0.4,1.7c0,1-0.4,1.9-1.2,2.6c-0.8,0.7-1.8,1.1-3,1.1
				c-0.6,0-1.1-0.1-1.6-0.2c-0.5-0.1-0.9-0.3-1.2-0.5c-0.3-0.2-0.6-0.4-0.8-0.6c-0.2-0.2-0.4-0.4-0.5-0.5l-0.2-0.2l1.5-1.6
				c0.1,0.1,0.2,0.3,0.3,0.4c0.2,0.2,0.5,0.4,1,0.7c0.5,0.3,1,0.4,1.5,0.4c0.6,0,1.1-0.1,1.4-0.4c0.3-0.3,0.5-0.6,0.5-1.1
				c0-0.3-0.1-0.6-0.4-0.9c-0.3-0.2-0.6-0.4-1.1-0.5c-0.4-0.1-0.9-0.3-1.4-0.5c-0.5-0.2-1-0.4-1.4-0.6c-0.4-0.2-0.8-0.6-1.1-1
				c-0.3-0.5-0.4-1-0.4-1.7c0-0.9,0.4-1.7,1.1-2.4c0.8-0.7,1.7-1,2.8-1c0.4,0,0.9,0.1,1.3,0.2c0.4,0.1,0.8,0.2,1,0.4
				c0.3,0.2,0.5,0.3,0.7,0.5c0.2,0.2,0.3,0.3,0.4,0.4l0.1,0.2L291.8,154z"/>
			<path class="st0" d="M298.4,147.1h2.1v3.9h2.3v2.2h-2.3v6.1c0,0.4,0.1,0.8,0.4,1.1c0.3,0.3,0.6,0.4,1,0.4c0.2,0,0.4,0,0.6-0.1
				c0.2,0,0.3-0.1,0.5-0.1l0.2,0v2.2c-0.5,0.2-1,0.2-1.6,0.2c-2.2,0-3.3-1.2-3.3-3.7v-6.1h-2.1V151h1.2c0.8,0,1.2-0.5,1.2-1.5V147.1
				z"/>
			<path class="st0" d="M311.9,153c-0.9,0-1.6,0.3-2.1,0.9c-0.5,0.6-0.8,1.4-0.8,2.5v6.4h-2.3V151h2.3v1.2l0.2-0.2
				c0.1-0.1,0.2-0.2,0.4-0.4c0.2-0.2,0.5-0.3,0.7-0.4c0.2-0.1,0.6-0.3,0.9-0.4c0.4-0.1,0.8-0.2,1.2-0.2h0.6v2.3
				C312.6,153,312.2,153,311.9,153z"/>
			<path class="st0" d="M323.4,161.6l-0.1,0.2c-0.1,0.1-0.2,0.2-0.4,0.4c-0.2,0.2-0.5,0.3-0.7,0.4c-0.3,0.1-0.6,0.2-0.9,0.4
				c-0.4,0.1-0.8,0.2-1.2,0.2c-1.4,0-2.5-0.5-3.3-1.4c-0.8-0.9-1.3-2.2-1.3-3.8V151h2.3v6.9c0,0.8,0.3,1.5,0.8,2.1
				c0.5,0.6,1.2,0.8,1.9,0.8c0.9,0,1.6-0.3,2.1-0.9c0.5-0.6,0.8-1.4,0.8-2.5V151h2.3v11.8h-2.3V161.6z"/>
			<path class="st0" d="M330.9,152.6c1.2-1.2,2.5-1.8,4.1-1.8c0.9,0,1.7,0.2,2.4,0.6c0.8,0.4,1.3,0.8,1.6,1.2l0.5,0.6l-1.5,1.6
				c-0.1-0.1-0.2-0.3-0.3-0.5c-0.2-0.2-0.5-0.4-1-0.8c-0.5-0.3-1.1-0.5-1.7-0.5c-1,0-1.8,0.4-2.5,1.1c-0.7,0.8-1,1.7-1,2.8
				c0,1.1,0.3,2,1,2.8c0.7,0.8,1.5,1.1,2.5,1.1c0.6,0,1.2-0.2,1.7-0.5c0.5-0.3,0.9-0.6,1.1-0.9l0.4-0.5l1.5,1.6
				c0,0.1-0.1,0.2-0.2,0.3c-0.1,0.1-0.3,0.3-0.6,0.6c-0.3,0.3-0.6,0.5-1,0.7s-0.8,0.4-1.3,0.6c-0.5,0.2-1.1,0.3-1.6,0.3
				c-1.6,0-2.9-0.6-4.1-1.8c-1.2-1.2-1.7-2.7-1.7-4.3S329.7,153.8,330.9,152.6z"/>
			<path class="st0" d="M344.1,147.1h2.1v3.9h2.3v2.2h-2.3v6.1c0,0.4,0.1,0.8,0.4,1.1c0.3,0.3,0.6,0.4,1,0.4c0.2,0,0.4,0,0.6-0.1
				c0.2,0,0.3-0.1,0.5-0.1l0.2,0v2.2c-0.5,0.2-1,0.2-1.6,0.2c-2.2,0-3.3-1.2-3.3-3.7v-6.1h-2.1V151h1.2c0.8,0,1.2-0.5,1.2-1.5V147.1
				z"/>
			<path class="st0" d="M360.2,161.6l-0.1,0.2c-0.1,0.1-0.2,0.2-0.4,0.4c-0.2,0.2-0.5,0.3-0.7,0.4c-0.3,0.1-0.6,0.2-0.9,0.4
				c-0.4,0.1-0.8,0.2-1.2,0.2c-1.4,0-2.5-0.5-3.3-1.4c-0.8-0.9-1.3-2.2-1.3-3.8V151h2.3v6.9c0,0.8,0.3,1.5,0.8,2.1
				c0.5,0.6,1.2,0.8,1.9,0.8c0.9,0,1.6-0.3,2.1-0.9c0.5-0.6,0.8-1.4,0.8-2.5V151h2.3v11.8h-2.3V161.6z"/>
			<path class="st0" d="M371.9,153c-0.9,0-1.6,0.3-2.1,0.9c-0.5,0.6-0.8,1.4-0.8,2.5v6.4h-2.3V151h2.3v1.2l0.2-0.2
				c0.1-0.1,0.2-0.2,0.4-0.4c0.2-0.2,0.5-0.3,0.7-0.4c0.2-0.1,0.6-0.3,0.9-0.4c0.4-0.1,0.8-0.2,1.2-0.2h0.6v2.3
				C372.7,153,372.3,153,371.9,153z"/>
			<path class="st0" d="M377.2,157.8c0.1,0.8,0.5,1.6,1.2,2.2c0.7,0.6,1.4,0.9,2.3,0.9c0.7,0,1.3-0.2,1.8-0.5c0.6-0.3,1-0.6,1.2-0.9
				l0.4-0.5l1.5,1.6c0,0.1-0.1,0.2-0.2,0.3c-0.1,0.1-0.3,0.3-0.6,0.6c-0.3,0.3-0.6,0.5-1,0.7s-0.8,0.4-1.4,0.6s-1.1,0.3-1.7,0.3
				c-1.6,0-3-0.6-4.1-1.8c-1.2-1.2-1.7-2.7-1.7-4.4c0-1.7,0.6-3.1,1.7-4.3c1.1-1.2,2.5-1.8,4-1.8s2.9,0.6,3.9,1.6
				c1,1.1,1.6,2.5,1.6,4.1l-0.1,1.2H377.2z M378.4,153.7c-0.6,0.5-1,1.2-1.2,2h6.5c-0.1-0.8-0.5-1.5-1.1-2s-1.3-0.8-2.1-0.8
				C379.7,152.9,379,153.1,378.4,153.7z"/>
		</g>
	</g>
</g>
<g>
	<g>
		<circle class="st0" cx="177.6" cy="71.9" r="9.1"/>
		<circle class="st0" cx="234.2" cy="126.3" r="9.1"/>
		<path class="st0" d="M234.2,62.8c-2.1,0-4.1,0.7-5.7,2c-2.3,1.8-5.2,2.7-8.2,2.7h-1.3c-2.9,0-5.6-1.1-7.9-2.9
			c-0.1-0.1-0.2-0.1-0.2-0.2c-0.1-0.1-0.1-0.1-0.2-0.1c-0.2-0.1-0.4-0.2-0.6-0.3c-0.1,0-0.1-0.1-0.2-0.1c-0.2-0.1-0.5-0.2-0.8-0.4
			c-0.1,0-0.1,0-0.2-0.1c-0.2-0.1-0.4-0.2-0.6-0.2c-0.1,0-0.2-0.1-0.3-0.1c-0.2-0.1-0.4-0.1-0.6-0.1c-0.1,0-0.2,0-0.3-0.1
			c-0.2,0-0.4-0.1-0.6-0.1c-0.1,0-0.2,0-0.2,0c-0.3,0-0.6,0-0.9,0c0,0,0,0,0,0c-0.1,0-0.2,0-0.4,0c-0.2,0-0.4,0-0.5,0
			c0,0-0.1,0-0.1,0c-0.5,0.1-1,0.2-1.4,0.3c-0.2,0.1-0.3,0.1-0.5,0.2c0,0-0.1,0-0.1,0c-2.1,0.8-3.9,2.4-4.9,4.5
			c-0.4,0.7-0.7,1.5-0.8,2.3c0,0.1,0,0.2,0,0.3c0,0.2-0.1,0.3-0.1,0.5c0,0.1,0,0.3,0,0.4c0,0.1,0,0.1,0,0.2c0,0.1,0,0.3,0,0.4
			c0,0.1,0,0.3,0,0.4c0,0.2,0,0.4,0.1,0.6c0,0.1,0,0.2,0,0.4c0,0.3,0.1,0.5,0.2,0.8c0,0.1,0,0.1,0,0.2c0.1,0.3,0.2,0.6,0.3,0.9
			c0,0,0,0,0,0.1c0.1,0.3,0.2,0.5,0.4,0.8c0,0.1,0.1,0.1,0.1,0.2c0.1,0.2,0.3,0.4,0.4,0.7c0,0.1,0.1,0.1,0.1,0.2
			c0.1,0.2,0.3,0.4,0.5,0.6c0,0,0,0,0,0.1c2.6,3.1,3.1,7.7,1.7,11.5c-0.4,1-1,1.9-1.7,2.7c-1.3,1.6-2.1,3.6-2.1,5.9
			c0,2.1,0.7,4.1,2,5.6c1.8,2.3,2.7,5.2,2.7,8.2v0.9c0,0,0,0.1,0,0.1c0,5-4.1,9-9.1,9.1c0,0-0.1,0-0.1,0h-0.9c0,0-0.1,0-0.1,0
			c-5,0-9-4.1-9.1-9.1c0-0.1,0-0.2,0-0.2v-0.9c0-3,1.1-5.8,2.9-8.2c1.2-1.6,1.8-3.5,1.8-5.6c-0.1-4.8-4-8.8-8.8-9
			c-5.2-0.2-9.5,4-9.5,9.1c0,2.1,0.7,4.1,2,5.6c1.8,2.3,2.7,5.2,2.7,8.2v0.8c0,2.9-0.9,5.9-2.7,8.2c-1,1.2-1.6,2.7-1.9,4.4
			c0,0.1,0,0.1,0,0.2c0,0.2,0,0.4-0.1,0.6c0,0,0,0.1,0,0.1c0,0.1,0,0.1,0,0.2c0,0.1,0,0.2,0,0.3c0,0.1,0,0.1,0,0.2
			c0,0.1,0,0.3,0,0.4c0,0.1,0,0.3,0,0.4c0,0.2,0.1,0.4,0.1,0.6c0,0.1,0,0.2,0.1,0.2c0.8,3.3,3.4,6,6.7,6.8c0.1,0,0.1,0,0.2,0
			c0.2,0,0.4,0.1,0.5,0.1c0.1,0,0.3,0,0.4,0.1c0.1,0,0.3,0,0.4,0c0.1,0,0.2,0,0.3,0c0.1,0,0.1,0,0.2,0c0.1,0,0.1,0,0.2,0
			c0.1,0,0.3,0,0.4,0c0.1,0,0.2,0,0.3,0c0.3,0,0.5,0,0.8-0.1c0,0,0.1,0,0.1,0c0.3,0,0.6-0.1,0.8-0.2c0.1,0,0.2-0.1,0.3-0.1
			c0.2-0.1,0.3-0.1,0.5-0.2c0.1,0,0.2-0.1,0.3-0.1c0.1-0.1,0.3-0.1,0.4-0.2c0.1-0.1,0.2-0.1,0.4-0.2c0.1-0.1,0.2-0.1,0.4-0.2
			c0.1-0.1,0.2-0.1,0.4-0.2c0.1-0.1,0.2-0.1,0.3-0.2c0.1-0.1,0.2-0.2,0.3-0.2c2.4-1.8,5.3-2.7,8.2-2.7h0.9c2.7,0,5.4,0.9,7.6,2.4
			c1.5,1.3,3.4,2.1,5.5,2.2c0.1,0,0.2,0,0.3,0c0.1,0,0.3,0,0.4,0c0.1,0,0.2,0,0.2,0c0,0,0.1,0,0.1,0c4.6-0.3,8.4-4.1,8.6-8.8
			c0.1-2.6-0.9-5-2.6-6.8c-1.4-2.2-2.1-4.8-2.1-7.4v-0.8c0-2.9,0.9-5.9,2.7-8.2c1.2-1.6,2-3.5,2-5.6c0-2.1-0.7-4.1-2-5.7
			c-1.7-2.1-2.7-4.7-2.7-7.4v0c0,0,0,0,0-0.1c0-4.2,3.3-7.8,7.5-8.3c0.6-0.1,1.2-0.1,1.8-0.1l0.9,0c3,0,5.8,1.1,8.2,2.9
			c1.6,1.2,3.5,1.8,5.6,1.8c4.8-0.1,8.8-4,9-8.8C243.6,67,239.4,62.8,234.2,62.8z"/>
	</g>
	<g>
		<g>
			<path class="st0" d="M276.4,73.2c-0.6,0.6-1.5,0.9-2.6,0.9c-1,0-1.8-0.3-2.4-0.9c-0.6-0.6-0.9-1.4-0.9-2.4s0.3-1.8,0.9-2.4
				c0.6-0.6,1.4-0.9,2.4-0.9c1.1,0,2,0.3,2.6,0.9c0.6,0.6,1,1.4,1,2.4S277,72.6,276.4,73.2z M276.9,99h-6.1V77.1h6.1V99z"/>
			<path class="st0" d="M288.9,79.8c0.2-0.2,0.4-0.5,0.7-0.9s1-0.8,2.1-1.4c1.1-0.6,2.2-0.9,3.4-0.9c2.5,0,4.5,0.9,6.1,2.6
				c1.6,1.7,2.4,4.1,2.4,7V99h-6V86.9c0-1.3-0.4-2.4-1.2-3.2c-0.8-0.8-1.8-1.2-3.1-1.2c-1.4,0-2.5,0.4-3.3,1.3
				c-0.8,0.9-1.2,2.2-1.2,3.8V99h-6V77.1h6V79.8z"/>
			<path class="st0" d="M328,96c-2.3,2.3-5,3.4-8.2,3.4s-5.9-1.1-8.2-3.4c-2.3-2.3-3.5-4.9-3.5-8c0-3,1.2-5.7,3.5-8
				c2.3-2.3,5-3.4,8.2-3.4s5.9,1.1,8.2,3.4c2.3,2.3,3.5,4.9,3.5,8C331.5,91.1,330.3,93.7,328,96z M316,92.2c1.1,1.1,2.3,1.7,3.8,1.7
				s2.7-0.6,3.8-1.7c1.1-1.1,1.6-2.5,1.6-4.1c0-1.6-0.5-3-1.6-4.1c-1.1-1.1-2.3-1.7-3.8-1.7s-2.7,0.6-3.8,1.7
				c-1.1,1.1-1.6,2.5-1.6,4.1C314.4,89.7,315,91.1,316,92.2z"/>
			<path class="st0" d="M341.5,99l-8.3-21.9h6.3l5.1,14.6l5.2-14.6h6.3L347.8,99H341.5z"/>
			<path class="st0" d="M371.3,96.8c-0.2,0.2-0.4,0.5-0.7,0.8s-1,0.7-2,1.2c-1,0.5-2.1,0.7-3.3,0.7c-2.2,0-4-0.6-5.3-1.8
				c-1.4-1.2-2.1-2.7-2.1-4.4c0-1.8,0.6-3.3,1.7-4.5c1.2-1.2,2.7-2,4.8-2.3l6.9-1.2c0-0.9-0.3-1.7-1-2.3s-1.6-0.9-2.8-0.9
				c-1,0-1.9,0.2-2.7,0.6c-0.8,0.4-1.4,0.8-1.7,1.1l-0.5,0.5l-3.3-3.3c0.1-0.1,0.2-0.3,0.4-0.5c0.2-0.2,0.5-0.5,1-1
				c0.5-0.5,1.1-0.9,1.7-1.3c0.6-0.4,1.4-0.7,2.5-1c1-0.3,2.1-0.5,3.1-0.5c2.8,0,5,0.8,6.8,2.5c1.7,1.7,2.6,3.7,2.6,6.2V99h-6V96.8z
				 M370.1,93.2c0.8-0.9,1.2-2.1,1.2-3.6v-0.7l-4.9,0.9c-1.6,0.3-2.5,1.1-2.5,2.5c0,1.5,1,2.2,2.9,2.2
				C368.2,94.5,369.2,94.1,370.1,93.2z"/>
			<path class="st0" d="M394.9,70.6h5.4v6.9h4.5v5.4h-4.5v8.7c0,0.7,0.3,1.3,0.8,1.7c0.5,0.5,1.1,0.7,1.9,0.7c0.4,0,0.8,0,1.1-0.1
				c0.4-0.1,0.7-0.2,0.8-0.3l0.3-0.1v5.2c-1.2,0.5-2.5,0.7-4,0.7c-4.6,0-6.9-2.5-6.9-7.6v-8.9h-3.8v-5.4h2c0.7,0,1.3-0.3,1.7-0.8
				c0.5-0.5,0.7-1.2,0.7-2.1V70.6z"/>
			<path class="st0" d="M413.5,90c0.2,1.2,0.9,2.2,1.9,3c1,0.8,2.3,1.2,3.9,1.2c1.1,0,2.2-0.2,3.2-0.7c1-0.4,1.7-0.9,2-1.3l0.6-0.7
				l3.1,4l-0.4,0.4c-0.2,0.2-0.6,0.5-1.2,0.9c-0.6,0.4-1.2,0.8-1.9,1.2c-0.7,0.3-1.5,0.6-2.6,0.9c-1.1,0.3-2.2,0.4-3.3,0.4
				c-3.2,0-6-1.1-8.2-3.4c-2.3-2.2-3.4-4.9-3.4-8.1c0-3.1,1.1-5.8,3.4-8.1c2.2-2.2,4.9-3.4,8.1-3.4c3.1,0,5.7,1,7.8,3.1
				c2.1,2.1,3.1,4.7,3.1,7.8l-0.2,2.4H413.5z M415.4,82.9c-0.9,0.7-1.5,1.7-1.9,2.9h10.1c-0.2-1.2-0.8-2.1-1.7-2.9
				c-0.9-0.8-2-1.1-3.2-1.1C417.4,81.8,416.3,82.2,415.4,82.9z"/>
			<path class="st0" d="M436.2,80c2.3-2.3,5.1-3.4,8.3-3.4c1.1,0,2.2,0.2,3.2,0.5c1,0.3,1.9,0.7,2.5,1.1c0.7,0.4,1.2,0.9,1.7,1.3
				c0.5,0.4,0.9,0.8,1.1,1.1l0.3,0.5l-3.8,3.8c-0.1-0.2-0.3-0.5-0.6-0.8c-0.3-0.3-0.9-0.8-1.7-1.3c-0.9-0.5-1.8-0.8-2.8-0.8
				c-1.6,0-3,0.6-4.1,1.8c-1.1,1.2-1.7,2.6-1.7,4.3c0,1.7,0.6,3.1,1.7,4.3c1.2,1.2,2.5,1.8,4.1,1.8c1,0,1.9-0.2,2.8-0.7
				c0.9-0.5,1.5-1,2-1.4l0.6-0.7l3.6,3.8c-0.1,0.1-0.2,0.3-0.4,0.5c-0.2,0.2-0.5,0.6-1.1,1.1s-1.2,0.9-1.8,1.3
				c-0.6,0.4-1.5,0.7-2.5,1.1c-1,0.3-2.1,0.5-3.2,0.5c-3.2,0-6-1.1-8.3-3.4c-2.3-2.3-3.5-4.9-3.5-8C432.7,85,433.9,82.3,436.2,80z"
				/>
			<path class="st0" d="M463.8,79.8c0.2-0.2,0.4-0.5,0.7-0.9s1-0.8,2.1-1.4c1.1-0.6,2.2-0.9,3.4-0.9c2.5,0,4.5,0.9,6.1,2.6
				c1.6,1.7,2.4,4.1,2.4,7V99h-6V86.9c0-1.3-0.4-2.4-1.2-3.2c-0.8-0.8-1.8-1.2-3.1-1.2c-1.4,0-2.5,0.4-3.3,1.3
				c-0.8,0.9-1.2,2.2-1.2,3.8V99h-6.1V67.7h6.1V79.8z"/>
		</g>
	</g>
	<g>
		<g>
			<path class="st0" d="M271.6,110.1c0.6-0.6,1.3-0.9,2.1-0.9c0.4,0,0.9,0.1,1.2,0.3c0.4,0.2,0.7,0.4,0.8,0.6l0.2,0.3l-0.8,0.8
				c0-0.1-0.1-0.1-0.2-0.2c-0.1-0.1-0.3-0.2-0.5-0.4c-0.3-0.2-0.5-0.2-0.9-0.2c-0.5,0-0.9,0.2-1.3,0.6c-0.4,0.4-0.5,0.8-0.5,1.4
				c0,0.5,0.2,1,0.5,1.3c0.4,0.4,0.8,0.6,1.3,0.6c0.3,0,0.6-0.1,0.9-0.2c0.3-0.2,0.5-0.3,0.6-0.4l0.2-0.2l0.8,0.8
				c0,0-0.1,0.1-0.1,0.1s-0.1,0.2-0.3,0.3c-0.2,0.1-0.3,0.3-0.5,0.4s-0.4,0.2-0.7,0.3s-0.5,0.1-0.8,0.1c-0.8,0-1.5-0.3-2.1-0.9
				c-0.6-0.6-0.9-1.3-0.9-2.1S271.1,110.7,271.6,110.1z"/>
			<path class="st0" d="M279.3,115l-2.3-5.7h1.2l1.7,4.2l1.7-4.2h1.2l-2.6,6.3c-0.3,0.7-0.6,1.2-0.9,1.5c-0.3,0.3-0.6,0.4-1.1,0.4
				c-0.2,0-0.3,0-0.4,0c-0.1,0-0.2,0-0.3-0.1l-0.1,0v-1.1c0.2,0.1,0.4,0.1,0.6,0.1c0.5,0,0.8-0.3,1-0.8L279.3,115z"/>
			<path class="st0" d="M289.2,110.1c0.6,0.6,0.8,1.3,0.8,2.1s-0.3,1.5-0.8,2.1c-0.6,0.6-1.2,0.9-2,0.9c-0.2,0-0.4,0-0.6-0.1
				c-0.2-0.1-0.4-0.1-0.5-0.2c-0.1-0.1-0.3-0.2-0.4-0.2c-0.1-0.1-0.2-0.1-0.2-0.2l-0.1-0.1v0.7h-1.2v-8.3h1.2v3.3
				c0.1-0.1,0.1-0.1,0.2-0.2c0.1-0.1,0.3-0.2,0.6-0.3c0.3-0.1,0.6-0.2,1-0.2C288,109.2,288.6,109.5,289.2,110.1z M288.3,113.5
				c0.3-0.4,0.5-0.8,0.5-1.3s-0.2-1-0.5-1.3c-0.3-0.4-0.7-0.6-1.2-0.6c-0.5,0-0.9,0.2-1.2,0.6c-0.4,0.4-0.5,0.8-0.5,1.3
				s0.2,1,0.5,1.3c0.4,0.4,0.8,0.6,1.2,0.6C287.6,114.1,287.9,113.9,288.3,113.5z"/>
			<path class="st0" d="M292.5,112.6c0.1,0.4,0.3,0.8,0.6,1c0.3,0.3,0.7,0.4,1.2,0.4c0.3,0,0.6-0.1,0.9-0.2c0.3-0.2,0.5-0.3,0.6-0.4
				l0.2-0.2l0.8,0.8c0,0-0.1,0.1-0.1,0.1c0,0.1-0.2,0.2-0.3,0.3c-0.2,0.1-0.3,0.3-0.5,0.4s-0.4,0.2-0.7,0.3
				c-0.3,0.1-0.6,0.1-0.9,0.1c-0.8,0-1.5-0.3-2.1-0.9c-0.6-0.6-0.9-1.3-0.9-2.1c0-0.8,0.3-1.5,0.9-2.1c0.6-0.6,1.3-0.9,2.1-0.9
				c0.8,0,1.5,0.3,2,0.8c0.5,0.5,0.8,1.2,0.8,2l-0.1,0.6H292.5z M293.1,110.6c-0.3,0.3-0.5,0.6-0.6,1h3.3c-0.1-0.4-0.2-0.7-0.5-1
				s-0.7-0.4-1.1-0.4C293.8,110.2,293.4,110.3,293.1,110.6z"/>
			<path class="st0" d="M301.4,110.3c-0.5,0-0.8,0.1-1.1,0.4c-0.3,0.3-0.4,0.7-0.4,1.2v3.1h-1.2v-5.7h1.2v0.6l0.1-0.1
				c0,0,0.1-0.1,0.2-0.2c0.1-0.1,0.2-0.2,0.4-0.2c0.1-0.1,0.3-0.1,0.5-0.2c0.2-0.1,0.4-0.1,0.6-0.1h0.3v1.1
				C301.7,110.3,301.6,110.3,301.4,110.3z"/>
			<path class="st0" d="M306.1,110.7c0,0-0.1-0.1-0.1-0.1s-0.2-0.1-0.4-0.2c-0.2-0.1-0.4-0.1-0.6-0.1c-0.3,0-0.5,0.1-0.6,0.2
				c-0.1,0.1-0.2,0.3-0.2,0.4c0,0.2,0.1,0.3,0.2,0.4s0.3,0.2,0.5,0.3c0.2,0.1,0.5,0.1,0.7,0.2c0.2,0.1,0.5,0.2,0.7,0.3
				c0.2,0.1,0.4,0.3,0.5,0.5c0.1,0.2,0.2,0.5,0.2,0.8c0,0.5-0.2,0.9-0.6,1.3c-0.4,0.3-0.9,0.5-1.5,0.5c-0.3,0-0.5,0-0.8-0.1
				c-0.3-0.1-0.5-0.2-0.6-0.2s-0.3-0.2-0.4-0.3c-0.1-0.1-0.2-0.2-0.3-0.3l-0.1-0.1l0.8-0.8c0,0.1,0.1,0.1,0.2,0.2
				c0.1,0.1,0.2,0.2,0.5,0.3c0.2,0.1,0.5,0.2,0.8,0.2c0.3,0,0.6-0.1,0.7-0.2c0.2-0.1,0.2-0.3,0.2-0.5c0-0.2-0.1-0.3-0.2-0.4
				c-0.1-0.1-0.3-0.2-0.5-0.3c-0.2-0.1-0.5-0.1-0.7-0.2c-0.2-0.1-0.5-0.2-0.7-0.3c-0.2-0.1-0.4-0.3-0.5-0.5
				c-0.1-0.2-0.2-0.5-0.2-0.8c0-0.4,0.2-0.8,0.6-1.2c0.4-0.3,0.9-0.5,1.4-0.5c0.2,0,0.5,0,0.7,0.1c0.2,0.1,0.4,0.1,0.5,0.2
				c0.1,0.1,0.3,0.2,0.4,0.2c0.1,0.1,0.2,0.1,0.2,0.2l0.1,0.1L306.1,110.7z"/>
			<path class="st0" d="M309.5,112.6c0.1,0.4,0.3,0.8,0.6,1c0.3,0.3,0.7,0.4,1.2,0.4c0.3,0,0.6-0.1,0.9-0.2c0.3-0.2,0.5-0.3,0.6-0.4
				l0.2-0.2l0.8,0.8c0,0-0.1,0.1-0.1,0.1c0,0.1-0.2,0.2-0.3,0.3c-0.2,0.1-0.3,0.3-0.5,0.4s-0.4,0.2-0.7,0.3
				c-0.3,0.1-0.6,0.1-0.9,0.1c-0.8,0-1.5-0.3-2.1-0.9c-0.6-0.6-0.9-1.3-0.9-2.1c0-0.8,0.3-1.5,0.9-2.1c0.6-0.6,1.3-0.9,2.1-0.9
				s1.5,0.3,2,0.8c0.5,0.5,0.8,1.2,0.8,2l-0.1,0.6H309.5z M310.2,110.6c-0.3,0.3-0.5,0.6-0.6,1h3.3c-0.1-0.4-0.2-0.7-0.5-1
				c-0.3-0.3-0.7-0.4-1.1-0.4C310.8,110.2,310.5,110.3,310.2,110.6z"/>
			<path class="st0" d="M316.3,110.1c0.6-0.6,1.3-0.9,2.1-0.9c0.4,0,0.9,0.1,1.2,0.3c0.4,0.2,0.7,0.4,0.8,0.6l0.2,0.3l-0.8,0.8
				c0-0.1-0.1-0.1-0.2-0.2c-0.1-0.1-0.3-0.2-0.5-0.4c-0.3-0.2-0.5-0.2-0.9-0.2c-0.5,0-0.9,0.2-1.3,0.6c-0.4,0.4-0.5,0.8-0.5,1.4
				c0,0.5,0.2,1,0.5,1.3c0.4,0.4,0.8,0.6,1.3,0.6c0.3,0,0.6-0.1,0.9-0.2c0.3-0.2,0.5-0.3,0.6-0.4l0.2-0.2l0.8,0.8
				c0,0-0.1,0.1-0.1,0.1c0,0.1-0.1,0.2-0.3,0.3c-0.2,0.1-0.3,0.3-0.5,0.4s-0.4,0.2-0.7,0.3c-0.3,0.1-0.5,0.1-0.8,0.1
				c-0.8,0-1.5-0.3-2.1-0.9c-0.6-0.6-0.9-1.3-0.9-2.1S315.7,110.7,316.3,110.1z"/>
			<path class="st0" d="M326.3,114.4L326.3,114.4c-0.1,0.1-0.2,0.2-0.3,0.2c-0.1,0.1-0.2,0.2-0.4,0.2c-0.1,0.1-0.3,0.1-0.5,0.2
				c-0.2,0.1-0.4,0.1-0.6,0.1c-0.7,0-1.2-0.2-1.7-0.7c-0.4-0.5-0.6-1.1-0.6-1.8v-3.3h1.2v3.3c0,0.4,0.1,0.8,0.4,1
				c0.3,0.3,0.6,0.4,1,0.4c0.5,0,0.8-0.1,1.1-0.4c0.3-0.3,0.4-0.7,0.4-1.2v-3.1h1.2v5.7h-1.2V114.4z"/>
			<path class="st0" d="M332.2,110.3c-0.5,0-0.8,0.1-1.1,0.4c-0.3,0.3-0.4,0.7-0.4,1.2v3.1h-1.2v-5.7h1.2v0.6l0.1-0.1
				c0,0,0.1-0.1,0.2-0.2c0.1-0.1,0.2-0.2,0.4-0.2c0.1-0.1,0.3-0.1,0.5-0.2c0.2-0.1,0.4-0.1,0.6-0.1h0.3v1.1
				C332.6,110.3,332.4,110.3,332.2,110.3z"/>
			<path class="st0" d="M335.3,108c-0.1,0.1-0.3,0.2-0.5,0.2c-0.2,0-0.4-0.1-0.5-0.2c-0.1-0.1-0.2-0.3-0.2-0.5
				c0-0.2,0.1-0.4,0.2-0.5c0.1-0.1,0.3-0.2,0.5-0.2c0.2,0,0.4,0.1,0.5,0.2c0.1,0.1,0.2,0.3,0.2,0.5
				C335.5,107.7,335.4,107.9,335.3,108z M335.3,115h-1.2v-5.7h1.2V115z"/>
			<path class="st0" d="M338.1,107.4h1.1v1.9h1.2v1.1h-1.2v3c0,0.2,0.1,0.4,0.2,0.5c0.1,0.1,0.3,0.2,0.5,0.2c0.1,0,0.2,0,0.3,0
				c0.1,0,0.2,0,0.2-0.1l0.1,0v1.1c-0.2,0.1-0.5,0.1-0.8,0.1c-1.1,0-1.7-0.6-1.7-1.8v-3h-1.1v-1.1h0.6c0.4,0,0.6-0.2,0.6-0.7V107.4z
				"/>
			<path class="st0" d="M343.9,115l-2.3-5.7h1.2l1.7,4.2l1.7-4.2h1.2l-2.6,6.3c-0.3,0.7-0.6,1.2-0.9,1.5c-0.3,0.3-0.6,0.4-1.1,0.4
				c-0.2,0-0.3,0-0.4,0c-0.1,0-0.2,0-0.3-0.1l-0.1,0v-1.1c0.2,0.1,0.4,0.1,0.6,0.1c0.5,0,0.8-0.3,1-0.8L343.9,115z"/>
			<path class="st0" d="M354.8,115v-0.6c0,0,0,0-0.1,0.1c0,0-0.1,0.1-0.2,0.2c-0.1,0.1-0.2,0.2-0.4,0.2c-0.1,0.1-0.3,0.1-0.5,0.2
				c-0.2,0.1-0.4,0.1-0.6,0.1c-0.6,0-1.1-0.2-1.4-0.5c-0.4-0.3-0.6-0.7-0.6-1.2c0-0.5,0.1-0.9,0.4-1.2c0.3-0.3,0.7-0.5,1.2-0.6
				l2.1-0.4c0-0.3-0.1-0.6-0.3-0.8c-0.2-0.2-0.5-0.3-0.9-0.3c-0.3,0-0.6,0.1-0.8,0.2c-0.2,0.1-0.4,0.3-0.5,0.4l-0.2,0.2l-0.8-0.8
				c0,0,0.1-0.1,0.1-0.1c0,0,0.1-0.1,0.3-0.3c0.1-0.1,0.3-0.2,0.5-0.3c0.2-0.1,0.4-0.2,0.6-0.3c0.3-0.1,0.5-0.1,0.8-0.1
				c0.7,0,1.3,0.2,1.7,0.6c0.4,0.4,0.7,0.9,0.7,1.5v3.7H354.8z M354.4,113.6c0.3-0.3,0.4-0.7,0.4-1.2v-0.1l-1.8,0.3
				c-0.2,0-0.4,0.1-0.5,0.3c-0.1,0.1-0.2,0.3-0.2,0.5c0,0.2,0.1,0.4,0.3,0.5s0.4,0.2,0.7,0.2C353.8,114.1,354.1,113.9,354.4,113.6z"
				/>
			<path class="st0" d="M359.2,109.9L359.2,109.9c0.1-0.1,0.2-0.2,0.3-0.2c0.1-0.1,0.2-0.2,0.4-0.2c0.1-0.1,0.3-0.1,0.5-0.2
				c0.2-0.1,0.4-0.1,0.6-0.1c0.7,0,1.2,0.2,1.7,0.7c0.4,0.5,0.6,1.1,0.6,1.8v3.3h-1.2v-3.3c0-0.4-0.1-0.8-0.4-1
				c-0.3-0.3-0.6-0.4-1-0.4c-0.5,0-0.8,0.1-1.1,0.4c-0.3,0.3-0.4,0.7-0.4,1.2v3.1H358v-5.7h1.2V109.9z"/>
			<path class="st0" d="M368.3,109.3c0.2,0.1,0.4,0.1,0.5,0.2c0.1,0.1,0.3,0.2,0.4,0.2c0.1,0.1,0.2,0.1,0.2,0.2l0.1,0.1v-3.3h1.2
				v8.3h-1.2v-0.7c-0.1,0.1-0.1,0.1-0.2,0.2c-0.1,0.1-0.3,0.2-0.6,0.3c-0.3,0.1-0.6,0.2-1,0.2c-0.8,0-1.4-0.3-2-0.9
				c-0.6-0.6-0.8-1.3-0.8-2.1s0.3-1.5,0.8-2.1c0.6-0.6,1.2-0.9,2-0.9C367.9,109.2,368.1,109.2,368.3,109.3z M369,113.5
				c0.3-0.4,0.5-0.8,0.5-1.3s-0.2-1-0.5-1.3c-0.3-0.4-0.7-0.6-1.2-0.6c-0.5,0-0.9,0.2-1.2,0.6s-0.5,0.8-0.5,1.3s0.2,1,0.5,1.3
				s0.8,0.6,1.2,0.6C368.3,114.1,368.7,113.9,369,113.5z"/>
			<path class="st0" d="M271.5,121h1.3v8.3h-1.3V121z"/>
			<path class="st0" d="M280.9,121v1.2h-2.5v7.1h-1.3v-7.1h-2.5V121H280.9z"/>
			<path class="st0" d="M286.2,122.3c-0.1,0.1-0.3,0.2-0.5,0.2c-0.2,0-0.4-0.1-0.5-0.2c-0.1-0.1-0.2-0.3-0.2-0.5
				c0-0.2,0.1-0.4,0.2-0.5c0.1-0.1,0.3-0.2,0.5-0.2c0.2,0,0.4,0.1,0.5,0.2c0.1,0.1,0.2,0.3,0.2,0.5
				C286.4,122,286.3,122.2,286.2,122.3z M286.3,129.3h-1.2v-5.7h1.2V129.3z"/>
			<path class="st0" d="M289.5,124.2L289.5,124.2c0.1-0.1,0.2-0.2,0.3-0.2c0.1-0.1,0.2-0.2,0.4-0.2c0.1-0.1,0.3-0.1,0.5-0.2
				c0.2-0.1,0.4-0.1,0.6-0.1c0.7,0,1.2,0.2,1.7,0.7c0.4,0.5,0.6,1.1,0.6,1.8v3.3h-1.2V126c0-0.4-0.1-0.8-0.4-1
				c-0.3-0.3-0.6-0.4-1-0.4c-0.5,0-0.8,0.1-1.1,0.4c-0.3,0.3-0.4,0.7-0.4,1.2v3.1h-1.2v-5.7h1.2V124.2z"/>
			<path class="st0" d="M298.4,124.6h-1.3v4.6h-1.2v-4.6h-0.8v-1.1h0.8v-1c0-1.2,0.6-1.8,1.7-1.8c0.1,0,0.3,0,0.4,0
				c0.1,0,0.2,0,0.3,0.1l0.1,0v1.1c-0.2-0.1-0.4-0.1-0.6-0.1c-0.2,0-0.4,0.1-0.5,0.2c-0.1,0.1-0.2,0.3-0.2,0.5v0.9h1.3V124.6z"/>
			<path class="st0" d="M302.7,124.5c-0.5,0-0.8,0.1-1.1,0.4s-0.4,0.7-0.4,1.2v3.1H300v-5.7h1.2v0.6l0.1-0.1c0,0,0.1-0.1,0.2-0.2
				c0.1-0.1,0.2-0.2,0.4-0.2c0.1-0.1,0.3-0.1,0.5-0.2c0.2-0.1,0.4-0.1,0.6-0.1h0.3v1.1C303,124.5,302.9,124.5,302.7,124.5z"/>
			<path class="st0" d="M307.9,129.3v-0.6c0,0,0,0-0.1,0.1c0,0-0.1,0.1-0.2,0.2c-0.1,0.1-0.2,0.2-0.4,0.2c-0.1,0.1-0.3,0.1-0.5,0.2
				c-0.2,0.1-0.4,0.1-0.6,0.1c-0.6,0-1.1-0.2-1.4-0.5c-0.4-0.3-0.6-0.7-0.6-1.2c0-0.5,0.1-0.9,0.4-1.2c0.3-0.3,0.7-0.5,1.2-0.6
				l2.1-0.4c0-0.3-0.1-0.6-0.3-0.8c-0.2-0.2-0.5-0.3-0.9-0.3c-0.3,0-0.6,0.1-0.8,0.2c-0.2,0.1-0.4,0.3-0.5,0.4l-0.2,0.2l-0.8-0.8
				c0,0,0.1-0.1,0.1-0.1c0,0,0.1-0.1,0.3-0.3c0.1-0.1,0.3-0.2,0.5-0.3c0.2-0.1,0.4-0.2,0.6-0.3c0.3-0.1,0.5-0.1,0.8-0.1
				c0.7,0,1.3,0.2,1.7,0.6c0.4,0.4,0.7,0.9,0.7,1.5v3.7H307.9z M307.5,127.9c0.3-0.3,0.4-0.7,0.4-1.2v-0.1l-1.8,0.3
				c-0.2,0-0.4,0.1-0.5,0.3c-0.1,0.1-0.2,0.3-0.2,0.5c0,0.2,0.1,0.4,0.3,0.5c0.2,0.1,0.4,0.2,0.7,0.2
				C306.8,128.3,307.2,128.2,307.5,127.9z"/>
			<path class="st0" d="M314,125c0,0-0.1-0.1-0.1-0.1c-0.1-0.1-0.2-0.1-0.4-0.2c-0.2-0.1-0.4-0.1-0.6-0.1c-0.3,0-0.5,0.1-0.6,0.2
				c-0.1,0.1-0.2,0.3-0.2,0.4c0,0.2,0.1,0.3,0.2,0.4s0.3,0.2,0.5,0.3c0.2,0.1,0.5,0.1,0.7,0.2c0.2,0.1,0.5,0.2,0.7,0.3
				c0.2,0.1,0.4,0.3,0.5,0.5s0.2,0.5,0.2,0.8c0,0.5-0.2,0.9-0.6,1.3c-0.4,0.3-0.9,0.5-1.5,0.5c-0.3,0-0.5,0-0.8-0.1
				c-0.3-0.1-0.5-0.2-0.6-0.2c-0.2-0.1-0.3-0.2-0.4-0.3c-0.1-0.1-0.2-0.2-0.3-0.3l-0.1-0.1l0.8-0.8c0,0.1,0.1,0.1,0.2,0.2
				c0.1,0.1,0.2,0.2,0.5,0.3c0.2,0.1,0.5,0.2,0.8,0.2c0.3,0,0.6-0.1,0.7-0.2c0.2-0.1,0.2-0.3,0.2-0.5c0-0.2-0.1-0.3-0.2-0.4
				c-0.1-0.1-0.3-0.2-0.5-0.3c-0.2-0.1-0.5-0.1-0.7-0.2c-0.2-0.1-0.5-0.2-0.7-0.3c-0.2-0.1-0.4-0.3-0.5-0.5
				c-0.1-0.2-0.2-0.5-0.2-0.8c0-0.4,0.2-0.8,0.6-1.2c0.4-0.3,0.9-0.5,1.4-0.5c0.2,0,0.5,0,0.7,0.1c0.2,0.1,0.4,0.1,0.5,0.2
				c0.1,0.1,0.3,0.2,0.4,0.2c0.1,0.1,0.2,0.1,0.2,0.2l0.1,0.1L314,125z"/>
			<path class="st0" d="M317.3,121.7h1.1v1.9h1.2v1.1h-1.2v3c0,0.2,0.1,0.4,0.2,0.5c0.1,0.1,0.3,0.2,0.5,0.2c0.1,0,0.2,0,0.3,0
				c0.1,0,0.2,0,0.2-0.1l0.1,0v1.1c-0.2,0.1-0.5,0.1-0.8,0.1c-1.1,0-1.7-0.6-1.7-1.8v-3h-1.1v-1.1h0.6c0.4,0,0.6-0.2,0.6-0.7V121.7z
				"/>
			<path class="st0" d="M324.2,124.5c-0.5,0-0.8,0.1-1.1,0.4c-0.3,0.3-0.4,0.7-0.4,1.2v3.1h-1.2v-5.7h1.2v0.6l0.1-0.1
				c0,0,0.1-0.1,0.2-0.2c0.1-0.1,0.2-0.2,0.4-0.2c0.1-0.1,0.3-0.1,0.5-0.2c0.2-0.1,0.4-0.1,0.6-0.1h0.3v1.1
				C324.5,124.5,324.4,124.5,324.2,124.5z"/>
			<path class="st0" d="M330.1,128.7L330.1,128.7c-0.1,0.1-0.2,0.2-0.3,0.2c-0.1,0.1-0.2,0.2-0.4,0.2c-0.1,0.1-0.3,0.1-0.5,0.2
				c-0.2,0.1-0.4,0.1-0.6,0.1c-0.7,0-1.2-0.2-1.7-0.7c-0.4-0.5-0.6-1.1-0.6-1.8v-3.3h1.2v3.3c0,0.4,0.1,0.8,0.4,1
				c0.3,0.3,0.6,0.4,1,0.4c0.5,0,0.8-0.1,1.1-0.4c0.3-0.3,0.4-0.7,0.4-1.2v-3.1h1.2v5.7h-1.2V128.7z"/>
			<path class="st0" d="M333.8,124.3c0.6-0.6,1.3-0.9,2.1-0.9c0.4,0,0.9,0.1,1.2,0.3c0.4,0.2,0.7,0.4,0.8,0.6l0.2,0.3l-0.8,0.8
				c0-0.1-0.1-0.1-0.2-0.2c-0.1-0.1-0.3-0.2-0.5-0.4c-0.3-0.2-0.5-0.2-0.9-0.2c-0.5,0-0.9,0.2-1.3,0.6c-0.4,0.4-0.5,0.8-0.5,1.4
				c0,0.5,0.2,1,0.5,1.3c0.4,0.4,0.8,0.6,1.3,0.6c0.3,0,0.6-0.1,0.9-0.2c0.3-0.2,0.5-0.3,0.6-0.4l0.2-0.2l0.8,0.8
				c0,0-0.1,0.1-0.1,0.1c0,0.1-0.1,0.2-0.3,0.3c-0.2,0.1-0.3,0.3-0.5,0.4c-0.2,0.1-0.4,0.2-0.7,0.3c-0.3,0.1-0.5,0.1-0.8,0.1
				c-0.8,0-1.5-0.3-2.1-0.9c-0.6-0.6-0.9-1.3-0.9-2.1S333.3,124.9,333.8,124.3z"/>
			<path class="st0" d="M340.6,121.7h1.1v1.9h1.2v1.1h-1.2v3c0,0.2,0.1,0.4,0.2,0.5c0.1,0.1,0.3,0.2,0.5,0.2c0.1,0,0.2,0,0.3,0
				c0.1,0,0.2,0,0.2-0.1l0.1,0v1.1c-0.2,0.1-0.5,0.1-0.8,0.1c-1.1,0-1.7-0.6-1.7-1.8v-3h-1.1v-1.1h0.6c0.4,0,0.6-0.2,0.6-0.7V121.7z
				"/>
			<path class="st0" d="M348.8,128.7L348.8,128.7c-0.1,0.1-0.2,0.2-0.3,0.2c-0.1,0.1-0.2,0.2-0.4,0.2c-0.1,0.1-0.3,0.1-0.5,0.2
				s-0.4,0.1-0.6,0.1c-0.7,0-1.2-0.2-1.7-0.7c-0.4-0.5-0.6-1.1-0.6-1.8v-3.3h1.2v3.3c0,0.4,0.1,0.8,0.4,1c0.3,0.3,0.6,0.4,1,0.4
				c0.5,0,0.8-0.1,1.1-0.4c0.3-0.3,0.4-0.7,0.4-1.2v-3.1h1.2v5.7h-1.2V128.7z"/>
			<path class="st0" d="M354.7,124.5c-0.5,0-0.8,0.1-1.1,0.4c-0.3,0.3-0.4,0.7-0.4,1.2v3.1H352v-5.7h1.2v0.6l0.1-0.1
				c0,0,0.1-0.1,0.2-0.2c0.1-0.1,0.2-0.2,0.4-0.2c0.1-0.1,0.3-0.1,0.5-0.2c0.2-0.1,0.4-0.1,0.6-0.1h0.3v1.1
				C355.1,124.5,354.9,124.5,354.7,124.5z"/>
			<path class="st0" d="M357.4,126.8c0.1,0.4,0.3,0.8,0.6,1s0.7,0.4,1.2,0.4c0.3,0,0.6-0.1,0.9-0.2c0.3-0.2,0.5-0.3,0.6-0.4l0.2-0.2
				l0.8,0.8c0,0-0.1,0.1-0.1,0.1c0,0.1-0.2,0.2-0.3,0.3c-0.2,0.1-0.3,0.3-0.5,0.4c-0.2,0.1-0.4,0.2-0.7,0.3
				c-0.3,0.1-0.6,0.1-0.9,0.1c-0.8,0-1.5-0.3-2.1-0.9c-0.6-0.6-0.9-1.3-0.9-2.1c0-0.8,0.3-1.5,0.9-2.1c0.6-0.6,1.3-0.9,2.1-0.9
				s1.5,0.3,2,0.8c0.5,0.5,0.8,1.2,0.8,2l-0.1,0.6H357.4z M358,124.9c-0.3,0.3-0.5,0.6-0.6,1h3.3c-0.1-0.4-0.2-0.7-0.5-1
				c-0.3-0.3-0.7-0.4-1.1-0.4C358.7,124.5,358.3,124.6,358,124.9z"/>
		</g>
	</g>
</g>
</svg>
