<?xml version="1.0" encoding="utf-8"?>
<!-- Generator: Adobe Illustrator 24.1.3, SVG Export Plug-In . SVG Version: 6.00 Build 0)  -->
<!DOCTYPE svg PUBLIC "-//W3C//DTD SVG 1.1//EN" "http://www.w3.org/Graphics/SVG/1.1/DTD/svg11.dtd">

<svg version="1.1" id="Layer_1" xmlns="http://www.w3.org/2000/svg" xmlns:xlink="http://www.w3.org/1999/xlink" x="0px" y="0px"
	 viewBox="0 0 624 200" style="enable-background:new 0 0 624 200;" xml:space="preserve">
<style type="text/css">
	.st0{fill:url(#SVGID_1_);}
	.st1{fill:url(#SVGID_2_);}
	.st2{fill:url(#SVGID_3_);}
	.st3{fill:#14082A;}
</style>
<g>
	<g>
		<linearGradient id="SVGID_1_" gradientUnits="userSpaceOnUse" x1="261.5136" y1="157.7708" x2="212.7271" y2="76.3065">
			<stop  offset="0" style="stop-color:#81CFF4"/>
			<stop  offset="4.029095e-03" style="stop-color:#80CEF3"/>
			<stop  offset="0.2059" style="stop-color:#6092B6"/>
			<stop  offset="0.3999" style="stop-color:#456184"/>
			<stop  offset="0.5813" style="stop-color:#303A5D"/>
			<stop  offset="0.7471" style="stop-color:#201F41"/>
			<stop  offset="0.892" style="stop-color:#170E30"/>
			<stop  offset="1" style="stop-color:#14082A"/>
		</linearGradient>
		<circle class="st0" cx="217.9" cy="85" r="7"/>
		<linearGradient id="SVGID_2_" gradientUnits="userSpaceOnUse" x1="275.0237" y1="149.68" x2="226.2372" y2="68.2157">
			<stop  offset="0" style="stop-color:#81CFF4"/>
			<stop  offset="4.029095e-03" style="stop-color:#80CEF3"/>
			<stop  offset="0.2059" style="stop-color:#6092B6"/>
			<stop  offset="0.3999" style="stop-color:#456184"/>
			<stop  offset="0.5813" style="stop-color:#303A5D"/>
			<stop  offset="0.7471" style="stop-color:#201F41"/>
			<stop  offset="0.892" style="stop-color:#170E30"/>
			<stop  offset="1" style="stop-color:#14082A"/>
		</linearGradient>
		<circle class="st1" cx="261.1" cy="126.5" r="7"/>
		<linearGradient id="SVGID_3_" gradientUnits="userSpaceOnUse" x1="268.2723" y1="153.7232" x2="219.4859" y2="72.2589">
			<stop  offset="0" style="stop-color:#81CFF4"/>
			<stop  offset="4.029095e-03" style="stop-color:#80CEF3"/>
			<stop  offset="0.2059" style="stop-color:#6092B6"/>
			<stop  offset="0.3999" style="stop-color:#456184"/>
			<stop  offset="0.5813" style="stop-color:#303A5D"/>
			<stop  offset="0.7471" style="stop-color:#201F41"/>
			<stop  offset="0.892" style="stop-color:#170E30"/>
			<stop  offset="1" style="stop-color:#14082A"/>
		</linearGradient>
		<path class="st2" d="M261.1,78c-1.6,0-3.1,0.6-4.3,1.5c-1.8,1.4-4,2-6.2,2h-1c-2.2,0-4.3-0.9-6-2.2c-0.1,0-0.1-0.1-0.2-0.1
			c-0.1,0-0.1-0.1-0.2-0.1c-0.1-0.1-0.3-0.2-0.4-0.3c0,0-0.1,0-0.1-0.1c-0.2-0.1-0.4-0.2-0.6-0.3c0,0-0.1,0-0.1,0
			c-0.2-0.1-0.3-0.1-0.5-0.2c-0.1,0-0.1,0-0.2-0.1c-0.1,0-0.3-0.1-0.4-0.1c-0.1,0-0.1,0-0.2,0c-0.2,0-0.3,0-0.5-0.1
			c-0.1,0-0.1,0-0.2,0c-0.2,0-0.4,0-0.6,0c0,0,0,0,0,0c-0.1,0-0.2,0-0.3,0c-0.1,0-0.3,0-0.4,0c0,0-0.1,0-0.1,0
			c-0.4,0-0.7,0.1-1.1,0.3c-0.1,0-0.2,0.1-0.4,0.1c0,0-0.1,0-0.1,0c-1.6,0.6-2.9,1.9-3.7,3.4c-0.3,0.5-0.5,1.1-0.6,1.7
			c0,0.1,0,0.2,0,0.2c0,0.1,0,0.3-0.1,0.4c0,0.1,0,0.2,0,0.3c0,0,0,0.1,0,0.1c0,0.1,0,0.2,0,0.3c0,0.1,0,0.2,0,0.3
			c0,0.2,0,0.3,0,0.5c0,0.1,0,0.2,0,0.3c0,0.2,0.1,0.4,0.1,0.6c0,0,0,0.1,0,0.1c0.1,0.2,0.1,0.5,0.2,0.7c0,0,0,0,0,0.1
			c0.1,0.2,0.2,0.4,0.3,0.6c0,0,0.1,0.1,0.1,0.1c0.1,0.2,0.2,0.3,0.3,0.5c0,0,0.1,0.1,0.1,0.1c0.1,0.2,0.2,0.3,0.3,0.5c0,0,0,0,0,0
			c2,2.4,2.4,5.9,1.3,8.8c-0.3,0.8-0.8,1.4-1.3,2.1c-1,1.2-1.6,2.8-1.6,4.5c0,1.6,0.6,3.1,1.5,4.3c1.4,1.8,2,4,2,6.2v0.7
			c0,0,0,0,0,0.1c0,3.8-3.2,6.9-6.9,6.9c0,0,0,0-0.1,0h-0.7c0,0,0,0-0.1,0c-3.8,0-6.9-3.2-6.9-6.9c0-0.1,0-0.1,0-0.2v-0.7
			c0-2.3,0.8-4.4,2.2-6.3c0.9-1.2,1.4-2.7,1.4-4.3c-0.1-3.6-3.1-6.7-6.7-6.8c-4-0.2-7.2,3-7.2,7c0,1.6,0.6,3.1,1.5,4.3
			c1.4,1.8,2,4,2,6.2v0.6c0,2.2-0.7,4.5-2,6.2c-0.7,0.9-1.2,2.1-1.4,3.3c0,0.1,0,0.1,0,0.2c0,0.2,0,0.3,0,0.5c0,0,0,0.1,0,0.1
			c0,0.1,0,0.1,0,0.1c0,0.1,0,0.2,0,0.3c0,0.1,0,0.1,0,0.2c0,0.1,0,0.2,0,0.3c0,0.1,0,0.2,0,0.3c0,0.1,0,0.3,0.1,0.4
			c0,0.1,0,0.1,0,0.2c0.6,2.6,2.6,4.6,5.1,5.2c0,0,0.1,0,0.1,0c0.1,0,0.3,0.1,0.4,0.1c0.1,0,0.2,0,0.3,0c0.1,0,0.2,0,0.3,0
			c0.1,0,0.2,0,0.2,0c0,0,0.1,0,0.1,0c0,0,0.1,0,0.1,0c0.1,0,0.2,0,0.3,0c0.1,0,0.1,0,0.2,0c0.2,0,0.4,0,0.6-0.1c0,0,0.1,0,0.1,0
			c0.2,0,0.4-0.1,0.6-0.1c0.1,0,0.2,0,0.2-0.1c0.1,0,0.3-0.1,0.4-0.1c0.1,0,0.2-0.1,0.3-0.1c0.1,0,0.2-0.1,0.3-0.1
			c0.1,0,0.2-0.1,0.3-0.1c0.1,0,0.2-0.1,0.3-0.2c0.1-0.1,0.2-0.1,0.3-0.2c0.1,0,0.1-0.1,0.2-0.1c0.1-0.1,0.2-0.1,0.3-0.2
			c1.8-1.4,4-2.1,6.3-2.1h0.7c2.1,0,4.1,0.7,5.8,1.9c1.2,1,2.6,1.6,4.2,1.7c0.1,0,0.1,0,0.2,0c0.1,0,0.2,0,0.3,0c0.1,0,0.1,0,0.2,0
			c0,0,0.1,0,0.1,0c3.5-0.2,6.4-3.1,6.6-6.7c0.1-2-0.7-3.8-2-5.2c-1.1-1.7-1.6-3.6-1.6-5.6v-0.6c0-2.2,0.7-4.5,2-6.2
			c0.9-1.2,1.5-2.7,1.5-4.3c0-1.6-0.6-3.1-1.5-4.3c-1.3-1.6-2-3.6-2-5.6v0c0,0,0,0,0-0.1c0-3.2,2.5-6,5.8-6.3
			c0.4-0.1,0.9-0.1,1.4-0.1h0.7c2.3,0,4.4,0.8,6.3,2.2c1.2,0.9,2.7,1.4,4.3,1.4c3.6-0.1,6.7-3.1,6.8-6.7
			C268.2,81.3,265.1,78,261.1,78z"/>
	</g>
	<g>
		<g>
			<path class="st3" d="M293.2,86c-0.5,0.5-1.2,0.7-2,0.7c-0.8,0-1.4-0.2-1.9-0.7c-0.5-0.5-0.7-1.1-0.7-1.9c0-0.8,0.2-1.4,0.7-1.9
				c0.5-0.5,1.1-0.7,1.8-0.7c0.8,0,1.5,0.2,2,0.7c0.5,0.5,0.7,1.1,0.7,1.9C293.9,84.9,293.7,85.5,293.2,86z M293.6,105.6H289V88.9
				h4.6V105.6z"/>
			<path class="st3" d="M302.8,91c0.1-0.2,0.3-0.4,0.6-0.7c0.2-0.3,0.8-0.6,1.6-1.1c0.8-0.4,1.7-0.7,2.6-0.7c1.9,0,3.5,0.7,4.7,2
				c1.2,1.3,1.8,3.1,1.8,5.3v9.7h-4.6v-9.2c0-1-0.3-1.8-0.9-2.5c-0.6-0.6-1.4-0.9-2.3-0.9c-1,0-1.9,0.3-2.5,1
				c-0.6,0.7-0.9,1.7-0.9,2.9v8.7h-4.6V88.9h4.6V91z"/>
			<path class="st3" d="M332.6,103.4c-1.8,1.7-3.8,2.6-6.2,2.6c-2.4,0-4.5-0.9-6.2-2.6c-1.8-1.7-2.6-3.8-2.6-6.1
				c0-2.3,0.9-4.3,2.6-6.1c1.8-1.7,3.8-2.6,6.2-2.6c2.4,0,4.5,0.9,6.2,2.6c1.8,1.7,2.6,3.8,2.6,6.1
				C335.2,99.6,334.3,101.6,332.6,103.4z M323.5,100.4c0.8,0.8,1.8,1.3,2.9,1.3c1.1,0,2.1-0.4,2.9-1.3c0.8-0.8,1.2-1.9,1.2-3.1
				s-0.4-2.3-1.2-3.2c-0.8-0.9-1.8-1.3-2.9-1.3c-1.1,0-2.1,0.4-2.9,1.3c-0.8,0.9-1.2,1.9-1.2,3.2S322.6,99.6,323.5,100.4z"/>
			<path class="st3" d="M342.9,105.6l-6.3-16.7h4.8l3.9,11.1l3.9-11.1h4.8l-6.3,16.7H342.9z"/>
			<path class="st3" d="M365.5,103.9c-0.1,0.2-0.3,0.3-0.6,0.6c-0.2,0.2-0.8,0.5-1.6,0.9c-0.8,0.4-1.6,0.6-2.5,0.6
				c-1.7,0-3-0.5-4.1-1.4c-1-0.9-1.6-2.1-1.6-3.4c0-1.4,0.4-2.5,1.3-3.4s2.1-1.5,3.6-1.8l5.3-0.9c0-0.7-0.3-1.3-0.8-1.7
				c-0.5-0.4-1.2-0.7-2.1-0.7c-0.8,0-1.4,0.1-2.1,0.4c-0.6,0.3-1.1,0.6-1.3,0.9l-0.4,0.4l-2.5-2.5c0.1-0.1,0.2-0.2,0.3-0.4
				c0.1-0.1,0.4-0.4,0.8-0.8c0.4-0.4,0.8-0.7,1.3-1c0.5-0.3,1.1-0.5,1.9-0.8c0.8-0.2,1.6-0.4,2.4-0.4c2.1,0,3.8,0.6,5.2,1.9
				c1.3,1.3,2,2.8,2,4.8v10.4h-4.6V103.9z M364.6,101.2c0.6-0.7,0.9-1.6,0.9-2.8V98l-3.7,0.7c-1.3,0.2-1.9,0.8-1.9,1.9
				c0,1.1,0.7,1.7,2.2,1.7C363.2,102.2,364,101.9,364.6,101.2z"/>
			<path class="st3" d="M383.6,84h4.1v5.3h3.4v4.1h-3.4v6.6c0,0.5,0.2,1,0.6,1.3c0.4,0.4,0.9,0.5,1.5,0.5c0.3,0,0.6,0,0.9-0.1
				c0.3-0.1,0.5-0.1,0.6-0.2l0.2-0.1v3.9c-0.9,0.3-1.9,0.5-3.1,0.5c-3.5,0-5.3-1.9-5.3-5.8v-6.8h-2.9v-4.1h1.5c0.5,0,1-0.2,1.3-0.6
				c0.4-0.4,0.5-0.9,0.5-1.6V84z"/>
			<path class="st3" d="M397.7,98.8c0.2,0.9,0.7,1.7,1.4,2.3c0.8,0.6,1.8,0.9,3,0.9c0.9,0,1.7-0.2,2.4-0.5c0.7-0.3,1.3-0.7,1.6-1
				l0.5-0.5l2.4,3.1l-0.3,0.3c-0.1,0.1-0.4,0.4-0.9,0.7c-0.5,0.3-0.9,0.6-1.4,0.9c-0.5,0.3-1.2,0.5-2,0.7c-0.8,0.2-1.7,0.3-2.5,0.3
				c-2.5,0-4.5-0.9-6.3-2.6c-1.7-1.7-2.6-3.8-2.6-6.1c0-2.4,0.9-4.4,2.6-6.1c1.7-1.7,3.8-2.6,6.1-2.6c2.4,0,4.4,0.8,6,2.4
				c1.6,1.6,2.4,3.6,2.4,6l-0.2,1.9H397.7z M399.2,93.4c-0.7,0.6-1.2,1.3-1.4,2.2h7.7c-0.2-0.9-0.6-1.6-1.3-2.2
				c-0.7-0.6-1.5-0.9-2.5-0.9C400.7,92.5,399.8,92.8,399.2,93.4z"/>
			<path class="st3" d="M415.1,91.2c1.8-1.7,3.9-2.6,6.4-2.6c0.9,0,1.7,0.1,2.5,0.4c0.8,0.2,1.4,0.5,1.9,0.8c0.5,0.3,0.9,0.7,1.3,1
				c0.4,0.3,0.7,0.6,0.8,0.9l0.2,0.3l-2.9,2.9c-0.1-0.2-0.2-0.4-0.4-0.6c-0.2-0.3-0.6-0.6-1.3-1c-0.7-0.4-1.4-0.6-2.2-0.6
				c-1.2,0-2.3,0.5-3.1,1.3c-0.9,0.9-1.3,2-1.3,3.3c0,1.3,0.4,2.4,1.3,3.3c0.9,0.9,1.9,1.3,3.1,1.3c0.8,0,1.5-0.2,2.2-0.5
				c0.7-0.4,1.2-0.7,1.5-1.1l0.5-0.6l2.7,2.9c-0.1,0.1-0.2,0.2-0.3,0.4c-0.1,0.2-0.4,0.4-0.8,0.8c-0.4,0.4-0.9,0.7-1.4,1
				s-1.1,0.6-1.9,0.8c-0.8,0.2-1.6,0.4-2.5,0.4c-2.5,0-4.6-0.9-6.4-2.6c-1.8-1.7-2.7-3.8-2.7-6.1C412.4,95,413.3,92.9,415.1,91.2z"
				/>
			<path class="st3" d="M436.1,91c0.1-0.2,0.3-0.4,0.6-0.7c0.2-0.3,0.8-0.6,1.6-1.1c0.8-0.4,1.7-0.7,2.6-0.7c1.9,0,3.5,0.7,4.7,2
				c1.2,1.3,1.8,3.1,1.8,5.3v9.7h-4.6v-9.2c0-1-0.3-1.8-0.9-2.5c-0.6-0.6-1.4-0.9-2.3-0.9c-1,0-1.9,0.3-2.5,1
				c-0.6,0.7-0.9,1.7-0.9,2.9v8.7h-4.6V81.8h4.6V91z"/>
		</g>
	</g>
	<g>
		<g>
			<path class="st3" d="M289.6,114.1c0.5-0.5,1-0.7,1.6-0.7c0.3,0,0.7,0.1,0.9,0.2c0.3,0.1,0.5,0.3,0.6,0.4l0.2,0.2l-0.6,0.6
				c0,0-0.1-0.1-0.1-0.2c-0.1-0.1-0.2-0.2-0.4-0.3c-0.2-0.1-0.4-0.2-0.6-0.2c-0.4,0-0.7,0.1-1,0.4c-0.3,0.3-0.4,0.6-0.4,1
				c0,0.4,0.1,0.7,0.4,1c0.3,0.3,0.6,0.4,1,0.4c0.2,0,0.4-0.1,0.6-0.2c0.2-0.1,0.3-0.2,0.4-0.3l0.1-0.2l0.6,0.6c0,0,0,0.1-0.1,0.1
				c0,0-0.1,0.1-0.2,0.2c-0.1,0.1-0.2,0.2-0.4,0.3c-0.1,0.1-0.3,0.2-0.5,0.2c-0.2,0.1-0.4,0.1-0.6,0.1c-0.6,0-1.1-0.2-1.6-0.7
				c-0.5-0.5-0.7-1-0.7-1.6S289.2,114.5,289.6,114.1z"/>
			<path class="st3" d="M295.4,117.8l-1.8-4.4h1l1.3,3.2l1.3-3.2h1l-2,4.8c-0.2,0.5-0.4,0.9-0.7,1.1c-0.2,0.2-0.5,0.3-0.8,0.3
				c-0.1,0-0.2,0-0.3,0c-0.1,0-0.2,0-0.2,0l-0.1,0v-0.8c0.2,0.1,0.3,0.1,0.5,0.1c0.3,0,0.6-0.2,0.8-0.6L295.4,117.8z"/>
			<path class="st3" d="M303,114.1c0.4,0.4,0.6,1,0.6,1.6c0,0.6-0.2,1.2-0.6,1.6c-0.4,0.4-0.9,0.7-1.5,0.7c-0.2,0-0.3,0-0.5-0.1
				c-0.2,0-0.3-0.1-0.4-0.1c-0.1-0.1-0.2-0.1-0.3-0.2c-0.1-0.1-0.1-0.1-0.2-0.1l-0.1-0.1v0.5h-0.9v-6.3h0.9v2.5c0,0,0.1-0.1,0.2-0.2
				c0.1-0.1,0.2-0.2,0.5-0.3c0.2-0.1,0.5-0.2,0.7-0.2C302.1,113.4,302.6,113.6,303,114.1z M302.3,116.7c0.3-0.3,0.4-0.6,0.4-1
				c0-0.4-0.1-0.7-0.4-1c-0.3-0.3-0.6-0.4-0.9-0.4c-0.3,0-0.6,0.1-0.9,0.4c-0.3,0.3-0.4,0.6-0.4,1c0,0.4,0.1,0.7,0.4,1
				c0.3,0.3,0.6,0.4,0.9,0.4C301.7,117.1,302,117,302.3,116.7z"/>
			<path class="st3" d="M305.5,116c0,0.3,0.2,0.6,0.5,0.8s0.6,0.3,0.9,0.3c0.3,0,0.5-0.1,0.7-0.2c0.2-0.1,0.4-0.2,0.5-0.3l0.1-0.2
				l0.6,0.6c0,0,0,0.1-0.1,0.1c0,0-0.1,0.1-0.2,0.2c-0.1,0.1-0.2,0.2-0.4,0.3s-0.3,0.2-0.5,0.2c-0.2,0.1-0.4,0.1-0.7,0.1
				c-0.6,0-1.1-0.2-1.6-0.7c-0.4-0.5-0.7-1-0.7-1.6c0-0.6,0.2-1.1,0.7-1.6c0.4-0.4,1-0.7,1.6-0.7s1.1,0.2,1.5,0.6
				c0.4,0.4,0.6,0.9,0.6,1.5l0,0.5H305.5z M306,114.5c-0.2,0.2-0.4,0.4-0.4,0.8h2.5c-0.1-0.3-0.2-0.6-0.4-0.8
				c-0.2-0.2-0.5-0.3-0.8-0.3C306.5,114.2,306.2,114.3,306,114.5z"/>
			<path class="st3" d="M312.3,114.2c-0.3,0-0.6,0.1-0.8,0.3s-0.3,0.5-0.3,0.9v2.4h-0.9v-4.4h0.9v0.5l0.1-0.1c0,0,0.1-0.1,0.2-0.1
				c0.1-0.1,0.2-0.1,0.3-0.2c0.1,0,0.2-0.1,0.4-0.1c0.1,0,0.3-0.1,0.5-0.1h0.2v0.9C312.5,114.2,312.4,114.2,312.3,114.2z"/>
			<path class="st3" d="M315.8,114.6c0,0-0.1-0.1-0.1-0.1c0,0-0.1-0.1-0.3-0.2c-0.1-0.1-0.3-0.1-0.4-0.1c-0.2,0-0.3,0-0.5,0.1
				c-0.1,0.1-0.2,0.2-0.2,0.3c0,0.1,0.1,0.2,0.2,0.3c0.1,0.1,0.2,0.2,0.4,0.2c0.2,0,0.3,0.1,0.5,0.2c0.2,0.1,0.4,0.1,0.5,0.2
				c0.2,0.1,0.3,0.2,0.4,0.4c0.1,0.2,0.2,0.4,0.2,0.6c0,0.4-0.2,0.7-0.5,1c-0.3,0.3-0.7,0.4-1.2,0.4c-0.2,0-0.4,0-0.6-0.1
				c-0.2-0.1-0.4-0.1-0.5-0.2c-0.1-0.1-0.2-0.1-0.3-0.2c-0.1-0.1-0.2-0.1-0.2-0.2l-0.1-0.1l0.6-0.6c0,0,0.1,0.1,0.1,0.2
				c0.1,0.1,0.2,0.1,0.4,0.2c0.2,0.1,0.4,0.1,0.6,0.1c0.2,0,0.4,0,0.5-0.1c0.1-0.1,0.2-0.2,0.2-0.4c0-0.1-0.1-0.2-0.2-0.3
				c-0.1-0.1-0.2-0.1-0.4-0.2c-0.2,0-0.3-0.1-0.5-0.2c-0.2-0.1-0.4-0.1-0.5-0.2c-0.2-0.1-0.3-0.2-0.4-0.4c-0.1-0.2-0.2-0.4-0.2-0.6
				c0-0.3,0.1-0.6,0.4-0.9c0.3-0.3,0.7-0.4,1.1-0.4c0.2,0,0.3,0,0.5,0.1c0.2,0,0.3,0.1,0.4,0.1c0.1,0.1,0.2,0.1,0.3,0.2
				c0.1,0.1,0.1,0.1,0.2,0.1l0.1,0.1L315.8,114.6z"/>
			<path class="st3" d="M318.5,116c0,0.3,0.2,0.6,0.5,0.8s0.6,0.3,0.9,0.3c0.3,0,0.5-0.1,0.7-0.2c0.2-0.1,0.4-0.2,0.5-0.3l0.1-0.2
				l0.6,0.6c0,0,0,0.1-0.1,0.1c0,0-0.1,0.1-0.2,0.2c-0.1,0.1-0.2,0.2-0.4,0.3s-0.3,0.2-0.5,0.2c-0.2,0.1-0.4,0.1-0.7,0.1
				c-0.6,0-1.1-0.2-1.6-0.7c-0.4-0.5-0.7-1-0.7-1.6c0-0.6,0.2-1.1,0.7-1.6c0.4-0.4,1-0.7,1.6-0.7s1.1,0.2,1.5,0.6
				c0.4,0.4,0.6,0.9,0.6,1.5l0,0.5H318.5z M319,114.5c-0.2,0.2-0.4,0.4-0.4,0.8h2.5c-0.1-0.3-0.2-0.6-0.4-0.8
				c-0.2-0.2-0.5-0.3-0.8-0.3C319.5,114.2,319.2,114.3,319,114.5z"/>
			<path class="st3" d="M323.6,114.1c0.5-0.5,1-0.7,1.6-0.7c0.3,0,0.7,0.1,0.9,0.2c0.3,0.1,0.5,0.3,0.6,0.4l0.2,0.2l-0.6,0.6
				c0,0-0.1-0.1-0.1-0.2c-0.1-0.1-0.2-0.2-0.4-0.3c-0.2-0.1-0.4-0.2-0.6-0.2c-0.4,0-0.7,0.1-1,0.4c-0.3,0.3-0.4,0.6-0.4,1
				c0,0.4,0.1,0.7,0.4,1c0.3,0.3,0.6,0.4,1,0.4c0.2,0,0.4-0.1,0.6-0.2c0.2-0.1,0.3-0.2,0.4-0.3l0.1-0.2l0.6,0.6c0,0,0,0.1-0.1,0.1
				c0,0-0.1,0.1-0.2,0.2c-0.1,0.1-0.2,0.2-0.4,0.3s-0.3,0.2-0.5,0.2c-0.2,0.1-0.4,0.1-0.6,0.1c-0.6,0-1.1-0.2-1.6-0.7
				c-0.5-0.5-0.7-1-0.7-1.6S323.2,114.5,323.6,114.1z"/>
			<path class="st3" d="M331.3,117.4L331.3,117.4c-0.1,0.1-0.1,0.1-0.2,0.2c-0.1,0.1-0.2,0.1-0.3,0.2c-0.1,0-0.2,0.1-0.4,0.1
				c-0.1,0-0.3,0.1-0.5,0.1c-0.5,0-1-0.2-1.3-0.5c-0.3-0.3-0.5-0.8-0.5-1.4v-2.5h0.9v2.5c0,0.3,0.1,0.6,0.3,0.8
				c0.2,0.2,0.4,0.3,0.7,0.3c0.3,0,0.6-0.1,0.8-0.3c0.2-0.2,0.3-0.5,0.3-0.9v-2.4h0.9v4.4h-0.9V117.4z"/>
			<path class="st3" d="M335.8,114.2c-0.3,0-0.6,0.1-0.8,0.3s-0.3,0.5-0.3,0.9v2.4h-0.9v-4.4h0.9v0.5l0.1-0.1c0,0,0.1-0.1,0.2-0.1
				c0.1-0.1,0.2-0.1,0.3-0.2c0.1,0,0.2-0.1,0.4-0.1c0.1,0,0.3-0.1,0.5-0.1h0.2v0.9C336.1,114.2,336,114.2,335.8,114.2z"/>
			<path class="st3" d="M338.1,112.5c-0.1,0.1-0.2,0.2-0.4,0.2c-0.2,0-0.3-0.1-0.4-0.2c-0.1-0.1-0.2-0.2-0.2-0.4
				c0-0.2,0.1-0.3,0.2-0.4c0.1-0.1,0.2-0.2,0.4-0.2c0.2,0,0.3,0.1,0.4,0.2c0.1,0.1,0.2,0.2,0.2,0.4
				C338.2,112.3,338.2,112.4,338.1,112.5z M338.2,117.8h-0.9v-4.4h0.9V117.8z"/>
			<path class="st3" d="M340.3,112h0.8v1.5h0.9v0.8h-0.9v2.3c0,0.2,0.1,0.3,0.2,0.4c0.1,0.1,0.2,0.2,0.4,0.2c0.1,0,0.1,0,0.2,0
				c0.1,0,0.1,0,0.2,0l0.1,0v0.8c-0.2,0.1-0.4,0.1-0.6,0.1c-0.8,0-1.3-0.5-1.3-1.4v-2.3h-0.8v-0.8h0.5c0.3,0,0.5-0.2,0.5-0.5V112z"
				/>
			<path class="st3" d="M344.7,117.8l-1.8-4.4h1l1.3,3.2l1.3-3.2h1l-2,4.8c-0.2,0.5-0.4,0.9-0.7,1.1c-0.2,0.2-0.5,0.3-0.8,0.3
				c-0.1,0-0.2,0-0.3,0c-0.1,0-0.2,0-0.2,0l-0.1,0v-0.8c0.2,0.1,0.3,0.1,0.5,0.1c0.3,0,0.6-0.2,0.8-0.6L344.7,117.8z"/>
			<path class="st3" d="M353,117.8v-0.5c0,0,0,0-0.1,0.1c0,0-0.1,0.1-0.2,0.1c-0.1,0.1-0.2,0.1-0.3,0.2c-0.1,0-0.2,0.1-0.4,0.1
				c-0.1,0-0.3,0.1-0.4,0.1c-0.4,0-0.8-0.1-1.1-0.4c-0.3-0.3-0.4-0.6-0.4-0.9c0-0.4,0.1-0.7,0.3-0.9c0.2-0.2,0.5-0.4,0.9-0.5
				l1.6-0.3c0-0.2-0.1-0.4-0.3-0.6c-0.2-0.2-0.4-0.2-0.7-0.2c-0.2,0-0.4,0-0.6,0.1c-0.2,0.1-0.3,0.2-0.4,0.3l-0.1,0.2l-0.6-0.6
				c0,0,0-0.1,0.1-0.1c0,0,0.1-0.1,0.2-0.2c0.1-0.1,0.2-0.2,0.3-0.3c0.1-0.1,0.3-0.1,0.5-0.2s0.4-0.1,0.6-0.1c0.5,0,1,0.2,1.3,0.5
				c0.3,0.3,0.5,0.7,0.5,1.2v2.8H353z M352.7,116.8c0.2-0.2,0.3-0.5,0.3-0.9v-0.1l-1.4,0.2c-0.2,0-0.3,0.1-0.4,0.2
				c-0.1,0.1-0.2,0.2-0.2,0.4c0,0.1,0.1,0.3,0.2,0.4c0.1,0.1,0.3,0.2,0.6,0.2C352.2,117.1,352.5,117,352.7,116.8z"/>
			<path class="st3" d="M356.4,113.9L356.4,113.9c0.1-0.1,0.1-0.1,0.2-0.2c0.1-0.1,0.2-0.1,0.3-0.2c0.1,0,0.2-0.1,0.4-0.1
				c0.1,0,0.3-0.1,0.5-0.1c0.5,0,1,0.2,1.3,0.5c0.3,0.3,0.5,0.8,0.5,1.4v2.5h-0.9v-2.5c0-0.3-0.1-0.6-0.3-0.8
				c-0.2-0.2-0.4-0.3-0.7-0.3c-0.3,0-0.6,0.1-0.8,0.3s-0.3,0.5-0.3,0.9v2.4h-0.9v-4.4h0.9V113.9z"/>
			<path class="st3" d="M363.3,113.5c0.2,0,0.3,0.1,0.4,0.1c0.1,0.1,0.2,0.1,0.3,0.2c0.1,0.1,0.1,0.1,0.2,0.1l0.1,0.1v-2.5h0.9v6.3
				h-0.9v-0.5c0,0-0.1,0.1-0.2,0.2c-0.1,0.1-0.2,0.2-0.5,0.3c-0.2,0.1-0.5,0.2-0.7,0.2c-0.6,0-1.1-0.2-1.5-0.7
				c-0.4-0.4-0.6-1-0.6-1.6c0-0.6,0.2-1.2,0.6-1.6c0.4-0.4,0.9-0.7,1.5-0.7C363,113.4,363.2,113.4,363.3,113.5z M363.8,116.7
				c0.3-0.3,0.4-0.6,0.4-1c0-0.4-0.1-0.7-0.4-1c-0.3-0.3-0.6-0.4-0.9-0.4c-0.3,0-0.6,0.1-0.9,0.4c-0.3,0.3-0.4,0.6-0.4,1
				c0,0.4,0.1,0.7,0.4,1c0.3,0.3,0.6,0.4,0.9,0.4C363.3,117.1,363.6,117,363.8,116.7z"/>
			<path class="st3" d="M289.5,122.4h1v6.3h-1V122.4z"/>
			<path class="st3" d="M296.7,122.4v0.9h-1.9v5.4h-1v-5.4h-1.9v-0.9H296.7z"/>
			<path class="st3" d="M300.7,123.4c-0.1,0.1-0.2,0.2-0.4,0.2c-0.2,0-0.3-0.1-0.4-0.2c-0.1-0.1-0.2-0.2-0.2-0.4
				c0-0.2,0.1-0.3,0.2-0.4c0.1-0.1,0.2-0.2,0.4-0.2c0.2,0,0.3,0.1,0.4,0.2c0.1,0.1,0.2,0.2,0.2,0.4
				C300.8,123.2,300.8,123.3,300.7,123.4z M300.8,128.7h-0.9v-4.4h0.9V128.7z"/>
			<path class="st3" d="M303.2,124.8L303.2,124.8c0.1-0.1,0.1-0.1,0.2-0.2c0.1-0.1,0.2-0.1,0.3-0.2c0.1,0,0.2-0.1,0.4-0.1
				c0.1,0,0.3-0.1,0.5-0.1c0.5,0,1,0.2,1.3,0.5c0.3,0.3,0.5,0.8,0.5,1.4v2.5h-0.9v-2.5c0-0.3-0.1-0.6-0.3-0.8
				c-0.2-0.2-0.4-0.3-0.7-0.3c-0.3,0-0.6,0.1-0.8,0.3c-0.2,0.2-0.3,0.5-0.3,0.9v2.4h-0.9v-4.4h0.9V124.8z"/>
			<path class="st3" d="M310,125.2h-1v3.5h-0.9v-3.5h-0.6v-0.8h0.6v-0.7c0-0.9,0.4-1.4,1.3-1.4c0.1,0,0.2,0,0.3,0c0.1,0,0.2,0,0.2,0
				l0.1,0v0.8c-0.2-0.1-0.3-0.1-0.5-0.1c-0.2,0-0.3,0.1-0.4,0.2c-0.1,0.1-0.2,0.2-0.2,0.4v0.7h1V125.2z"/>
			<path class="st3" d="M313.3,125.1c-0.3,0-0.6,0.1-0.8,0.3c-0.2,0.2-0.3,0.5-0.3,0.9v2.4h-0.9v-4.4h0.9v0.5l0.1-0.1
				c0,0,0.1-0.1,0.2-0.1c0.1-0.1,0.2-0.1,0.3-0.2c0.1,0,0.2-0.1,0.4-0.1c0.1,0,0.3-0.1,0.5-0.1h0.2v0.9
				C313.5,125.1,313.4,125.1,313.3,125.1z"/>
			<path class="st3" d="M317.2,128.7v-0.5c0,0,0,0-0.1,0.1c0,0-0.1,0.1-0.2,0.1c-0.1,0.1-0.2,0.1-0.3,0.2c-0.1,0-0.2,0.1-0.4,0.1
				s-0.3,0.1-0.4,0.1c-0.4,0-0.8-0.1-1.1-0.4c-0.3-0.3-0.4-0.6-0.4-0.9c0-0.4,0.1-0.7,0.3-0.9c0.2-0.2,0.5-0.4,0.9-0.5l1.6-0.3
				c0-0.2-0.1-0.4-0.3-0.6c-0.2-0.2-0.4-0.2-0.7-0.2c-0.2,0-0.4,0-0.6,0.1c-0.2,0.1-0.3,0.2-0.4,0.3l-0.1,0.2l-0.6-0.6
				c0,0,0-0.1,0.1-0.1c0,0,0.1-0.1,0.2-0.2c0.1-0.1,0.2-0.2,0.3-0.3c0.1-0.1,0.3-0.1,0.5-0.2c0.2-0.1,0.4-0.1,0.6-0.1
				c0.5,0,1,0.2,1.3,0.5c0.3,0.3,0.5,0.7,0.5,1.2v2.8H317.2z M316.9,127.7c0.2-0.2,0.3-0.5,0.3-0.9v-0.1l-1.4,0.2
				c-0.2,0-0.3,0.1-0.4,0.2c-0.1,0.1-0.2,0.2-0.2,0.4c0,0.1,0.1,0.3,0.2,0.4c0.1,0.1,0.3,0.2,0.6,0.2
				C316.4,128,316.7,127.9,316.9,127.7z"/>
			<path class="st3" d="M321.9,125.5c0,0-0.1-0.1-0.1-0.1c0,0-0.1-0.1-0.3-0.2c-0.1-0.1-0.3-0.1-0.4-0.1c-0.2,0-0.3,0-0.5,0.1
				c-0.1,0.1-0.2,0.2-0.2,0.3c0,0.1,0.1,0.2,0.2,0.3c0.1,0.1,0.2,0.2,0.4,0.2c0.2,0,0.3,0.1,0.5,0.2c0.2,0.1,0.4,0.1,0.5,0.2
				c0.2,0.1,0.3,0.2,0.4,0.4c0.1,0.2,0.2,0.4,0.2,0.6c0,0.4-0.2,0.7-0.5,1c-0.3,0.3-0.7,0.4-1.2,0.4c-0.2,0-0.4,0-0.6-0.1
				c-0.2-0.1-0.4-0.1-0.5-0.2c-0.1-0.1-0.2-0.1-0.3-0.2c-0.1-0.1-0.2-0.1-0.2-0.2l-0.1-0.1l0.6-0.6c0,0,0.1,0.1,0.1,0.2
				c0.1,0.1,0.2,0.1,0.4,0.2c0.2,0.1,0.4,0.1,0.6,0.1c0.2,0,0.4,0,0.5-0.1c0.1-0.1,0.2-0.2,0.2-0.4c0-0.1-0.1-0.2-0.2-0.3
				c-0.1-0.1-0.2-0.1-0.4-0.2c-0.2,0-0.3-0.1-0.5-0.2c-0.2-0.1-0.4-0.1-0.5-0.2c-0.2-0.1-0.3-0.2-0.4-0.4c-0.1-0.2-0.2-0.4-0.2-0.6
				c0-0.3,0.1-0.6,0.4-0.9c0.3-0.3,0.7-0.4,1.1-0.4c0.2,0,0.3,0,0.5,0.1c0.2,0,0.3,0.1,0.4,0.1c0.1,0.1,0.2,0.1,0.3,0.2
				c0.1,0.1,0.1,0.1,0.2,0.1l0.1,0.1L321.9,125.5z"/>
			<path class="st3" d="M324.4,122.9h0.8v1.5h0.9v0.8h-0.9v2.3c0,0.2,0.1,0.3,0.2,0.4c0.1,0.1,0.2,0.2,0.4,0.2c0.1,0,0.1,0,0.2,0
				c0.1,0,0.1,0,0.2,0l0.1,0v0.8c-0.2,0.1-0.4,0.1-0.6,0.1c-0.8,0-1.3-0.5-1.3-1.4v-2.3h-0.8v-0.8h0.5c0.3,0,0.5-0.2,0.5-0.5V122.9z
				"/>
			<path class="st3" d="M329.6,125.1c-0.3,0-0.6,0.1-0.8,0.3c-0.2,0.2-0.3,0.5-0.3,0.9v2.4h-0.9v-4.4h0.9v0.5l0.1-0.1
				c0,0,0.1-0.1,0.2-0.1c0.1-0.1,0.2-0.1,0.3-0.2c0.1,0,0.2-0.1,0.4-0.1c0.1,0,0.3-0.1,0.5-0.1h0.2v0.9
				C329.9,125.1,329.8,125.1,329.6,125.1z"/>
			<path class="st3" d="M334.1,128.3L334.1,128.3c-0.1,0.1-0.1,0.1-0.2,0.2c-0.1,0.1-0.2,0.1-0.3,0.2c-0.1,0-0.2,0.1-0.4,0.1
				c-0.1,0-0.3,0.1-0.5,0.1c-0.5,0-1-0.2-1.3-0.5c-0.3-0.3-0.5-0.8-0.5-1.4v-2.5h0.9v2.5c0,0.3,0.1,0.6,0.3,0.8
				c0.2,0.2,0.4,0.3,0.7,0.3c0.3,0,0.6-0.1,0.8-0.3c0.2-0.2,0.3-0.5,0.3-0.9v-2.4h0.9v4.4h-0.9V128.3z"/>
			<path class="st3" d="M337,124.9c0.5-0.5,1-0.7,1.6-0.7c0.3,0,0.7,0.1,0.9,0.2c0.3,0.1,0.5,0.3,0.6,0.4l0.2,0.2l-0.6,0.6
				c0,0-0.1-0.1-0.1-0.2c-0.1-0.1-0.2-0.2-0.4-0.3c-0.2-0.1-0.4-0.2-0.6-0.2c-0.4,0-0.7,0.1-1,0.4c-0.3,0.3-0.4,0.6-0.4,1
				c0,0.4,0.1,0.7,0.4,1c0.3,0.3,0.6,0.4,1,0.4c0.2,0,0.4-0.1,0.6-0.2c0.2-0.1,0.3-0.2,0.4-0.3l0.1-0.2l0.6,0.6c0,0,0,0.1-0.1,0.1
				c0,0-0.1,0.1-0.2,0.2c-0.1,0.1-0.2,0.2-0.4,0.3s-0.3,0.2-0.5,0.2c-0.2,0.1-0.4,0.1-0.6,0.1c-0.6,0-1.1-0.2-1.6-0.7
				c-0.5-0.5-0.7-1-0.7-1.6S336.6,125.4,337,124.9z"/>
			<path class="st3" d="M342.1,122.9h0.8v1.5h0.9v0.8H343v2.3c0,0.2,0.1,0.3,0.2,0.4c0.1,0.1,0.2,0.2,0.4,0.2c0.1,0,0.1,0,0.2,0
				c0.1,0,0.1,0,0.2,0l0.1,0v0.8c-0.2,0.1-0.4,0.1-0.6,0.1c-0.8,0-1.3-0.5-1.3-1.4v-2.3h-0.8v-0.8h0.5c0.3,0,0.5-0.2,0.5-0.5V122.9z
				"/>
			<path class="st3" d="M348.4,128.3L348.4,128.3c-0.1,0.1-0.1,0.1-0.2,0.2c-0.1,0.1-0.2,0.1-0.3,0.2c-0.1,0-0.2,0.1-0.4,0.1
				c-0.1,0-0.3,0.1-0.5,0.1c-0.5,0-1-0.2-1.3-0.5c-0.3-0.3-0.5-0.8-0.5-1.4v-2.5h0.9v2.5c0,0.3,0.1,0.6,0.3,0.8
				c0.2,0.2,0.4,0.3,0.7,0.3c0.3,0,0.6-0.1,0.8-0.3c0.2-0.2,0.3-0.5,0.3-0.9v-2.4h0.9v4.4h-0.9V128.3z"/>
			<path class="st3" d="M352.9,125.1c-0.3,0-0.6,0.1-0.8,0.3c-0.2,0.2-0.3,0.5-0.3,0.9v2.4h-0.9v-4.4h0.9v0.5l0.1-0.1
				c0,0,0.1-0.1,0.2-0.1c0.1-0.1,0.2-0.1,0.3-0.2c0.1,0,0.2-0.1,0.4-0.1c0.1,0,0.3-0.1,0.5-0.1h0.2v0.9
				C353.2,125.1,353.1,125.1,352.9,125.1z"/>
			<path class="st3" d="M355,126.9c0,0.3,0.2,0.6,0.5,0.8s0.6,0.3,0.9,0.3c0.3,0,0.5-0.1,0.7-0.2c0.2-0.1,0.4-0.2,0.5-0.3l0.1-0.2
				l0.6,0.6c0,0,0,0.1-0.1,0.1c0,0-0.1,0.1-0.2,0.2c-0.1,0.1-0.2,0.2-0.4,0.3c-0.1,0.1-0.3,0.2-0.5,0.2c-0.2,0.1-0.4,0.1-0.7,0.1
				c-0.6,0-1.1-0.2-1.6-0.7c-0.4-0.5-0.7-1-0.7-1.6c0-0.6,0.2-1.1,0.7-1.6c0.4-0.4,1-0.7,1.6-0.7s1.1,0.2,1.5,0.6
				c0.4,0.4,0.6,0.9,0.6,1.5l0,0.5H355z M355.4,125.3c-0.2,0.2-0.4,0.4-0.4,0.8h2.5c-0.1-0.3-0.2-0.6-0.4-0.8
				c-0.2-0.2-0.5-0.3-0.8-0.3C355.9,125,355.7,125.1,355.4,125.3z"/>
		</g>
	</g>
</g>
</svg>
