<?xml version="1.0" encoding="utf-8"?>
<!-- Generator: Adobe Illustrator 24.1.3, SVG Export Plug-In . SVG Version: 6.00 Build 0)  -->
<svg version="1.1" id="Layer_1" xmlns="http://www.w3.org/2000/svg" xmlns:xlink="http://www.w3.org/1999/xlink" x="0px" y="0px"
	 viewBox="0 0 2000 2000" style="enable-background:new 0 0 2000 2000;" xml:space="preserve">
<style type="text/css">
	.st0{fill:#FFFFFF;}
	.st1{fill:#14082A;}
	.st2{fill:url(#SVGID_1_);}
	.st3{fill:url(#SVGID_2_);}
	.st4{fill:url(#SVGID_3_);}
	.st5{fill:url(#SVGID_4_);}
	.st6{fill:#81CFF4;}
</style>
<g>
	<rect class="st1" width="2000" height="2000"/>
</g>
<g>
	<g>
		<circle class="st0" cx="404.3" cy="888.9" r="37.3"/>
		<circle class="st0" cx="635.6" cy="1111.1" r="37.3"/>
		<path class="st0" d="M635.6,851.6c-8.7,0-16.7,3-23.1,8c-9.4,7.4-21.4,11-33.4,11h-5.1c-11.8,0-22.8-4.7-32.3-11.7
			c-0.3-0.2-0.7-0.4-1-0.7c-0.3-0.2-0.6-0.4-0.9-0.6c-0.7-0.5-1.5-0.9-2.3-1.3c-0.2-0.1-0.5-0.3-0.7-0.4c-1-0.5-2-1-3.1-1.5
			c-0.2-0.1-0.4-0.2-0.6-0.2c-0.9-0.3-1.7-0.6-2.6-0.9c-0.4-0.1-0.7-0.2-1.1-0.3c-0.8-0.2-1.5-0.4-2.3-0.6c-0.4-0.1-0.8-0.2-1.2-0.2
			c-0.8-0.1-1.7-0.2-2.6-0.3c-0.3,0-0.7-0.1-1-0.1c-1.1-0.1-2.3-0.1-3.5-0.1c0,0-0.1,0-0.1,0c-0.5,0-1,0.1-1.5,0.1
			c-0.7,0-1.5,0.1-2.2,0.2c-0.2,0-0.3,0-0.5,0c-2,0.3-4,0.7-5.9,1.4c-0.7,0.2-1.3,0.5-2,0.7c-0.2,0.1-0.3,0.1-0.5,0.2
			c-8.6,3.4-15.8,9.9-20,18.2c-1.5,2.9-2.7,6.1-3.3,9.3c-0.1,0.4-0.1,0.9-0.2,1.3c-0.1,0.7-0.2,1.4-0.3,2.1
			c-0.1,0.5-0.1,1.1-0.1,1.6c0,0.3-0.1,0.5-0.1,0.8c0,0.6,0,1.2,0,1.8c0,0.6,0,1.1,0,1.7c0,0.9,0.1,1.7,0.3,2.6
			c0.1,0.5,0.1,1,0.2,1.4c0.2,1.1,0.4,2.2,0.7,3.3c0.1,0.2,0.1,0.4,0.1,0.6c0.4,1.3,0.8,2.6,1.3,3.8c0,0.1,0.1,0.2,0.1,0.3
			c0.5,1.1,1,2.2,1.5,3.3c0.1,0.2,0.3,0.5,0.4,0.7c0.5,0.9,1,1.8,1.6,2.7c0.2,0.2,0.4,0.5,0.5,0.7c0.6,0.8,1.2,1.6,1.9,2.4
			c0.1,0.1,0.1,0.2,0.2,0.3c10.8,12.7,12.7,31.5,6.8,47c-1.6,4.1-4.1,7.7-6.9,11.1c-5.5,6.5-8.8,14.9-8.8,24c0,8.7,3,16.7,8,23.1
			c7.4,9.4,11,21.4,11,33.4v3.8c0,0.1,0,0.2,0,0.3c-0.1,20.2-16.9,36.9-37.2,37c-0.1,0-0.3,0-0.4,0H460c-0.1,0-0.2,0-0.3,0
			c-20.2-0.1-36.7-16.9-37-37.1c0-0.3,0-0.6,0-0.9l0-3.8c0-12.2,4.5-23.8,11.7-33.6c4.7-6.4,7.4-14.3,7.2-22.8
			c-0.4-19.5-16.4-35.8-35.9-36.6c-21.3-0.8-38.8,16.2-38.8,37.3c0,8.7,3,16.7,8,23.1c7.4,9.4,11,21.4,11,33.4v3.1
			c0,12-3.5,23.9-11,33.3c-4,5.1-6.7,11.2-7.6,17.9c0,0.3-0.1,0.6-0.1,0.8c-0.1,0.8-0.2,1.7-0.2,2.5c0,0.1,0,0.3,0,0.4
			c0,0.3,0,0.5,0,0.8c0,0.5,0,0.9,0,1.4c0,0.3,0,0.6,0.1,0.9c0,0.6,0.1,1.2,0.1,1.8c0.1,0.6,0.1,1.2,0.2,1.7
			c0.1,0.8,0.2,1.5,0.4,2.3c0.1,0.3,0.1,0.6,0.2,0.9c3.1,13.7,13.7,24.4,27.3,27.8c0.2,0.1,0.4,0.1,0.7,0.2c0.7,0.2,1.5,0.3,2.2,0.4
			c0.5,0.1,1.1,0.2,1.7,0.3c0.6,0.1,1.2,0.1,1.8,0.2c0.4,0,0.9,0.1,1.3,0.1c0.2,0,0.5,0,0.7,0c0.2,0,0.5,0,0.7,0
			c0.5,0,1.1,0,1.6-0.1c0.4,0,0.8,0,1.2-0.1c1.1-0.1,2.1-0.2,3.1-0.4c0.1,0,0.3,0,0.4-0.1c1.1-0.2,2.3-0.5,3.4-0.8
			c0.4-0.1,0.8-0.3,1.2-0.4c0.7-0.2,1.4-0.4,2-0.7c0.5-0.2,0.9-0.4,1.4-0.6c0.6-0.2,1.1-0.5,1.7-0.8c0.5-0.2,1-0.5,1.5-0.7
			c0.5-0.3,1-0.6,1.5-0.8c0.5-0.3,1-0.6,1.5-0.9c0.4-0.2,0.7-0.5,1-0.7c0.5-0.3,0.9-0.6,1.4-1c9.6-7.3,21.4-11.1,33.5-11.1h3.8
			c11.2,0,21.9,3.8,31.1,10c6.2,5.3,14.1,8.6,22.6,9c0.4,0,0.8,0,1.1,0c0.5,0,1.1,0,1.6,0c0.3,0,0.7-0.1,1-0.1c0.1,0,0.3,0,0.4,0
			c18.8-1.1,34.4-16.8,35.1-35.8c0.4-10.8-3.8-20.6-10.7-27.6c-5.9-8.9-8.7-19.5-8.7-30.3v-3.1c0-12,3.5-23.9,11-33.4
			c5-6.3,8-14.4,8-23.1c0-8.7-3-16.7-8-23.1c-6.8-8.6-11-19.1-11-30.1v0c0-0.1,0-0.2,0-0.3c0.1-17.3,13.6-31.9,30.8-34
			c2.4-0.3,4.8-0.4,7.3-0.4l3.8,0c12.2,0,23.8,4.5,33.7,11.7c6.4,4.7,14.3,7.4,22.8,7.2c19.5-0.4,35.8-16.4,36.6-35.9
			C673.8,869.1,656.8,851.6,635.6,851.6z"/>
	</g>
	<g>
		<g>
			<path class="st0" d="M807.5,894.4c-2.6,2.5-6.2,3.7-10.7,3.7c-4.2,0-7.5-1.2-10-3.7c-2.5-2.5-3.7-5.8-3.7-9.9s1.2-7.4,3.7-9.9
				c2.5-2.5,5.8-3.7,9.9-3.7c4.5,0,8.1,1.2,10.7,3.7c2.6,2.5,3.9,5.8,3.9,9.9S810.2,891.9,807.5,894.4z M809.7,999.6H785V910h24.7
				V999.6z"/>
			<path class="st0" d="M858.9,921c0.7-1,1.7-2.1,3-3.5s4.2-3.3,8.6-5.7c4.4-2.4,9.1-3.6,14-3.6c10.2,0,18.6,3.5,25,10.6
				c6.5,7.1,9.7,16.6,9.7,28.6v52.1h-24.6v-49.3c0-5.5-1.6-9.9-4.9-13.2c-3.2-3.4-7.4-5-12.5-5c-5.6,0-10,1.8-13.3,5.5
				c-3.3,3.7-5,8.8-5,15.6v46.6h-24.6V910h24.6V921z"/>
			<path class="st0" d="M1018.3,987.4c-9.4,9.3-20.5,14-33.3,14s-23.9-4.7-33.4-14c-9.5-9.3-14.2-20.2-14.2-32.6
				c0-12.4,4.7-23.3,14.2-32.6c9.5-9.3,20.6-14,33.4-14s23.9,4.7,33.3,14c9.4,9.3,14.1,20.2,14.1,32.6
				C1032.4,967.2,1027.7,978.1,1018.3,987.4z M969.5,971.7c4.3,4.6,9.5,6.8,15.4,6.8s11.1-2.3,15.4-6.8c4.3-4.5,6.5-10.2,6.5-16.9
				c0-6.7-2.2-12.3-6.5-16.9c-4.3-4.6-9.5-6.9-15.4-6.9s-11.1,2.3-15.4,6.9c-4.3,4.6-6.5,10.2-6.5,16.9
				C963,961.5,965.2,967.1,969.5,971.7z"/>
			<path class="st0" d="M1073.5,999.6l-33.8-89.6h25.6l21,59.4l21.1-59.4h25.5l-33.7,89.6H1073.5z"/>
			<path class="st0" d="M1194.9,990.5c-0.7,0.8-1.7,1.9-3,3.1c-1.3,1.2-4.1,2.8-8.3,4.8c-4.3,2-8.7,3-13.4,3
				c-8.9,0-16.2-2.5-21.8-7.4c-5.6-5-8.4-11-8.4-18.1c0-7.3,2.3-13.4,7-18.3s11.2-8.1,19.5-9.5l28.4-5.1c0-3.7-1.4-6.8-4.1-9.2
				c-2.7-2.4-6.5-3.6-11.4-3.6c-4,0-7.7,0.8-11.1,2.3c-3.3,1.5-5.7,3.1-7,4.7l-2,2.1l-13.6-13.6c0.4-0.5,0.8-1.1,1.5-1.9
				c0.6-0.8,2-2.2,4.2-4.2c2.2-2,4.5-3.7,7.1-5.2c2.6-1.5,5.9-2.9,10.1-4.2c4.2-1.3,8.4-1.9,12.8-1.9c11.3,0,20.5,3.4,27.7,10.1
				c7.1,6.7,10.7,15.2,10.7,25.5v55.8h-24.6V990.5z M1190,976c3.3-3.5,5-8.5,5-14.8v-2.8l-20.1,3.7c-6.7,1.1-10.1,4.4-10.1,10.1
				c0,6.1,4,9.1,11.9,9.1C1182.2,981.3,1186.7,979.5,1190,976z"/>
			<path class="st0" d="M1291.6,883.6h21.9v28.3h18.2v21.9h-18.2v35.6c0,2.8,1,5.2,3.1,7.1c2.1,2,4.7,2.9,7.8,2.9
				c1.6,0,3.2-0.2,4.7-0.5c1.5-0.3,2.7-0.7,3.4-1l1.1-0.4v21.1c-4.9,1.8-10.4,2.7-16.5,2.7c-18.9,0-28.3-10.3-28.3-31v-36.5h-15.5
				v-21.9h8.2c2.8,0,5.2-1.1,7.1-3.3c2-2.2,2.9-5.1,2.9-8.6V883.6z"/>
			<path class="st0" d="M1367.3,963c1,4.9,3.5,9,7.8,12.4c4.2,3.4,9.5,5,16,5c4.6,0,8.9-0.9,12.9-2.7c4-1.8,6.7-3.6,8.3-5.5l2.6-2.8
				l12.8,16.4l-1.6,1.7c-0.7,0.7-2.3,2-4.8,3.8c-2.4,1.8-5,3.4-7.8,4.8c-2.7,1.4-6.3,2.6-10.7,3.7c-4.4,1.1-8.9,1.6-13.5,1.6
				c-13.1,0-24.4-4.6-33.6-13.7c-9.3-9.1-13.9-20.1-13.9-32.9c0-12.8,4.6-23.7,13.7-32.9c9.2-9.1,20.1-13.7,32.9-13.7
				c12.8,0,23.4,4.3,31.9,12.8c8.5,8.5,12.8,19.2,12.8,32l-0.9,10H1367.3z M1375.1,933.8c-3.7,3-6.2,7-7.7,11.9h41.1
				c-1-4.8-3.2-8.7-6.8-11.8c-3.6-3.1-8-4.6-13.2-4.6C1383.2,929.3,1378.7,930.8,1375.1,933.8z"/>
			<path class="st0" d="M1460.2,922.2c9.6-9.3,20.9-14,34.1-14c4.6,0,9.1,0.6,13.2,1.9c4.2,1.3,7.6,2.8,10.3,4.6
				c2.7,1.8,5.1,3.5,7.1,5.3c2.1,1.8,3.6,3.3,4.5,4.6l1.3,1.9l-15.5,15.5c-0.5-0.8-1.3-1.9-2.4-3.3c-1.1-1.4-3.5-3.1-7.1-5.3
				c-3.7-2.2-7.5-3.3-11.6-3.3c-6.5,0-12.1,2.4-16.7,7.2c-4.7,4.8-7,10.6-7,17.4c0,6.8,2.3,12.6,7,17.4c4.7,4.8,10.3,7.2,16.7,7.2
				c4,0,7.9-1,11.6-2.9c3.7-2,6.3-3.9,8-5.9l2.4-3l14.6,15.5c-0.4,0.5-0.8,1.1-1.5,2c-0.6,0.9-2.1,2.3-4.3,4.4
				c-2.3,2.1-4.7,3.9-7.3,5.4c-2.6,1.6-6,3-10.2,4.4c-4.2,1.3-8.6,2-13.2,2c-13.1,0-24.5-4.7-34.1-14c-9.6-9.3-14.4-20.2-14.4-32.6
				C1445.8,942.3,1450.6,931.5,1460.2,922.2z"/>
			<path class="st0" d="M1572.9,921c0.7-1,1.7-2.1,3-3.5s4.1-3.3,8.6-5.7c4.4-2.4,9.1-3.6,14-3.6c10.2,0,18.6,3.5,25,10.6
				c6.5,7.1,9.7,16.6,9.7,28.6v52.1h-24.6v-49.3c0-5.5-1.6-9.9-4.9-13.2c-3.2-3.4-7.4-5-12.5-5c-5.6,0-10,1.8-13.3,5.5
				c-3.3,3.7-4.9,8.8-4.9,15.6v46.6h-24.7V871.6h24.7V921z"/>
		</g>
	</g>
	<g>
		<g>
			<path class="st0" d="M788.3,1044.7c2.4-2.4,5.3-3.6,8.5-3.6c1.8,0,3.5,0.4,5.1,1.2c1.6,0.8,2.7,1.6,3.4,2.3l1,1.1l-3.2,3.2
				c-0.2-0.3-0.4-0.6-0.7-0.9c-0.3-0.4-1-0.9-2.1-1.5c-1.1-0.6-2.2-1-3.5-1c-2,0-3.7,0.8-5.1,2.3c-1.4,1.5-2.2,3.3-2.2,5.5
				c0,2.2,0.7,4,2.2,5.5c1.4,1.5,3.2,2.3,5.1,2.3c1.2,0,2.4-0.3,3.5-0.9c1.1-0.6,1.9-1.2,2.3-1.8l0.7-0.9l3.2,3.2
				c-0.1,0.1-0.2,0.3-0.4,0.5s-0.6,0.6-1.2,1.2c-0.6,0.5-1.3,1-2,1.4c-0.7,0.4-1.6,0.8-2.7,1.2c-1.1,0.4-2.2,0.5-3.3,0.5
				c-3.3,0-6.1-1.2-8.5-3.6c-2.4-2.4-3.6-5.2-3.6-8.5S785.9,1047.2,788.3,1044.7z"/>
			<path class="st0" d="M819.4,1064.9l-9.5-23.3h5.1l6.8,17l6.8-17h5.1l-10.5,25.7c-1.2,2.9-2.4,4.9-3.6,6c-1.2,1.2-2.6,1.7-4.4,1.7
				c-0.6,0-1.3,0-1.8-0.1c-0.6-0.1-1-0.2-1.3-0.3l-0.3-0.1v-4.4c0.8,0.3,1.6,0.5,2.4,0.5c1.8,0,3.2-1.2,4.1-3.4L819.4,1064.9z"/>
			<path class="st0" d="M859.9,1044.7c2.3,2.4,3.4,5.2,3.4,8.6c0,3.4-1.1,6.2-3.4,8.6c-2.3,2.4-4.9,3.5-8,3.5
				c-0.9,0-1.7-0.1-2.5-0.3c-0.8-0.2-1.5-0.5-2.1-0.8c-0.6-0.3-1.1-0.6-1.6-0.9c-0.4-0.3-0.8-0.6-1-0.8l-0.4-0.4v2.7h-4.8v-34h4.8
				v13.4c0.2-0.2,0.5-0.5,0.9-0.9c0.4-0.4,1.3-0.8,2.6-1.4s2.6-0.9,4-0.9C854.9,1041.1,857.6,1042.3,859.9,1044.7z M856.3,1058.8
				c1.4-1.5,2.1-3.3,2.1-5.5s-0.7-4-2.1-5.5c-1.4-1.5-3.1-2.3-4.9-2.3c-1.8,0-3.5,0.8-4.9,2.3c-1.4,1.5-2.1,3.3-2.1,5.5
				s0.7,4,2.1,5.5c1.4,1.5,3.1,2.3,4.9,2.3C853.2,1061,854.9,1060.3,856.3,1058.8z"/>
			<path class="st0" d="M873.4,1055c0.3,1.6,1.1,3.1,2.4,4.3c1.4,1.2,3,1.8,4.9,1.8c1.4,0,2.6-0.3,3.8-0.9c1.2-0.6,2-1.2,2.5-1.8
				l0.7-0.9l3.2,3.2c-0.1,0.1-0.2,0.3-0.4,0.5c-0.2,0.2-0.6,0.6-1.3,1.2c-0.6,0.5-1.3,1-2.1,1.4c-0.7,0.4-1.7,0.8-2.8,1.2
				c-1.2,0.4-2.4,0.5-3.6,0.5c-3.3,0-6.2-1.2-8.5-3.6c-2.4-2.4-3.6-5.3-3.6-8.7c0-3.3,1.2-6.1,3.5-8.4c2.3-2.3,5.1-3.5,8.4-3.5
				s6,1.1,8.2,3.3c2.2,2.2,3.3,4.9,3.3,8.2l-0.3,2.4H873.4z M876.1,1046.8c-1.2,1-2,2.4-2.4,4h13.5c-0.3-1.6-1-3-2.2-4
				c-1.2-1-2.7-1.6-4.5-1.6C878.7,1045.3,877.2,1045.8,876.1,1046.8z"/>
			<path class="st0" d="M909.6,1045.5c-1.8,0-3.3,0.6-4.4,1.8c-1.1,1.2-1.6,2.9-1.6,5v12.6h-4.9v-23.3h4.9v2.4l0.3-0.3
				c0.1-0.1,0.4-0.4,0.9-0.7c0.5-0.3,0.9-0.6,1.5-0.9c0.5-0.3,1.2-0.5,2-0.7c0.8-0.2,1.6-0.3,2.4-0.3h1.2v4.6
				C911.1,1045.6,910.4,1045.5,909.6,1045.5z"/>
			<path class="st0" d="M928.7,1047.5c-0.1-0.1-0.3-0.3-0.6-0.5s-0.8-0.5-1.5-0.9c-0.8-0.4-1.5-0.5-2.3-0.5c-1,0-1.9,0.2-2.5,0.7
				c-0.6,0.5-0.9,1-0.9,1.7c0,0.7,0.3,1.2,0.9,1.7c0.6,0.5,1.3,0.8,2.2,1c0.9,0.2,1.8,0.5,2.9,0.9c1,0.4,2,0.8,2.9,1.2
				c0.9,0.4,1.6,1.1,2.2,2s0.9,2,0.9,3.3c0,2-0.8,3.7-2.4,5.1c-1.6,1.4-3.7,2.1-6.3,2.1c-1.1,0-2.2-0.1-3.3-0.4
				c-1-0.3-1.9-0.6-2.5-1c-0.7-0.4-1.2-0.8-1.7-1.2c-0.5-0.4-0.9-0.7-1.1-1l-0.4-0.4l3.2-3.2c0.2,0.2,0.4,0.5,0.7,0.8
				c0.3,0.3,1,0.8,2,1.3c1,0.5,2.1,0.8,3.1,0.8c1.3,0,2.3-0.3,2.9-0.8c0.6-0.5,1-1.2,1-2.1c0-0.7-0.3-1.2-0.9-1.7s-1.3-0.8-2.2-1
				c-0.9-0.2-1.8-0.5-2.9-0.9c-1-0.4-2-0.7-2.9-1.2c-0.9-0.4-1.6-1.1-2.2-2c-0.6-0.9-0.9-2-0.9-3.3c0-1.8,0.8-3.4,2.4-4.7
				c1.6-1.4,3.5-2.1,5.9-2.1c0.9,0,1.8,0.1,2.7,0.3c0.9,0.2,1.6,0.5,2.1,0.8c0.6,0.3,1,0.6,1.5,1c0.4,0.3,0.7,0.6,0.9,0.8l0.3,0.4
				L928.7,1047.5z"/>
			<path class="st0" d="M943,1055c0.3,1.6,1.1,3.1,2.4,4.3c1.4,1.2,3,1.8,4.9,1.8c1.4,0,2.6-0.3,3.8-0.9c1.2-0.6,2-1.2,2.5-1.8
				l0.7-0.9l3.2,3.2c-0.1,0.1-0.2,0.3-0.4,0.5c-0.2,0.2-0.6,0.6-1.3,1.2c-0.6,0.5-1.3,1-2.1,1.4s-1.7,0.8-2.8,1.2
				c-1.2,0.4-2.4,0.5-3.6,0.5c-3.3,0-6.2-1.2-8.5-3.6c-2.4-2.4-3.6-5.3-3.6-8.7c0-3.3,1.2-6.1,3.5-8.4c2.3-2.3,5.1-3.5,8.4-3.5
				c3.3,0,6,1.1,8.2,3.3c2.2,2.2,3.3,4.9,3.3,8.2l-0.3,2.4H943z M945.6,1046.8c-1.2,1-2,2.4-2.4,4h13.5c-0.3-1.6-1-3-2.2-4
				c-1.2-1-2.7-1.6-4.5-1.6C948.3,1045.3,946.8,1045.8,945.6,1046.8z"/>
			<path class="st0" d="M970.4,1044.7c2.4-2.4,5.3-3.6,8.5-3.6c1.8,0,3.5,0.4,5.1,1.2c1.6,0.8,2.7,1.6,3.4,2.3l1,1.1l-3.2,3.2
				c-0.2-0.3-0.4-0.6-0.7-0.9c-0.3-0.4-1-0.9-2.1-1.5c-1.1-0.6-2.2-1-3.5-1c-2,0-3.7,0.8-5.1,2.3c-1.4,1.5-2.2,3.3-2.2,5.5
				c0,2.2,0.7,4,2.2,5.5c1.4,1.5,3.2,2.3,5.1,2.3c1.2,0,2.4-0.3,3.5-0.9c1.1-0.6,1.9-1.2,2.3-1.8l0.7-0.9l3.2,3.2
				c-0.1,0.1-0.2,0.3-0.4,0.5s-0.6,0.6-1.2,1.2c-0.6,0.5-1.3,1-2,1.4c-0.7,0.4-1.6,0.8-2.7,1.2c-1.1,0.4-2.2,0.5-3.3,0.5
				c-3.3,0-6.1-1.2-8.5-3.6c-2.4-2.4-3.6-5.2-3.6-8.5S968,1047.2,970.4,1044.7z"/>
			<path class="st0" d="M1011.4,1062.5l-0.3,0.3c-0.1,0.1-0.4,0.4-0.9,0.7c-0.4,0.3-0.9,0.6-1.5,0.9c-0.5,0.3-1.2,0.5-2,0.7
				c-0.8,0.2-1.6,0.3-2.4,0.3c-2.8,0-5.1-0.9-6.8-2.8c-1.7-1.8-2.6-4.3-2.6-7.4v-13.6h4.9v13.6c0,1.7,0.5,3.1,1.6,4.2
				c1.1,1.1,2.4,1.7,4,1.7c1.8,0,3.3-0.6,4.4-1.8c1.1-1.2,1.6-2.9,1.6-5v-12.6h4.9v23.3h-4.9V1062.5z"/>
			<path class="st0" d="M1035.7,1045.5c-1.8,0-3.3,0.6-4.4,1.8c-1.1,1.2-1.6,2.9-1.6,5v12.6h-4.9v-23.3h4.9v2.4l0.3-0.3
				c0.1-0.1,0.4-0.4,0.9-0.7c0.5-0.3,0.9-0.6,1.5-0.9c0.5-0.3,1.2-0.5,2-0.7c0.8-0.2,1.6-0.3,2.4-0.3h1.2v4.6
				C1037.2,1045.6,1036.5,1045.5,1035.7,1045.5z"/>
			<path class="st0" d="M1047.9,1036.4c-0.6,0.6-1.2,0.8-2.1,0.8c-0.8,0-1.5-0.3-2.1-0.8c-0.6-0.6-0.8-1.2-0.8-2.1
				c0-0.8,0.3-1.5,0.8-2.1c0.6-0.6,1.2-0.8,2.1-0.8c0.8,0,1.5,0.3,2.1,0.8c0.6,0.6,0.8,1.2,0.8,2.1
				C1048.8,1035.2,1048.5,1035.9,1047.9,1036.4z M1048.3,1064.9h-4.9v-23.3h4.9V1064.9z"/>
			<path class="st0" d="M1059.7,1033.8h4.4v7.8h4.9v4.4h-4.9v12.1c0,0.9,0.3,1.6,0.8,2.1c0.6,0.6,1.2,0.8,2.1,0.8
				c0.4,0,0.7,0,1.2-0.1c0.4-0.1,0.7-0.2,0.9-0.3l0.4-0.1v4.4c-1,0.3-2.1,0.5-3.4,0.5c-4.5,0-6.8-2.4-6.8-7.3V1046h-4.4v-4.4h2.4
				c1.6,0,2.4-1,2.4-2.9V1033.8z"/>
			<path class="st0" d="M1083.2,1064.9l-9.5-23.3h5.1l6.8,17l6.8-17h5.1l-10.5,25.7c-1.2,2.9-2.4,4.9-3.6,6
				c-1.2,1.2-2.6,1.7-4.4,1.7c-0.6,0-1.3,0-1.8-0.1c-0.6-0.1-1-0.2-1.3-0.3l-0.3-0.1v-4.4c0.8,0.3,1.6,0.5,2.4,0.5
				c1.8,0,3.2-1.2,4.1-3.4L1083.2,1064.9z"/>
			<path class="st0" d="M1127.8,1064.9v-2.4c-0.1,0.1-0.2,0.2-0.3,0.3c-0.2,0.1-0.5,0.4-0.9,0.7c-0.4,0.3-0.9,0.6-1.5,0.9
				c-0.5,0.3-1.2,0.5-2,0.7c-0.8,0.2-1.6,0.3-2.4,0.3c-2.4,0-4.3-0.7-5.9-2.1c-1.6-1.4-2.3-2.9-2.3-4.7c0-1.9,0.6-3.5,1.8-4.8
				c1.2-1.3,2.9-2.1,5-2.5l8.5-1.5c0-1.2-0.5-2.3-1.4-3.1c-0.9-0.8-2.1-1.3-3.5-1.3c-1.2,0-2.4,0.3-3.4,0.8c-1,0.5-1.7,1-2.1,1.6
				l-0.6,0.8l-3.2-3.2c0.1-0.1,0.2-0.3,0.4-0.5c0.2-0.2,0.5-0.5,1.1-1c0.6-0.5,1.2-0.9,1.8-1.3s1.5-0.7,2.6-1.1
				c1.1-0.3,2.2-0.5,3.3-0.5c2.8,0,5.2,0.8,7,2.5c1.8,1.7,2.7,3.8,2.7,6.2v15.1H1127.8z M1126.2,1059.3c1.1-1.2,1.7-2.9,1.7-5v-0.5
				l-7.5,1.2c-0.9,0.2-1.6,0.5-2.1,1.1c-0.5,0.6-0.8,1.2-0.8,2.1c0,0.8,0.4,1.5,1.1,2c0.8,0.6,1.8,0.9,3,0.9
				C1123.5,1061,1125.1,1060.4,1126.2,1059.3z"/>
			<path class="st0" d="M1145.8,1044l0.3-0.3c0.1-0.1,0.4-0.4,0.9-0.7c0.5-0.3,0.9-0.6,1.5-0.9c0.5-0.3,1.2-0.5,2-0.7
				c0.8-0.2,1.6-0.3,2.4-0.3c2.8,0,5.1,0.9,6.8,2.8c1.7,1.8,2.6,4.3,2.6,7.4v13.6h-4.9v-13.6c0-1.7-0.5-3.1-1.6-4.2
				c-1.1-1.1-2.4-1.7-4-1.7c-1.8,0-3.3,0.6-4.4,1.8c-1.1,1.2-1.6,2.9-1.6,5v12.6h-4.9v-23.3h4.9V1044z"/>
			<path class="st0" d="M1183,1041.4c0.8,0.2,1.5,0.5,2.1,0.8c0.6,0.3,1.1,0.6,1.6,1c0.5,0.3,0.8,0.6,1,0.8l0.3,0.4v-13.4h4.9v34
				h-4.9v-2.7c-0.2,0.2-0.5,0.5-0.9,0.9c-0.4,0.4-1.3,0.8-2.6,1.4c-1.3,0.6-2.6,0.9-4,0.9c-3.1,0-5.8-1.2-8-3.5
				c-2.3-2.4-3.4-5.2-3.4-8.6c0-3.4,1.1-6.2,3.4-8.6c2.3-2.4,4.9-3.5,8-3.5C1181.3,1041.1,1182.2,1041.2,1183,1041.4z
				 M1185.9,1058.8c1.4-1.5,2.1-3.3,2.1-5.5s-0.7-4-2.1-5.5c-1.4-1.5-3.1-2.3-4.9-2.3c-1.8,0-3.5,0.8-4.9,2.3
				c-1.4,1.5-2.1,3.3-2.1,5.5s0.7,4,2.1,5.5c1.4,1.5,3.1,2.3,4.9,2.3C1182.8,1061,1184.4,1060.3,1185.9,1058.8z"/>
			<path class="st0" d="M787.8,1089.2h5.3v34h-5.3V1089.2z"/>
			<path class="st0" d="M826.2,1089.2v4.9H816v29.1h-5.3V1094h-10.2v-4.9H826.2z"/>
			<path class="st0" d="M847.6,1094.7c-0.6,0.6-1.2,0.8-2.1,0.8c-0.8,0-1.5-0.3-2.1-0.8c-0.6-0.6-0.8-1.2-0.8-2.1
				c0-0.8,0.3-1.5,0.8-2.1c0.6-0.6,1.2-0.8,2.1-0.8c0.8,0,1.5,0.3,2.1,0.8c0.6,0.6,0.8,1.2,0.8,2.1
				C848.5,1093.4,848.2,1094.1,847.6,1094.7z M848,1123.2h-4.9v-23.3h4.9V1123.2z"/>
			<path class="st0" d="M861.3,1102.3l0.3-0.3c0.1-0.1,0.4-0.4,0.9-0.7c0.5-0.3,0.9-0.6,1.5-0.9c0.5-0.3,1.2-0.5,2-0.7
				c0.8-0.2,1.6-0.3,2.4-0.3c2.8,0,5.1,0.9,6.8,2.8c1.7,1.8,2.6,4.3,2.6,7.4v13.6H873v-13.6c0-1.7-0.5-3.1-1.6-4.2
				c-1.1-1.1-2.4-1.7-4-1.7c-1.8,0-3.3,0.6-4.4,1.8c-1.1,1.2-1.6,2.9-1.6,5v12.6h-4.9v-23.3h4.9V1102.3z"/>
			<path class="st0" d="M897.7,1104.2h-5.4v18.9h-4.8v-18.9h-3.4v-4.4h3.4v-3.9c0-4.9,2.3-7.3,6.8-7.3c0.6,0,1.2,0,1.7,0.1
				s1,0.2,1.2,0.3l0.4,0.1v4.4c-0.8-0.3-1.6-0.5-2.4-0.5c-0.8,0-1.5,0.3-2.1,0.8c-0.6,0.6-0.8,1.3-0.8,2.1v3.8h5.4V1104.2z"/>
			<path class="st0" d="M914.9,1103.7c-1.8,0-3.3,0.6-4.4,1.8c-1.1,1.2-1.6,2.9-1.6,5v12.6H904v-23.3h4.9v2.4l0.3-0.3
				c0.1-0.1,0.4-0.4,0.9-0.7c0.5-0.3,0.9-0.6,1.5-0.9c0.5-0.3,1.2-0.5,2-0.7c0.8-0.2,1.6-0.3,2.4-0.3h1.2v4.6
				C916.4,1103.8,915.7,1103.7,914.9,1103.7z"/>
			<path class="st0" d="M936.3,1123.2v-2.4c-0.1,0.1-0.2,0.2-0.3,0.3c-0.2,0.1-0.5,0.4-0.9,0.7c-0.4,0.3-0.9,0.6-1.5,0.9
				c-0.5,0.3-1.2,0.5-2,0.7c-0.8,0.2-1.6,0.3-2.4,0.3c-2.4,0-4.3-0.7-5.9-2.1c-1.6-1.4-2.3-2.9-2.3-4.7c0-1.9,0.6-3.5,1.8-4.8
				c1.2-1.3,2.9-2.1,5-2.5l8.5-1.5c0-1.2-0.5-2.3-1.4-3.1c-0.9-0.8-2.1-1.3-3.5-1.3c-1.2,0-2.4,0.3-3.4,0.8c-1,0.5-1.7,1-2.1,1.6
				l-0.6,0.8l-3.2-3.2c0.1-0.1,0.2-0.3,0.4-0.5c0.2-0.2,0.5-0.5,1.1-1c0.6-0.5,1.2-0.9,1.8-1.3c0.6-0.4,1.5-0.7,2.6-1.1
				c1.1-0.3,2.2-0.5,3.3-0.5c2.8,0,5.2,0.8,7,2.5c1.8,1.7,2.7,3.8,2.7,6.2v15.1H936.3z M934.6,1117.5c1.1-1.2,1.7-2.9,1.7-5v-0.5
				l-7.5,1.2c-0.9,0.2-1.6,0.5-2.1,1.1c-0.5,0.6-0.8,1.2-0.8,2.1c0,0.8,0.4,1.5,1.1,2c0.8,0.6,1.8,0.9,3,0.9
				C931.9,1119.3,933.5,1118.7,934.6,1117.5z"/>
			<path class="st0" d="M961,1105.7c-0.1-0.1-0.3-0.3-0.6-0.5s-0.8-0.5-1.5-0.9c-0.8-0.4-1.5-0.5-2.3-0.5c-1,0-1.9,0.2-2.5,0.7
				c-0.6,0.5-0.9,1-0.9,1.7c0,0.7,0.3,1.2,0.9,1.7c0.6,0.5,1.3,0.8,2.2,1c0.9,0.2,1.8,0.5,2.9,0.9c1,0.4,2,0.8,2.9,1.2
				c0.9,0.4,1.6,1.1,2.2,2c0.6,0.9,0.9,2,0.9,3.3c0,2-0.8,3.7-2.4,5.1c-1.6,1.4-3.7,2.1-6.3,2.1c-1.1,0-2.2-0.1-3.3-0.4
				c-1-0.3-1.9-0.6-2.5-1s-1.2-0.8-1.7-1.2c-0.5-0.4-0.9-0.7-1.1-1l-0.4-0.4l3.2-3.2c0.2,0.2,0.4,0.5,0.7,0.8c0.3,0.3,1,0.8,2,1.3
				c1,0.5,2.1,0.8,3.1,0.8c1.3,0,2.3-0.3,2.9-0.8c0.6-0.5,1-1.2,1-2.1c0-0.7-0.3-1.2-0.9-1.7c-0.6-0.4-1.3-0.8-2.2-1
				c-0.9-0.2-1.8-0.5-2.9-0.9c-1-0.4-2-0.7-2.9-1.2c-0.9-0.4-1.6-1.1-2.2-2c-0.6-0.9-0.9-2-0.9-3.3c0-1.8,0.8-3.4,2.4-4.7
				c1.6-1.4,3.5-2.1,5.9-2.1c0.9,0,1.8,0.1,2.7,0.3c0.9,0.2,1.6,0.5,2.1,0.8c0.6,0.3,1,0.6,1.5,1c0.4,0.3,0.7,0.6,0.9,0.8l0.3,0.4
				L961,1105.7z"/>
			<path class="st0" d="M974.8,1092.1h4.4v7.8h4.9v4.4h-4.9v12.1c0,0.9,0.3,1.6,0.8,2.1c0.6,0.6,1.2,0.8,2.1,0.8
				c0.4,0,0.7,0,1.1-0.1c0.4-0.1,0.7-0.2,0.9-0.3l0.4-0.1v4.4c-1,0.3-2.1,0.5-3.4,0.5c-4.5,0-6.8-2.4-6.8-7.3v-12.1h-4.4v-4.4h2.4
				c1.6,0,2.4-1,2.4-2.9V1092.1z"/>
			<path class="st0" d="M1002.7,1103.7c-1.8,0-3.3,0.6-4.4,1.8c-1.1,1.2-1.6,2.9-1.6,5v12.6h-4.9v-23.3h4.9v2.4l0.3-0.3
				c0.1-0.1,0.4-0.4,0.9-0.7c0.5-0.3,0.9-0.6,1.5-0.9c0.5-0.3,1.2-0.5,2-0.7c0.8-0.2,1.6-0.3,2.4-0.3h1.2v4.6
				C1004.2,1103.8,1003.5,1103.7,1002.7,1103.7z"/>
			<path class="st0" d="M1026.7,1120.7l-0.3,0.3c-0.1,0.1-0.4,0.4-0.9,0.7c-0.4,0.3-0.9,0.6-1.5,0.9c-0.5,0.3-1.2,0.5-2,0.7
				c-0.8,0.2-1.6,0.3-2.4,0.3c-2.8,0-5.1-0.9-6.8-2.8c-1.7-1.8-2.6-4.3-2.6-7.4v-13.6h4.9v13.6c0,1.7,0.5,3.1,1.6,4.2
				c1.1,1.1,2.4,1.7,4,1.7c1.8,0,3.3-0.6,4.4-1.8c1.1-1.2,1.6-2.9,1.6-5v-12.6h4.9v23.3h-4.9V1120.7z"/>
			<path class="st0" d="M1042.2,1103c2.4-2.4,5.3-3.6,8.5-3.6c1.8,0,3.5,0.4,5.1,1.2c1.6,0.8,2.7,1.6,3.4,2.3l1,1.1l-3.2,3.2
				c-0.2-0.3-0.4-0.6-0.7-0.9c-0.3-0.4-1-0.9-2.1-1.5c-1.1-0.6-2.2-1-3.5-1c-2,0-3.7,0.8-5.1,2.3c-1.4,1.5-2.2,3.3-2.2,5.5
				c0,2.2,0.7,4,2.2,5.5c1.4,1.5,3.2,2.3,5.1,2.3c1.2,0,2.4-0.3,3.5-0.9c1.1-0.6,1.9-1.2,2.3-1.8l0.7-0.9l3.2,3.2
				c-0.1,0.1-0.2,0.3-0.4,0.5c-0.2,0.2-0.6,0.6-1.2,1.2c-0.6,0.5-1.3,1-2,1.4c-0.7,0.4-1.6,0.8-2.7,1.2s-2.2,0.5-3.3,0.5
				c-3.3,0-6.1-1.2-8.5-3.6c-2.4-2.4-3.6-5.2-3.6-8.5S1039.8,1105.4,1042.2,1103z"/>
			<path class="st0" d="M1069.6,1092.1h4.4v7.8h4.9v4.4h-4.9v12.1c0,0.9,0.3,1.6,0.8,2.1c0.6,0.6,1.2,0.8,2.1,0.8
				c0.4,0,0.7,0,1.1-0.1c0.4-0.1,0.7-0.2,0.9-0.3l0.4-0.1v4.4c-1,0.3-2.1,0.5-3.4,0.5c-4.5,0-6.8-2.4-6.8-7.3v-12.1h-4.4v-4.4h2.4
				c1.6,0,2.4-1,2.4-2.9V1092.1z"/>
			<path class="st0" d="M1103.1,1120.7l-0.3,0.3c-0.1,0.1-0.4,0.4-0.9,0.7c-0.4,0.3-0.9,0.6-1.5,0.9c-0.5,0.3-1.2,0.5-2,0.7
				s-1.6,0.3-2.4,0.3c-2.8,0-5.1-0.9-6.8-2.8c-1.7-1.8-2.6-4.3-2.6-7.4v-13.6h4.9v13.6c0,1.7,0.5,3.1,1.6,4.2c1.1,1.1,2.4,1.7,4,1.7
				c1.8,0,3.3-0.6,4.4-1.8c1.1-1.2,1.6-2.9,1.6-5v-12.6h4.9v23.3h-4.9V1120.7z"/>
			<path class="st0" d="M1127.4,1103.7c-1.8,0-3.3,0.6-4.4,1.8c-1.1,1.2-1.6,2.9-1.6,5v12.6h-4.9v-23.3h4.9v2.4l0.3-0.3
				c0.1-0.1,0.4-0.4,0.9-0.7c0.5-0.3,0.9-0.6,1.5-0.9c0.5-0.3,1.2-0.5,2-0.7c0.8-0.2,1.6-0.3,2.4-0.3h1.2v4.6
				C1128.9,1103.8,1128.2,1103.7,1127.4,1103.7z"/>
			<path class="st0" d="M1138.3,1113.2c0.3,1.6,1.1,3.1,2.4,4.3c1.4,1.2,3,1.8,4.9,1.8c1.4,0,2.6-0.3,3.8-0.9c1.2-0.6,2-1.2,2.5-1.8
				l0.7-0.9l3.2,3.2c-0.1,0.1-0.2,0.3-0.4,0.5c-0.2,0.2-0.6,0.6-1.3,1.2c-0.6,0.5-1.3,1-2.1,1.4c-0.7,0.4-1.7,0.8-2.8,1.2
				c-1.2,0.4-2.4,0.5-3.6,0.5c-3.3,0-6.2-1.2-8.5-3.6c-2.4-2.4-3.6-5.3-3.6-8.7c0-3.3,1.2-6.1,3.5-8.4c2.3-2.3,5.1-3.5,8.4-3.5
				s6,1.1,8.2,3.3c2.2,2.2,3.3,4.9,3.3,8.2l-0.3,2.4H1138.3z M1140.9,1105.1c-1.2,1-2,2.4-2.4,4h13.5c-0.3-1.6-1-3-2.2-4
				c-1.2-1-2.7-1.6-4.5-1.6C1143.6,1103.5,1142.1,1104,1140.9,1105.1z"/>
		</g>
	</g>
</g>
</svg>
