<?xml version="1.0" encoding="utf-8"?>
<!-- Generator: Adobe Illustrator 24.1.3, SVG Export Plug-In . SVG Version: 6.00 Build 0)  -->
<svg version="1.1" id="Layer_1" xmlns="http://www.w3.org/2000/svg" xmlns:xlink="http://www.w3.org/1999/xlink" x="0px" y="0px"
	 viewBox="0 0 624 200" style="enable-background:new 0 0 624 200;" xml:space="preserve">
<style type="text/css">
	.st0{fill:#FFFFFF;}
</style>
<g>
	<g>
		<ellipse class="st0" cx="158" cy="66.7" rx="9.8" ry="10.3"/>
		<ellipse class="st0" cx="218.7" cy="127.9" rx="9.8" ry="10.3"/>
		<path class="st0" d="M218.7,56.5c-2.3,0-4.4,0.8-6,2.2c-2.5,2-5.6,3-8.8,3h-1.3c-3.1,0-6-1.3-8.5-3.2c-0.1-0.1-0.2-0.1-0.3-0.2
			c-0.1-0.1-0.2-0.1-0.2-0.2c-0.2-0.1-0.4-0.3-0.6-0.4c-0.1,0-0.1-0.1-0.2-0.1c-0.3-0.1-0.5-0.3-0.8-0.4c-0.1,0-0.1,0-0.2-0.1
			c-0.2-0.1-0.5-0.2-0.7-0.3c-0.1,0-0.2-0.1-0.3-0.1c-0.2-0.1-0.4-0.1-0.6-0.2c-0.1,0-0.2,0-0.3-0.1c-0.2,0-0.4-0.1-0.7-0.1
			c-0.1,0-0.2,0-0.3,0c-0.3,0-0.6,0-0.9,0c0,0,0,0,0,0c-0.1,0-0.3,0-0.4,0c-0.2,0-0.4,0-0.6,0c0,0-0.1,0-0.1,0
			c-0.5,0.1-1,0.2-1.5,0.4c-0.2,0.1-0.3,0.1-0.5,0.2c0,0-0.1,0-0.1,0c-2.3,0.9-4.1,2.7-5.2,5c-0.4,0.8-0.7,1.7-0.9,2.6
			c0,0.1,0,0.2,0,0.4c0,0.2-0.1,0.4-0.1,0.6c0,0.2,0,0.3,0,0.5c0,0.1,0,0.1,0,0.2c0,0.2,0,0.3,0,0.5c0,0.2,0,0.3,0,0.5
			c0,0.2,0,0.5,0.1,0.7c0,0.1,0,0.3,0,0.4c0,0.3,0.1,0.6,0.2,0.9c0,0.1,0,0.1,0,0.2c0.1,0.4,0.2,0.7,0.3,1.1c0,0,0,0.1,0,0.1
			c0.1,0.3,0.3,0.6,0.4,0.9c0,0.1,0.1,0.1,0.1,0.2c0.1,0.3,0.3,0.5,0.4,0.7c0,0.1,0.1,0.1,0.1,0.2c0.2,0.2,0.3,0.5,0.5,0.7
			c0,0,0,0,0.1,0.1c2.8,3.5,3.3,8.7,1.8,12.9c-0.4,1.1-1.1,2.1-1.8,3.1c-1.4,1.8-2.3,4.1-2.3,6.6c0,2.4,0.8,4.6,2.1,6.3
			c2,2.6,2.9,5.9,2.9,9.2l0,1c0,0,0,0.1,0,0.1c0,5.6-4.4,10.1-9.7,10.2c0,0-0.1,0-0.1,0h-1c0,0-0.1,0-0.1,0c-5.3,0-9.6-4.7-9.7-10.2
			c0-0.1,0-0.2,0-0.3v-1c0-3.4,1.2-6.6,3.1-9.3c1.2-1.8,1.9-3.9,1.9-6.3c-0.1-5.4-4.3-9.9-9.4-10.1c-5.6-0.2-10.2,4.5-10.2,10.3
			c0,2.4,0.8,4.6,2.1,6.3c2,2.6,2.9,5.9,2.9,9.2v0.9c0,3.3-0.9,6.6-2.9,9.2c-1,1.4-1.8,3.1-2,4.9c0,0.1,0,0.2,0,0.2
			c0,0.2,0,0.5-0.1,0.7c0,0,0,0.1,0,0.1c0,0.1,0,0.1,0,0.2c0,0.1,0,0.3,0,0.4c0,0.1,0,0.2,0,0.2c0,0.2,0,0.3,0,0.5
			c0,0.2,0,0.3,0.1,0.5c0,0.2,0.1,0.4,0.1,0.6c0,0.1,0,0.2,0.1,0.3c0.8,3.8,3.6,6.7,7.2,7.7c0.1,0,0.1,0,0.2,0
			c0.2,0,0.4,0.1,0.6,0.1c0.1,0,0.3,0.1,0.4,0.1c0.2,0,0.3,0,0.5,0c0.1,0,0.2,0,0.3,0c0.1,0,0.1,0,0.2,0c0.1,0,0.1,0,0.2,0
			c0.1,0,0.3,0,0.4,0c0.1,0,0.2,0,0.3,0c0.3,0,0.6-0.1,0.8-0.1c0,0,0.1,0,0.1,0c0.3-0.1,0.6-0.1,0.9-0.2c0.1,0,0.2-0.1,0.3-0.1
			c0.2-0.1,0.4-0.1,0.5-0.2c0.1,0,0.2-0.1,0.4-0.2c0.2-0.1,0.3-0.1,0.4-0.2c0.1-0.1,0.3-0.1,0.4-0.2c0.1-0.1,0.3-0.2,0.4-0.2
			c0.1-0.1,0.3-0.2,0.4-0.3c0.1-0.1,0.2-0.1,0.3-0.2c0.1-0.1,0.2-0.2,0.4-0.3c2.5-2,5.6-3.1,8.8-3.1h1c2.9,0,5.7,1,8.2,2.7
			c1.6,1.5,3.7,2.4,5.9,2.5c0.1,0,0.2,0,0.3,0c0.1,0,0.3,0,0.4,0c0.1,0,0.2,0,0.3,0c0,0,0.1,0,0.1,0c4.9-0.3,9-4.6,9.2-9.8
			c0.1-3-1-5.7-2.8-7.6c-1.5-2.4-2.3-5.4-2.3-8.3v-0.8c0-3.3,0.9-6.6,2.9-9.2c1.3-1.7,2.1-3.9,2.1-6.3c0-2.4-0.8-4.6-2.1-6.3
			c-1.8-2.4-2.9-5.2-2.9-8.3v0c0,0,0-0.1,0-0.1c0-4.8,3.6-8.8,8.1-9.4c0.6-0.1,1.3-0.1,1.9-0.1l1,0c3.2,0,6.2,1.2,8.8,3.2
			c1.7,1.3,3.7,2,6,2c5.1-0.1,9.4-4.5,9.6-9.9C228.7,61.3,224.2,56.5,218.7,56.5z"/>
	</g>
	<g>
		<g>
			<path class="st0" d="M263.8,68.2c-0.7,0.7-1.6,1-2.8,1c-1.1,0-2-0.3-2.6-1c-0.6-0.7-1-1.6-1-2.7c0-1.1,0.3-2,1-2.7
				c0.7-0.7,1.5-1,2.6-1c1.2,0,2.1,0.3,2.8,1c0.7,0.7,1,1.6,1,2.7C264.8,66.6,264.5,67.6,263.8,68.2z M264.3,97.2h-6.5V72.5h6.5
				V97.2z"/>
			<path class="st0" d="M277.3,75.6c0.2-0.3,0.5-0.6,0.8-1c0.3-0.4,1.1-0.9,2.3-1.6c1.2-0.7,2.4-1,3.7-1c2.7,0,4.9,1,6.6,2.9
				c1.7,1.9,2.5,4.6,2.5,7.9v14.3h-6.5V83.6c0-1.5-0.4-2.7-1.3-3.6c-0.8-0.9-1.9-1.4-3.3-1.4c-1.5,0-2.6,0.5-3.5,1.5
				c-0.9,1-1.3,2.4-1.3,4.3v12.8h-6.5V72.5h6.5V75.6z"/>
			<path class="st0" d="M319,93.8c-2.5,2.6-5.4,3.8-8.7,3.8s-6.3-1.3-8.7-3.8c-2.5-2.6-3.7-5.6-3.7-9c0-3.4,1.2-6.4,3.7-9
				c2.5-2.6,5.4-3.8,8.7-3.8s6.3,1.3,8.7,3.8c2.5,2.6,3.7,5.6,3.7,9C322.7,88.3,321.5,91.3,319,93.8z M306.3,89.5
				c1.1,1.3,2.5,1.9,4,1.9s2.9-0.6,4-1.9c1.1-1.3,1.7-2.8,1.7-4.6c0-1.8-0.6-3.4-1.7-4.7c-1.1-1.3-2.5-1.9-4-1.9s-2.9,0.6-4,1.9
				c-1.1,1.3-1.7,2.8-1.7,4.7C304.5,86.7,305.1,88.3,306.3,89.5z"/>
			<path class="st0" d="M333.5,97.2l-8.9-24.6h6.7l5.5,16.3l5.5-16.3h6.7l-8.8,24.6H333.5z"/>
			<path class="st0" d="M365.4,94.7c-0.2,0.2-0.4,0.5-0.8,0.8s-1.1,0.8-2.2,1.3c-1.1,0.5-2.3,0.8-3.5,0.8c-2.3,0-4.2-0.7-5.7-2
				c-1.5-1.4-2.2-3-2.2-5c0-2,0.6-3.7,1.8-5s2.9-2.2,5.1-2.6l7.4-1.4c0-1-0.4-1.9-1.1-2.5c-0.7-0.7-1.7-1-3-1c-1.1,0-2,0.2-2.9,0.6
				c-0.9,0.4-1.5,0.8-1.8,1.3l-0.5,0.6l-3.6-3.8c0.1-0.1,0.2-0.3,0.4-0.5c0.2-0.2,0.5-0.6,1.1-1.1c0.6-0.5,1.2-1,1.9-1.4
				c0.7-0.4,1.6-0.8,2.6-1.2c1.1-0.4,2.2-0.5,3.3-0.5c3,0,5.4,0.9,7.3,2.8c1.9,1.9,2.8,4.2,2.8,7v15.3h-6.5V94.7z M364.1,90.7
				c0.9-1,1.3-2.3,1.3-4.1v-0.8l-5.3,1c-1.8,0.3-2.6,1.2-2.6,2.8c0,1.7,1,2.5,3.1,2.5C362,92.2,363.2,91.7,364.1,90.7z"/>
			<path class="st0" d="M390.7,65.3h5.8v7.8h4.8v6h-4.8v9.8c0,0.8,0.3,1.4,0.8,2c0.5,0.5,1.2,0.8,2,0.8c0.4,0,0.8,0,1.2-0.1
				c0.4-0.1,0.7-0.2,0.9-0.3l0.3-0.1v5.8c-1.3,0.5-2.7,0.8-4.3,0.7c-4.9,0-7.4-2.8-7.4-8.5v-10h-4.1v-6h2.2c0.7,0,1.4-0.3,1.9-0.9
				c0.5-0.6,0.8-1.4,0.8-2.4V65.3z"/>
			<path class="st0" d="M410.6,87.1c0.2,1.3,0.9,2.5,2,3.4c1.1,0.9,2.5,1.4,4.2,1.4c1.2,0,2.3-0.2,3.4-0.7c1-0.5,1.8-1,2.2-1.5
				l0.7-0.8l3.3,4.5l-0.4,0.5c-0.2,0.2-0.6,0.6-1.3,1c-0.6,0.5-1.3,0.9-2,1.3c-0.7,0.4-1.6,0.7-2.8,1c-1.1,0.3-2.3,0.4-3.5,0.4
				c-3.4,0-6.4-1.3-8.8-3.8c-2.4-2.5-3.6-5.5-3.6-9c0-3.5,1.2-6.5,3.6-9c2.4-2.5,5.3-3.8,8.6-3.8c3.4,0,6.1,1.2,8.4,3.5
				c2.2,2.3,3.3,5.3,3.3,8.8l-0.2,2.7H410.6z M412.6,79.1c-1,0.8-1.6,1.9-2,3.3h10.8c-0.2-1.3-0.8-2.4-1.8-3.2
				c-0.9-0.9-2.1-1.3-3.5-1.3C414.7,77.8,413.5,78.3,412.6,79.1z"/>
			<path class="st0" d="M434.9,75.9c2.5-2.6,5.5-3.8,8.9-3.8c1.2,0,2.4,0.2,3.5,0.5c1.1,0.4,2,0.8,2.7,1.3c0.7,0.5,1.3,1,1.9,1.5
				c0.5,0.5,0.9,0.9,1.2,1.3l0.4,0.5l-4.1,4.3c-0.1-0.2-0.3-0.5-0.6-0.9c-0.3-0.4-0.9-0.9-1.9-1.5c-1-0.6-2-0.9-3-0.9
				c-1.7,0-3.2,0.7-4.4,2c-1.2,1.3-1.8,2.9-1.8,4.8c0,1.9,0.6,3.5,1.8,4.8c1.2,1.3,2.7,2,4.4,2c1.1,0,2.1-0.3,3-0.8
				c1-0.5,1.7-1.1,2.1-1.6l0.6-0.8l3.8,4.3c-0.1,0.1-0.2,0.3-0.4,0.6c-0.2,0.2-0.5,0.6-1.1,1.2c-0.6,0.6-1.2,1.1-1.9,1.5
				c-0.7,0.4-1.6,0.8-2.7,1.2c-1.1,0.4-2.3,0.6-3.5,0.6c-3.4,0-6.4-1.3-8.9-3.8c-2.5-2.6-3.8-5.6-3.8-9
				C431.1,81.4,432.4,78.5,434.9,75.9z"/>
			<path class="st0" d="M464.4,75.6c0.2-0.3,0.4-0.6,0.8-1c0.3-0.4,1.1-0.9,2.2-1.6c1.2-0.7,2.4-1,3.7-1c2.7,0,4.9,1,6.6,2.9
				c1.7,1.9,2.5,4.6,2.5,7.9v14.3h-6.5V83.6c0-1.5-0.4-2.7-1.3-3.6c-0.8-0.9-1.9-1.4-3.3-1.4c-1.5,0-2.6,0.5-3.5,1.5
				c-0.9,1-1.3,2.4-1.3,4.3v12.8H458V62h6.5V75.6z"/>
		</g>
	</g>
	<g>
		<g>
			<path class="st0" d="M258.7,109.6c0.6-0.7,1.4-1,2.2-1c0.5,0,0.9,0.1,1.3,0.3c0.4,0.2,0.7,0.4,0.9,0.6l0.3,0.3l-0.8,0.9
				c0-0.1-0.1-0.2-0.2-0.3c-0.1-0.1-0.3-0.2-0.6-0.4c-0.3-0.2-0.6-0.3-0.9-0.3c-0.5,0-1,0.2-1.3,0.6c-0.4,0.4-0.6,0.9-0.6,1.5
				c0,0.6,0.2,1.1,0.6,1.5c0.4,0.4,0.8,0.6,1.3,0.6c0.3,0,0.6-0.1,0.9-0.3c0.3-0.2,0.5-0.3,0.6-0.5l0.2-0.2l0.8,0.9
				c0,0-0.1,0.1-0.1,0.1s-0.2,0.2-0.3,0.3c-0.2,0.2-0.3,0.3-0.5,0.4c-0.2,0.1-0.4,0.2-0.7,0.3c-0.3,0.1-0.6,0.1-0.9,0.1
				c-0.9,0-1.6-0.3-2.2-1c-0.6-0.7-0.9-1.4-0.9-2.3C257.8,111.1,258.1,110.3,258.7,109.6z"/>
			<path class="st0" d="M266.9,115.2l-2.5-6.4h1.3l1.8,4.7l1.8-4.7h1.3l-2.7,7.1c-0.3,0.8-0.6,1.3-0.9,1.7c-0.3,0.3-0.7,0.5-1.2,0.5
				c-0.2,0-0.3,0-0.5,0c-0.1,0-0.3,0-0.3-0.1l-0.1,0v-1.2c0.2,0.1,0.4,0.1,0.6,0.1c0.5,0,0.8-0.3,1.1-0.9L266.9,115.2z"/>
			<path class="st0" d="M277.5,109.6c0.6,0.6,0.9,1.4,0.9,2.4c0,0.9-0.3,1.7-0.9,2.4c-0.6,0.6-1.3,1-2.1,1c-0.2,0-0.5,0-0.7-0.1
				c-0.2-0.1-0.4-0.1-0.6-0.2c-0.2-0.1-0.3-0.2-0.4-0.3c-0.1-0.1-0.2-0.2-0.3-0.2l-0.1-0.1v0.7h-1.3v-9.4h1.3v3.7
				c0.1-0.1,0.1-0.1,0.2-0.2c0.1-0.1,0.3-0.2,0.7-0.4c0.3-0.2,0.7-0.2,1.1-0.2C276.2,108.6,276.9,108.9,277.5,109.6z M276.6,113.5
				c0.4-0.4,0.6-0.9,0.6-1.5c0-0.6-0.2-1.1-0.6-1.5c-0.4-0.4-0.8-0.6-1.3-0.6c-0.5,0-0.9,0.2-1.3,0.6c-0.4,0.4-0.6,0.9-0.6,1.5
				c0,0.6,0.2,1.1,0.6,1.5c0.4,0.4,0.8,0.6,1.3,0.6C275.8,114.1,276.2,113.9,276.6,113.5z"/>
			<path class="st0" d="M281.1,112.4c0.1,0.5,0.3,0.8,0.6,1.2c0.4,0.3,0.8,0.5,1.3,0.5c0.4,0,0.7-0.1,1-0.3c0.3-0.2,0.5-0.3,0.7-0.5
				l0.2-0.2l0.8,0.9c0,0-0.1,0.1-0.1,0.1c-0.1,0.1-0.2,0.2-0.3,0.3c-0.2,0.2-0.4,0.3-0.5,0.4s-0.4,0.2-0.7,0.3
				c-0.3,0.1-0.6,0.1-0.9,0.1c-0.9,0-1.6-0.3-2.2-1c-0.6-0.7-0.9-1.5-0.9-2.4c0-0.9,0.3-1.7,0.9-2.3c0.6-0.6,1.3-1,2.2-1
				c0.9,0,1.6,0.3,2.1,0.9c0.6,0.6,0.9,1.3,0.9,2.2l-0.1,0.7H281.1z M281.7,110.2c-0.3,0.3-0.5,0.7-0.6,1.1h3.5
				c-0.1-0.5-0.3-0.8-0.6-1.1c-0.3-0.3-0.7-0.4-1.2-0.4C282.4,109.8,282.1,109.9,281.7,110.2z"/>
			<path class="st0" d="M290.5,109.8c-0.5,0-0.9,0.2-1.2,0.5c-0.3,0.3-0.4,0.8-0.4,1.4v3.5h-1.3v-6.4h1.3v0.7l0.1-0.1
				c0,0,0.1-0.1,0.2-0.2c0.1-0.1,0.2-0.2,0.4-0.2c0.1-0.1,0.3-0.1,0.5-0.2c0.2-0.1,0.4-0.1,0.6-0.1h0.3v1.3
				C290.9,109.8,290.7,109.8,290.5,109.8z"/>
			<path class="st0" d="M295.6,110.4c0,0-0.1-0.1-0.1-0.1s-0.2-0.1-0.4-0.2c-0.2-0.1-0.4-0.1-0.6-0.1c-0.3,0-0.5,0.1-0.6,0.2
				c-0.2,0.1-0.2,0.3-0.2,0.5c0,0.2,0.1,0.3,0.2,0.5c0.2,0.1,0.3,0.2,0.6,0.3c0.2,0.1,0.5,0.1,0.7,0.2c0.3,0.1,0.5,0.2,0.8,0.3
				c0.2,0.1,0.4,0.3,0.6,0.6c0.2,0.3,0.2,0.6,0.2,0.9c0,0.6-0.2,1-0.6,1.4c-0.4,0.4-1,0.6-1.7,0.6c-0.3,0-0.6,0-0.9-0.1
				c-0.3-0.1-0.5-0.2-0.7-0.3c-0.2-0.1-0.3-0.2-0.5-0.3c-0.1-0.1-0.2-0.2-0.3-0.3l-0.1-0.1l0.8-0.9c0,0.1,0.1,0.1,0.2,0.2
				c0.1,0.1,0.3,0.2,0.5,0.4c0.3,0.1,0.5,0.2,0.8,0.2c0.3,0,0.6-0.1,0.8-0.2c0.2-0.1,0.3-0.3,0.3-0.6c0-0.2-0.1-0.3-0.2-0.5
				s-0.3-0.2-0.6-0.3c-0.2-0.1-0.5-0.2-0.7-0.2c-0.3-0.1-0.5-0.2-0.8-0.3c-0.2-0.1-0.4-0.3-0.6-0.6c-0.2-0.3-0.2-0.6-0.2-0.9
				c0-0.5,0.2-0.9,0.6-1.3c0.4-0.4,0.9-0.6,1.5-0.6c0.2,0,0.5,0,0.7,0.1c0.2,0.1,0.4,0.1,0.6,0.2c0.1,0.1,0.3,0.2,0.4,0.3
				c0.1,0.1,0.2,0.2,0.2,0.2l0.1,0.1L295.6,110.4z"/>
			<path class="st0" d="M299.3,112.4c0.1,0.5,0.3,0.8,0.6,1.2c0.4,0.3,0.8,0.5,1.3,0.5c0.4,0,0.7-0.1,1-0.3c0.3-0.2,0.5-0.3,0.7-0.5
				l0.2-0.2l0.8,0.9c0,0-0.1,0.1-0.1,0.1c-0.1,0.1-0.2,0.2-0.3,0.3c-0.2,0.2-0.4,0.3-0.5,0.4s-0.4,0.2-0.7,0.3
				c-0.3,0.1-0.6,0.1-0.9,0.1c-0.9,0-1.6-0.3-2.2-1c-0.6-0.7-0.9-1.5-0.9-2.4c0-0.9,0.3-1.7,0.9-2.3c0.6-0.6,1.3-1,2.2-1
				c0.9,0,1.6,0.3,2.1,0.9c0.6,0.6,0.9,1.3,0.9,2.2l-0.1,0.7H299.3z M300,110.2c-0.3,0.3-0.5,0.7-0.6,1.1h3.5
				c-0.1-0.5-0.3-0.8-0.6-1.1c-0.3-0.3-0.7-0.4-1.2-0.4C300.7,109.8,300.3,109.9,300,110.2z"/>
			<path class="st0" d="M306.5,109.6c0.6-0.7,1.4-1,2.2-1c0.5,0,0.9,0.1,1.3,0.3c0.4,0.2,0.7,0.4,0.9,0.6l0.3,0.3l-0.8,0.9
				c0-0.1-0.1-0.2-0.2-0.3c-0.1-0.1-0.3-0.2-0.6-0.4c-0.3-0.2-0.6-0.3-0.9-0.3c-0.5,0-1,0.2-1.3,0.6c-0.4,0.4-0.6,0.9-0.6,1.5
				c0,0.6,0.2,1.1,0.6,1.5c0.4,0.4,0.8,0.6,1.3,0.6c0.3,0,0.6-0.1,0.9-0.3c0.3-0.2,0.5-0.3,0.6-0.5l0.2-0.2l0.8,0.9
				c0,0-0.1,0.1-0.1,0.1s-0.2,0.2-0.3,0.3c-0.2,0.2-0.3,0.3-0.5,0.4c-0.2,0.1-0.4,0.2-0.7,0.3c-0.3,0.1-0.6,0.1-0.9,0.1
				c-0.9,0-1.6-0.3-2.2-1c-0.6-0.7-0.9-1.4-0.9-2.3C305.5,111.1,305.9,110.3,306.5,109.6z"/>
			<path class="st0" d="M317.2,114.5L317.2,114.5c-0.1,0.1-0.2,0.2-0.3,0.3c-0.1,0.1-0.2,0.2-0.4,0.2c-0.1,0.1-0.3,0.1-0.5,0.2
				c-0.2,0.1-0.4,0.1-0.6,0.1c-0.7,0-1.3-0.3-1.8-0.8c-0.5-0.5-0.7-1.2-0.7-2v-3.7h1.3v3.7c0,0.5,0.1,0.8,0.4,1.1
				c0.3,0.3,0.6,0.5,1,0.5c0.5,0,0.9-0.2,1.2-0.5c0.3-0.3,0.4-0.8,0.4-1.4v-3.5h1.3v6.4h-1.3V114.5z"/>
			<path class="st0" d="M323.6,109.8c-0.5,0-0.9,0.2-1.2,0.5c-0.3,0.3-0.4,0.8-0.4,1.4v3.5h-1.3v-6.4h1.3v0.7l0.1-0.1
				c0,0,0.1-0.1,0.2-0.2c0.1-0.1,0.2-0.2,0.4-0.2c0.1-0.1,0.3-0.1,0.5-0.2c0.2-0.1,0.4-0.1,0.6-0.1h0.3v1.3
				C324,109.8,323.8,109.8,323.6,109.8z"/>
			<path class="st0" d="M326.8,107.3c-0.1,0.2-0.3,0.2-0.5,0.2c-0.2,0-0.4-0.1-0.5-0.2c-0.1-0.2-0.2-0.3-0.2-0.6
				c0-0.2,0.1-0.4,0.2-0.6c0.1-0.2,0.3-0.2,0.5-0.2c0.2,0,0.4,0.1,0.5,0.2c0.1,0.2,0.2,0.3,0.2,0.6C327,107,327,107.2,326.8,107.3z
				 M326.9,115.2h-1.3v-6.4h1.3V115.2z"/>
			<path class="st0" d="M329.9,106.6h1.1v2.1h1.3v1.2H331v3.3c0,0.2,0.1,0.4,0.2,0.6c0.1,0.2,0.3,0.2,0.5,0.2c0.1,0,0.2,0,0.3,0
				c0.1,0,0.2,0,0.2-0.1l0.1,0v1.2c-0.3,0.1-0.6,0.1-0.9,0.1c-1.2,0-1.8-0.7-1.8-2V110h-1.2v-1.2h0.6c0.4,0,0.6-0.3,0.6-0.8V106.6z"
				/>
			<path class="st0" d="M336.1,115.2l-2.5-6.4h1.3l1.8,4.7l1.8-4.7h1.3l-2.7,7.1c-0.3,0.8-0.6,1.3-0.9,1.7c-0.3,0.3-0.7,0.5-1.2,0.5
				c-0.2,0-0.3,0-0.5,0c-0.1,0-0.3,0-0.3-0.1l-0.1,0v-1.2c0.2,0.1,0.4,0.1,0.6,0.1c0.5,0,0.8-0.3,1.1-0.9L336.1,115.2z"/>
			<path class="st0" d="M347.8,115.2v-0.7c0,0,0,0-0.1,0.1c0,0-0.1,0.1-0.2,0.2c-0.1,0.1-0.2,0.2-0.4,0.2c-0.1,0.1-0.3,0.1-0.5,0.2
				c-0.2,0.1-0.4,0.1-0.6,0.1c-0.6,0-1.1-0.2-1.5-0.6c-0.4-0.4-0.6-0.8-0.6-1.3c0-0.5,0.2-1,0.5-1.3c0.3-0.4,0.8-0.6,1.3-0.7
				l2.2-0.4c0-0.3-0.1-0.6-0.4-0.9c-0.2-0.2-0.5-0.3-0.9-0.3c-0.3,0-0.6,0.1-0.9,0.2c-0.3,0.1-0.4,0.3-0.5,0.4l-0.2,0.2l-0.8-0.9
				c0,0,0.1-0.1,0.1-0.1c0-0.1,0.1-0.2,0.3-0.3c0.2-0.1,0.3-0.3,0.5-0.4c0.2-0.1,0.4-0.2,0.7-0.3c0.3-0.1,0.6-0.1,0.9-0.1
				c0.7,0,1.4,0.2,1.8,0.7c0.5,0.5,0.7,1,0.7,1.7v4.1H347.8z M347.3,113.6c0.3-0.3,0.4-0.8,0.4-1.4v-0.1l-2,0.3
				c-0.2,0-0.4,0.1-0.6,0.3c-0.1,0.2-0.2,0.3-0.2,0.6c0,0.2,0.1,0.4,0.3,0.6s0.5,0.2,0.8,0.2C346.6,114.1,347,113.9,347.3,113.6z"/>
			<path class="st0" d="M352.5,109.4L352.5,109.4c0.1-0.1,0.2-0.2,0.3-0.3c0.1-0.1,0.2-0.2,0.4-0.2c0.1-0.1,0.3-0.1,0.5-0.2
				c0.2-0.1,0.4-0.1,0.6-0.1c0.7,0,1.3,0.3,1.8,0.8c0.5,0.5,0.7,1.2,0.7,2v3.7h-1.3v-3.7c0-0.5-0.1-0.8-0.4-1.1
				c-0.3-0.3-0.6-0.5-1-0.5c-0.5,0-0.9,0.2-1.2,0.5c-0.3,0.3-0.4,0.8-0.4,1.4v3.5h-1.3v-6.4h1.3V109.4z"/>
			<path class="st0" d="M362.2,108.7c0.2,0.1,0.4,0.1,0.6,0.2c0.2,0.1,0.3,0.2,0.4,0.3c0.1,0.1,0.2,0.2,0.3,0.2l0.1,0.1v-3.7h1.3
				v9.4h-1.3v-0.7c-0.1,0.1-0.1,0.1-0.2,0.2c-0.1,0.1-0.3,0.2-0.7,0.4c-0.3,0.2-0.7,0.2-1.1,0.2c-0.8,0-1.5-0.3-2.1-1
				c-0.6-0.7-0.9-1.4-0.9-2.4c0-0.9,0.3-1.7,0.9-2.4c0.6-0.7,1.3-1,2.1-1C361.8,108.6,362,108.6,362.2,108.7z M363,113.5
				c0.4-0.4,0.6-0.9,0.6-1.5c0-0.6-0.2-1.1-0.6-1.5c-0.4-0.4-0.8-0.6-1.3-0.6c-0.5,0-0.9,0.2-1.3,0.6c-0.4,0.4-0.6,0.9-0.6,1.5
				c0,0.6,0.2,1.1,0.6,1.5c0.4,0.4,0.8,0.6,1.3,0.6C362.2,114.1,362.6,113.9,363,113.5z"/>
			<path class="st0" d="M258.6,121.8h1.4v9.4h-1.4V121.8z"/>
			<path class="st0" d="M268.7,121.8v1.3H266v8h-1.4v-8h-2.7v-1.3H268.7z"/>
			<path class="st0" d="M274.3,123.3c-0.1,0.2-0.3,0.2-0.5,0.2c-0.2,0-0.4-0.1-0.5-0.2c-0.1-0.2-0.2-0.3-0.2-0.6
				c0-0.2,0.1-0.4,0.2-0.6c0.1-0.2,0.3-0.2,0.5-0.2c0.2,0,0.4,0.1,0.5,0.2c0.1,0.2,0.2,0.3,0.2,0.6
				C274.5,123,274.4,123.2,274.3,123.3z M274.4,131.2h-1.3v-6.4h1.3V131.2z"/>
			<path class="st0" d="M277.9,125.4L277.9,125.4c0.1-0.1,0.2-0.2,0.3-0.3c0.1-0.1,0.2-0.2,0.4-0.2c0.1-0.1,0.3-0.1,0.5-0.2
				c0.2-0.1,0.4-0.1,0.6-0.1c0.7,0,1.3,0.3,1.8,0.8c0.5,0.5,0.7,1.2,0.7,2v3.7h-1.3v-3.7c0-0.5-0.1-0.8-0.4-1.1
				c-0.3-0.3-0.6-0.5-1-0.5c-0.5,0-0.9,0.2-1.2,0.5c-0.3,0.3-0.4,0.8-0.4,1.4v3.5h-1.3v-6.4h1.3V125.4z"/>
			<path class="st0" d="M287.4,126H286v5.2h-1.3V126h-0.9v-1.2h0.9v-1.1c0-1.3,0.6-2,1.8-2c0.2,0,0.3,0,0.5,0c0.1,0,0.3,0,0.3,0.1
				l0.1,0v1.2c-0.2-0.1-0.4-0.1-0.6-0.1c-0.2,0-0.4,0.1-0.5,0.2c-0.1,0.2-0.2,0.3-0.2,0.6v1.1h1.4V126z"/>
			<path class="st0" d="M291.9,125.8c-0.5,0-0.9,0.2-1.2,0.5s-0.4,0.8-0.4,1.4v3.5h-1.3v-6.4h1.3v0.7l0.1-0.1c0,0,0.1-0.1,0.2-0.2
				c0.1-0.1,0.2-0.2,0.4-0.2c0.1-0.1,0.3-0.1,0.5-0.2c0.2-0.1,0.4-0.1,0.6-0.1h0.3v1.3C292.3,125.9,292.1,125.8,291.9,125.8z"/>
			<path class="st0" d="M297.5,131.2v-0.7c0,0,0,0-0.1,0.1c0,0-0.1,0.1-0.2,0.2c-0.1,0.1-0.2,0.2-0.4,0.2c-0.1,0.1-0.3,0.1-0.5,0.2
				c-0.2,0.1-0.4,0.1-0.6,0.1c-0.6,0-1.1-0.2-1.5-0.6c-0.4-0.4-0.6-0.8-0.6-1.3c0-0.5,0.2-1,0.5-1.3c0.3-0.4,0.8-0.6,1.3-0.7
				l2.2-0.4c0-0.3-0.1-0.6-0.4-0.9c-0.2-0.2-0.5-0.3-0.9-0.3c-0.3,0-0.6,0.1-0.9,0.2c-0.3,0.1-0.4,0.3-0.5,0.4l-0.2,0.2l-0.8-0.9
				c0,0,0.1-0.1,0.1-0.1c0-0.1,0.1-0.2,0.3-0.3c0.2-0.1,0.3-0.3,0.5-0.4s0.4-0.2,0.7-0.3c0.3-0.1,0.6-0.1,0.9-0.1
				c0.7,0,1.4,0.2,1.8,0.7c0.5,0.5,0.7,1,0.7,1.7v4.1H297.5z M297.1,129.6c0.3-0.3,0.4-0.8,0.4-1.4v-0.1l-2,0.3
				c-0.2,0-0.4,0.1-0.6,0.3c-0.1,0.2-0.2,0.3-0.2,0.6c0,0.2,0.1,0.4,0.3,0.6c0.2,0.2,0.5,0.2,0.8,0.2
				C296.4,130.1,296.8,130,297.1,129.6z"/>
			<path class="st0" d="M304,126.4c0,0-0.1-0.1-0.1-0.1s-0.2-0.1-0.4-0.2c-0.2-0.1-0.4-0.1-0.6-0.1c-0.3,0-0.5,0.1-0.6,0.2
				c-0.2,0.1-0.2,0.3-0.2,0.5c0,0.2,0.1,0.3,0.2,0.5s0.3,0.2,0.6,0.3c0.2,0.1,0.5,0.1,0.7,0.2c0.3,0.1,0.5,0.2,0.8,0.3
				c0.2,0.1,0.4,0.3,0.6,0.6s0.2,0.6,0.2,0.9c0,0.6-0.2,1-0.6,1.4c-0.4,0.4-1,0.6-1.7,0.6c-0.3,0-0.6,0-0.9-0.1
				c-0.3-0.1-0.5-0.2-0.7-0.3c-0.2-0.1-0.3-0.2-0.5-0.3c-0.1-0.1-0.2-0.2-0.3-0.3l-0.1-0.1l0.8-0.9c0,0.1,0.1,0.1,0.2,0.2
				c0.1,0.1,0.3,0.2,0.5,0.4c0.3,0.1,0.5,0.2,0.8,0.2c0.3,0,0.6-0.1,0.8-0.2c0.2-0.1,0.3-0.3,0.3-0.6c0-0.2-0.1-0.3-0.2-0.5
				s-0.3-0.2-0.6-0.3c-0.2-0.1-0.5-0.2-0.7-0.2c-0.3-0.1-0.5-0.2-0.8-0.3c-0.2-0.1-0.4-0.3-0.6-0.6c-0.2-0.3-0.2-0.6-0.2-0.9
				c0-0.5,0.2-0.9,0.6-1.3c0.4-0.4,0.9-0.6,1.5-0.6c0.2,0,0.5,0,0.7,0.1c0.2,0.1,0.4,0.1,0.6,0.2c0.1,0.1,0.3,0.2,0.4,0.3
				c0.1,0.1,0.2,0.2,0.2,0.2l0.1,0.1L304,126.4z"/>
			<path class="st0" d="M307.6,122.6h1.1v2.1h1.3v1.2h-1.3v3.3c0,0.2,0.1,0.4,0.2,0.6c0.1,0.2,0.3,0.2,0.5,0.2c0.1,0,0.2,0,0.3,0
				c0.1,0,0.2,0,0.2-0.1l0.1,0v1.2c-0.3,0.1-0.6,0.1-0.9,0.1c-1.2,0-1.8-0.7-1.8-2V126h-1.2v-1.2h0.6c0.4,0,0.6-0.3,0.6-0.8V122.6z"
				/>
			<path class="st0" d="M315,125.8c-0.5,0-0.9,0.2-1.2,0.5c-0.3,0.3-0.4,0.8-0.4,1.4v3.5h-1.3v-6.4h1.3v0.7l0.1-0.1
				c0,0,0.1-0.1,0.2-0.2c0.1-0.1,0.2-0.2,0.4-0.2c0.1-0.1,0.3-0.1,0.5-0.2c0.2-0.1,0.4-0.1,0.6-0.1h0.3v1.3
				C315.4,125.9,315.2,125.8,315,125.8z"/>
			<path class="st0" d="M321.2,130.5L321.2,130.5c-0.1,0.1-0.2,0.2-0.3,0.3c-0.1,0.1-0.2,0.2-0.4,0.2c-0.1,0.1-0.3,0.1-0.5,0.2
				c-0.2,0.1-0.4,0.1-0.6,0.1c-0.7,0-1.3-0.3-1.8-0.8c-0.5-0.5-0.7-1.2-0.7-2v-3.7h1.3v3.7c0,0.5,0.1,0.8,0.4,1.1
				c0.3,0.3,0.6,0.5,1,0.5c0.5,0,0.9-0.2,1.2-0.5c0.3-0.3,0.4-0.8,0.4-1.4v-3.5h1.3v6.4h-1.3V130.5z"/>
			<path class="st0" d="M325.3,125.6c0.6-0.7,1.4-1,2.2-1c0.5,0,0.9,0.1,1.3,0.3c0.4,0.2,0.7,0.4,0.9,0.6l0.3,0.3l-0.8,0.9
				c0-0.1-0.1-0.2-0.2-0.3c-0.1-0.1-0.3-0.2-0.6-0.4c-0.3-0.2-0.6-0.3-0.9-0.3c-0.5,0-1,0.2-1.3,0.6c-0.4,0.4-0.6,0.9-0.6,1.5
				c0,0.6,0.2,1.1,0.6,1.5c0.4,0.4,0.8,0.6,1.3,0.6c0.3,0,0.6-0.1,0.9-0.3c0.3-0.2,0.5-0.3,0.6-0.5l0.2-0.2l0.8,0.9
				c0,0-0.1,0.1-0.1,0.1c0,0.1-0.2,0.2-0.3,0.3c-0.2,0.2-0.3,0.3-0.5,0.4c-0.2,0.1-0.4,0.2-0.7,0.3c-0.3,0.1-0.6,0.1-0.9,0.1
				c-0.9,0-1.6-0.3-2.2-1c-0.6-0.7-0.9-1.4-0.9-2.3C324.4,127.1,324.7,126.3,325.3,125.6z"/>
			<path class="st0" d="M332.5,122.6h1.1v2.1h1.3v1.2h-1.3v3.3c0,0.2,0.1,0.4,0.2,0.6c0.1,0.2,0.3,0.2,0.5,0.2c0.1,0,0.2,0,0.3,0
				c0.1,0,0.2,0,0.2-0.1l0.1,0v1.2c-0.3,0.1-0.6,0.1-0.9,0.1c-1.2,0-1.8-0.7-1.8-2V126h-1.2v-1.2h0.6c0.4,0,0.6-0.3,0.6-0.8V122.6z"
				/>
			<path class="st0" d="M341.3,130.5L341.3,130.5c-0.1,0.1-0.2,0.2-0.3,0.3c-0.1,0.1-0.2,0.2-0.4,0.2c-0.1,0.1-0.3,0.1-0.5,0.2
				c-0.2,0.1-0.4,0.1-0.6,0.1c-0.7,0-1.3-0.3-1.8-0.8c-0.5-0.5-0.7-1.2-0.7-2v-3.7h1.3v3.7c0,0.5,0.1,0.8,0.4,1.1
				c0.3,0.3,0.6,0.5,1,0.5c0.5,0,0.9-0.2,1.2-0.5c0.3-0.3,0.4-0.8,0.4-1.4v-3.5h1.3v6.4h-1.3V130.5z"/>
			<path class="st0" d="M347.6,125.8c-0.5,0-0.9,0.2-1.2,0.5c-0.3,0.3-0.4,0.8-0.4,1.4v3.5h-1.3v-6.4h1.3v0.7l0.1-0.1
				c0,0,0.1-0.1,0.2-0.2c0.1-0.1,0.2-0.2,0.4-0.2c0.1-0.1,0.3-0.1,0.5-0.2c0.2-0.1,0.4-0.1,0.6-0.1h0.3v1.3
				C348,125.9,347.9,125.8,347.6,125.8z"/>
			<path class="st0" d="M350.5,128.4c0.1,0.5,0.3,0.8,0.6,1.2c0.4,0.3,0.8,0.5,1.3,0.5c0.4,0,0.7-0.1,1-0.3c0.3-0.2,0.5-0.3,0.7-0.5
				l0.2-0.2l0.8,0.9c0,0-0.1,0.1-0.1,0.1c-0.1,0.1-0.2,0.2-0.3,0.3c-0.2,0.2-0.4,0.3-0.5,0.4s-0.4,0.2-0.7,0.3
				c-0.3,0.1-0.6,0.1-0.9,0.1c-0.9,0-1.6-0.3-2.2-1c-0.6-0.7-0.9-1.5-0.9-2.4c0-0.9,0.3-1.7,0.9-2.3c0.6-0.6,1.3-1,2.2-1
				c0.9,0,1.6,0.3,2.1,0.9c0.6,0.6,0.9,1.3,0.9,2.2l-0.1,0.7H350.5z M351.2,126.2c-0.3,0.3-0.5,0.7-0.6,1.1h3.5
				c-0.1-0.5-0.3-0.8-0.6-1.1c-0.3-0.3-0.7-0.4-1.2-0.4C351.9,125.8,351.5,125.9,351.2,126.2z"/>
		</g>
	</g>
</g>
<g>
	<g>
		<circle class="st0" cx="177.6" cy="71.9" r="9.1"/>
		<circle class="st0" cx="234.2" cy="126.3" r="9.1"/>
		<path class="st0" d="M234.2,62.8c-2.1,0-4.1,0.7-5.7,2c-2.3,1.8-5.2,2.7-8.2,2.7h-1.3c-2.9,0-5.6-1.1-7.9-2.9
			c-0.1-0.1-0.2-0.1-0.2-0.2c-0.1-0.1-0.1-0.1-0.2-0.1c-0.2-0.1-0.4-0.2-0.6-0.3c-0.1,0-0.1-0.1-0.2-0.1c-0.2-0.1-0.5-0.2-0.8-0.4
			c-0.1,0-0.1,0-0.2-0.1c-0.2-0.1-0.4-0.2-0.6-0.2c-0.1,0-0.2-0.1-0.3-0.1c-0.2-0.1-0.4-0.1-0.6-0.1c-0.1,0-0.2,0-0.3-0.1
			c-0.2,0-0.4-0.1-0.6-0.1c-0.1,0-0.2,0-0.2,0c-0.3,0-0.6,0-0.9,0c0,0,0,0,0,0c-0.1,0-0.2,0-0.4,0c-0.2,0-0.4,0-0.5,0
			c0,0-0.1,0-0.1,0c-0.5,0.1-1,0.2-1.4,0.3c-0.2,0.1-0.3,0.1-0.5,0.2c0,0-0.1,0-0.1,0c-2.1,0.8-3.9,2.4-4.9,4.5
			c-0.4,0.7-0.7,1.5-0.8,2.3c0,0.1,0,0.2,0,0.3c0,0.2-0.1,0.3-0.1,0.5c0,0.1,0,0.3,0,0.4c0,0.1,0,0.1,0,0.2c0,0.1,0,0.3,0,0.4
			c0,0.1,0,0.3,0,0.4c0,0.2,0,0.4,0.1,0.6c0,0.1,0,0.2,0,0.4c0,0.3,0.1,0.5,0.2,0.8c0,0.1,0,0.1,0,0.2c0.1,0.3,0.2,0.6,0.3,0.9
			c0,0,0,0,0,0.1c0.1,0.3,0.2,0.5,0.4,0.8c0,0.1,0.1,0.1,0.1,0.2c0.1,0.2,0.3,0.4,0.4,0.7c0,0.1,0.1,0.1,0.1,0.2
			c0.1,0.2,0.3,0.4,0.5,0.6c0,0,0,0,0,0.1c2.6,3.1,3.1,7.7,1.7,11.5c-0.4,1-1,1.9-1.7,2.7c-1.3,1.6-2.1,3.6-2.1,5.9
			c0,2.1,0.7,4.1,2,5.6c1.8,2.3,2.7,5.2,2.7,8.2v0.9c0,0,0,0.1,0,0.1c0,5-4.1,9-9.1,9.1c0,0-0.1,0-0.1,0h-0.9c0,0-0.1,0-0.1,0
			c-5,0-9-4.1-9.1-9.1c0-0.1,0-0.2,0-0.2v-0.9c0-3,1.1-5.8,2.9-8.2c1.2-1.6,1.8-3.5,1.8-5.6c-0.1-4.8-4-8.8-8.8-9
			c-5.2-0.2-9.5,4-9.5,9.1c0,2.1,0.7,4.1,2,5.6c1.8,2.3,2.7,5.2,2.7,8.2v0.8c0,2.9-0.9,5.9-2.7,8.2c-1,1.2-1.6,2.7-1.9,4.4
			c0,0.1,0,0.1,0,0.2c0,0.2,0,0.4-0.1,0.6c0,0,0,0.1,0,0.1c0,0.1,0,0.1,0,0.2c0,0.1,0,0.2,0,0.3c0,0.1,0,0.1,0,0.2
			c0,0.1,0,0.3,0,0.4c0,0.1,0,0.3,0,0.4c0,0.2,0.1,0.4,0.1,0.6c0,0.1,0,0.2,0.1,0.2c0.8,3.3,3.4,6,6.7,6.8c0.1,0,0.1,0,0.2,0
			c0.2,0,0.4,0.1,0.5,0.1c0.1,0,0.3,0,0.4,0.1c0.1,0,0.3,0,0.4,0c0.1,0,0.2,0,0.3,0c0.1,0,0.1,0,0.2,0c0.1,0,0.1,0,0.2,0
			c0.1,0,0.3,0,0.4,0c0.1,0,0.2,0,0.3,0c0.3,0,0.5,0,0.8-0.1c0,0,0.1,0,0.1,0c0.3,0,0.6-0.1,0.8-0.2c0.1,0,0.2-0.1,0.3-0.1
			c0.2-0.1,0.3-0.1,0.5-0.2c0.1,0,0.2-0.1,0.3-0.1c0.1-0.1,0.3-0.1,0.4-0.2c0.1-0.1,0.2-0.1,0.4-0.2c0.1-0.1,0.2-0.1,0.4-0.2
			c0.1-0.1,0.2-0.1,0.4-0.2c0.1-0.1,0.2-0.1,0.3-0.2c0.1-0.1,0.2-0.2,0.3-0.2c2.4-1.8,5.3-2.7,8.2-2.7h0.9c2.7,0,5.4,0.9,7.6,2.4
			c1.5,1.3,3.4,2.1,5.5,2.2c0.1,0,0.2,0,0.3,0c0.1,0,0.3,0,0.4,0c0.1,0,0.2,0,0.2,0c0,0,0.1,0,0.1,0c4.6-0.3,8.4-4.1,8.6-8.8
			c0.1-2.6-0.9-5-2.6-6.8c-1.4-2.2-2.1-4.8-2.1-7.4v-0.8c0-2.9,0.9-5.9,2.7-8.2c1.2-1.6,2-3.5,2-5.6c0-2.1-0.7-4.1-2-5.7
			c-1.7-2.1-2.7-4.7-2.7-7.4v0c0,0,0,0,0-0.1c0-4.2,3.3-7.8,7.5-8.3c0.6-0.1,1.2-0.1,1.8-0.1l0.9,0c3,0,5.8,1.1,8.2,2.9
			c1.6,1.2,3.5,1.8,5.6,1.8c4.8-0.1,8.8-4,9-8.8C243.6,67,239.4,62.8,234.2,62.8z"/>
	</g>
	<g>
		<g>
			<path class="st0" d="M276.4,73.2c-0.6,0.6-1.5,0.9-2.6,0.9c-1,0-1.8-0.3-2.4-0.9c-0.6-0.6-0.9-1.4-0.9-2.4s0.3-1.8,0.9-2.4
				c0.6-0.6,1.4-0.9,2.4-0.9c1.1,0,2,0.3,2.6,0.9c0.6,0.6,1,1.4,1,2.4S277,72.6,276.4,73.2z M276.9,99h-6.1V77.1h6.1V99z"/>
			<path class="st0" d="M288.9,79.8c0.2-0.2,0.4-0.5,0.7-0.9s1-0.8,2.1-1.4c1.1-0.6,2.2-0.9,3.4-0.9c2.5,0,4.5,0.9,6.1,2.6
				c1.6,1.7,2.4,4.1,2.4,7V99h-6V86.9c0-1.3-0.4-2.4-1.2-3.2c-0.8-0.8-1.8-1.2-3.1-1.2c-1.4,0-2.5,0.4-3.3,1.3
				c-0.8,0.9-1.2,2.2-1.2,3.8V99h-6V77.1h6V79.8z"/>
			<path class="st0" d="M328,96c-2.3,2.3-5,3.4-8.2,3.4s-5.9-1.1-8.2-3.4c-2.3-2.3-3.5-4.9-3.5-8c0-3,1.2-5.7,3.5-8
				c2.3-2.3,5-3.4,8.2-3.4s5.9,1.1,8.2,3.4c2.3,2.3,3.5,4.9,3.5,8C331.5,91.1,330.3,93.7,328,96z M316,92.2c1.1,1.1,2.3,1.7,3.8,1.7
				s2.7-0.6,3.8-1.7c1.1-1.1,1.6-2.5,1.6-4.1c0-1.6-0.5-3-1.6-4.1c-1.1-1.1-2.3-1.7-3.8-1.7s-2.7,0.6-3.8,1.7
				c-1.1,1.1-1.6,2.5-1.6,4.1C314.4,89.7,315,91.1,316,92.2z"/>
			<path class="st0" d="M341.5,99l-8.3-21.9h6.3l5.1,14.6l5.2-14.6h6.3L347.8,99H341.5z"/>
			<path class="st0" d="M371.3,96.8c-0.2,0.2-0.4,0.5-0.7,0.8s-1,0.7-2,1.2c-1,0.5-2.1,0.7-3.3,0.7c-2.2,0-4-0.6-5.3-1.8
				c-1.4-1.2-2.1-2.7-2.1-4.4c0-1.8,0.6-3.3,1.7-4.5c1.2-1.2,2.7-2,4.8-2.3l6.9-1.2c0-0.9-0.3-1.7-1-2.3s-1.6-0.9-2.8-0.9
				c-1,0-1.9,0.2-2.7,0.6c-0.8,0.4-1.4,0.8-1.7,1.1l-0.5,0.5l-3.3-3.3c0.1-0.1,0.2-0.3,0.4-0.5c0.2-0.2,0.5-0.5,1-1
				c0.5-0.5,1.1-0.9,1.7-1.3c0.6-0.4,1.4-0.7,2.5-1c1-0.3,2.1-0.5,3.1-0.5c2.8,0,5,0.8,6.8,2.5c1.7,1.7,2.6,3.7,2.6,6.2V99h-6V96.8z
				 M370.1,93.2c0.8-0.9,1.2-2.1,1.2-3.6v-0.7l-4.9,0.9c-1.6,0.3-2.5,1.1-2.5,2.5c0,1.5,1,2.2,2.9,2.2
				C368.2,94.5,369.2,94.1,370.1,93.2z"/>
			<path class="st0" d="M394.9,70.6h5.4v6.9h4.5v5.4h-4.5v8.7c0,0.7,0.3,1.3,0.8,1.7c0.5,0.5,1.1,0.7,1.9,0.7c0.4,0,0.8,0,1.1-0.1
				c0.4-0.1,0.7-0.2,0.8-0.3l0.3-0.1v5.2c-1.2,0.5-2.5,0.7-4,0.7c-4.6,0-6.9-2.5-6.9-7.6v-8.9h-3.8v-5.4h2c0.7,0,1.3-0.3,1.7-0.8
				c0.5-0.5,0.7-1.2,0.7-2.1V70.6z"/>
			<path class="st0" d="M413.5,90c0.2,1.2,0.9,2.2,1.9,3c1,0.8,2.3,1.2,3.9,1.2c1.1,0,2.2-0.2,3.2-0.7c1-0.4,1.7-0.9,2-1.3l0.6-0.7
				l3.1,4l-0.4,0.4c-0.2,0.2-0.6,0.5-1.2,0.9c-0.6,0.4-1.2,0.8-1.9,1.2c-0.7,0.3-1.5,0.6-2.6,0.9c-1.1,0.3-2.2,0.4-3.3,0.4
				c-3.2,0-6-1.1-8.2-3.4c-2.3-2.2-3.4-4.9-3.4-8.1c0-3.1,1.1-5.8,3.4-8.1c2.2-2.2,4.9-3.4,8.1-3.4c3.1,0,5.7,1,7.8,3.1
				c2.1,2.1,3.1,4.7,3.1,7.8l-0.2,2.4H413.5z M415.4,82.9c-0.9,0.7-1.5,1.7-1.9,2.9h10.1c-0.2-1.2-0.8-2.1-1.7-2.9
				c-0.9-0.8-2-1.1-3.2-1.1C417.4,81.8,416.3,82.2,415.4,82.9z"/>
			<path class="st0" d="M436.2,80c2.3-2.3,5.1-3.4,8.3-3.4c1.1,0,2.2,0.2,3.2,0.5c1,0.3,1.9,0.7,2.5,1.1c0.7,0.4,1.2,0.9,1.7,1.3
				c0.5,0.4,0.9,0.8,1.1,1.1l0.3,0.5l-3.8,3.8c-0.1-0.2-0.3-0.5-0.6-0.8c-0.3-0.3-0.9-0.8-1.7-1.3c-0.9-0.5-1.8-0.8-2.8-0.8
				c-1.6,0-3,0.6-4.1,1.8c-1.1,1.2-1.7,2.6-1.7,4.3c0,1.7,0.6,3.1,1.7,4.3c1.2,1.2,2.5,1.8,4.1,1.8c1,0,1.9-0.2,2.8-0.7
				c0.9-0.5,1.5-1,2-1.4l0.6-0.7l3.6,3.8c-0.1,0.1-0.2,0.3-0.4,0.5c-0.2,0.2-0.5,0.6-1.1,1.1s-1.2,0.9-1.8,1.3
				c-0.6,0.4-1.5,0.7-2.5,1.1c-1,0.3-2.1,0.5-3.2,0.5c-3.2,0-6-1.1-8.3-3.4c-2.3-2.3-3.5-4.9-3.5-8C432.7,85,433.9,82.3,436.2,80z"
				/>
			<path class="st0" d="M463.8,79.8c0.2-0.2,0.4-0.5,0.7-0.9s1-0.8,2.1-1.4c1.1-0.6,2.2-0.9,3.4-0.9c2.5,0,4.5,0.9,6.1,2.6
				c1.6,1.7,2.4,4.1,2.4,7V99h-6V86.9c0-1.3-0.4-2.4-1.2-3.2c-0.8-0.8-1.8-1.2-3.1-1.2c-1.4,0-2.5,0.4-3.3,1.3
				c-0.8,0.9-1.2,2.2-1.2,3.8V99h-6.1V67.7h6.1V79.8z"/>
		</g>
	</g>
	<g>
		<g>
			<path class="st0" d="M271.6,110.1c0.6-0.6,1.3-0.9,2.1-0.9c0.4,0,0.9,0.1,1.2,0.3c0.4,0.2,0.7,0.4,0.8,0.6l0.2,0.3l-0.8,0.8
				c0-0.1-0.1-0.1-0.2-0.2c-0.1-0.1-0.3-0.2-0.5-0.4c-0.3-0.2-0.5-0.2-0.9-0.2c-0.5,0-0.9,0.2-1.3,0.6c-0.4,0.4-0.5,0.8-0.5,1.4
				c0,0.5,0.2,1,0.5,1.3c0.4,0.4,0.8,0.6,1.3,0.6c0.3,0,0.6-0.1,0.9-0.2c0.3-0.2,0.5-0.3,0.6-0.4l0.2-0.2l0.8,0.8
				c0,0-0.1,0.1-0.1,0.1s-0.1,0.2-0.3,0.3c-0.2,0.1-0.3,0.3-0.5,0.4s-0.4,0.2-0.7,0.3s-0.5,0.1-0.8,0.1c-0.8,0-1.5-0.3-2.1-0.9
				c-0.6-0.6-0.9-1.3-0.9-2.1S271.1,110.7,271.6,110.1z"/>
			<path class="st0" d="M279.3,115l-2.3-5.7h1.2l1.7,4.2l1.7-4.2h1.2l-2.6,6.3c-0.3,0.7-0.6,1.2-0.9,1.5c-0.3,0.3-0.6,0.4-1.1,0.4
				c-0.2,0-0.3,0-0.4,0c-0.1,0-0.2,0-0.3-0.1l-0.1,0v-1.1c0.2,0.1,0.4,0.1,0.6,0.1c0.5,0,0.8-0.3,1-0.8L279.3,115z"/>
			<path class="st0" d="M289.2,110.1c0.6,0.6,0.8,1.3,0.8,2.1s-0.3,1.5-0.8,2.1c-0.6,0.6-1.2,0.9-2,0.9c-0.2,0-0.4,0-0.6-0.1
				c-0.2-0.1-0.4-0.1-0.5-0.2c-0.1-0.1-0.3-0.2-0.4-0.2c-0.1-0.1-0.2-0.1-0.2-0.2l-0.1-0.1v0.7h-1.2v-8.3h1.2v3.3
				c0.1-0.1,0.1-0.1,0.2-0.2c0.1-0.1,0.3-0.2,0.6-0.3c0.3-0.1,0.6-0.2,1-0.2C288,109.2,288.6,109.5,289.2,110.1z M288.3,113.5
				c0.3-0.4,0.5-0.8,0.5-1.3s-0.2-1-0.5-1.3c-0.3-0.4-0.7-0.6-1.2-0.6c-0.5,0-0.9,0.2-1.2,0.6c-0.4,0.4-0.5,0.8-0.5,1.3
				s0.2,1,0.5,1.3c0.4,0.4,0.8,0.6,1.2,0.6C287.6,114.1,287.9,113.9,288.3,113.5z"/>
			<path class="st0" d="M292.5,112.6c0.1,0.4,0.3,0.8,0.6,1c0.3,0.3,0.7,0.4,1.2,0.4c0.3,0,0.6-0.1,0.9-0.2c0.3-0.2,0.5-0.3,0.6-0.4
				l0.2-0.2l0.8,0.8c0,0-0.1,0.1-0.1,0.1c0,0.1-0.2,0.2-0.3,0.3c-0.2,0.1-0.3,0.3-0.5,0.4s-0.4,0.2-0.7,0.3
				c-0.3,0.1-0.6,0.1-0.9,0.1c-0.8,0-1.5-0.3-2.1-0.9c-0.6-0.6-0.9-1.3-0.9-2.1c0-0.8,0.3-1.5,0.9-2.1c0.6-0.6,1.3-0.9,2.1-0.9
				c0.8,0,1.5,0.3,2,0.8c0.5,0.5,0.8,1.2,0.8,2l-0.1,0.6H292.5z M293.1,110.6c-0.3,0.3-0.5,0.6-0.6,1h3.3c-0.1-0.4-0.2-0.7-0.5-1
				s-0.7-0.4-1.1-0.4C293.8,110.2,293.4,110.3,293.1,110.6z"/>
			<path class="st0" d="M301.4,110.3c-0.5,0-0.8,0.1-1.1,0.4c-0.3,0.3-0.4,0.7-0.4,1.2v3.1h-1.2v-5.7h1.2v0.6l0.1-0.1
				c0,0,0.1-0.1,0.2-0.2c0.1-0.1,0.2-0.2,0.4-0.2c0.1-0.1,0.3-0.1,0.5-0.2c0.2-0.1,0.4-0.1,0.6-0.1h0.3v1.1
				C301.7,110.3,301.6,110.3,301.4,110.3z"/>
			<path class="st0" d="M306.1,110.7c0,0-0.1-0.1-0.1-0.1s-0.2-0.1-0.4-0.2c-0.2-0.1-0.4-0.1-0.6-0.1c-0.3,0-0.5,0.1-0.6,0.2
				c-0.1,0.1-0.2,0.3-0.2,0.4c0,0.2,0.1,0.3,0.2,0.4s0.3,0.2,0.5,0.3c0.2,0.1,0.5,0.1,0.7,0.2c0.2,0.1,0.5,0.2,0.7,0.3
				c0.2,0.1,0.4,0.3,0.5,0.5c0.1,0.2,0.2,0.5,0.2,0.8c0,0.5-0.2,0.9-0.6,1.3c-0.4,0.3-0.9,0.5-1.5,0.5c-0.3,0-0.5,0-0.8-0.1
				c-0.3-0.1-0.5-0.2-0.6-0.2s-0.3-0.2-0.4-0.3c-0.1-0.1-0.2-0.2-0.3-0.3l-0.1-0.1l0.8-0.8c0,0.1,0.1,0.1,0.2,0.2
				c0.1,0.1,0.2,0.2,0.5,0.3c0.2,0.1,0.5,0.2,0.8,0.2c0.3,0,0.6-0.1,0.7-0.2c0.2-0.1,0.2-0.3,0.2-0.5c0-0.2-0.1-0.3-0.2-0.4
				c-0.1-0.1-0.3-0.2-0.5-0.3c-0.2-0.1-0.5-0.1-0.7-0.2c-0.2-0.1-0.5-0.2-0.7-0.3c-0.2-0.1-0.4-0.3-0.5-0.5
				c-0.1-0.2-0.2-0.5-0.2-0.8c0-0.4,0.2-0.8,0.6-1.2c0.4-0.3,0.9-0.5,1.4-0.5c0.2,0,0.5,0,0.7,0.1c0.2,0.1,0.4,0.1,0.5,0.2
				c0.1,0.1,0.3,0.2,0.4,0.2c0.1,0.1,0.2,0.1,0.2,0.2l0.1,0.1L306.1,110.7z"/>
			<path class="st0" d="M309.5,112.6c0.1,0.4,0.3,0.8,0.6,1c0.3,0.3,0.7,0.4,1.2,0.4c0.3,0,0.6-0.1,0.9-0.2c0.3-0.2,0.5-0.3,0.6-0.4
				l0.2-0.2l0.8,0.8c0,0-0.1,0.1-0.1,0.1c0,0.1-0.2,0.2-0.3,0.3c-0.2,0.1-0.3,0.3-0.5,0.4s-0.4,0.2-0.7,0.3
				c-0.3,0.1-0.6,0.1-0.9,0.1c-0.8,0-1.5-0.3-2.1-0.9c-0.6-0.6-0.9-1.3-0.9-2.1c0-0.8,0.3-1.5,0.9-2.1c0.6-0.6,1.3-0.9,2.1-0.9
				s1.5,0.3,2,0.8c0.5,0.5,0.8,1.2,0.8,2l-0.1,0.6H309.5z M310.2,110.6c-0.3,0.3-0.5,0.6-0.6,1h3.3c-0.1-0.4-0.2-0.7-0.5-1
				c-0.3-0.3-0.7-0.4-1.1-0.4C310.8,110.2,310.5,110.3,310.2,110.6z"/>
			<path class="st0" d="M316.3,110.1c0.6-0.6,1.3-0.9,2.1-0.9c0.4,0,0.9,0.1,1.2,0.3c0.4,0.2,0.7,0.4,0.8,0.6l0.2,0.3l-0.8,0.8
				c0-0.1-0.1-0.1-0.2-0.2c-0.1-0.1-0.3-0.2-0.5-0.4c-0.3-0.2-0.5-0.2-0.9-0.2c-0.5,0-0.9,0.2-1.3,0.6c-0.4,0.4-0.5,0.8-0.5,1.4
				c0,0.5,0.2,1,0.5,1.3c0.4,0.4,0.8,0.6,1.3,0.6c0.3,0,0.6-0.1,0.9-0.2c0.3-0.2,0.5-0.3,0.6-0.4l0.2-0.2l0.8,0.8
				c0,0-0.1,0.1-0.1,0.1c0,0.1-0.1,0.2-0.3,0.3c-0.2,0.1-0.3,0.3-0.5,0.4s-0.4,0.2-0.7,0.3c-0.3,0.1-0.5,0.1-0.8,0.1
				c-0.8,0-1.5-0.3-2.1-0.9c-0.6-0.6-0.9-1.3-0.9-2.1S315.7,110.7,316.3,110.1z"/>
			<path class="st0" d="M326.3,114.4L326.3,114.4c-0.1,0.1-0.2,0.2-0.3,0.2c-0.1,0.1-0.2,0.2-0.4,0.2c-0.1,0.1-0.3,0.1-0.5,0.2
				c-0.2,0.1-0.4,0.1-0.6,0.1c-0.7,0-1.2-0.2-1.7-0.7c-0.4-0.5-0.6-1.1-0.6-1.8v-3.3h1.2v3.3c0,0.4,0.1,0.8,0.4,1
				c0.3,0.3,0.6,0.4,1,0.4c0.5,0,0.8-0.1,1.1-0.4c0.3-0.3,0.4-0.7,0.4-1.2v-3.1h1.2v5.7h-1.2V114.4z"/>
			<path class="st0" d="M332.2,110.3c-0.5,0-0.8,0.1-1.1,0.4c-0.3,0.3-0.4,0.7-0.4,1.2v3.1h-1.2v-5.7h1.2v0.6l0.1-0.1
				c0,0,0.1-0.1,0.2-0.2c0.1-0.1,0.2-0.2,0.4-0.2c0.1-0.1,0.3-0.1,0.5-0.2c0.2-0.1,0.4-0.1,0.6-0.1h0.3v1.1
				C332.6,110.3,332.4,110.3,332.2,110.3z"/>
			<path class="st0" d="M335.3,108c-0.1,0.1-0.3,0.2-0.5,0.2c-0.2,0-0.4-0.1-0.5-0.2c-0.1-0.1-0.2-0.3-0.2-0.5
				c0-0.2,0.1-0.4,0.2-0.5c0.1-0.1,0.3-0.2,0.5-0.2c0.2,0,0.4,0.1,0.5,0.2c0.1,0.1,0.2,0.3,0.2,0.5
				C335.5,107.7,335.4,107.9,335.3,108z M335.3,115h-1.2v-5.7h1.2V115z"/>
			<path class="st0" d="M338.1,107.4h1.1v1.9h1.2v1.1h-1.2v3c0,0.2,0.1,0.4,0.2,0.5c0.1,0.1,0.3,0.2,0.5,0.2c0.1,0,0.2,0,0.3,0
				c0.1,0,0.2,0,0.2-0.1l0.1,0v1.1c-0.2,0.1-0.5,0.1-0.8,0.1c-1.1,0-1.7-0.6-1.7-1.8v-3h-1.1v-1.1h0.6c0.4,0,0.6-0.2,0.6-0.7V107.4z
				"/>
			<path class="st0" d="M343.9,115l-2.3-5.7h1.2l1.7,4.2l1.7-4.2h1.2l-2.6,6.3c-0.3,0.7-0.6,1.2-0.9,1.5c-0.3,0.3-0.6,0.4-1.1,0.4
				c-0.2,0-0.3,0-0.4,0c-0.1,0-0.2,0-0.3-0.1l-0.1,0v-1.1c0.2,0.1,0.4,0.1,0.6,0.1c0.5,0,0.8-0.3,1-0.8L343.9,115z"/>
			<path class="st0" d="M354.8,115v-0.6c0,0,0,0-0.1,0.1c0,0-0.1,0.1-0.2,0.2c-0.1,0.1-0.2,0.2-0.4,0.2c-0.1,0.1-0.3,0.1-0.5,0.2
				c-0.2,0.1-0.4,0.1-0.6,0.1c-0.6,0-1.1-0.2-1.4-0.5c-0.4-0.3-0.6-0.7-0.6-1.2c0-0.5,0.1-0.9,0.4-1.2c0.3-0.3,0.7-0.5,1.2-0.6
				l2.1-0.4c0-0.3-0.1-0.6-0.3-0.8c-0.2-0.2-0.5-0.3-0.9-0.3c-0.3,0-0.6,0.1-0.8,0.2c-0.2,0.1-0.4,0.3-0.5,0.4l-0.2,0.2l-0.8-0.8
				c0,0,0.1-0.1,0.1-0.1c0,0,0.1-0.1,0.3-0.3c0.1-0.1,0.3-0.2,0.5-0.3c0.2-0.1,0.4-0.2,0.6-0.3c0.3-0.1,0.5-0.1,0.8-0.1
				c0.7,0,1.3,0.2,1.7,0.6c0.4,0.4,0.7,0.9,0.7,1.5v3.7H354.8z M354.4,113.6c0.3-0.3,0.4-0.7,0.4-1.2v-0.1l-1.8,0.3
				c-0.2,0-0.4,0.1-0.5,0.3c-0.1,0.1-0.2,0.3-0.2,0.5c0,0.2,0.1,0.4,0.3,0.5s0.4,0.2,0.7,0.2C353.8,114.1,354.1,113.9,354.4,113.6z"
				/>
			<path class="st0" d="M359.2,109.9L359.2,109.9c0.1-0.1,0.2-0.2,0.3-0.2c0.1-0.1,0.2-0.2,0.4-0.2c0.1-0.1,0.3-0.1,0.5-0.2
				c0.2-0.1,0.4-0.1,0.6-0.1c0.7,0,1.2,0.2,1.7,0.7c0.4,0.5,0.6,1.1,0.6,1.8v3.3h-1.2v-3.3c0-0.4-0.1-0.8-0.4-1
				c-0.3-0.3-0.6-0.4-1-0.4c-0.5,0-0.8,0.1-1.1,0.4c-0.3,0.3-0.4,0.7-0.4,1.2v3.1H358v-5.7h1.2V109.9z"/>
			<path class="st0" d="M368.3,109.3c0.2,0.1,0.4,0.1,0.5,0.2c0.1,0.1,0.3,0.2,0.4,0.2c0.1,0.1,0.2,0.1,0.2,0.2l0.1,0.1v-3.3h1.2
				v8.3h-1.2v-0.7c-0.1,0.1-0.1,0.1-0.2,0.2c-0.1,0.1-0.3,0.2-0.6,0.3c-0.3,0.1-0.6,0.2-1,0.2c-0.8,0-1.4-0.3-2-0.9
				c-0.6-0.6-0.8-1.3-0.8-2.1s0.3-1.5,0.8-2.1c0.6-0.6,1.2-0.9,2-0.9C367.9,109.2,368.1,109.2,368.3,109.3z M369,113.5
				c0.3-0.4,0.5-0.8,0.5-1.3s-0.2-1-0.5-1.3c-0.3-0.4-0.7-0.6-1.2-0.6c-0.5,0-0.9,0.2-1.2,0.6s-0.5,0.8-0.5,1.3s0.2,1,0.5,1.3
				s0.8,0.6,1.2,0.6C368.3,114.1,368.7,113.9,369,113.5z"/>
			<path class="st0" d="M271.5,121h1.3v8.3h-1.3V121z"/>
			<path class="st0" d="M280.9,121v1.2h-2.5v7.1h-1.3v-7.1h-2.5V121H280.9z"/>
			<path class="st0" d="M286.2,122.3c-0.1,0.1-0.3,0.2-0.5,0.2c-0.2,0-0.4-0.1-0.5-0.2c-0.1-0.1-0.2-0.3-0.2-0.5
				c0-0.2,0.1-0.4,0.2-0.5c0.1-0.1,0.3-0.2,0.5-0.2c0.2,0,0.4,0.1,0.5,0.2c0.1,0.1,0.2,0.3,0.2,0.5
				C286.4,122,286.3,122.2,286.2,122.3z M286.3,129.3h-1.2v-5.7h1.2V129.3z"/>
			<path class="st0" d="M289.5,124.2L289.5,124.2c0.1-0.1,0.2-0.2,0.3-0.2c0.1-0.1,0.2-0.2,0.4-0.2c0.1-0.1,0.3-0.1,0.5-0.2
				c0.2-0.1,0.4-0.1,0.6-0.1c0.7,0,1.2,0.2,1.7,0.7c0.4,0.5,0.6,1.1,0.6,1.8v3.3h-1.2V126c0-0.4-0.1-0.8-0.4-1
				c-0.3-0.3-0.6-0.4-1-0.4c-0.5,0-0.8,0.1-1.1,0.4c-0.3,0.3-0.4,0.7-0.4,1.2v3.1h-1.2v-5.7h1.2V124.2z"/>
			<path class="st0" d="M298.4,124.6h-1.3v4.6h-1.2v-4.6h-0.8v-1.1h0.8v-1c0-1.2,0.6-1.8,1.7-1.8c0.1,0,0.3,0,0.4,0
				c0.1,0,0.2,0,0.3,0.1l0.1,0v1.1c-0.2-0.1-0.4-0.1-0.6-0.1c-0.2,0-0.4,0.1-0.5,0.2c-0.1,0.1-0.2,0.3-0.2,0.5v0.9h1.3V124.6z"/>
			<path class="st0" d="M302.7,124.5c-0.5,0-0.8,0.1-1.1,0.4s-0.4,0.7-0.4,1.2v3.1H300v-5.7h1.2v0.6l0.1-0.1c0,0,0.1-0.1,0.2-0.2
				c0.1-0.1,0.2-0.2,0.4-0.2c0.1-0.1,0.3-0.1,0.5-0.2c0.2-0.1,0.4-0.1,0.6-0.1h0.3v1.1C303,124.5,302.9,124.5,302.7,124.5z"/>
			<path class="st0" d="M307.9,129.3v-0.6c0,0,0,0-0.1,0.1c0,0-0.1,0.1-0.2,0.2c-0.1,0.1-0.2,0.2-0.4,0.2c-0.1,0.1-0.3,0.1-0.5,0.2
				c-0.2,0.1-0.4,0.1-0.6,0.1c-0.6,0-1.1-0.2-1.4-0.5c-0.4-0.3-0.6-0.7-0.6-1.2c0-0.5,0.1-0.9,0.4-1.2c0.3-0.3,0.7-0.5,1.2-0.6
				l2.1-0.4c0-0.3-0.1-0.6-0.3-0.8c-0.2-0.2-0.5-0.3-0.9-0.3c-0.3,0-0.6,0.1-0.8,0.2c-0.2,0.1-0.4,0.3-0.5,0.4l-0.2,0.2l-0.8-0.8
				c0,0,0.1-0.1,0.1-0.1c0,0,0.1-0.1,0.3-0.3c0.1-0.1,0.3-0.2,0.5-0.3c0.2-0.1,0.4-0.2,0.6-0.3c0.3-0.1,0.5-0.1,0.8-0.1
				c0.7,0,1.3,0.2,1.7,0.6c0.4,0.4,0.7,0.9,0.7,1.5v3.7H307.9z M307.5,127.9c0.3-0.3,0.4-0.7,0.4-1.2v-0.1l-1.8,0.3
				c-0.2,0-0.4,0.1-0.5,0.3c-0.1,0.1-0.2,0.3-0.2,0.5c0,0.2,0.1,0.4,0.3,0.5c0.2,0.1,0.4,0.2,0.7,0.2
				C306.8,128.3,307.2,128.2,307.5,127.9z"/>
			<path class="st0" d="M314,125c0,0-0.1-0.1-0.1-0.1c-0.1-0.1-0.2-0.1-0.4-0.2c-0.2-0.1-0.4-0.1-0.6-0.1c-0.3,0-0.5,0.1-0.6,0.2
				c-0.1,0.1-0.2,0.3-0.2,0.4c0,0.2,0.1,0.3,0.2,0.4s0.3,0.2,0.5,0.3c0.2,0.1,0.5,0.1,0.7,0.2c0.2,0.1,0.5,0.2,0.7,0.3
				c0.2,0.1,0.4,0.3,0.5,0.5s0.2,0.5,0.2,0.8c0,0.5-0.2,0.9-0.6,1.3c-0.4,0.3-0.9,0.5-1.5,0.5c-0.3,0-0.5,0-0.8-0.1
				c-0.3-0.1-0.5-0.2-0.6-0.2c-0.2-0.1-0.3-0.2-0.4-0.3c-0.1-0.1-0.2-0.2-0.3-0.3l-0.1-0.1l0.8-0.8c0,0.1,0.1,0.1,0.2,0.2
				c0.1,0.1,0.2,0.2,0.5,0.3c0.2,0.1,0.5,0.2,0.8,0.2c0.3,0,0.6-0.1,0.7-0.2c0.2-0.1,0.2-0.3,0.2-0.5c0-0.2-0.1-0.3-0.2-0.4
				c-0.1-0.1-0.3-0.2-0.5-0.3c-0.2-0.1-0.5-0.1-0.7-0.2c-0.2-0.1-0.5-0.2-0.7-0.3c-0.2-0.1-0.4-0.3-0.5-0.5
				c-0.1-0.2-0.2-0.5-0.2-0.8c0-0.4,0.2-0.8,0.6-1.2c0.4-0.3,0.9-0.5,1.4-0.5c0.2,0,0.5,0,0.7,0.1c0.2,0.1,0.4,0.1,0.5,0.2
				c0.1,0.1,0.3,0.2,0.4,0.2c0.1,0.1,0.2,0.1,0.2,0.2l0.1,0.1L314,125z"/>
			<path class="st0" d="M317.3,121.7h1.1v1.9h1.2v1.1h-1.2v3c0,0.2,0.1,0.4,0.2,0.5c0.1,0.1,0.3,0.2,0.5,0.2c0.1,0,0.2,0,0.3,0
				c0.1,0,0.2,0,0.2-0.1l0.1,0v1.1c-0.2,0.1-0.5,0.1-0.8,0.1c-1.1,0-1.7-0.6-1.7-1.8v-3h-1.1v-1.1h0.6c0.4,0,0.6-0.2,0.6-0.7V121.7z
				"/>
			<path class="st0" d="M324.2,124.5c-0.5,0-0.8,0.1-1.1,0.4c-0.3,0.3-0.4,0.7-0.4,1.2v3.1h-1.2v-5.7h1.2v0.6l0.1-0.1
				c0,0,0.1-0.1,0.2-0.2c0.1-0.1,0.2-0.2,0.4-0.2c0.1-0.1,0.3-0.1,0.5-0.2c0.2-0.1,0.4-0.1,0.6-0.1h0.3v1.1
				C324.5,124.5,324.4,124.5,324.2,124.5z"/>
			<path class="st0" d="M330.1,128.7L330.1,128.7c-0.1,0.1-0.2,0.2-0.3,0.2c-0.1,0.1-0.2,0.2-0.4,0.2c-0.1,0.1-0.3,0.1-0.5,0.2
				c-0.2,0.1-0.4,0.1-0.6,0.1c-0.7,0-1.2-0.2-1.7-0.7c-0.4-0.5-0.6-1.1-0.6-1.8v-3.3h1.2v3.3c0,0.4,0.1,0.8,0.4,1
				c0.3,0.3,0.6,0.4,1,0.4c0.5,0,0.8-0.1,1.1-0.4c0.3-0.3,0.4-0.7,0.4-1.2v-3.1h1.2v5.7h-1.2V128.7z"/>
			<path class="st0" d="M333.8,124.3c0.6-0.6,1.3-0.9,2.1-0.9c0.4,0,0.9,0.1,1.2,0.3c0.4,0.2,0.7,0.4,0.8,0.6l0.2,0.3l-0.8,0.8
				c0-0.1-0.1-0.1-0.2-0.2c-0.1-0.1-0.3-0.2-0.5-0.4c-0.3-0.2-0.5-0.2-0.9-0.2c-0.5,0-0.9,0.2-1.3,0.6c-0.4,0.4-0.5,0.8-0.5,1.4
				c0,0.5,0.2,1,0.5,1.3c0.4,0.4,0.8,0.6,1.3,0.6c0.3,0,0.6-0.1,0.9-0.2c0.3-0.2,0.5-0.3,0.6-0.4l0.2-0.2l0.8,0.8
				c0,0-0.1,0.1-0.1,0.1c0,0.1-0.1,0.2-0.3,0.3c-0.2,0.1-0.3,0.3-0.5,0.4c-0.2,0.1-0.4,0.2-0.7,0.3c-0.3,0.1-0.5,0.1-0.8,0.1
				c-0.8,0-1.5-0.3-2.1-0.9c-0.6-0.6-0.9-1.3-0.9-2.1S333.3,124.9,333.8,124.3z"/>
			<path class="st0" d="M340.6,121.7h1.1v1.9h1.2v1.1h-1.2v3c0,0.2,0.1,0.4,0.2,0.5c0.1,0.1,0.3,0.2,0.5,0.2c0.1,0,0.2,0,0.3,0
				c0.1,0,0.2,0,0.2-0.1l0.1,0v1.1c-0.2,0.1-0.5,0.1-0.8,0.1c-1.1,0-1.7-0.6-1.7-1.8v-3h-1.1v-1.1h0.6c0.4,0,0.6-0.2,0.6-0.7V121.7z
				"/>
			<path class="st0" d="M348.8,128.7L348.8,128.7c-0.1,0.1-0.2,0.2-0.3,0.2c-0.1,0.1-0.2,0.2-0.4,0.2c-0.1,0.1-0.3,0.1-0.5,0.2
				s-0.4,0.1-0.6,0.1c-0.7,0-1.2-0.2-1.7-0.7c-0.4-0.5-0.6-1.1-0.6-1.8v-3.3h1.2v3.3c0,0.4,0.1,0.8,0.4,1c0.3,0.3,0.6,0.4,1,0.4
				c0.5,0,0.8-0.1,1.1-0.4c0.3-0.3,0.4-0.7,0.4-1.2v-3.1h1.2v5.7h-1.2V128.7z"/>
			<path class="st0" d="M354.7,124.5c-0.5,0-0.8,0.1-1.1,0.4c-0.3,0.3-0.4,0.7-0.4,1.2v3.1H352v-5.7h1.2v0.6l0.1-0.1
				c0,0,0.1-0.1,0.2-0.2c0.1-0.1,0.2-0.2,0.4-0.2c0.1-0.1,0.3-0.1,0.5-0.2c0.2-0.1,0.4-0.1,0.6-0.1h0.3v1.1
				C355.1,124.5,354.9,124.5,354.7,124.5z"/>
			<path class="st0" d="M357.4,126.8c0.1,0.4,0.3,0.8,0.6,1s0.7,0.4,1.2,0.4c0.3,0,0.6-0.1,0.9-0.2c0.3-0.2,0.5-0.3,0.6-0.4l0.2-0.2
				l0.8,0.8c0,0-0.1,0.1-0.1,0.1c0,0.1-0.2,0.2-0.3,0.3c-0.2,0.1-0.3,0.3-0.5,0.4c-0.2,0.1-0.4,0.2-0.7,0.3
				c-0.3,0.1-0.6,0.1-0.9,0.1c-0.8,0-1.5-0.3-2.1-0.9c-0.6-0.6-0.9-1.3-0.9-2.1c0-0.8,0.3-1.5,0.9-2.1c0.6-0.6,1.3-0.9,2.1-0.9
				s1.5,0.3,2,0.8c0.5,0.5,0.8,1.2,0.8,2l-0.1,0.6H357.4z M358,124.9c-0.3,0.3-0.5,0.6-0.6,1h3.3c-0.1-0.4-0.2-0.7-0.5-1
				c-0.3-0.3-0.7-0.4-1.1-0.4C358.7,124.5,358.3,124.6,358,124.9z"/>
		</g>
	</g>
</g>
</svg>
